<svg enable-background="new 0 0 160 160" viewBox="0 0 160 160" xmlns="http://www.w3.org/2000/svg"><path clip-rule="evenodd" d="m150.5 80c0 38.9-31.6 70.5-70.5 70.5s-70.5-31.6-70.5-70.5 31.6-70.5 70.5-70.5 70.5 31.6 70.5 70.5z" fill="#8bb6de" fill-rule="evenodd"/><g fill="#fff"><path d="m97.3 74.7c-.2 0-.5-.1-.6-.3-2.5-3.1-6.1-4.9-10.1-4.9-4.9 0-9.6 1.8-13.3 5-.3.3-.8.3-1.1-.1-.3-.3-.3-.8.1-1.1 4-3.5 9.1-5.4 14.3-5.4 4.4 0 8.6 2 11.3 5.5.3.3.2.8-.1 1.1-.1.2-.3.2-.5.2z"/><path d="m98.8 78.6h-31.2c-.4 0-.8-.4-.8-.8s.4-.8.8-.8h31.2c.4 0 .8.4.8.8 0 .5-.4.8-.8.8z"/><path d="m81 90.5c-.4 0-.8-.4-.8-.8v-11.9c0-.4.4-.8.8-.8s.8.4.8.8v11.9c0 .5-.4.8-.8.8z"/><path d="m66.9 94.9c-2.8 0-5.1-2.3-5.1-5.1s2.3-5.1 5.1-5.1 5.1 2.3 5.1 5.1-2.3 5.1-5.1 5.1zm0-8.7c-2 0-3.5 1.6-3.5 3.5 0 2 1.6 3.5 3.5 3.5 2 0 3.5-1.6 3.5-3.5s-1.6-3.5-3.5-3.5z"/><path d="m92.3 94.9c-2.8 0-5.1-2.3-5.1-5.1s2.3-5.1 5.1-5.1 5.1 2.3 5.1 5.1c.1 2.8-2.2 5.1-5.1 5.1zm0-8.7c-2 0-3.5 1.6-3.5 3.5 0 2 1.6 3.5 3.5 3.5 2 0 3.5-1.6 3.5-3.5.1-1.9-1.5-3.5-3.5-3.5z"/><path d="m101.7 90.5h-5c-.4 0-.8-.4-.8-.8 0-2-1.6-3.5-3.5-3.5-2 0-3.5 1.6-3.5 3.5 0 .4-.4.8-.8.8h-16.9c-.4 0-.8-.4-.8-.8 0-2-1.6-3.5-3.5-3.5-2 0-3.5 1.6-3.5 3.5 0 .4-.4.8-.8.8h-4.2c-2.3 0-4.2-1.9-4.2-4.2v-1.6c0-4.3 3.2-8 7.5-8.6 1.9-.2 3.6-1.1 4.9-2.5 5.3-5.4 12.7-8.5 20.2-8.5 9.6 0 17.6 7.2 18.6 16.7l.4 4c.1 1.2-.3 2.4-1.1 3.3-.7.9-1.8 1.4-3 1.4zm-4.3-1.6h4.2c.7 0 1.5-.3 2-.9s.7-1.3.7-2l-.4-4c-.9-8.7-8.3-15.3-17-15.3-7.1 0-14.1 2.9-19.1 8-1.6 1.7-3.7 2.7-5.9 3-3.5.5-6.2 3.5-6.2 7v1.6c0 1.5 1.2 2.6 2.6 2.6h3.5c.4-2.5 2.5-4.3 5.1-4.3s4.7 1.9 5.1 4.3h15.3c.4-2.5 2.5-4.3 5.1-4.3 2.5 0 4.6 1.9 5 4.3z"/><path d="m86.6 74.7c-.4 0-.8-.4-.8-.8v-5.2c0-.4.4-.8.8-.8s.8.4.8.8v5.2c0 .5-.4.8-.8.8z"/><path d="m56.2 86.2h-1.3c-.4 0-.8-.4-.8-.8v-.7c0-2 .7-4 2-5.5.2-.2.5-.3.7-.3 1.9.3 3.2 2.1 3 4-.1 1.9-1.7 3.3-3.6 3.3zm-.5-1.6h.5c1.1 0 1.9-.8 2.1-1.8.1-.9-.4-1.8-1.3-2.2-.8 1.2-1.3 2.6-1.3 4z"/></g></svg>