<svg enable-background="new 0 0 160 160" viewBox="0 0 160 160" xmlns="http://www.w3.org/2000/svg"><path clip-rule="evenodd" d="m150.5 80c0 38.9-31.6 70.5-70.5 70.5s-70.5-31.6-70.5-70.5 31.6-70.5 70.5-70.5 70.5 31.6 70.5 70.5z" fill="#8bb6de" fill-rule="evenodd"/><g fill="#fff"><path d="m60 50.5c-11.4 0-20.6 9.2-20.6 20.6s9.3 20.6 20.6 20.6c11.4 0 20.6-9.2 20.6-20.6s-9.2-20.6-20.6-20.6zm19.1 19.4-1.5 1.1-5.1-4 1.8-6.2h1.9c1.7 2.8 2.7 5.8 2.9 9.1zm-3.9-10.5h-1.3c-.4 0-.7.2-.9.6l-2 6.8-3.1.8-7.2-4.9v-3.4l5.8-3.9c.3-.2.4-.6.3-1l-.4-1.3c3.5 1.3 6.5 3.5 8.8 6.3zm-8.3 9.3-2.8 8.2h-8.1l-2.8-8.2 6.8-4.7zm-11.5-16.1c1.5-.4 3.1-.6 4.7-.6s3.2.2 4.7.6l.6 1.8-5.4 3.7-5.3-3.6zm-1.8.5-.4 1.3c-.1.4 0 .8.3 1l5.8 3.9v3.4l-7.2 4.9-3.1-.8-1.9-6.8c-.1-.4-.5-.6-.9-.6h-1.3c2.2-2.8 5.2-5 8.7-6.3zm-9.7 7.8h1.9l1.8 6.2-5.1 4-1.5-1.2c.2-3.3 1.2-6.3 2.9-9zm.8 19.7-.4 1.3c-2-2.9-3.2-6.4-3.3-10.2l1.1.8c.2.1.3.2.5.2s.4-.1.5-.2l5.5-4.3 3.1.8 2.9 8.5-2.1 2.7-6.9-.2c-.4 0-.8.2-.9.6zm8.3 8.3c-3-1.2-5.6-3.1-7.6-5.5l.6-1.9 6.4.2 2.2 6.1zm7 1.3c-1.9 0-3.7-.3-5.4-.8l1.1-.8c.3-.2.4-.7.3-1l-2.4-6.6 2.1-2.7h8.4l2.1 2.7-2.2 6.6c-.2.4-.1.8.3 1.1l1.1.8c-1.7.5-3.5.7-5.4.7zm7.1-1.3-1.6-1.1 2.2-6.1 6.4-.2.6 1.9c-2 2.4-4.6 4.3-7.6 5.5zm8.3-8.3c-.1-.4-.5-.7-.9-.6l-7 .2-2.1-2.7 2.9-8.5 3.1-.8 5.6 4.3c.2.1.3.2.5.2s.4-.1.5-.2l1.1-.8c-.1 3.8-1.3 7.3-3.3 10.2z"/><path d="m62.6 54.9h.2c.3 0 .6-.2.7-.5.1-.4-.1-.8-.5-.9-2-.6-4-.6-6 0-.4.1-.6.5-.5.9s.5.6.9.5c1.8-.5 3.5-.5 5.2 0z"/><path d="m43.1 69.3c.4 0 .7-.3.7-.7 0-1.7.5-3.4 1.6-4.8.2-.3.2-.8-.2-1-.3-.2-.8-.2-1 .2-1.2 1.7-1.9 3.6-1.9 5.7.1.2.4.6.8.6z"/><path d="m48.5 82.7c-.2-.3-.7-.4-1-.2s-.4.7-.2 1c1.2 1.7 2.9 2.9 4.8 3.5h.2c.3 0 .6-.2.7-.5.1-.4-.1-.8-.5-.9-1.6-.4-3-1.4-4-2.9z"/><path d="m71.6 82.7c-1 1.4-2.4 2.4-4.1 3-.4.1-.6.5-.5.9.1.3.4.5.7.5h.2c2-.6 3.6-1.9 4.8-3.5.2-.3.2-.8-.2-1-.2-.3-.6-.2-.9.1z"/><path d="m76.2 68.5c0 .4.3.7.7.7s.7-.3.7-.7c0-2.1-.6-4-1.9-5.7-.2-.3-.7-.4-1-.2s-.4.7-.2 1c1.2 1.5 1.7 3.2 1.7 4.9z"/><path d="m56.3 69.5 1.6-1c.3-.2.5-.7.2-1-.2-.3-.7-.5-1-.2l-2 1.2c-.4.2-.5.7-.4 1.1l2.1 5.7c.1.3.4.5.7.5h.3c.4-.1.6-.6.4-.9z"/><path d="m71.8 94.4c0-.1.1-.2.1-.2.2-.1.4-.1.5 0l3.3 3.8c.1.2.1.4 0 .5-.2.1-.4.1-.5 0l-3.3-3.8c-.1-.1-.1-.2-.1-.3z"/><path d="m73.4 92.7c0-.1.1-.2.1-.2.2-.1.4-.1.5 0l3.6 4c.1.2.1.4 0 .5-.2.1-.4.1-.5 0l-3.6-4c-.1-.1-.1-.2-.1-.3z"/><path d="m51.3 112.8c0-.1.1-.2.2-.3 7.9-6.5 15.8-13.7 21.8-19.9 7.2-7.4 14.5-14.5 21.8-21.1l16-14.6c1.1-1 2.7-1 4.1-.1 1.4 1 2.6 2.3 3.4 3.8s.6 3.3-.6 4.2l-16.5 13.7c-8.3 6.8-16.5 13.3-24.8 19.3-7.4 5.5-15.7 12.3-22.2 18.4-.1.1-.2.1-.3.1-2.3-.2-2.4-.4-2.5-.6s-.2-1.1-.5-2.7c.1-.1.1-.1.1-.2zm66.7-50c.1-.5 0-1.2-.3-1.7-.7-1.4-1.7-2.5-3.1-3.4-1-.7-2.2-.7-3 0l-16 14.6c-7.2 6.6-14.5 13.7-21.7 21.1-6 6.1-13.9 13.3-21.7 19.8.1.9.3 1.8.3 2.1.3.1.9.2 1.5.2 6.4-6 14.7-12.9 22.1-18.3 8.2-6 16.5-12.5 24.6-19.2l16.5-13.7c.5-.5.7-1 .8-1.5z" stroke="#fff" stroke-miterlimit="10" stroke-width=".7352"/><path d="m100.9 84.5c.3-2.8 2.5-5.2 5.4-5.6 3.5-.5 6.8 1.9 7.3 5.4s-1.9 6.8-5.4 7.3c-1.7.3-3.4-.2-4.8-1.2s-2.3-2.5-2.5-4.2c-.1-.5-.1-1.1 0-1.7zm12.2 1.5c.1-.5.1-1 0-1.5-.5-3.2-3.5-5.5-6.7-5s-5.5 3.5-5 6.7c.2 1.6 1.1 2.9 2.3 3.9 1.3.9 2.8 1.3 4.4 1.1 2.7-.5 4.7-2.7 5-5.2z" stroke="#fff" stroke-miterlimit="10" stroke-width=".3676"/><path d="m101.4 83.6c.1-.5.2-.9.4-1.5 0-.1.1-.1.2-.1s.1.1.1.2c-.5 1-.6 1.9-.3 2.6.6 1.6 2.7 2.5 4.6 3.3s3.5 1.5 3.5 2.7c0 .1 0 .1-.1.1s-.1 0-.1-.1c-.1-1-1.7-1.7-3.4-2.5-1.9-.8-4.1-1.8-4.7-3.5-.3-.3-.3-.7-.2-1.2z"/><path d="m104.3 79.8s0-.1.1-.1c4-1.7 5.8 1.7 7.1 4.2.7 1.3 1.2 2.4 1.9 2.4.1 0 .1.1.1.1 0 .1-.1.1-.1.1-.8 0-1.4-1.1-2.1-2.5-1.3-2.5-2.9-5.7-6.7-4.1-.2 0-.2 0-.3-.1z"/><path d="m109.1 90.5s.1-.1 0 0l.4-.1.2-.4s.1-.1.1 0c0 0 .1.1 0 .1l-.3.4s0 0-.1 0l-.4.1c.2 0 .1 0 .1-.1z"/><path d="m112.8 86.7.1-.5v-.1l.3-.2h.1v.1l-.3.2-.1.4c0 .1-.1.1-.1.1 0 .1-.1.1 0 0z"/><path d="m111.9 85.9.2-.5s0 0 .1-.1l.4-.1c.1 0 .1 0 .1.1s0 .1-.1.1l-.3.1-.2.4c0 .1-.1.1-.1 0-.1.1-.1.1-.1 0z"/><path d="m111.4 85.1.3-.5s0 0 .1-.1l.4-.1c.1 0 .1 0 .1.1s0 .1-.1.1l-.3.1-.2.4c0 .1-.1.1-.1 0-.2.1-.2.1-.2 0z"/><path d="m110.9 84.3s.1 0 0 0l.3-.4h.1l.4-.1c.1 0 .1 0 .1.1s0 .1-.1.1h-.3l-.3.4s-.1 0-.2-.1c.1.1 0 0 0 0z"/><path d="m110.4 83.3.3-.4h.1l.4-.1c.1 0 .1 0 .1.1s0 .1-.1.1h-.3l-.3.4s-.1.1-.2-.1c0 .1 0 .1 0 0z"/><path d="m110 82.5.3-.5s0 0 .1-.1l.4-.1c.1 0 .1 0 .1.1s0 .1-.1.1l-.3.1-.2.4c0 .1-.1.1-.1 0-.2.1-.2 0-.2 0z"/><path d="m109.4 81.6.3-.5s0 0 .1-.1l.4-.1c.1 0 .1 0 .1.1s0 .1-.1.1l-.3.1-.2.4c0 .1-.1.1-.1 0-.2.1-.2.1-.2 0z"/><path d="m108.8 80.9.3-.5s0 0 .1-.1l.4-.1c.1 0 .1 0 .1.1s0 .1-.1.1l-.3.1-.2.4c0 .1-.1.1-.1 0-.2.1-.3 0-.2 0z"/><path d="m108.2 79.9.4-.3h.1v.1l-.3.2v.4c0 .1-.1.1-.1.1-.1 0-.1-.1-.1-.1z"/><path d="m107.3 79.4.4-.3h.1v.1l-.3.2v.4c0 .1-.1.1-.1.1-.1 0-.1-.1-.1-.1z"/><path d="m108.6 90c0-.1 0-.1 0 0l.4-.2.2-.4c0-.1.1-.1.1-.1.1 0 .1.1.1.1l-.2.4s0 0-.1.1l-.4.2s-.1 0-.1-.1z"/><path d="m107.8 89.5.3-.3.1-.4c0-.1.1-.1.1-.1s.1.1.1.1l-.1.5v.1l-.3.2c-.1 0-.1 0-.2-.1z"/><path d="m106.8 89s.1 0 0 0l.3-.3.1-.4c0-.1.1-.1.1-.1s.1.1.1.1l-.1.5v.1l-.3.2c0 .1-.1 0-.2-.1z"/><path d="m105.9 88.6.3-.3v-.4c0-.1.1-.1.1-.1.1 0 .1.1.1.1v.5.1l-.3.3c-.1-.1-.2-.1-.2-.2z"/><path d="m104.8 88.2c0-.1 0-.1 0 0l.3-.3v-.4c0-.1.1-.1.1-.1.1 0 .1.1.1.1v.5.1l-.3.3c-.1-.1-.1-.1-.2-.2z"/><path d="m103.8 87.6.3-.3v-.4c0-.1.1-.1.1-.1.1 0 .1.1.1.1v.5.1l-.3.3c-.1 0-.1 0-.2-.2 0 .1 0 .1 0 0z"/><path d="m102.7 87c0-.1 0-.1 0 0l.3-.3.1-.4c0-.1.1-.1.1-.1.1 0 .1.1.1.1l-.1.5v.1l-.3.2c-.1 0-.1 0-.2-.1z"/><path d="m102 86.3.4-.2.2-.4c0-.1.1-.1.1 0 .1 0 .1.1 0 .1l-.2.4s0 0-.1.1l-.4.2c.1 0 0-.1 0-.2 0 .1 0 .1 0 0z"/><path d="m101.4 85.5.4-.2.3-.3s.1-.1.1 0c0 0 .1.1 0 .1l-.3.4s0 0-.1 0l-.4.1c.1.1 0 0 0-.1z"/><path d="m101 84.7c0-.1.1-.1.1-.1h.4l.3-.3h.1v.1l-.4.3s0 0-.1 0h-.4c.1.1 0 .1 0 0z"/><circle cx="109.6" cy="83.8" opacity=".3" r=".1"/></g></svg>