<svg enable-background="new 0 0 160 160" viewBox="0 0 160 160" xmlns="http://www.w3.org/2000/svg"><path clip-rule="evenodd" d="m150.5 80c0 38.9-31.6 70.5-70.5 70.5s-70.5-31.6-70.5-70.5 31.6-70.5 70.5-70.5 70.5 31.6 70.5 70.5z" fill="#8bb6de" fill-rule="evenodd"/><g stroke="#fff" stroke-linecap="round" stroke-linejoin="round" stroke-miterlimit="10" stroke-width="1.7605"><path d="m115.2 96.7c-24.7 0-13.3-43.9-35.2-43.9s-10.5 43.9-35.2 43.9" fill="none"/><path d="m80 57.2v49.7" fill="none"/><path d="m87 61v45.9" fill="none"/><path d="m94.1 80.3v26.6" fill="none"/><path d="m101.1 94.7v12.2" fill="none"/><path d="m108.2 99.5v7.4" fill="none"/><path d="m115.2 101.1v5.8" fill="none"/><path d="m44.8 101.1v5.8" fill="none"/><path d="m51.8 99.5v7.4" fill="none"/><path d="m58.9 94.7v12.2" fill="none"/><path d="m65.9 80.3v26.6" fill="none"/><path d="m73 61v45.9" fill="none"/><path d="m44.8 111.3h70.4" fill="none"/><path d="m101.7 63.7c1.3 3.5-.3 5-1.7 5.8-.4.2-.9 0-1-.4l-2.1-5.8c-.2-.6.1-1.3.7-1.5l2-.7c.6-.2 1.3.1 1.5.7z" fill="#9cc9ea"/><path d="m96.9 53.5 1.7 2.8c.3.5.2 1.2-.4 1.6l-1.9 1.1c-.5.3-1.2.2-1.6-.4l-1.7-2.8c-.3-.5-.2-1.2.4-1.6l1.8-1.1c.7-.3 1.4-.1 1.7.4z" fill="#9cc9ea"/><path d="m89.5 46.9 2.7 1.8c.5.3.7 1.1.3 1.6l-1.2 1.8c-.3.5-1.1.7-1.6.3l-2.7-1.8c-.5-.3-.7-1.1-.3-1.6l1.2-1.8c.4-.5 1.1-.7 1.6-.3z" fill="#9cc9ea"/><path d="m79.6 44.7 3.2.2c.6.1 1.1.6 1.1 1.2l-.2 2.1c-.1.6-.6 1.1-1.2 1.1l-3.2-.2c-.6-.1-1.1-.6-1.1-1.2l.2-2.1c0-.6.6-1.1 1.2-1.1z" fill="#9cc9ea"/></g></svg>