<svg enable-background="new 0 0 160 160" viewBox="0 0 160 160" xmlns="http://www.w3.org/2000/svg"><path clip-rule="evenodd" d="m150.5 80c0 38.9-31.6 70.5-70.5 70.5s-70.5-31.6-70.5-70.5 31.6-70.5 70.5-70.5 70.5 31.6 70.5 70.5z" fill="#8bb6de" fill-rule="evenodd"/><g fill="#fff"><path d="m63.9 99.5c-.6 0-1 .5-1 1 0 .6.4 1 1 1s1-.5 1-1-.4-1-1-1z"/><path d="m96.5 99.5c-.6 0-1 .5-1 1 0 .6.5 1 1 1 .6 0 1-.5 1-1s-.5-1-1-1z"/><path d="m93.2 85.8h-3.9c-.5 0-1 .4-1 1v1.9c0 .5.4 1 1 1 .5 0 1-.4 1-1v-.9h3c.5 0 1-.4 1-1-.2-.5-.6-1-1.1-1z"/><path d="m105.3 80.8h-3.2l-6.3-13.6c-1.2-2.6-3.9-4.3-6.8-4.3h-5.3c-.5 0-.9.4-.9.9v12.5h-2.8v-10.5c0-.5-.4-1-.9-1h-.9v-10.4c0-.5-.4-1-1-1h-11.5c-.5 0-.9.4-.9 1v11.4c0 .5.4 1 .9 1h.9v9.5h-2.9v-10.5c0-.5-.4-1-1-1h-11.3c-.5 0-1 .4-1 1v10.4h-1c-.5 0-1 .4-1 1v18.1c0 3.4 2.7 6.1 6.1 6.1h3.5c.5 2.8 2.9 5 5.9 5s5.4-2.2 5.9-5h20.8c.5 2.8 2.9 5 5.9 5s5.4-2.2 5.9-5h3c3.4 0 6.1-2.7 6.1-6.1v-8.5c0-3.3-2.8-6-6.2-6zm-27.3-14v9.5h-9.5v-9.5zm-11.3-11.4h9.5v9.5h-9.5zm4.6 22.8v9.5h-9.5v-9.5zm-18.9-11.4h9.5v9.5h-9.5zm-2 11.4h9.5v9.5h-9.5zm13.5 26.4c-2.2 0-4.1-1.8-4.1-4.1 0-2.2 1.8-4.1 4.1-4.1 2.2 0 4.1 1.8 4.1 4.1s-1.9 4.1-4.1 4.1zm18.8-5h-12.9c-.5-2.8-2.9-5-5.9-5s-5.4 2.2-5.9 5h-3.4c-2.3 0-4.2-1.9-4.2-4.2v-5.8h32.3zm0-11.9h-9.5v-9.5h9.5zm12.2-17.8 5.1 10.9h-9.8v-10.9zm1.6 34.7c-2.2 0-4.1-1.8-4.1-4.1 0-2.2 1.8-4.1 4.1-4.1 2.2 0 4.1 1.8 4.1 4.1-.1 2.3-1.9 4.1-4.1 4.1zm13.1-11.2h-2.6c-.9 0-1.5-.7-1.5-1.5v-1.1c0-.8.7-1.5 1.5-1.5h2.6zm0-6.1h-2.6c-1.9 0-3.5 1.5-3.5 3.4v1.1c0 1.9 1.5 3.4 3.5 3.4h2.6v.1c0 2.3-1.9 4.2-4.2 4.2h-3c-.5-2.8-2.9-5-5.9-5s-5.4 2.2-5.9 5h-6v-34.7h4.4c2.1 0 4.1 1.3 5 3.2h-4.8c-.5 0-1 .4-1 1v12.8c0 .5.4 1 1 1h16.1c2.3 0 4.2 1.9 4.2 4.2v.3z"/><path d="m83.7 50.6c-.5 0-1 .4-1 1v23.8c0 .5.4 1 1 1 .5 0 1-.4 1-1v-23.9c-.1-.5-.5-.9-1-.9z"/><path d="m49.5 50.6c-.5 0-1 .4-1 1v26.8c0 .5.4 1 1 1 .5 0 1-.4 1-1v-26.9c-.1-.5-.5-.9-1-.9z"/><path d="m84.6 51.5c0-.5-.4-1-1-1h-34.1c-.5 0-1 .4-1 1 0 .5.4 1 1 1h34.2c.5 0 .9-.5.9-1z"/></g></svg>