<svg enable-background="new 0 0 160 160" viewBox="0 0 160 160" xmlns="http://www.w3.org/2000/svg"><path clip-rule="evenodd" d="m150.5 80c0 38.9-31.6 70.5-70.5 70.5s-70.5-31.6-70.5-70.5 31.6-70.5 70.5-70.5 70.5 31.6 70.5 70.5z" fill="#8bb6de" fill-rule="evenodd"/><g style="fill:none;stroke:#fff;stroke-width:1.4965;stroke-linecap:round;stroke-linejoin:round;stroke-miterlimit:10"><path d="m100.3 53.8c2.8 4 4.7 9 3.1 14.8-.7 2.5-2.6 4.3-4.3 6.2-1 1.1-1.5 2.2-1.4 3.7.3 4.6.6 9.2.8 13.8.2 4.1.2 8.2-.4 12.3-.1.8-.3 1.5-.5 2.2-.5 1.5-1.1 2-2.6 2-1.4 0-2.1-.5-2.6-2-.4-1.2-.5-2.4-.6-3.7-.5-7.2.3-14.4.9-21.6.1-1.2.1-2.4.3-3.5.1-1.2-.3-2.1-1.1-3-1-1.2-2.1-2.4-3-3.7-2.3-3.2-2.3-6.8-1.3-10.5.8-2.9 1.9-5.6 4.1-7.7 2.7-2.6 5.5-2.6 8.6.7z"/><path d="m58.3 58.6v7.2c0 .3 0 .3.3.3h1.5c.2 0 .2 0 .2-.2.1-.5 0-1.1.1-1.6.1-1.2.1-2.5.1-3.7 0-1.4.1-2.7.1-4.1 0-1.3.1-2.7.1-4 0-.4 0-.7 0-1.1s.2-.6.5-.6c.3-.1.5.1.7.2.1 0 .1.2.1.3v1.4c0 .9 0 1.9.1 2.8.1 1.7.1 3.3.1 5 0 1.1.1 2.2.1 3.3 0 .8.1 1.5.1 2.3 0 .1 0 .2.2.2h1.6c.3 0 .3 0 .3-.3 0-4.8 0-9.6 0-14.4 0-.4.1-.5.4-.6s.6 0 .7.2c0 .1.1.1.1.2.1 1 .1 2.1.2 3.1.1 1.1.2 2.2.3 3.3.1.9.1 1.8.2 2.8.1 1.1.2 2.2.3 3.3.1.7.1 1.5.2 2.2.1.8-.1 1.6-.4 2.3-.4.8-.9 1.5-1.6 2-.9.6-1.5 1.4-1.7 2.5-.1.6-.1 1.2-.1 1.7 0 .7 0 1.3.1 2 0 .8 0 1.7.1 2.5.1 1.6.1 3.2.1 4.8 0 1 .1 2 .1 3 0 1.6.1 3.2.1 4.8 0 1 .1 2 .1 3.1 0 1.6.1 3.2.1 4.7 0 1 .1 2.1.1 3.1 0 1.4.1 2.8.1 4.2s-1.1 2.6-2.4 2.7c-1.4.1-2.6-.9-2.9-2.3-.1-.7 0-1.3 0-2 0-.5.1-1.1.1-1.6 0-1.3.1-2.6.1-3.9.1-1.9.1-3.8.2-5.7 0-1.4.1-2.8.1-4.2 0-1.5.1-2.9.1-4.4s.1-2.9.1-4.4c0-1.4.1-2.9.1-4.3 0-1 .1-2 .1-3 0-1.3-.5-2.3-1.6-3.1s-1.9-1.9-2.2-3.3c-.1-.7 0-1.4 0-2 0-.5.1-1.1.1-1.6.1-1 .1-2 .2-3 .1-.7.1-1.5.1-2.2.1-1 .1-2 .2-3 0-.7.1-1.5.1-2.2 0-.5.1-1.1.1-1.6 0-.3.2-.5.4-.6.4-.2.9.1.9.6.4 2.1.4 4.5.4 6.9z"/><path d="m78.6 59.7v7.9 3.7c0 1.8.1 3.6.2 5.5 0 1.3.1 2.6.1 3.9 0 1 .1 1.9.1 2.9 0 1.1.1 2.2.1 3.3 0 1 .1 2 .1 2.9 0 1.6.1 3.2.1 4.8 0 1 .1 2 .1 3.1.1 1.6.1 3.2.1 4.8 0 .9.1 1.9.1 2.8v1.2c0 1.6-1.2 2.8-2.8 2.7-1.3 0-2.4-1.1-2.5-2.4-.1-.9 0-1.8 0-2.7 0-1.6.1-3.2.1-4.8 0-.9.1-1.8.1-2.7.1-2 .1-3.9.2-5.9 0-.9.1-1.9.1-2.8 0-1.5.1-2.9.1-4.4 0-.6 0-1.2.1-1.8 0-.2 0-.3-.2-.3-.5 0-1 0-1.5 0-.2 0-.3-.1-.3-.3.1-1.5.1-2.9.2-4.4 0-.6.1-1.3.1-1.9.1-1.1.1-2.2.2-3.2s.1-1.9.2-2.9c.1-1.1.2-2.2.4-3.3.1-1.2.3-2.4.5-3.6.5-2.7 1-5.4 1.9-8 .3-1 .7-1.9 1.2-2.8 0-.1.1-.2.2-.2.1-.1.3-.2.4-.1.2 0 .3.2.3.3v3.4 1.9z"/></g></svg>