<svg enable-background="new 0 0 400 60" viewBox="0 0 400 60" xmlns="http://www.w3.org/2000/svg"><path d="m104.5 16h10.5c4.1 0 8 1.9 8 7.1 0 5.5-3.1 7.6-8 7.6h-4.7v7.3h-5.7v-22zm5.8 10.2h3.9c1.8 0 3.1-.7 3.1-2.7 0-2.1-1.3-2.9-3.1-2.9h-3.9z" fill="#011e41"/><path d="m143.3 28.9c0 6.4-2.9 9.6-9.6 9.6s-9.6-3.2-9.6-9.6v-12.9h5.7v13.3c0 2.8 1.1 4.3 3.9 4.3s3.9-1.5 3.9-4.3v-13.3h5.7z" fill="#011e41"/><path d="m145.6 16h11.2c3.9 0 7.7 1.8 7.7 6.2 0 2.4-1.1 4.6-3.5 5.5v.1c2.3.6 3 3.2 3.2 5.3.1.9.2 4.2.9 5h-5.7c-.5-.7-.6-2.9-.6-3.5-.2-2.2-.5-4.5-3.2-4.5h-4.4v8h-5.7v-22.1zm5.8 9.5h4.8c1.7 0 2.7-.9 2.7-2.6 0-1.6-1.3-2.4-2.9-2.4h-4.6z" fill="#011e41"/><path d="m166.5 16h17.5v4.6h-11.8v3.9h10.8v4.4h-10.8v4.2h12.1v4.9h-17.9v-22z" fill="#011e41"/><path d="m194.4 16h5.7v17.1h10.3v4.9h-16z" fill="#011e41"/><path d="m221.8 15.5c6.9 0 10.9 5.1 10.9 11.5s-3.9 11.5-10.9 11.5-10.8-5.1-10.8-11.5 3.9-11.5 10.8-11.5zm0 18c3.7 0 5.1-3.3 5.1-6.5 0-3.3-1.4-6.5-5.1-6.5s-5.1 3.3-5.1 6.5 1.4 6.5 5.1 6.5z" fill="#011e41"/><path d="m245.5 29.8v8.2h-5.7v-8.2l-8-13.8h6.5l4.4 8.9 4.4-8.9h6.5z" fill="#011e41"/><path d="m257.2 16h5.8l8.2 22h-6l-1.4-3.9h-7.7l-1.4 3.9h-5.9zm.3 13.8h5l-2.4-7.7h-.1z" fill="#011e41"/><path d="m271.5 16h5.7v17.1h10.3v4.9h-16z" fill="#011e41"/><path d="m302.3 20.9h-6.6v17.1h-5.7v-17.1h-6.6v-4.9h18.9z" fill="#011e41"/><path d="m314.6 29.8v8.2h-5.7v-8.2l-8-13.8h6.5l4.4 8.9 4.4-8.9h6.5z" fill="#011e41"/><path d="m12.8 16h12.7c2.1 0 3.7.5 4.9 1.6 1.1 1.1 1.7 2.4 1.7 3.9 0 1.3-.4 2.4-1.2 3.3-.5.6-1.3 1.1-2.4 1.5 1.6.4 2.7 1 3.5 2 .7.9 1.1 2.1 1.1 3.5 0 1.1-.3 2.2-.8 3.1s-1.3 1.6-2.2 2.2c-.6.3-1.4.6-2.6.7-1.5.2-2.5.3-3 .3h-11.7zm6.9 8.7h3c1.1 0 1.8-.2 2.2-.5.4-.4.6-.9.6-1.6 0-.6-.2-1.1-.6-1.5s-1.1-.5-2.2-.5h-3zm0 8.6h3.5c1.2 0 2-.2 2.5-.6s.7-1 .7-1.7c0-.6-.2-1.2-.7-1.6s-1.3-.6-2.5-.6h-3.5z" fill="#011e41"/><path d="m33.6 16h6.8v16.6h10.6v5.4h-17.4z" fill="#8ab7e9"/><path d="m65.3 16h6.8v13.1c0 1.3-.2 2.5-.6 3.7s-1 2.2-1.9 3c-.9.9-1.8 1.5-2.7 1.8-1.3.5-2.9.7-4.8.7-1.1 0-2.2-.1-3.5-.2s-2.3-.4-3.2-.9c-.9-.4-1.6-1.1-2.3-1.9s-1.2-1.7-1.4-2.5c-.4-1.4-.6-2.6-.6-3.7v-13.1h6.8v13.4c0 1.2.3 2.1 1 2.8s1.6 1 2.8 1 2.1-.3 2.8-1 1-1.6 1-2.8v-13.4z" fill="#8ab7e9"/><path d="m80.5 28.6c.2 2.4 1.6 4.2 4.2 4.2 1.3 0 2.8-.5 3.4-1.5h7.7c-1.7 4.6-6.2 6.8-11.1 6.8-6.9 0-12.1-4-12.1-11.2 0-6.2 4.6-11.3 11.4-11.3 8.6 0 12.3 4.7 12.3 13.1h-15.8zm7.9-4.3c0-2-1.5-3.6-3.6-3.6-2.5 0-3.9 1.3-4.2 3.6z" fill="#8ab7e9"/><path d="m328.7 18.5c0 1.4-1.1 2.5-2.6 2.5-1.4 0-2.6-1.1-2.6-2.5s1.1-2.5 2.6-2.5 2.6 1.1 2.6 2.5zm-4.5 0c0 1.1.8 2 1.9 2s1.9-.9 1.9-2-.8-2-1.9-2c-1 0-1.9.9-1.9 2zm1.6 1.3h-.6v-2.5c.2 0 .5-.1 1-.1s.7.1.9.2.3.3.3.5c0 .3-.2.5-.5.6.2.1.4.3.4.6.1.4.1.5.2.6h-.6c-.1-.1-.1-.3-.2-.6 0-.3-.2-.4-.5-.4h-.3v1.1zm0-1.4h.3c.3 0 .6-.1.6-.4 0-.2-.2-.4-.5-.4-.2 0-.3 0-.3 0v.8z" fill="#011e41"/><g fill="#a7a8a9"><path d="m171.5 55.3h-1.4l2.2-10.4h-3.2l.3-1.2h7.8l-.2 1.2h-3.2z"/><path d="m181.5 55.3 1.2-5.5c.1-.5.1-.9.1-1.1 0-.8-.4-1.2-1.2-1.2-.5 0-.9.2-1.4.5-.4.3-.8.8-1.2 1.4-.3.6-.6 1.3-.8 2.1l-.8 3.7h-1.3l2.6-12.3h1.3c-.1.4-.2.9-.3 1.3s-.2.8-.3 1.2-.2.9-.3 1.3c-.1.5-.2 1-.4 1.5h.1c.5-.6 1-1.1 1.5-1.4s1-.4 1.5-.4c.7 0 1.2.2 1.6.6s.6.9.6 1.6c0 .3-.1.8-.2 1.3-.2 1-.6 2.8-1.1 5.3h-1.2z"/><path d="m189 55.5c-1 0-1.7-.3-2.3-.9s-.8-1.4-.8-2.4.2-1.9.6-2.9c.4-.9.9-1.6 1.6-2.1.6-.5 1.4-.8 2.1-.8.8 0 1.4.2 1.8.5s.6.8.6 1.5c0 .9-.4 1.7-1.3 2.2s-2.1.8-3.8.8h-.3v.6c0 .7.2 1.2.5 1.6s.8.6 1.5.6c.3 0 .7 0 1-.1.4-.1.8-.3 1.3-.5v1.2c-.5.2-.9.4-1.3.5-.3.2-.8.2-1.2.2zm1.1-7.9c-.5 0-1.1.2-1.5.7-.5.5-.8 1.2-1.1 2.1h.1c1.2 0 2.1-.2 2.8-.5.6-.3 1-.8 1-1.4 0-.3-.1-.5-.3-.7-.3-.1-.6-.2-1-.2z"/><path d="m201.6 55.5c-.5 0-1-.1-1.3-.4-.4-.3-.7-.6-.9-1.1h-.1v.3c0 .1 0 .3-.1.6 0 .2-.3 1.7-.9 4.4h-1.3l2.7-12.6h1.1l-.2 1.7h.1c.9-1.2 1.9-1.8 2.9-1.8.7 0 1.3.3 1.7.8s.6 1.2.6 2.2c0 1.1-.2 2.1-.5 3.1-.4.9-.9 1.7-1.5 2.2-.8.3-1.5.6-2.3.6zm1.5-7.9c-.5 0-1 .3-1.5.8s-.9 1.1-1.3 1.9c-.3.8-.5 1.5-.5 2.3 0 .6.1 1 .4 1.3s.7.5 1.3.5c.5 0 1-.2 1.5-.6s.8-1 1.1-1.8.4-1.6.4-2.5c0-1.3-.5-1.9-1.4-1.9z"/><path d="m211.7 46.6c1 0 1.8.3 2.4.9s.9 1.4.9 2.5c0 1-.2 1.9-.6 2.8s-.9 1.6-1.5 2c-.6.5-1.4.7-2.2.7-1 0-1.8-.3-2.4-.9s-.9-1.4-.9-2.4.2-1.9.6-2.8.9-1.6 1.6-2c.6-.6 1.3-.8 2.1-.8zm1.9 3.1c0-.6-.2-1.1-.5-1.5s-.8-.6-1.3-.6c-.6 0-1.1.2-1.5.6-.5.4-.8.9-1.1 1.6s-.4 1.5-.4 2.3c0 .7.2 1.2.5 1.6s.8.6 1.4.6c.5 0 1-.2 1.5-.6.4-.4.8-.9 1-1.6.3-.7.4-1.5.4-2.4z"/><path d="m222.3 55.3-.3-4.8c0-.5 0-.9 0-1.4v-1.1l-.4.9-.7 1.5-2.3 4.9h-1.6l-.3-8.7h1.3l.1 4.7v.7c0 .8 0 1.5-.1 2.1.2-.7.6-1.5 1.1-2.5l2.3-5h1.4l.3 4.7v2.1.4.3c.1-.5.4-1 .7-1.7s1.1-2.6 2.6-5.8h1.4l-4 8.7z"/><path d="m231.2 55.5c-1 0-1.7-.3-2.3-.9s-.8-1.4-.8-2.4.2-1.9.6-2.9c.4-.9.9-1.6 1.6-2.1.6-.5 1.4-.8 2.1-.8.8 0 1.4.2 1.8.5s.6.8.6 1.5c0 .9-.4 1.7-1.3 2.2s-2.1.8-3.8.8h-.3v.6c0 .7.2 1.2.5 1.6s.8.6 1.5.6c.3 0 .7 0 1-.1.4-.1.8-.3 1.3-.5v1.2c-.5.2-.9.4-1.3.5-.3.2-.7.2-1.2.2zm1.1-7.9c-.5 0-1.1.2-1.5.7-.5.5-.8 1.2-1.1 2.1h.1c1.2 0 2.1-.2 2.8-.5.6-.3 1-.8 1-1.4 0-.3-.1-.5-.3-.7-.2-.1-.5-.2-1-.2z"/><path d="m241.3 46.5c.4 0 .7 0 .9.1l-.3 1.2c-.3-.1-.6-.1-.8-.1-.5 0-.9.2-1.3.5s-.8.8-1.1 1.3c-.3.6-.5 1.2-.7 1.9l-.8 4h-1.3l1.9-8.7h1.1l-.2 1.6h.1c.4-.5.7-.9.9-1.1s.5-.4.8-.5c.2-.1.5-.2.8-.2z"/><path d="m251.1 46.6c1 0 1.8.3 2.4.9s.9 1.4.9 2.5c0 1-.2 1.9-.6 2.8s-.9 1.6-1.5 2c-.6.5-1.4.7-2.2.7-1 0-1.8-.3-2.4-.9s-.9-1.4-.9-2.4.2-1.9.6-2.8.9-1.6 1.6-2c.5-.6 1.3-.8 2.1-.8zm1.8 3.1c0-.6-.2-1.1-.5-1.5s-.8-.6-1.3-.6c-.6 0-1.1.2-1.5.6-.5.4-.8.9-1.1 1.6s-.4 1.5-.4 2.3c0 .7.2 1.2.5 1.6s.8.6 1.4.6c.5 0 1-.2 1.5-.6.4-.4.8-.9 1-1.6.3-.7.4-1.5.4-2.4z"/><path d="m254.2 59.2c-.4 0-.7-.1-1-.2v-1c.3.1.6.2.9.2.4 0 .7-.2.9-.5s.4-.8.5-1.4l1.8-8.6h-1.5l.1-.5 1.6-.5.2-.8c.2-1.1.6-1.8 1-2.2s1.1-.7 1.9-.7c.2 0 .5 0 .8.1s.5.1.7.2l-.3 1c-.4-.2-.8-.2-1.1-.2-.5 0-.8.1-1.1.4-.2.3-.4.7-.6 1.4l-.2.9h1.9l-.2 1h-1.9l-1.8 8.7c-.2 1-.5 1.7-.9 2.2-.4.3-1 .5-1.7.5z"/><path d="m265 55.3 2.4-11.6h1.3l-2.2 10.4h4.5l-.3 1.2z"/><path d="m277.1 46.6c1 0 1.8.3 2.4.9s.9 1.4.9 2.5c0 1-.2 1.9-.6 2.8s-.9 1.6-1.5 2c-.6.5-1.4.7-2.2.7-1 0-1.8-.3-2.4-.9s-.9-1.4-.9-2.4.2-1.9.6-2.8.9-1.6 1.6-2c.6-.6 1.3-.8 2.1-.8zm1.9 3.1c0-.6-.2-1.1-.5-1.5s-.8-.6-1.3-.6c-.6 0-1.1.2-1.5.6-.5.4-.8.9-1.1 1.6s-.4 1.5-.4 2.3c0 .7.2 1.2.5 1.6s.8.6 1.4.6c.5 0 1-.2 1.5-.6.4-.4.8-.9 1-1.6.3-.7.4-1.5.4-2.4z"/><path d="m281.9 46.7h1.3l.6 4.3c.1.4.1.9.2 1.6 0 .7.1 1.3.1 1.7.2-.5.4-1 .7-1.6s.5-1 .6-1.2l2.6-4.8h1.4l-5.5 10.1c-.5.9-1 1.5-1.5 1.9s-1.1.5-1.7.5c-.4 0-.7-.1-1.1-.2v-1c.3.1.7.1 1 .1.4 0 .8-.1 1.1-.4s.6-.7.9-1.2l.6-1.1z"/><path d="m293.7 46.5c.5 0 .9.1 1.3.4s.7.6.9 1.1h.1l.5-1.4h1l-1.8 8.7h-1.1l.2-1.7h-.1c-.9 1.2-1.9 1.8-3 1.8-.7 0-1.3-.3-1.7-.8s-.6-1.2-.6-2.1c0-1.1.2-2.1.6-3.1.4-.9.9-1.7 1.6-2.2.6-.4 1.3-.7 2.1-.7zm-1.5 7.9c.5 0 1-.2 1.5-.7s.9-1.1 1.2-1.9.5-1.6.5-2.4c0-.5-.1-1-.4-1.3s-.7-.5-1.2-.5-1.1.2-1.5.7c-.5.5-.8 1.1-1.1 1.8-.3.8-.4 1.6-.4 2.5 0 .6.1 1.1.4 1.3.2.4.5.5 1 .5z"/><path d="m299.5 55.3h-1.3l2.6-12.3h1.3z"/><path d="m305 54.4c.3 0 .7-.1 1.1-.2v1c-.2.1-.4.1-.7.2s-.5.1-.6.1c-.7 0-1.2-.2-1.5-.5-.4-.3-.5-.8-.5-1.4 0-.3 0-.7.1-1.2l1-4.8h-1.4l.1-.6 1.5-.6 1-1.8h.8l-.4 2h2.2l-.2 1h-2.2l-1 4.8c-.1.5-.1.8-.1 1 0 .3.1.5.2.7s.3.3.6.3z"/><path d="m307.9 46.7h1.3l.6 4.3c.1.4.1.9.2 1.6 0 .7.1 1.3.1 1.7.2-.5.4-1 .7-1.6s.5-1 .6-1.2l2.6-4.8h1.4l-5.5 10.1c-.5.9-1 1.5-1.5 1.9s-1.1.5-1.7.5c-.4 0-.7-.1-1.1-.2v-1c.3.1.7.1 1 .1.4 0 .8-.1 1.1-.4s.6-.7.9-1.2l.6-1.1z"/><path d="m319.5 48.4c0 1-.8 1.7-1.7 1.7-1 0-1.8-.8-1.8-1.7 0-1 .8-1.7 1.8-1.7s1.7.7 1.7 1.7zm-3 0c0 .8.6 1.4 1.3 1.4s1.3-.6 1.3-1.4-.6-1.4-1.3-1.4c-.8 0-1.3.6-1.3 1.4zm1 .8h-.4v-1.7c.2 0 .4-.1.7-.1s.5.1.6.1c.1.1.2.2.2.4s-.2.3-.4.4c.2.1.2.2.3.4.1.3.1.4.1.4h-.4c-.1-.1-.1-.2-.1-.4s-.1-.3-.4-.3h-.2zm0-.9h.2c.2 0 .4-.1.4-.3s-.1-.3-.4-.3c-.1 0-.2 0-.2 0z"/></g><path d="m361.2.8c-14.3 0-25.9 11.6-25.9 25.9s11.6 25.9 25.9 25.9 25.9-11.6 25.9-25.9c.1-14.3-11.5-25.9-25.9-25.9m0 49.8c-13.2 0-23.9-10.7-23.9-23.9s10.7-23.9 23.9-23.9 23.9 10.7 23.9 23.9-10.7 23.9-23.9 23.9" fill="#011e41"/><path d="m361.2 2.8c-13.2 0-23.9 10.7-23.9 23.9s10.7 23.9 23.9 23.9 23.9-10.7 23.9-23.9-10.7-23.9-23.9-23.9m0 46.5c-12.5 0-22.6-10.1-22.6-22.6s10.1-22.6 22.6-22.6 22.6 10.1 22.6 22.6-10.1 22.6-22.6 22.6" fill="#8ab7e9"/><path d="m361.2 4.1c-12.5 0-22.6 10.1-22.6 22.6s10.1 22.6 22.6 22.6 22.6-10.1 22.6-22.6-10.1-22.6-22.6-22.6" fill="#011e41"/><path d="m357.6 33.7h4.7c1.9 0 3.2-.7 3.2-2.5 0-2-1.4-2.7-3.2-2.7h-4.7zm0-9.1h4.6c1 0 2.4-.5 2.4-2.2s-1.2-2.2-2.4-2.2h-4.6zm-5.9-8.9h10.6c3.9-.1 8.2 1 8.2 5.7 0 2-1.2 3.7-3 4.6 2.4.7 3.9 2.8 3.9 5.4 0 5.4-4 7.1-8.9 7.1h-10.9v-22.8z" fill="#fff"/><path d="m386.8 47.1c0 1.2-1 2.2-2.3 2.2s-2.3-1-2.3-2.2c0-1.3 1-2.2 2.3-2.2s2.3.9 2.3 2.2zm-4 0c0 1 .8 1.8 1.7 1.8 1 0 1.7-.8 1.7-1.8s-.7-1.8-1.7-1.8c-.9 0-1.7.8-1.7 1.8zm1.4 1.1h-.5v-2.2c.2 0 .5-.1.9-.1s.6.1.8.2c.1.1.2.3.2.5 0 .3-.2.4-.5.5.2.1.3.2.4.5s.1.5.2.5h-.5c-.1-.1-.1-.3-.2-.5 0-.2-.2-.3-.5-.3h-.2v.9zm0-1.2h.2c.3 0 .5-.1.5-.3s-.1-.3-.5-.3c-.1 0-.2 0-.3 0v.6z" fill="#011e41"/></svg>