<svg fill="none" height="60" viewBox="0 0 400 60" width="400" xmlns="http://www.w3.org/2000/svg" xmlns:xlink="http://www.w3.org/1999/xlink"><clipPath id="a"><path d="m0 0h400v60h-400z"/></clipPath><g clip-path="url(#a)"><path d="m118.811 18.4623h4.894c2.272 0 3.919-.9348 3.919-3.4825 0-2.6201-1.686-3.677-3.919-3.677h-4.894zm-7.288-12.99355h13.28c5.209 0 10.109 2.39054 10.109 9.00415 0 6.9261-3.958 9.629-10.109 9.629h-5.992v9.3119h-7.288z" fill="#fff"/><path d="m160.693 21.8715c0 8.0984-3.719 12.1316-12.182 12.1316s-12.183-4.0332-12.183-12.1316v-16.40275h7.284v16.83105c0 3.5996 1.336 5.4394 4.899 5.4394s4.895-1.8398 4.895-5.4394v-16.83105h7.287z" fill="#fff"/><path d="m171.054 17.6049h6.113c2.193 0 3.368-1.1743 3.368-3.2876 0-2.0743-1.643-3.0148-3.681-3.0148h-5.8zm-7.284-12.13615h14.259c4.934 0 9.793 2.23112 9.793 7.86955 0 3.0149-1.447 5.8685-4.387 7.0046v.0774c2.979.7052 3.838 4.0328 4.075 6.6911.078 1.1793.196 5.2842 1.176 6.3025h-7.21c-.629-.9363-.746-3.6774-.824-4.4615-.195-2.8154-.664-5.7125-4.071-5.7125h-5.527v10.174h-7.284z" fill="#fff"/><path d="m190.137 5.46875h22.288v5.83375h-15.005v4.8901h13.713v5.6396h-13.713v5.3227h15.399v6.2589h-22.682z" fill="#fff"/><path d="m225.684 5.46875h7.288v21.68615h13.045v6.2589h-20.333z" fill="#fff"/><path d="m260.471 27.5422c4.699 0 6.503-4.1491 6.503-8.2979 0-4.1441-1.804-8.2936-6.503-8.2936s-6.503 4.1495-6.503 8.2936c0 4.1488 1.804 8.2979 6.503 8.2979zm0-22.8547c8.814 0 13.79 6.4577 13.79 14.5568 0 8.1034-4.976 14.5618-13.79 14.5618s-13.791-6.4584-13.791-14.5618c0-8.0991 4.977-14.5568 13.791-14.5568z" fill="#fff"/><path d="m290.619 23.0058v10.408h-7.288v-10.408l-10.186-17.53705h8.266l5.562 11.35205 5.562-11.35205h8.267z" fill="#fff"/><path d="m305.852 23.0058h6.346l-3.09-9.7834h-.082zm-.468-17.53705h7.405l10.46 27.94505h-7.599l-1.725-5.0076h-9.755l-1.765 5.0076h-7.483z" fill="#fff"/><path d="m323.535 5.46875h7.287v21.68615h13.045v6.2589h-20.332z" fill="#fff"/><path d="m362.749 11.7319h-8.346v21.6819h-7.288v-21.6819h-8.345v-6.26315h23.979z" fill="#fff"/><path d="m378.319 23.0058v10.408h-7.288v-10.408l-10.191-17.53705h8.268l5.565 11.35205 5.56-11.35205h8.269z" fill="#fff"/><path d="m7.28757 27.5877h5.83563c2.3108 0 3.9191-.8227 3.9191-3.1316 0-2.4657-1.7254-3.2876-3.9191-3.2876h-5.83563zm0-11.1145h5.64073c1.2529 0 2.9787-.667 2.9787-2.664 0-2.0351-1.4535-2.6975-2.9787-2.6975h-5.64073zm-7.28757-11.00112h13.0839c4.8211-.07781 10.1106 1.17811 10.1106 7.00802 0 2.503-1.4916 4.5385-3.6853 5.635 2.9786.8616 4.8211 3.4432 4.8211 6.6144 0 6.6564-4.9001 8.6915-10.8913 8.6915h-13.439z" fill="#0a1e3f"/><g fill="#fff"><path d="m25.5859 5.46875h7.2876v21.68615h13.0454v6.2627h-20.333z"/><path d="m70.9459 21.8715c0 8.0984-3.7189 12.1316-12.1827 12.1316-8.4615 0-12.1812-4.0332-12.1812-12.1316v-16.40275h7.2826v16.83105c0 3.5996 1.3349 5.4394 4.8986 5.4394 3.5641 0 4.8951-1.8398 4.8951-5.4394v-16.83105h7.2876z"/><path d="m92.663 15.8723c-.7201-3.9718-2.4317-6.06749-6.2391-6.06749-4.9688 0-6.4074 3.85849-6.5157 6.06749zm-12.7548 4.9634c.2212 4.9638 2.6488 7.2243 7.0099 7.2243 3.1484 0 5.6885-1.9314 6.1873-3.6938h6.8966c-2.2063 6.7304-6.8966 9.598-13.3562 9.598-9.0007 0-14.5755-6.1769-14.5755-15.0034 0-8.5503 5.9043-15.05455 14.5755-15.05455 9.7151 0 14.4062 8.15905 13.8552 16.92945z"/><path d="m396.241 3.03699h.351c.4 0 .732-.13921.732-.46873 0-.28985-.213-.47978-.675-.47978-.198 0-.332.01755-.408.03891zm-.019 1.77499h-.736v-3.17049c.29-.0389.698-.09535 1.217-.09535.602 0 .873.09535 1.083.25211.198.13348.332.36727.332.67582 0 .38444-.29.63692-.66.75324v.03928c.313.09535.465.34592.564.77079.096.48474.172.65904.229.7746h-.77c-.096-.11556-.157-.38559-.252-.7746-.061-.32494-.252-.48131-.66-.48131h-.347zm-1.956-1.6415c0 1.4077 1.067 2.53051 2.479 2.53051 1.373.0206 2.418-1.1228 2.418-2.51334 0-1.41076-1.045-2.550738-2.46-2.550738-1.37 0-2.437 1.139968-2.437 2.533568zm5.705 0c0 1.77612-1.43 3.18764-3.245 3.18764-1.823 0-3.269-1.41152-3.269-3.18764 0-1.77918 1.445-3.17048 3.288-3.17048 1.796 0 3.226 1.3913 3.226 3.17048z"/><path d="m196.579 55.3043h-1.728l2.784-13.1621h-4.08l.331-1.5172h9.899l-.302 1.5172h-4.101z"/><path d="m209.272 55.0759 1.488-6.9477c.12-.6297.181-1.0801.181-1.3551 0-.9912-.492-1.4863-1.477-1.4863-.598 0-1.178.1984-1.744.592-.567.3962-1.066.9698-1.498 1.7219-.432.7529-.758 1.6625-.98 2.7269l-1.015 4.7483h-1.688l3.317-15.6228h1.688c-.121.55-.236 1.082-.347 1.5977-.111.5152-.224 1.0385-.341 1.5694-.118.5324-.245 1.0904-.382 1.672-.137.5839-.297 1.2151-.477 1.8978h.11c.629-.8223 1.251-1.4116 1.864-1.7662.613-.3547 1.255-.5325 1.925-.5325.876 0 1.555.2407 2.035.7235.479.481.718 1.1633.718 2.0473 0 .415-.077.971-.231 1.6678-.261 1.2914-.747 3.5397-1.457 6.746z"/><path d="m220.201 45.5769c-.69 0-1.339.3139-1.945.9432-.607.6301-1.071 1.5015-1.392 2.6198h.121c1.528 0 2.699-.1984 3.512-.5977.814-.397 1.221-.9744 1.221-1.7315 0-.3535-.122-.6487-.367-.8825-.244-.2349-.627-.3513-1.15-.3513zm-1.397 9.9699c-1.233 0-2.201-.3654-2.905-1.0957-.703-.7285-1.055-1.7407-1.055-3.0321 0-1.2574.249-2.4641.748-3.619.499-1.1548 1.161-2.0526 1.986-2.6956.824-.6434 1.731-.9638 2.723-.9638 1.026 0 1.796.2228 2.311.6686.516.4436.774 1.0648.774 1.8616 0 1.2044-.556 2.1498-1.668 2.8352-1.112.6865-2.703 1.0298-4.773 1.0298h-.333l-.039.8035c0 .8765.206 1.5607.617 2.0527.413.4927 1.051.7387 1.915.7387.422 0 .855-.0599 1.302-.1815.445-.1209.999-.341 1.663-.6614v1.4657c-.63.2933-1.186.5-1.668.6175-.483.1163-1.015.1758-1.598.1758z"/><path d="m236.685 45.5361c-.644 0-1.299.3177-1.965.9539-.667.6365-1.197 1.4351-1.587 2.3997-.393.9637-.589 1.9512-.589 2.9618 0 .7369.186 1.2998.558 1.6904.372.3928.909.5888 1.613.5888.663 0 1.281-.2712 1.854-.8139.572-.5427 1.033-1.3135 1.382-2.3138.348-1.0012.522-2.0626.522-3.1877 0-1.5198-.596-2.2792-1.788-2.2792zm-1.87 9.9905c-.649 0-1.219-.169-1.708-.5031-.489-.3348-.868-.8024-1.136-1.405h-.1l-.04.3806c-.02.1671-.056.4032-.106.7033-.051.3021-.434 2.1549-1.151 5.5622h-1.668l3.377-15.9432h1.397l-.262 2.0984h.081c1.199-1.5202 2.446-2.2792 3.738-2.2792.918 0 1.641.3261 2.171.9794.529.6518.793 1.5679.793 2.7453 0 1.4195-.23 2.7212-.693 3.9054-.462 1.185-1.101 2.1075-1.919 2.7662s-1.741.9897-2.774.9897z"/><path d="m250.037 48.146c0-.7697-.209-1.3944-.628-1.8723-.419-.479-.987-.7185-1.704-.7185-.73 0-1.385.2479-1.965.7445-.578.4946-1.028 1.1823-1.347 2.0625-.317.8806-.476 1.8581-.476 2.9367 0 .8776.212 1.5549.639 2.0324.424.479 1.036.7178 1.833.7178.696 0 1.324-.2433 1.879-.7315.556-.4897.99-1.1842 1.302-2.0835.311-.9009.467-1.9299.467-3.0881zm-2.372-4.0054c1.273 0 2.278.3757 3.015 1.1286.737.754 1.106 1.7894 1.106 3.1083 0 1.2582-.242 2.4454-.724 3.5633-.482 1.1194-1.136 1.9824-1.96 2.5915-.823.6091-1.755.9131-2.794.9131-1.286 0-2.294-.3791-3.025-1.1347-.73-.7559-1.095-1.7902-1.095-3.1026 0-1.2708.245-2.4687.733-3.5896.49-1.1209 1.15-1.9809 1.981-2.5801.83-.5988 1.751-.8978 2.763-.8978z"/><path d="m261.081 55.1441-.321-6.0439c-.028-.6293-.041-1.2044-.041-1.7265v-1.5664h-.09l-.503 1.1842-.833 1.8974-2.925 6.2552h-2.03l-.432-11.0035h1.648l.181 5.9634v.8837c0 .9828-.027 1.8837-.08 2.7014h.059c.315-.8315.774-1.9077 1.377-3.2338l2.965-6.3147h1.829l.372 5.9634c.04 1.1244.06 2.0012.06 2.6312v.5321l-.02.4218h.06c.188-.5774.466-1.3074.835-2.1949.368-.8871 1.45-3.3372 3.246-7.3536h1.789l-5.085 11.0035z"/><path d="m273.814 45.5769c-.69 0-1.338.3139-1.945.9432-.607.6301-1.071 1.5015-1.392 2.6198h.121c1.528 0 2.698-.1984 3.512-.5977.814-.397 1.221-.9744 1.221-1.7315 0-.3535-.122-.6487-.367-.8825-.244-.2349-.627-.3513-1.15-.3513zm-1.397 9.9699c-1.233 0-2.201-.3654-2.905-1.0957-.704-.7285-1.055-1.7407-1.055-3.0321 0-1.2574.249-2.4641.749-3.619.499-1.1548 1.161-2.0526 1.984-2.6956.824-.6434 1.732-.9638 2.724-.9638 1.025 0 1.796.2228 2.312.6686.516.4436.773 1.0648.773 1.8616 0 1.2044-.555 2.1498-1.668 2.8352-1.112.6865-2.703 1.0298-4.773 1.0298h-.333l-.04.8035c0 .8765.206 1.5607.618 2.0527.413.4927 1.051.7387 1.915.7387.422 0 .856-.0599 1.302-.1815.445-.1209 1-.341 1.663-.6614v1.4657c-.63.2933-1.186.5-1.668.6175-.483.1163-1.015.1758-1.598.1758z"/><path d="m285.188 44.1406c.462 0 .864.0477 1.205.1411l-.362 1.505c-.355-.087-.707-.1297-1.054-.1297-.61 0-1.181.1999-1.714.6026-.533.4009-.998.9588-1.397 1.6705-.399.7128-.692 1.505-.879 2.3753l-1.076 5.04h-1.688l2.352-11.0038h1.397l-.221 2.0374h.1c.483-.635.88-1.0919 1.196-1.3703.315-.2777.645-.4913.99-.6415.344-.1522.728-.2266 1.151-.2266z"/><path d="m299.939 48.146c0-.7697-.209-1.3944-.627-1.8723-.42-.479-.988-.7185-1.704-.7185-.731 0-1.386.2479-1.965.7445-.579.4946-1.028 1.1823-1.347 2.0625-.318.8806-.477 1.8581-.477 2.9367 0 .8776.212 1.5549.638 2.0324.426.479 1.037.7178 1.834.7178.697 0 1.323-.2433 1.88-.7315.555-.4897.989-1.1842 1.301-2.0835.311-.9009.467-1.9299.467-3.0881zm-2.371-4.0054c1.272 0 2.276.3757 3.014 1.1286.737.754 1.106 1.7894 1.106 3.1083 0 1.2582-.241 2.4454-.723 3.5633-.483 1.1194-1.136 1.9824-1.96 2.5915-.825.6091-1.756.9131-2.795.9131-1.285 0-2.294-.3791-3.024-1.1347-.73-.7559-1.096-1.7902-1.096-3.1026 0-1.2708.245-2.4687.734-3.5896s1.149-1.9809 1.98-2.5801c.83-.5988 1.752-.8978 2.764-.8978z"/><path d="m301.647 60.1263c-.462 0-.88-.0721-1.256-.2113v-1.4146c.429.1461.804.2193 1.125.2193.509 0 .902-.2078 1.176-.6224.276-.415.497-1.0069.664-1.7761l2.281-10.8639h-1.94l.131-.6724 2.07-.6621.231-1.0049c.309-1.3375.736-2.2834 1.282-2.836s1.355-.8288 2.426-.8288c.269 0 .596.0393.985.116.389.0762.69.1617.905.2555l-.432 1.2956c-.509-.193-.968-.2899-1.377-.2899-.583 0-1.03.1617-1.341.4859-.312.3238-.565.9176-.759 1.7811l-.251 1.0854h2.392l-.252 1.2746h-2.382l-2.331 11.0241c-.262 1.2643-.664 2.1891-1.206 2.7707-.543.5824-1.256.8742-2.141.8742z"/><path d="m315.332 55.3043 3.105-14.6793h1.709l-2.774 13.1331h5.679l-.332 1.5462z"/><path d="m333.044 48.146c0-.7697-.209-1.3944-.627-1.8723-.42-.479-.988-.7185-1.704-.7185-.73 0-1.386.2479-1.965.7445-.579.4946-1.028 1.1823-1.347 2.0625-.317.8806-.477 1.8581-.477 2.9367 0 .8776.213 1.5549.639 2.0324.425.479 1.037.7178 1.833.7178.697 0 1.324-.2433 1.88-.7315.555-.4897.99-1.1842 1.301-2.0835.312-.9009.467-1.9299.467-3.0881zm-2.371-4.0054c1.273 0 2.277.3757 3.014 1.1286.737.754 1.106 1.7894 1.106 3.1083 0 1.2582-.241 2.4454-.723 3.5633-.483 1.1194-1.136 1.9824-1.96 2.5915s-1.756.9131-2.794.9131c-1.286 0-2.295-.3791-3.025-1.1347-.73-.7559-1.096-1.7902-1.096-3.1026 0-1.2708.245-2.4687.734-3.5896s1.15-1.9809 1.98-2.5801c.831-.5988 1.752-.8978 2.764-.8978z"/><path d="m336.753 44.1406h1.688l.744 5.4722c.068.4607.133 1.143.197 2.0423.063.9005.094 1.624.094 2.1736h.061c.235-.5817.526-1.251.874-2.0084.349-.7556.607-1.2777.774-1.5664l3.267-6.1133h1.788l-6.994 12.87c-.623 1.1525-1.24 1.9527-1.85 2.4012-.61.4474-1.343.6724-2.2.6724-.483 0-.952-.0721-1.407-.2113v-1.3551c.422.1209.861.1804 1.316.1804.55 0 1.021-.1689 1.413-.5068.392-.3376.772-.8391 1.139-1.5012l.765-1.3646z"/><path d="m349.817 54.1509c.649 0 1.296-.3104 1.939-.9298.643-.6178 1.166-1.4249 1.568-2.4199.403-.9928.603-1.9897.603-2.9859 0-.6888-.188-1.238-.563-1.6461s-.867-.6129-1.477-.6129c-.697 0-1.345.2884-1.944.8635-.601.5751-1.07 1.3547-1.412 2.3394-.342.9844-.513 2.0218-.513 3.1126 0 .7627.157 1.334.473 1.7112.314.3784.756.5679 1.326.5679zm1.909-10.0103c.617 0 1.166.1648 1.649.4958.482.3334.857.809 1.125 1.4321h.11l.674-1.7269h1.277l-2.343 11.0038h-1.336l.261-2.0987h-.08c-1.2 1.5316-2.462 2.3001-3.789 2.3001-.931 0-1.661-.3329-2.191-.995-.529-.6621-.794-1.5698-.794-2.7212 0-1.391.238-2.6842.714-3.8749.476-1.1911 1.132-2.1244 1.969-2.8002.838-.6773 1.756-1.0149 2.754-1.0149z"/><path d="m359.163 55.0759h-1.69l3.337-15.6228h1.69z"/><path d="m366.152 54.1558c.37 0 .851-.0881 1.45-.2617v1.2956c-.229.0938-.511.1735-.847.2422-.336.066-.603.1003-.805.1003-.835 0-1.476-.1995-1.922-.5988-.446-.397-.667-.9916-.667-1.7818 0-.4421.057-.9428.179-1.5057l1.277-6.0447h-1.731l.141-.7315 1.861-.7826 1.255-2.2902h.984l-.549 2.5305h2.753l-.263 1.2738h-2.742l-1.297 6.0649c-.122.582-.183 1.0236-.183 1.3257 0 .3749.099.6621.294.8634.194.2014.465.3006.812.3006z"/><path d="m369.858 44.1406h1.689l.744 5.4722c.065.4607.133 1.143.194 2.0423.065.9005.096 1.624.096 2.1736h.061c.236-.5817.526-1.251.873-2.0084.351-.7556.607-1.2777.774-1.5664l3.269-6.1133h1.789l-6.995 12.87c-.626 1.1525-1.24 1.9527-1.85 2.4012-.61.4474-1.346.6724-2.2.6724-.485 0-.954-.0721-1.408-.2113v-1.3551c.424.1209.862.1804 1.316.1804.549 0 1.022-.1689 1.411-.5068.393-.3376.774-.8391 1.141-1.5012l.766-1.3646z"/><path d="m385.786 41.1338h.24c.275 0 .5-.0953.5-.3177 0-.1979-.145-.3322-.462-.3322-.133 0-.225.0168-.278.0305zm-.011 1.2083h-.504v-2.1568c.198-.0309.477-.0702.832-.0702.411 0 .595.0702.739.1743.134.0904.225.2506.225.4623 0 .2612-.198.4336-.45.5118v.0259c.214.0649.317.238.382.5286.069.3295.122.4459.16.5241h-.526c-.065-.0782-.107-.2598-.172-.5241-.042-.2254-.172-.3295-.45-.3295h-.236zm-1.335-1.1179c0 .9623.728 1.7285 1.689 1.7285.939.0122 1.648-.7663 1.648-1.7148 0-.9622-.71-1.7425-1.674-1.7425-.935 0-1.663.7803-1.663 1.7288zm3.894 0c0 1.2128-.977 2.1735-2.216 2.1735-1.243 0-2.231-.9607-2.231-2.1735 0-1.2132.988-2.1617 2.242-2.1617 1.228 0 2.205.9485 2.205 2.1617z"/></g></g></svg>