<svg enable-background="new 0 0 424 215" viewBox="0 0 424 215" xmlns="http://www.w3.org/2000/svg"><g fill="#011e41"><path d="m141 191.3v-145.5c1.7-4.6 1.3-9.6-.8-14.1-1-2.6-2.7-4.9-4.8-6.9s-4.5-3.4-7.1-4.5c-10.7-3.4-21.8.9-26 10.1-1.2 2.7-1.7 5.6-1.5 8.4-4.5-1.8-9.3-2.4-14-1.8-3.6.4-6.9 1.5-10 3.3s-5.8 4.1-8 6.9c-2 2.4-3.3 5.2-4 8.2s-.9 6.1-.5 9.2c.5 3.3 1.8 6.6 3.8 9.4-5 1.5-9.6 4.2-13.3 7.6-3.2 2.9-5.7 6.3-7.5 10.2s-2.7 8.1-2.7 12.5.9 8.5 2.7 12.5c1.8 3.9 4.3 7.4 7.5 10.2.9.9 2 1.7 3 2.5-1 1.2-2.1 2.4-3 3.8-2.4 3.5-4 7.2-5 11.2-.8 4.1-.8 8.2.1 12.3 1 4.3 2.9 8.4 5.5 12 2.7 3.6 6 6.4 9.9 8.7 5.5 3.3 11.8 5 18.3 5 .8 0 1.5 0 2.2-.2-.6 5.1.5 10.3 3 14.8 1.8 3.2 4.3 6 7.3 8.2s6.3 3.9 9.9 4.8c2.4.6 5 .9 7.5.9h1.7c5.5-.4 11-2.4 15.3-5.7 4.5-3.3 8-7.8 9.9-13.1.6-.1.6-.4.6-.9zm-6.1-147.3c-.2.5-.3.9-.3 1.4v145.6c-3.5 10.2-15.2 16.1-26.6 13.2-2.8-.8-5.4-2-7.7-3.6-2.2-1.7-4.2-3.9-5.7-6.3-1.2-2.1-2-4.5-2.2-6.9s0-4.8.8-7.2l.2-.5c3-8.9 12.5-14.7 22.8-13.8.5 0 .9 0 1.2-.2.5-.1.8-.3 1.2-.6.3-.3.6-.6.8-1.1s.3-.8.3-1.2c0-.5 0-.9-.2-1.2-.2-.4-.3-.8-.6-1-.3-.3-.6-.6-1-.8-.5-.2-.8-.3-1.2-.3-12.5-1-24.2 5.7-28.7 16.4-6.6.9-13.3-.5-19.2-3.8-3.1-1.8-5.8-4.1-8-6.9-2.1-2.9-3.6-6.2-4.5-9.6-.8-3.1-.8-6.5-.1-9.8.6-3.1 2-6.3 3.9-8.9 1.4-2.1 3.2-3.9 5-5.4 3.2-2.6 6.9-4.5 11-5.5 4-1 8.1-1.4 12.2-.8.5.1.9.1 1.3 0 .5-.2.9-.3 1.2-.5.3-.3.6-.6.9-.9.2-.3.3-.8.5-1.2 0-.5 0-.9-.2-1.3s-.3-.8-.6-1.2c-.3-.3-.6-.6-1-.8-.5-.2-.8-.3-1.2-.3-9.1-1.4-18.6.9-26.2 6.1-1.3-.9-2.5-1.8-3.8-2.8-2.5-2.2-4.6-5-6-8.1-1.3-3.1-2.1-6.5-2.1-9.9 0-3.5.8-6.8 2.1-9.9 1.4-3.1 3.5-5.8 6-8.1 4.2-3.9 9.6-6.4 15.3-7.2 3.5-.5 6.9-.5 10.2.1.9.2 1.7 0 2.4-.4.8-.4 1.2-1.2 1.3-2.1.2-.9 0-1.6-.5-2.4s-1.2-1.2-2.1-1.4c-3.6-.6-7.2-.8-10.7-.4-2.2-2.6-3.9-5.7-4.3-9-.3-2.2-.2-4.5.3-6.6.6-2.1 1.5-4.2 2.8-6 1.7-2.1 3.8-3.9 6-5.2 2.4-1.4 5-2.1 7.7-2.5 3-.5 6-.1 8.8.6 2.8.9 5.5 2.2 7.8 4.4.8 1 1.8 2.1 2.7 3h.2l.5.3h.2c.2.1.3.1.6.1.6.1 1.2.1 1.8 0 .2 0 .3-.1.5-.1h.2c.8-.4 1.2-1 1.5-1.8 0-.1.2-.3.2-.6 0-.1 0-.5 0-.6s0-.3-.2-.6 0 0 0 0c0-.1-.2-.3-.2-.5v-.1-.1h.1l-.2-.1v-.1c-.8-1.1-1.7-2-2.7-2.9-1-1.6-1.8-3.5-2-5.4-.2-2 .2-3.9.9-5.7 2.8-6.3 10.7-9.1 18.2-6.6 1.8.8 3.5 1.8 4.8 3.2 1.3 1.3 2.4 3 3.2 4.8.8 1.5 1.2 3 1.2 4.6s-.2 3.5-.8 5z"/><path d="m103.7 57.7h-6.3v40.6h6.3z"/><path d="m97.4 57.7v6.3h37.2v-6.3z"/><path d="m103.7 98.3h-6.3v42.8h6.3z"/><path d="m48.8 95.2v6.3h88.6v-6.3z"/><path d="m52.5 140.9v6.3h51.1v-6.3z"/></g><path d="m100.5 74.5c5.8 0 10.7-4.8 10.7-10.6 0-5.9-4.8-10.5-10.7-10.5s-10.7 4.8-10.7 10.5c.2 5.9 4.9 10.6 10.7 10.6z" fill="#8ab7e9"/><path d="m100.5 108.8c5.8 0 10.7-4.8 10.7-10.6 0-5.9-4.8-10.7-10.7-10.7s-10.7 4.8-10.7 10.7c.1 5.8 4.9 10.6 10.7 10.6z" fill="#8ab7e9"/><path d="m100.5 153.5c5.8 0 10.7-4.8 10.7-10.5 0-5.9-4.8-10.6-10.7-10.6s-10.7 4.8-10.7 10.6c.2 5.9 4.9 10.5 10.7 10.5z" fill="#8ab7e9"/><path d="m98.6 59.3h3.6v9.7h-1.5v-8.2h-2.1z" fill="#fff"/><path d="m97.8 102.2c-.6-1-1-2.4-1-3.8s.3-2.5 1-3.8c.3-.5.9-.8 1.3-1 .5-.3 1-.3 1.7-.3s1.2.1 1.7.3c.5.3 1 .6 1.3 1 .6 1 1 2.4 1 3.8 0 1.3-.3 2.5-1 3.8-.3.5-.9.8-1.3 1-.5.3-1 .3-1.7.3s-1.2-.2-1.7-.3c-.5-.2-1-.5-1.3-1zm1.2-6.3c-.5.8-.6 1.6-.6 2.7 0 .9.2 1.8.6 2.7.2.3.5.6.8.8.3.1.6.3 1 .3.3 0 .8-.2 1-.3.3-.2.6-.5.8-.8.5-.8.6-1.8.6-2.7s-.2-1.8-.6-2.7c-.2-.3-.5-.6-.8-.8s-.8-.3-1-.3-.8 0-1 .3c-.3.2-.6.5-.8.8z" fill="#fff"/><path d="m97.8 146.9c-.6-1-1-2.4-1-3.8 0-1.3.3-2.5 1-3.8.3-.4.9-.8 1.3-1 .5-.3 1-.3 1.7-.3s1.2.2 1.7.3c.5.3 1 .6 1.3 1 .6 1.1 1 2.4 1 3.8s-.3 2.6-1 3.8c-.3.5-.9.8-1.3 1.1-.5.3-1 .3-1.7.3s-1.2-.1-1.7-.3c-.5-.3-1-.6-1.3-1.1zm1.2-6.3c-.5.8-.6 1.6-.6 2.7 0 .9.2 1.8.6 2.7.2.3.5.6.8.8s.6.3 1 .3c.3 0 .8-.2 1-.3s.6-.4.8-.8c.5-.8.6-1.8.6-2.7s-.2-1.8-.6-2.7c-.2-.3-.5-.6-.8-.8s-.8-.3-1-.3-.8 0-1 .3c-.3.2-.6.5-.8.8z" fill="#fff"/><path d="m144.9 192.4c1.9 5.2 5.4 9.8 9.9 13.1s9.8 5.2 15.3 5.7h1.7c2.6 0 5.1-.3 7.5-.9 3.6-.9 7.1-2.5 9.9-4.8 3-2.2 5.4-5.1 7.3-8.2 2.6-4.5 3.6-9.8 3-14.8.8 0 1.5.2 2.2.2 6.5 0 12.8-1.7 18.3-5 3.9-2.1 7.2-5.1 9.9-8.7s4.5-7.7 5.5-11.9c.9-4.1.9-8.2 0-12.3-.9-4-2.5-7.9-4.9-11.2-.9-1.3-2-2.5-3-3.8 3.8-2.5 7-6 9.3-10s3.6-8.5 3.9-13c.3-4.7-.4-9.2-2.2-13.5-1.8-4.2-4.5-8.1-7.9-11.1-3.9-3.4-8.4-6.1-13.3-7.6 1.9-2.9 3.2-6 3.8-9.4.4-3 .3-6.2-.5-9.2s-2.1-5.9-4-8.2c-2.1-2.9-4.8-5.1-8-6.9s-6.4-2.9-10-3.3c-4.8-.6-9.6 0-14 1.8.2-2.9-.3-5.7-1.5-8.4-4.2-9.1-15.3-13.5-25.9-10-2.7 1.1-5.1 2.6-7.1 4.5-1.9 1.9-3.6 4.3-4.8 6.9-2.1 4.3-2.4 9.5-.8 14.1v145.5c.3-.2.3.1.4.4zm6.3-158c.8-1.8 1.8-3.4 3.2-4.8 1.3-1.4 3-2.4 4.8-3.2 7.5-2.4 15.3.4 18.2 6.6.8 1.8 1.1 3.8.9 5.7-.2 2-.9 3.8-1.9 5.4-.9.9-1.8 1.8-2.7 2.9v.1s0 .1-.2.1l-.2.3v.1.1c-.2.1-.2.3-.2.4v.6.6c0 .1.2.3.2.6.3.8.8 1.4 1.5 1.8h.2c.2.1.3.1.5.1.6.1 1.2.1 1.8 0 .2 0 .3-.1.6-.1h.2l.5-.3h.2c1-.9 1.9-1.9 2.7-3 2.2-1.9 5-3.4 7.8-4.4 2.8-.9 5.8-1 8.8-.6 2.7.3 5.2 1.2 7.7 2.6s4.3 3.1 6 5.2c1.3 1.8 2.4 3.8 2.8 6 .6 2.1.6 4.4.3 6.6-.4 3.3-2.1 6.5-4.3 9-3.6-.4-7.2-.3-10.7.5-.4.1-.8.3-1.2.4-.3.1-.6.4-.9.9-.3.3-.5.8-.5 1.2-.2.4-.2.9 0 1.2 0 .4.3.8.5 1.2.2.3.4.6.9.9.3.3.8.4 1.2.4.5.1.9.1 1.2 0 3.4-.6 6.9-.6 10.2-.2 5.7.9 11.1 3.3 15.3 7.2 2.5 2.2 4.7 5 6 8.1s2.1 6.5 2.1 9.9c0 3.5-.8 6.8-2.1 9.9s-3.5 5.8-6 8.1c-1.2 1-2.4 2-3.8 2.9-7.7-5.4-17.1-7.7-26.2-6.2-.5 0-.9.2-1.2.3-.4.2-.8.5-1 .8-.3.3-.5.8-.6 1.2-.2.5-.2.9-.2 1.4s.2.9.4 1.2c.3.3.6.8.9.9.3.3.8.5 1.2.5.4.2.9.2 1.3 0 4-.6 8.2-.5 12.2.8 4 1 7.7 3 10.9 5.6 2 1.5 3.6 3.3 5 5.4 1.9 2.7 3.2 5.7 3.9 8.9.6 3.1.6 6.4-.2 9.8s-2.2 6.8-4.5 9.6c-2.1 2.9-4.8 5.2-8 6.9-5.8 3.3-12.6 4.7-19.2 3.8-4.5-10.7-16.2-17.4-28.7-16.4-.8.1-1.5.4-2.1 1.2-.5.6-.8 1.5-.8 2.2s.4 1.7 1 2.1c.6.6 1.5.8 2.2.8 10.2-.9 19.8 4.8 22.7 13.8 0 .2.2.3.2.4.8 2.2.9 4.8.8 7.2-.3 2.4-1 4.8-2.2 6.9-1.5 2.4-3.3 4.7-5.7 6.3-2.2 1.7-5 3-7.7 3.6-11.4 2.8-23.1-3-26.6-13.2v-146c0-.5-.2-.9-.3-1.4-.6-1.5-.9-3.1-.9-4.8 0-1.6 1.2-3.1 1.8-4.6z" fill="#8ab7e9"/><path d="m182 98.3h6.3v-40.6h-6.3z" fill="#8ab7e9"/><path d="m151.1 57.7v6.3h37.2v-6.3z" fill="#8ab7e9"/><path d="m182 141.1h6.3v-42.8h-6.3z" fill="#8ab7e9"/><path d="m148.2 95.2v6.3h88.7v-6.3z" fill="#8ab7e9"/><path d="m182 141.1v6.3h51.2v-6.3z" fill="#8ab7e9"/><path d="m185.1 74.5c5.8 0 10.5-4.8 10.5-10.6 0-5.9-4.8-10.5-10.5-10.5-5.8 0-10.7 4.8-10.7 10.5.2 5.9 4.9 10.6 10.7 10.6z" fill="#011e41"/><path d="m185.1 108.8c5.8 0 10.5-4.8 10.5-10.6 0-5.9-4.8-10.7-10.5-10.7-5.8 0-10.7 4.8-10.7 10.7.1 5.8 4.9 10.6 10.7 10.6z" fill="#011e41"/><path d="m185.1 153.5c5.8 0 10.5-4.8 10.5-10.5 0-5.9-4.8-10.6-10.5-10.6-5.8 0-10.7 4.8-10.7 10.6.2 5.9 4.9 10.5 10.7 10.5z" fill="#011e41"/><path d="m182 67.9c-.6-1.1-1.1-2.4-1.1-3.8s.3-2.5 1.1-3.8c.3-.4.9-.8 1.3-1 .4-.3 1-.3 1.7-.3.6 0 1.2.1 1.7.3.4.3 1 .6 1.3 1 .6 1.1 1 2.4 1 3.8s-.3 2.6-1 3.8c-.3.4-.9.8-1.3 1.1-.5.3-1.1.3-1.7.3s-1.2-.2-1.7-.3c-.6-.4-1-.7-1.3-1.1zm1.2-6.3c-.5.9-.6 1.8-.6 2.7s.2 1.8.6 2.7c.2.3.4.6.8.8.3.1.6.3 1 .3.3 0 .8-.2 1.1-.3.3-.2.6-.4.8-.8.4-.9.6-1.8.6-2.7s-.2-1.8-.6-2.7c-.2-.3-.5-.6-.8-.8-.3-.1-.6-.3-1.1-.3-.3 0-.8.1-1 .3-.4.2-.7.5-.8.8z" fill="#fff"/><path d="m182.7 93.7h3.6v9.8h-1.5v-8.2h-2z" fill="#fff"/><path d="m182.7 138.4h3.6v9.8h-1.5v-8.2h-2z" fill="#fff"/><path d="m317.6 15.7c-12.3 0-24.2 4.5-33.3 12.8-9.2 8.3-14.9 19.5-16 31.8-.2 1.6-.3 3.1-.3 4.8 0 10.3 3.3 20.5 9.5 28.9l-6.1 18.3 19-6c7.5 5 16.1 7.6 25.1 8.1 8.8.5 17.8-1.6 25.6-5.8s14.3-10.6 18.9-18.2c4.7-7.6 7.1-16.3 7.2-25.3 0-1.4 0-2.6-.1-3.9-1.1-12.5-6.8-24-15.9-32.4-9.2-8.6-21.2-13.3-33.6-13.1z" fill="#fff"/><path d="m317.6 6.4c-15.2-.2-29.7 5.7-40.7 16.2-10.9 10.5-17.5 24.8-18.1 39.8-.2.9-.2 1.6-.2 2.5 0 10.7 3 21.2 8.6 30.3l-10.7 31.5 32.7-10.4c8.7 4.8 18.6 7.2 28.5 7.2 7.6 0 15.3-1.5 22.5-4.3 7.2-2.9 13.6-7.2 19.2-12.6s9.9-11.8 12.9-19c3-7 4.5-14.7 4.7-22.5 0-.6 0-.9 0-1.5-.4-15.3-6.9-29.9-18-40.5-11.3-10.9-26.1-16.7-41.4-16.7zm0 107.8c-9.8 0-19.2-2.9-27.3-8.1l-19 6 6.1-18.3c-6.1-8.4-9.5-18.4-9.5-28.9 0-1.6.2-3.1.3-4.8 1.3-12.3 7.2-23.7 16.4-31.8 9.1-8.2 21.1-12.8 33.4-12.6s24.1 4.8 33.3 13.2c9 8.4 14.7 19.8 15.8 32.1.1 1.4.1 2.5.1 3.9 0 6.5-1.3 12.9-3.8 18.9-2.6 6-6.1 11.4-10.8 16-4.6 4.6-10.1 8.2-16.1 10.6-6 2.5-12.5 3.8-18.9 3.8z" fill="#011e41"/><path d="m317.4 11.8c-13.8 0-27 5.3-37.1 14.7-10 9.4-15.9 22.5-16.5 36.1-.1.8-.1 1.5-.1 2.2.3 10.2 3.1 20 8.4 28.7l-8.2 24.8 26.1-7.5c8.4 4.6 17.8 7 27.3 7.3 7.1 0 13.9-1.3 20.6-4 6.4-2.7 12.4-6.6 17.4-11.5 4.9-5 9-10.8 11.7-17.2s4.2-13.5 4.2-20.4c0-.4 0-.9 0-1.4-.4-14-6.3-27.1-16.3-36.9-10-9.5-23.5-14.9-37.5-14.9zm.2 102.4c-9.8 0-19.2-2.9-27.3-8.1l-19 6 6.1-18.3c-6.1-8.4-9.5-18.4-9.5-28.9 0-1.6.2-3.1.3-4.8 1.3-12.3 7.2-23.7 16.4-31.8 9.1-8.2 21.1-12.8 33.4-12.6s24.1 4.8 33.3 13.2c9 8.4 14.7 19.8 15.8 32.1.1 1.4.1 2.5.1 3.9 0 6.5-1.3 12.9-3.8 18.9-2.6 6-6.1 11.4-10.8 16-4.6 4.6-10.1 8.2-16.1 10.6-6 2.5-12.5 3.8-18.9 3.8z" fill="#8ab7e9"/></svg>