<svg enable-background="new 0 0 424 215" viewBox="0 0 424 215" xmlns="http://www.w3.org/2000/svg"><g fill="#8ab7e9"><path d="m124 31.3h7.3v17.9h-3.8v-14.4h-3.5z"/><path d="m142.4 49.5c-1 .1-2.2-.1-3.1-.6-1-.4-1.8-1.1-2.4-1.9-1.1-2-1.8-4.3-1.8-6.8 0-2.4.6-4.7 1.8-6.8.6-.8 1.5-1.4 2.6-1.9 1-.4 2-.6 3.1-.6 1 0 2 .3 3.1.6 1 .4 1.8 1 2.6 1.9 1.1 2 1.8 4.3 1.8 6.8 0 2.4-.6 4.7-1.8 6.8-.6.9-1.5 1.5-2.4 2-1.4.3-2.5.6-3.5.5zm-2.7-13.6c-1.1 2.8-1.1 5.9 0 8.7.3.5.6.9 1.1 1.1.5.3 1 .4 1.5.4s1.1-.1 1.5-.4c.5-.3.9-.8 1.1-1.1 1.1-2.8 1.1-5.9 0-8.7-.3-.5-.6-.9-1.1-1.1-.5-.3-1-.4-1.5-.4s-1.1.1-1.5.4c-.5.2-.9.6-1.1 1.1z"/><path d="m160.1 49.5c-1 .1-2.2-.1-3.1-.5-1-.4-1.8-1.1-2.4-2-1.1-2-1.8-4.3-1.8-6.8 0-2.4.6-4.7 1.8-6.8.6-.8 1.5-1.4 2.6-1.9 1-.4 2-.6 3.1-.6s2 .3 3.1.6c1 .4 1.8 1 2.6 1.9 1.1 2 1.8 4.3 1.8 6.8 0 2.4-.6 4.7-1.8 6.8-.6.9-1.5 1.5-2.4 1.9-1.5.4-2.5.7-3.5.6zm-2.7-13.6c-1.1 2.8-1.1 5.9 0 8.7.3.5.6.9 1.1 1.1.5.3 1 .4 1.5.4s1.1-.1 1.5-.4.9-.8 1.1-1.1c1.1-2.8 1.1-5.9 0-8.7-.3-.5-.6-.9-1.1-1.1-.5-.3-1-.4-1.5-.4s-1.1.1-1.5.4c-.5.2-.8.6-1.1 1.1z"/><path d="m169.7 31.3h7.3v17.9h-3.8v-14.4h-3.4v-3.5z"/><path d="m188 49.5c-1 .1-2.2-.1-3.1-.5-1-.4-1.8-1.1-2.4-2-1.1-2-1.8-4.3-1.8-6.8 0-2.4.6-4.7 1.8-6.8.6-.8 1.5-1.4 2.6-1.9 1-.4 2-.6 3.1-.6 1 0 2 .3 3.1.6 1 .4 1.8 1 2.6 1.9 1.1 2 1.8 4.3 1.8 6.8 0 2.4-.6 4.7-1.8 6.8-.6.9-1.5 1.5-2.4 2-1.3.3-2.4.6-3.5.5zm-2.5-13.6c-1.1 2.8-1.1 5.9 0 8.7.3.5.6.9 1.1 1.1.5.3 1 .4 1.5.4s1.1-.1 1.5-.4.9-.8 1.1-1.1c1.1-2.8 1.1-5.9 0-8.7-.3-.5-.6-.9-1.1-1.1-.5-.3-1-.4-1.5-.4s-1.1.1-1.5.4c-.5.2-.9.6-1.1 1.1z"/><path d="m197.7 31.3h7.3v17.9h-3.8v-14.4h-3.4v-3.5z"/><path d="m216.1 49.5c-1 .1-2.2-.1-3.1-.6-1-.4-1.8-1.1-2.4-1.9-1.1-2-1.8-4.3-1.8-6.8 0-2.4.6-4.7 1.8-6.8.6-.8 1.5-1.4 2.6-1.9 1-.4 2-.6 3.1-.6s2 .3 3.1.6c1 .4 1.8 1 2.6 1.9 1.1 2 1.9 4.3 1.9 6.8 0 2.4-.6 4.7-1.9 6.8-.6.9-1.5 1.5-2.4 2-1.3.3-2.5.6-3.5.5zm-2.7-13.6c-1.1 2.8-1.1 5.9 0 8.7.3.5.6.9 1.1 1.1.5.3 1 .4 1.5.4s1.1-.1 1.5-.4.9-.8 1.1-1.1c1.1-2.8 1.1-5.9 0-8.7-.3-.5-.6-.9-1.1-1.1-.5-.3-1-.4-1.5-.4s-1.1.1-1.5.4c-.4.2-.8.6-1.1 1.1z"/><path d="m233.7 49.5c-1 .1-2.2-.1-3.1-.5-1-.4-1.8-1.1-2.4-2-1.1-2-1.8-4.3-1.8-6.8 0-2.4.6-4.7 1.8-6.8.6-.8 1.5-1.4 2.6-1.9 1-.4 2-.6 3.1-.6 1 0 2 .3 3.1.6 1 .4 1.8 1 2.6 1.9 1.1 2 1.8 4.3 1.8 6.8 0 2.4-.6 4.7-1.8 6.8-.6.9-1.5 1.5-2.4 1.9-1.3.4-2.3.7-3.5.6zm-2.5-13.6c-1.1 2.8-1.1 5.9 0 8.7.3.5.6.9 1.1 1.1.5.3 1 .4 1.5.4s1.1-.1 1.5-.4.9-.8 1.1-1.1c1.1-2.8 1.1-5.9 0-8.7-.3-.5-.6-.9-1.1-1.1-.5-.3-1-.4-1.5-.4s-1.1.1-1.5.4c-.5.2-.9.6-1.1 1.1z"/><path d="m251.4 49.5c-1 .1-2.2-.1-3.1-.6-1-.4-1.8-1.1-2.4-1.9-1.1-2-1.8-4.3-1.8-6.8 0-2.4.6-4.7 1.8-6.8.6-.8 1.5-1.4 2.6-1.9 1-.4 2-.6 3.1-.6 1 0 2 .3 3.1.6 1 .4 1.8 1 2.6 1.9 1.1 2 1.8 4.3 1.8 6.8 0 2.4-.6 4.7-1.8 6.8-.6.9-1.5 1.5-2.4 2-1.3.3-2.4.6-3.5.5zm-2.6-13.6c-1.1 2.8-1.1 5.9 0 8.7.3.5.6.9 1.1 1.1.5.3 1 .4 1.5.4s1.1-.1 1.5-.4.9-.8 1.1-1.1c1.1-2.8 1.1-5.9 0-8.7-.3-.5-.6-.9-1.1-1.1-.5-.3-1-.4-1.5-.4s-1.1.1-1.5.4c-.5.2-.9.6-1.1 1.1z"/><path d="m261.1 31.3h7.3v17.9h-3.8v-14.4h-3.4v-3.5z"/><path d="m279.5 49.5c-1 .1-2.2-.1-3.1-.5-1-.4-1.8-1.1-2.4-2-1.1-2-1.8-4.3-1.8-6.8 0-2.4.6-4.7 1.8-6.8.6-.8 1.5-1.4 2.6-1.9 1-.4 2-.6 3.1-.6 1 0 2 .3 3.1.6 1 .4 1.8 1 2.6 1.9 1.1 2 1.8 4.3 1.8 6.8 0 2.4-.6 4.7-1.8 6.8-.6.9-1.5 1.5-2.4 1.9-1.3.4-2.5.7-3.5.6zm-2.7-13.6c-1.1 2.8-1.1 5.9 0 8.7.3.5.6.9 1.1 1.1.5.3 1 .4 1.5.4s1.1-.1 1.5-.4.9-.8 1.1-1.1c1.1-2.8 1.1-5.9 0-8.7-.3-.5-.6-.9-1.1-1.1-.5-.3-1-.4-1.5-.4s-1.1.1-1.5.4c-.4.2-.8.6-1.1 1.1z"/><path d="m125 62.1h7.3v18h-3.8v-14.6h-3.5z"/><path d="m143.4 80.3c-1 .1-2.2-.1-3.1-.5-1-.4-1.8-1.1-2.4-2-1.1-2-1.8-4.3-1.8-6.8 0-2.4.6-4.7 1.8-6.8.6-.8 1.5-1.4 2.6-1.9 1-.4 2-.6 3.1-.6 1 0 2 .3 3.1.6 1 .4 1.8 1 2.6 1.9 1.1 2 1.8 4.3 1.8 6.8 0 2.4-.6 4.7-1.8 6.8-.6.9-1.5 1.5-2.4 1.9-1.4.4-2.5.6-3.5.6zm-2.6-13.6c-1.1 2.8-1.1 5.9 0 8.7.3.5.6.9 1.1 1.1.5.3 1 .4 1.5.4s1.1-.1 1.5-.4.9-.8 1.1-1.1c1.1-2.8 1.1-5.9 0-8.7-.3-.5-.6-.9-1.1-1.1s-1-.4-1.5-.4-1.1.1-1.5.4c-.3.2-.8.6-1.1 1.1z"/><path d="m161.1 80.3c-1 .1-2.2-.1-3.1-.5-1-.4-1.8-1.1-2.4-2-1.1-2-1.8-4.3-1.8-6.8 0-2.4.6-4.7 1.8-6.8.6-.8 1.5-1.4 2.6-1.9 1-.4 2-.6 3.1-.6s2 .3 3.1.6c1 .4 1.8 1 2.6 1.9 1.1 2 1.8 4.3 1.8 6.8 0 2.4-.6 4.7-1.8 6.8-.6.9-1.5 1.5-2.4 2-1.3.4-2.5.5-3.5.5zm-2.7-13.6c-1.1 2.8-1.1 5.9 0 8.7.3.5.6.9 1.1 1.1s1 .4 1.5.4 1.1-.1 1.5-.4.9-.8 1.1-1.1c1.1-2.8 1.1-5.9 0-8.7-.3-.5-.6-.9-1.1-1.1-.5-.3-1-.4-1.5-.4s-1.1.1-1.5.4-.8.6-1.1 1.1z"/><path d="m178.8 80.3c-1 .1-2.2-.1-3.1-.6-1-.4-1.8-1.1-2.4-1.9-1.1-2-1.8-4.3-1.8-6.8 0-2.4.6-4.7 1.8-6.8.6-.8 1.5-1.4 2.6-1.9 1-.4 2-.6 3.1-.6s2 .3 3.1.6c1 .4 1.8 1 2.6 1.9 1.1 2 1.8 4.3 1.8 6.8 0 2.4-.6 4.7-1.8 6.8-.6.9-1.5 1.5-2.4 2-1.4.4-2.4.5-3.5.5zm-2.6-13.6c-1.1 2.8-1.1 5.9 0 8.7.3.5.6.9 1.1 1.1s1 .4 1.5.4 1-.1 1.5-.4.9-.6 1.1-1.1c1.1-2.8 1.1-5.9 0-8.7-.3-.5-.6-.9-1-1.1-.5-.3-1-.4-1.5-.4s-1.1.1-1.5.4c-.6.2-1 .6-1.2 1.1z"/><path d="m196.5 62.1h7.3v18h-3.8v-14.6h-3.4v-3.4z"/><path d="m206.8 62.1h7.3v18h-3.8v-14.6h-3.4v-3.4z"/><path d="m217.1 62.1h7.3v18h-3.8v-14.6h-3.4v-3.4z"/><path d="m242.3 80.3c-1 .1-2.2-.1-3.1-.5-1-.4-1.8-1.1-2.4-2-1.1-2-1.8-4.3-1.8-6.8 0-2.4.6-4.7 1.8-6.8.6-.8 1.5-1.4 2.6-1.9 1-.4 2-.6 3.1-.6s2 .3 3.1.6c1 .4 1.8 1 2.6 1.9 1.1 2 1.8 4.3 1.8 6.8 0 2.4-.6 4.7-1.8 6.8-.6.9-1.5 1.5-2.4 2-1.4.4-2.4.5-3.5.5zm-2.6-13.6c-1.1 2.8-1.1 5.9 0 8.7.3.5.6.9 1.1 1.1.5.3 1 .4 1.5.4s1.1-.1 1.5-.4.9-.8 1.1-1.1c1.1-2.8 1.1-5.9 0-8.7-.3-.5-.6-.9-1.1-1.1-.5-.3-1-.4-1.5-.4s-1.1.1-1.5.4c-.3.2-.8.6-1.1 1.1z"/><path d="m252 62.1h7.3v18h-3.8v-14.6h-3.5z"/><path d="m264.8 62.1h7.3v18h-3.8v-14.6h-3.4v-3.4z"/><path d="m277.7 62.1h7.3v18h-3.8v-14.6h-3.4v-3.4z"/><path d="m132.5 111.1c-1 .1-2.2-.1-3.1-.6-1-.4-1.8-1.1-2.4-1.9-1.1-2-1.8-4.3-1.8-6.8 0-2.4.6-4.7 1.8-6.8.6-.8 1.5-1.4 2.6-1.9 1-.4 2-.6 3.1-.6s2 .3 3.1.6c1 .4 1.8 1 2.6 1.9 1.1 2 1.8 4.3 1.8 6.8 0 2.4-.6 4.7-1.8 6.8-.6.9-1.5 1.5-2.4 2-1.4.4-2.4.6-3.5.5zm-2.6-13.5c-1.1 2.8-1.1 5.9 0 8.7.3.5.6.9 1 1.1.5.3 1 .4 1.5.4s1.1-.1 1.5-.4c.5-.3.9-.8 1-1.1 1.1-2.8 1.1-5.9 0-8.7-.3-.5-.6-.9-1-1.1-.5-.3-1-.4-1.5-.4s-1.1.1-1.5.4c-.4 0-.8.5-1 1.1z"/><path d="m151.4 111.1c-1 .1-2.2-.1-3.1-.6-1-.4-1.8-1.1-2.4-1.9-1.1-2-1.8-4.3-1.8-6.8 0-2.4.6-4.7 1.8-6.8.6-.8 1.5-1.4 2.6-1.9 1-.5 2-.6 3.1-.6s2 .3 3.1.6c1 .4 1.8 1 2.6 1.9 1.1 2 1.8 4.3 1.8 6.8 0 2.4-.6 4.7-1.8 6.8-.6.9-1.5 1.5-2.4 2-1.3.4-2.3.6-3.5.5zm-2.5-13.5c-1.1 2.8-1.1 5.9 0 8.7.3.5.6.9 1 1.1.5.3 1 .4 1.5.4s1.1-.1 1.5-.4c.5-.3.9-.8 1-1.1 1.1-2.8 1.1-5.9 0-8.7-.3-.5-.6-.9-1-1.1-.5-.3-1-.4-1.5-.4s-1.1.1-1.5.4c-.4 0-.8.5-1 1.1z"/><path d="m170.4 111.1c-1 .1-2.2-.1-3.1-.6-1-.4-1.8-1.1-2.4-1.9-1.1-2-1.8-4.3-1.8-6.8 0-2.4.6-4.7 1.8-6.8.6-.8 1.5-1.4 2.6-1.9 1-.5 2-.6 3.1-.6 1 0 2 .3 3.1.6 1 .4 1.8 1 2.6 1.9 1.1 2 1.8 4.3 1.8 6.8 0 2.4-.6 4.7-1.8 6.8-.6.9-1.5 1.5-2.4 2-1.3.4-2.5.6-3.5.5zm-2.7-13.5c-1.1 2.8-1.1 5.9 0 8.7.3.5.6.9 1 1.1.5.3 1 .4 1.5.4s1.1-.1 1.5-.4c.5-.3.9-.8 1-1.1 1.1-2.8 1.1-5.9 0-8.7-.3-.5-.6-.9-1-1.1-.5-.3-1-.4-1.5-.4s-1.1.1-1.5.4c-.3 0-.7.5-1 1.1z"/><path d="m197.5 111.1c-1 .1-2.2-.1-3.1-.6-1-.4-1.8-1.1-2.4-1.9-1.1-2-1.8-4.3-1.8-6.8 0-2.4.6-4.7 1.8-6.8.6-.8 1.5-1.4 2.6-1.9 1-.5 2-.6 3.1-.6 1 0 2 .3 3.1.6 1 .4 1.8 1 2.6 1.9 1.1 2 1.8 4.3 1.8 6.8 0 2.4-.6 4.7-1.8 6.8-.6.9-1.5 1.5-2.4 2-1.4.4-2.5.6-3.5.5zm-2.7-13.5c-1.1 2.8-1.1 5.9 0 8.7.3.5.6.9 1.1 1.1.5.3 1 .4 1.5.4s1.1-.1 1.5-.4c.5-.3.9-.8 1.1-1.1 1.1-2.8 1.1-5.9 0-8.7-.3-.5-.6-.9-1.1-1.1-.5-.3-1-.4-1.5-.4s-1.1.1-1.5.4c-.5 0-.8.5-1.1 1.1z"/><path d="m208.4 93h7.3v18h-3.8v-14.6h-3.4v-3.4z"/><path d="m220.1 93h7.3v18h-3.8v-14.6h-3.4v-3.4z"/><path d="m255.8 111.1c-1 .1-2.2-.1-3.1-.5-1-.5-1.8-1.1-2.4-2-1.1-2-1.8-4.3-1.8-6.8 0-2.4.6-4.7 1.8-6.8.6-.8 1.5-1.4 2.6-1.9 1-.5 2-.6 3.1-.6 1 0 2 .3 3.1.6 1 .4 1.8 1 2.6 1.9 1.1 2 1.8 4.3 1.8 6.8 0 2.4-.6 4.7-1.8 6.8-.6.9-1.5 1.5-2.4 2-1.3.4-2.5.6-3.5.5zm-2.7-13.7c-1.1 2.8-1.1 5.9 0 8.7.3.5.6.9 1.1 1.1.5.3 1 .4 1.5.4s1.1-.1 1.5-.4.9-.8 1.1-1.1c1.1-2.8 1.1-5.9 0-8.7-.3-.5-.6-.9-1.1-1.1-.5-.3-1-.4-1.5-.4s-1.1.1-1.5.4c-.3.2-.8.6-1.1 1.1z"/><path d="m266.6 93h7.3v18h-3.8v-14.6h-3.4z"/><path d="m278.2 93h7.3v18h-3.8v-14.6h-3.4v-3.4z"/><path d="m123 123.7h7.3v17.9h-3.8v-14.4h-3.5z"/><path d="m141.3 141.8c-1 .1-2.2-.1-3.1-.5-1-.5-1.8-1.1-2.4-2-1.1-2-1.8-4.3-1.8-6.8 0-2.4.6-4.7 1.8-6.8.6-.8 1.5-1.4 2.6-1.9 1-.4 2-.6 3.1-.6s2 .3 3.1.6c1 .4 1.8 1 2.6 1.9 1.1 2 1.8 4.3 1.8 6.8 0 2.4-.6 4.7-1.8 6.8-.6.9-1.5 1.5-2.4 2-1 .5-2.4.5-3.5.5zm-2.6-13.6c-1.1 2.8-1.1 5.9 0 8.7.3.5.6.9 1.1 1.1.5.3 1 .4 1.5.4s1.1-.1 1.5-.4.9-.8 1.1-1.1c1.1-2.8 1.1-5.9 0-8.7-.3-.5-.6-.9-1.1-1.1-.5-.3-1-.4-1.5-.4s-1.1.1-1.5.4c-.5.2-.9.6-1.1 1.1z"/><path d="m151 123.7h7.3v17.9h-3.8v-14.4h-3.5z"/><path d="m168.1 123.7h7.3v17.9h-3.8v-14.4h-3.4v-3.5z"/><path d="m186.5 141.8c-1 .1-2.2-.1-3.1-.5s-1.8-1.1-2.4-2c-1.1-2-1.8-4.3-1.8-6.8 0-2.4.6-4.7 1.8-6.8.6-.8 1.5-1.4 2.6-1.9 1-.4 2-.6 3.1-.6s2 .3 3.1.6c1 .4 1.8 1 2.6 1.9 1.1 2 1.8 4.3 1.8 6.8 0 2.4-.6 4.7-1.8 6.8-.6.9-1.5 1.5-2.4 2-1.5.4-2.5.5-3.5.5zm-2.7-13.6c-1.1 2.8-1.1 5.9 0 8.7.3.5.6.9 1.1 1.1.5.3 1 .4 1.5.4s1.1-.1 1.5-.4.9-.8 1.1-1.1c1.1-2.8 1.1-5.9 0-8.7-.3-.5-.6-.9-1.1-1.1-.5-.3-1-.4-1.5-.4s-1.1.1-1.5.4c-.3.2-.8.6-1.1 1.1z"/><path d="m196.1 123.7h7.3v17.9h-3.8v-14.4h-3.4v-3.5z"/><path d="m214.4 141.8c-1 .1-2.2-.1-3.1-.5-1-.5-1.8-1.1-2.4-2-1.1-2-1.8-4.3-1.8-6.8 0-2.4.6-4.7 1.8-6.8.6-.8 1.5-1.4 2.6-1.9 1-.4 2-.6 3.1-.6s2 .3 3.1.6c1 .4 1.8 1 2.6 1.9 1.1 2 1.8 4.3 1.8 6.8 0 2.4-.6 4.7-1.8 6.8-.6.9-1.5 1.5-2.4 2-1 .5-2.3.5-3.5.5zm-2.5-13.6c-1.1 2.8-1.1 5.9 0 8.7.3.5.6.9 1.1 1.1.5.3 1 .4 1.5.4s1.1-.1 1.5-.4.9-.8 1.1-1.1c1.1-2.8 1.1-5.9 0-8.7-.3-.5-.6-.9-1.1-1.1-.5-.3-1-.4-1.5-.4s-1.1.1-1.5.4c-.3.2-.9.6-1.1 1.1z"/><path d="m232.2 141.8c-1 .1-2.2-.1-3.1-.5s-1.8-1.1-2.4-2c-1.1-2-1.8-4.3-1.8-6.8 0-2.4.6-4.7 1.8-6.8.6-.8 1.5-1.4 2.6-1.9 1-.4 2-.6 3.1-.6s2 .3 3.1.6c1 .4 1.8 1 2.6 1.9 1.1 2 1.8 4.3 1.8 6.8 0 2.4-.6 4.7-1.8 6.8-.6.9-1.5 1.5-2.4 2-1.3.4-2.5.5-3.5.5zm-2.7-13.6c-1.1 2.8-1.1 5.9 0 8.7.3.5.6.9 1.1 1.1.5.3 1 .4 1.5.4s1.1-.1 1.5-.4.9-.8 1.1-1.1c1.1-2.8 1.1-5.9 0-8.7-.3-.5-.6-.9-1.1-1.1-.5-.3-1-.4-1.5-.4s-1.1.1-1.5.4c-.3.2-.8.6-1.1 1.1z"/><path d="m262.2 123.7h7.3v17.9h-3.8v-14.4h-3.4v-3.5z"/><path d="m280.5 141.8c-1 .1-2.2-.1-3.1-.5-1-.5-1.8-1.1-2.4-2-1.1-2-1.8-4.3-1.8-6.8 0-2.4.6-4.7 1.8-6.8.6-.8 1.5-1.4 2.6-1.9 1-.4 2-.6 3.1-.6 1 0 2 .3 3.1.6 1 .4 1.8 1 2.6 1.9 1.1 2 1.8 4.3 1.8 6.8 0 2.4-.6 4.7-1.8 6.8-.6.9-1.5 1.5-2.4 2-1.4.4-2.4.5-3.5.5zm-2.6-13.6c-1.1 2.8-1.1 5.9 0 8.7.3.5.6.9 1.1 1.1.5.3 1 .4 1.5.4s1.1-.1 1.5-.4.9-.8 1.1-1.1c1.1-2.8 1.1-5.9 0-8.7-.3-.5-.6-.9-1.1-1.1-.5-.3-1-.4-1.5-.4s-1.1.1-1.5.4-.9.6-1.1 1.1z"/><path d="m130.5 172.6c-1 .1-2.2-.1-3.1-.5-1-.4-1.8-1.1-2.4-2-1.1-2-1.8-4.3-1.8-6.8 0-2.4.6-4.7 1.8-6.8.6-.8 1.5-1.4 2.6-1.9 1-.4 2-.6 3.1-.6 1 0 2 .3 3.1.6 1 .4 1.8 1 2.6 1.9 1.1 2 1.8 4.3 1.8 6.8 0 2.4-.6 4.7-1.8 6.8-.6.9-1.5 1.5-2.4 1.9-1.3.5-2.4.6-3.5.6zm-2.6-13.7c-1.1 2.8-1.1 5.9 0 8.7.3.5.6.9 1.1 1.1.5.3 1 .4 1.5.4s1.1-.1 1.5-.4.9-.8 1.1-1.1c1.1-2.8 1.1-5.9 0-8.7-.3-.5-.6-.9-1.1-1.1-.5-.3-1-.4-1.5-.4s-1.1.1-1.5.4c-.6.2-.8.7-1.1 1.1z"/><path d="m148.2 172.6c-1 .1-2.2-.1-3.1-.6-1-.4-1.8-1.1-2.4-1.9-1.1-2-1.8-4.3-1.8-6.8 0-2.4.6-4.7 1.8-6.8.6-.8 1.5-1.4 2.6-1.9 1-.4 2-.6 3.1-.6 1 0 2 .3 3.1.6 1 .4 1.8 1 2.6 1.9 1.1 2 1.8 4.3 1.8 6.8s-.6 4.7-1.8 6.8c-.6.9-1.5 1.5-2.4 2-1.3.4-2.5.5-3.5.5zm-2.7-13.7c-1.1 2.8-1.1 5.9 0 8.7.3.5.6.9 1.1 1.1.5.3 1 .4 1.5.4s1.1-.1 1.5-.4.9-.8 1.1-1.1c1.1-2.8 1.1-5.9 0-8.7-.3-.5-.6-.9-1.1-1.1-.5-.3-1-.4-1.5-.4s-1.1.1-1.5.4c-.4.2-.8.7-1.1 1.1z"/><path d="m166 172.6c-1 .1-2.2-.1-3.1-.5-1-.4-1.8-1.1-2.4-2-1.1-2-1.8-4.3-1.8-6.8 0-2.4.6-4.7 1.8-6.8.6-.8 1.5-1.4 2.6-1.9 1-.4 2-.6 3.1-.6 1 0 2 .3 3.1.6 1 .4 1.8 1 2.6 1.9 1.1 2 1.8 4.3 1.8 6.8 0 2.4-.6 4.7-1.8 6.8-.6.9-1.5 1.5-2.4 1.9-1.5.5-2.5.6-3.5.6zm-2.7-13.7c-1.1 2.8-1.1 5.9 0 8.7.3.5.6.9 1.1 1.1.5.3 1 .4 1.5.4s1.1-.1 1.5-.4c.5-.3.9-.8 1.1-1.1 1.1-2.8 1.1-5.9 0-8.7-.3-.5-.6-.9-1.1-1.1-.5-.3-1-.4-1.5-.4s-1.1.1-1.5.4c-.5.2-.9.7-1.1 1.1z"/><path d="m175.5 154.5h7.3v17.9h-3.8v-14.5h-3.4v-3.4z"/><path d="m193.9 172.6c-1 .1-2.2-.1-3.1-.5-1-.4-1.8-1.1-2.4-2-1.1-2-1.8-4.3-1.8-6.8 0-2.4.6-4.7 1.8-6.8.6-.8 1.5-1.4 2.6-1.9 1-.4 2-.6 3.1-.6s2 .3 3.1.6c1 .4 1.8 1 2.6 1.9 1.1 2 1.8 4.3 1.8 6.8s-.6 4.7-1.8 6.8c-.6.9-1.5 1.5-2.4 2-1.3.4-2.3.5-3.5.5zm-2.5-13.7c-1.1 2.8-1.1 5.9 0 8.7.3.5.6.9 1.1 1.1.5.3 1 .4 1.5.4s1.1-.1 1.5-.4.9-.8 1.1-1.1c1.1-2.8 1.1-5.9 0-8.7-.3-.5-.6-.9-1.1-1.1-.5-.3-1-.4-1.5-.4s-1.1.1-1.5.4c-.6.2-1 .7-1.1 1.1z"/><path d="m203.6 154.5h7.3v17.9h-3.9v-14.5h-3.4z"/><path d="m222 172.6c-1 .1-2.2-.1-3.1-.6-1-.4-1.8-1.1-2.4-1.9-1.1-2-1.8-4.3-1.8-6.8 0-2.4.6-4.7 1.8-6.8.6-.8 1.5-1.4 2.6-1.9 1-.4 2-.6 3.1-.6 1 0 2 .3 3.1.6 1 .4 1.8 1 2.6 1.9 1.1 2 1.8 4.3 1.8 6.8s-.6 4.7-1.8 6.8c-.6.9-1.5 1.5-2.4 2-1.4.4-2.5.5-3.5.5zm-2.7-13.7c-1.1 2.8-1.1 5.9 0 8.7.3.5.6.9 1.1 1.1.5.3 1 .4 1.5.4s1.1-.1 1.5-.4c.5-.3.9-.8 1.1-1.1 1.1-2.8 1.1-5.9 0-8.7-.3-.5-.6-.9-1.1-1.1-.5-.3-1-.4-1.5-.4s-1.1.1-1.5.4c-.5.2-.9.7-1.1 1.1z"/><path d="m239.6 172.6c-1 .1-2.2-.1-3.1-.5-1-.4-1.8-1.1-2.4-2-1.1-2-1.8-4.3-1.8-6.8 0-2.4.6-4.7 1.8-6.8.6-.8 1.5-1.4 2.6-1.9 1-.4 2-.6 3.1-.6s2 .3 3.1.6c1 .4 1.8 1 2.6 1.9 1.1 2 1.8 4.3 1.8 6.8s-.6 4.7-1.8 6.8c-.6.9-1.5 1.5-2.4 2-1.3.4-2.4.5-3.5.5zm-2.6-13.7c-1.1 2.8-1.1 5.9 0 8.7.3.5.6.9 1.1 1.1.5.3 1 .4 1.5.4s1.1-.1 1.5-.4.9-.8 1.1-1.1c1.1-2.8 1.1-5.9 0-8.7-.3-.5-.6-.9-1.1-1.1-.5-.3-1-.4-1.5-.4s-1.1.1-1.5.4c-.4.2-.8.7-1.1 1.1z"/><path d="m249.3 154.5h7.3v17.9h-3.8v-14.5h-3.4v-3.4z"/><path d="m259.6 154.5h7.3v17.9h-3.8v-14.5h-3.4v-3.4z"/><path d="m269.9 154.5h7.3v17.9h-3.8v-14.5h-3.4v-3.4z"/><path d="m280.3 154.5h7.3v17.9h-3.8v-14.5h-3.4v-3.4z"/></g><path d="m241.8 119.3-5.7-9.6-10.3-17.1c-1.7-2.8-2.6-6.1-2.6-9.4v-18.9h-27.7v18.9c0 3.3-.9 6.6-2.7 9.4l-10.5 17.1-5.2 8.5-10.5 17.1c-.8 1.3-1.3 2.8-1.3 4.3s.4 3.1 1.1 4.5 1.9 2.6 3.2 3.3 2.9 1.1 4.5 1.1l70 .1c1.5 0 3.1-.4 4.5-1.1 1.4-.8 2.4-1.9 3.2-3.3s1.1-2.9 1.1-4.5-.5-3.1-1.3-4.5z" fill="#011e41"/><path d="m189.7 56.6v1.9h38.9v-1.9z" fill="#011e41"/><path d="m229.9 90c-1.1-1.9-1.8-4.1-1.8-6.4v-18.6h.3c1.4 0 2.7-.5 3.7-1.5s1.5-2.3 1.5-3.7v-2.3c0-.6-.1-1.4-.4-2s-.6-1.3-1.1-1.7c-1-1-2.3-1.5-3.7-1.5h-38.4c-1.4 0-2.7.5-3.7 1.5s-1.5 2.3-1.5 3.7v2.3c0 .6.1 1.4.4 2s.6 1.3 1.1 1.7c.5.5 1 .9 1.7 1.1s1.3.4 2 .4h.3v18.6c0 2.3-.6 4.5-1.8 6.4l-25.5 41.6c-1.3 2.2-2 4.6-2 7.1 0 2.6.6 5 1.8 7.1 1.3 2.2 2.9 4 5.1 5.2 2.2 1.3 4.6 1.9 7.1 1.9l68.4.1c2.6 0 5-.6 7.1-1.9 2.2-1.3 4-3.1 5.1-5.2 1.3-2.2 1.8-4.6 1.8-7.1s-.8-5-2-7zm-40.2-33.4h38.9v1.9h-38.9zm62.1 87.5c-.8 1.4-1.9 2.6-3.2 3.3-1.4.8-2.9 1.1-4.5 1.1l-70.2-.1c-1.5 0-3.1-.4-4.5-1.1s-2.4-1.9-3.2-3.3-1.1-2.9-1.1-4.5.5-3.1 1.3-4.3l10.5-17.1 5.2-8.5 10.5-17.1c1.8-2.8 2.7-6.1 2.7-9.4v-19h27.7v18.9c0 3.3.9 6.6 2.6 9.4l10.3 17.1 5.7 9.6 10 16.2c.8 1.3 1.3 2.8 1.3 4.3.1 1.7-.3 3.3-1.1 4.5z" fill="#8ab7e9"/><path d="m196.5 62.1h7.3v18h-3.8v-14.6h-3.4v-3.4z" fill="#fff"/><path d="m206.8 62.1h7.3v18h-3.8v-14.6h-3.4v-3.4z" fill="#fff"/><path d="m217.1 62.1h7.3v18h-3.8v-14.6h-3.4v-3.4z" fill="#fff"/><path d="m197.5 111.1c-1 .1-2.2-.1-3.1-.6-1-.4-1.8-1.1-2.4-1.9-1.1-2-1.8-4.3-1.8-6.8 0-2.4.6-4.7 1.8-6.8.6-.8 1.5-1.4 2.6-1.9 1-.5 2-.6 3.1-.6 1 0 2 .3 3.1.6 1 .4 1.8 1 2.6 1.9 1.1 2 1.8 4.3 1.8 6.8 0 2.4-.6 4.7-1.8 6.8-.6.9-1.5 1.5-2.4 2-1.4.4-2.5.6-3.5.5zm-2.7-13.5c-1.1 2.8-1.1 5.9 0 8.7.3.5.6.9 1.1 1.1.5.3 1 .4 1.5.4s1.1-.1 1.5-.4c.5-.3.9-.8 1.1-1.1 1.1-2.8 1.1-5.9 0-8.7-.3-.5-.6-.9-1.1-1.1-.5-.3-1-.4-1.5-.4s-1.1.1-1.5.4c-.5 0-.8.5-1.1 1.1z" fill="#fff"/><path d="m208.4 93h7.3v18h-3.8v-14.6h-3.4v-3.4z" fill="#fff"/><path d="m220.1 93h7.3v18h-3.8v-14.6h-3.4v-3.4z" fill="#fff"/><path d="m169.7 123.7h7.3v17.9h-3.8v-14.4h-3.4v-3.5z" fill="#fff"/><path d="m188 141.8c-1 .1-2.2-.1-3.1-.5-1-.5-1.8-1.1-2.4-2-1.1-2-1.8-4.3-1.8-6.8 0-2.4.6-4.7 1.8-6.8.6-.8 1.5-1.4 2.6-1.9 1-.4 2-.6 3.1-.6 1 0 2 .3 3.1.6 1 .4 1.8 1 2.6 1.9 1.1 2 1.9 4.3 1.9 6.8 0 2.4-.6 4.7-1.9 6.8-.6.9-1.5 1.5-2.4 2-1.3.4-2.4.5-3.5.5zm-2.5-13.6c-1.1 2.8-1.1 5.9 0 8.7.3.5.6.9 1.1 1.1.5.3 1 .4 1.5.4s1.1-.1 1.5-.4c.5-.3.9-.8 1.1-1.1 1.1-2.8 1.1-5.9 0-8.7-.3-.5-.6-.9-1.1-1.1-.5-.3-1-.4-1.5-.4s-1.1.1-1.5.4-.9.6-1.1 1.1z" fill="#fff"/><path d="m197.7 123.7h7.3v17.9h-3.8v-14.4h-3.4v-3.5z" fill="#fff"/><path d="m216.1 141.8c-1 .1-2.2-.1-3.1-.5-1-.4-1.8-1.1-2.4-2-1.1-2-1.8-4.3-1.8-6.8 0-2.4.6-4.7 1.8-6.8.6-.8 1.5-1.4 2.6-1.9 1-.4 2-.6 3.1-.6s2 .3 3.1.6c1 .4 1.8 1 2.6 1.9 1.1 2 1.9 4.3 1.9 6.8 0 2.4-.6 4.7-1.9 6.8-.6.9-1.5 1.5-2.4 2-1.3.4-2.5.5-3.5.5zm-2.7-13.6c-1.1 2.8-1.1 5.9 0 8.7.3.5.6.9 1.1 1.1.5.3 1 .4 1.5.4s1.1-.1 1.5-.4c.5-.3.9-.8 1.1-1.1 1.1-2.8 1.1-5.9 0-8.7-.3-.5-.6-.9-1.1-1.1-.5-.3-1-.4-1.5-.4s-1.1.1-1.5.4c-.4.2-.8.6-1.1 1.1z" fill="#fff"/><path d="m233.7 141.8c-1 .1-2.2-.1-3.1-.5-1-.5-1.8-1.1-2.4-2-1.1-2-1.8-4.3-1.8-6.8 0-2.4.6-4.7 1.8-6.8.6-.8 1.5-1.4 2.6-1.9 1-.4 2-.6 3.1-.6 1 0 2 .3 3.1.6 1 .4 1.8 1 2.6 1.9 1.1 2 1.9 4.3 1.9 6.8 0 2.4-.6 4.7-1.9 6.8-.6.9-1.5 1.5-2.4 2-1.3.4-2.3.5-3.5.5zm-2.5-13.6c-1.1 2.8-1.1 5.9 0 8.7.3.5.6.9 1.1 1.1.5.3 1 .4 1.5.4s1.1-.1 1.5-.4c.5-.3.9-.8 1.1-1.1 1.1-2.8 1.1-5.9 0-8.7-.3-.5-.6-.9-1.1-1.1-.5-.3-1-.4-1.5-.4s-1.1.1-1.5.4c-.5.2-.9.6-1.1 1.1z" fill="#fff"/><path d="m243.4 123.7h7.3v17.9h-3.8v-14.4h-3.4v-3.5z" fill="#fff"/><path d="m129.3 203.3c-1 .1-2.2-.1-3.1-.6-1-.4-1.8-1.1-2.4-1.9-1.1-2-1.8-4.3-1.8-6.8s.6-4.7 1.8-6.8c.6-.8 1.5-1.4 2.6-1.9 1-.4 2-.6 3.1-.6 1 0 2 .3 3.1.6 1 .4 1.8 1 2.6 1.9 1.1 2 1.9 4.3 1.9 6.8s-.6 4.7-1.9 6.8c-.6.9-1.5 1.5-2.4 2-1.3.4-2.4.7-3.5.5zm-2.6-13.6c-1.1 2.8-1.1 5.9 0 8.7.3.5.6.9 1.1 1.1.5.3 1 .4 1.5.4s1.1-.1 1.5-.4c.5-.3.9-.8 1.1-1.1 1.1-2.8 1.1-5.9 0-8.7-.3-.5-.6-.9-1.1-1.1-.5-.3-1-.4-1.5-.4s-1.1.1-1.5.4c-.5.2-.9.7-1.1 1.1z" fill="#8ab7e9"/><path d="m148.2 203.3c-1 .1-2.2-.1-3.1-.6-1-.4-1.8-1.1-2.4-1.9-1.1-2-1.8-4.3-1.8-6.8s.6-4.7 1.8-6.8c.6-.8 1.5-1.4 2.6-1.9 1-.4 2-.6 3.1-.6 1 0 2 .3 3.1.6 1 .4 1.8 1 2.6 1.9 1.1 2 1.8 4.3 1.8 6.8s-.6 4.7-1.8 6.8c-.6.9-1.5 1.5-2.4 2-1.3.4-2.3.7-3.5.5zm-2.5-13.6c-1.1 2.8-1.1 5.9 0 8.7.3.5.6.9 1.1 1.1.5.3 1 .4 1.5.4s1.1-.1 1.5-.4c.5-.3.9-.8 1.1-1.1 1.1-2.8 1.1-5.9 0-8.7-.3-.5-.6-.9-1.1-1.1-.5-.3-1-.4-1.5-.4s-1.1.1-1.5.4c-.6.2-1 .7-1.1 1.1z" fill="#8ab7e9"/><path d="m166.7 203.3c-1 .1-2.2-.1-3.1-.6-1-.4-1.8-1.1-2.4-1.9-1.1-2-1.8-4.3-1.8-6.8s.6-4.7 1.8-6.8c.6-.8 1.5-1.4 2.6-1.9 1-.4 2-.6 3.1-.6s2 .3 3.1.6c1 .4 1.8 1 2.6 1.9 1.1 2 1.8 4.3 1.8 6.8s-.6 4.7-1.8 6.8c-.6.9-1.5 1.5-2.4 2-1.3.4-2.3.7-3.5.5zm-2.5-13.6c-1.1 2.8-1.1 5.9 0 8.7.3.5.6.9 1.1 1.1.5.3 1 .4 1.5.4s1.1-.1 1.5-.4c.5-.3.9-.8 1.1-1.1 1.1-2.8 1.1-5.9 0-8.7-.3-.5-.6-.9-1.1-1.1-.5-.3-1-.4-1.5-.4s-1.1.1-1.5.4c-.6.2-1 .7-1.1 1.1z" fill="#8ab7e9"/><path d="m178.2 185.2h7.3v17.9h-3.8v-14.4h-3.4v-3.5z" fill="#8ab7e9"/><path d="m197.9 203.3c-1 .1-2.2-.1-3.1-.5-1-.5-1.8-1.1-2.4-2-1.1-2-1.8-4.3-1.8-6.8s.6-4.7 1.8-6.8c.6-.8 1.5-1.4 2.6-1.9 1-.4 2-.6 3.1-.6s2 .3 3.1.6c1 .4 1.8 1 2.6 1.9 1.1 2 1.8 4.3 1.8 6.8s-.6 4.7-1.8 6.8c-.6.9-1.5 1.5-2.4 1.9-1.5.5-2.5.8-3.5.6zm-2.7-13.6c-1.1 2.8-1.1 5.9 0 8.7.3.5.6.9 1.1 1.1.5.3 1 .4 1.5.4s1.1-.1 1.5-.4c.5-.3.9-.8 1.1-1.1 1.1-2.8 1.1-5.9 0-8.7-.3-.5-.6-.9-1.1-1.1-.5-.3-1-.4-1.5-.4s-1.1.1-1.5.4c-.4.2-.9.7-1.1 1.1z" fill="#8ab7e9"/><path d="m208.7 185.2h7.3v17.9h-3.8v-14.4h-3.4v-3.5z" fill="#8ab7e9"/><path d="m220.3 185.2h7.3v17.9h-3.8v-14.4h-3.4v-3.5z" fill="#8ab7e9"/><path d="m240 203.3c-1 .1-2.2-.1-3.1-.6-1-.4-1.8-1.1-2.4-1.9-1.1-2-1.8-4.3-1.8-6.8s.6-4.7 1.8-6.8c.6-.8 1.5-1.4 2.6-1.9 1-.4 2-.6 3.1-.6 1 0 2 .3 3.1.6 1 .4 1.8 1 2.6 1.9 1.1 2 1.9 4.3 1.9 6.8s-.6 4.7-1.9 6.8c-.6.9-1.5 1.5-2.4 2-1.4.4-2.4.7-3.5.5zm-2.6-13.6c-1.1 2.8-1.1 5.9 0 8.7.3.5.6.9 1.1 1.1.5.3 1 .4 1.5.4s1.1-.1 1.5-.4c.5-.3.9-.8 1.1-1.1 1.1-2.8 1.1-5.9 0-8.7-.3-.5-.6-.9-1.1-1.1-.5-.3-1-.4-1.5-.4s-1.1.1-1.5.4c-.4.2-.8.7-1.1 1.1z" fill="#8ab7e9"/><path d="m259 203.3c-1 .1-2.2-.1-3.1-.6-1-.4-1.8-1.1-2.4-1.9-1.1-2-1.8-4.3-1.8-6.8s.6-4.7 1.8-6.8c.6-.8 1.5-1.4 2.6-1.9 1-.4 2-.6 3.1-.6 1 0 2 .3 3.1.6 1 .4 1.8 1 2.6 1.9 1.1 2 1.8 4.3 1.8 6.8s-.6 4.7-1.8 6.8c-.6.9-1.5 1.5-2.4 2-1.4.4-2.5.7-3.5.5zm-2.7-13.6c-1.1 2.8-1.1 5.9 0 8.7.3.5.6.9 1.1 1.1.5.3 1 .4 1.5.4s1.1-.1 1.5-.4c.5-.3.9-.8 1.1-1.1 1.1-2.8 1.1-5.9 0-8.7-.3-.5-.6-.9-1.1-1.1s-1-.4-1.5-.4-1.1.1-1.5.4-.8.7-1.1 1.1z" fill="#8ab7e9"/><path d="m269.9 185.2h7.3v17.9h-3.8v-14.4h-3.4v-3.5z" fill="#8ab7e9"/><path d="m281.6 185.2h7.3v17.9h-3.9v-14.4h-3.4z" fill="#8ab7e9"/><path d="m129.3 25.1c-1 .1-2.2-.1-3.1-.5-1-.4-1.8-1.1-2.4-2-1.1-2-1.8-4.3-1.8-6.8s.6-4.7 1.8-6.8c.6-.8 1.5-1.4 2.6-1.9 1-.4 2-.6 3.1-.6 1 0 2 .3 3.1.6 1 .4 1.8 1 2.6 1.9 1.1 2 1.9 4.3 1.9 6.8s-.6 4.7-1.9 6.8c-.6.9-1.5 1.5-2.4 2-1.3.4-2.4.5-3.5.5zm-2.6-13.7c-1.1 2.8-1.1 5.9 0 8.7.3.5.6.9 1.1 1.1s1 .4 1.5.4 1.1-.1 1.5-.4c.5-.3.9-.8 1.1-1.1 1.1-2.8 1.1-5.9 0-8.7-.3-.5-.6-.9-1.1-1.1-.5-.3-1-.4-1.5-.4s-1.1.1-1.5.4c-.5.2-.9.6-1.1 1.1z" fill="#8ab7e9"/><path d="m148.2 25.1c-1 .1-2.2-.1-3.1-.5-1-.4-1.8-1.1-2.4-2-1.1-2-1.8-4.3-1.8-6.8s.6-4.7 1.8-6.8c.6-.8 1.5-1.4 2.6-1.9 1-.4 2-.6 3.1-.6 1 0 2 .3 3.1.6 1 .4 1.8 1 2.6 1.9 1.1 2 1.8 4.3 1.8 6.8s-.6 4.7-1.8 6.8c-.6.9-1.5 1.5-2.4 2-1.3.4-2.3.5-3.5.5zm-2.5-13.7c-1.1 2.8-1.1 5.9 0 8.7.3.5.6.9 1.1 1.1.5.3 1 .4 1.5.4s1.1-.1 1.5-.4c.5-.3.9-.8 1.1-1.1 1.1-2.8 1.1-5.9 0-8.7-.3-.5-.6-.9-1.1-1.1-.5-.3-1-.4-1.5-.4s-1.1.1-1.5.4c-.6.2-1 .6-1.1 1.1z" fill="#8ab7e9"/><path d="m167.2 25.1c-1 .1-2.2-.1-3.1-.5-1-.4-1.8-1.1-2.4-2-1.1-2-1.8-4.3-1.8-6.8s.6-4.7 1.8-6.8c.6-.8 1.5-1.4 2.6-1.9 1-.4 2-.6 3.1-.6 1 0 2 .3 3.1.6 1 .4 1.8 1 2.6 1.9 1.1 2 1.8 4.3 1.8 6.8s-.6 4.7-1.8 6.8c-.6.9-1.5 1.5-2.4 2-1.3.4-2.4.5-3.5.5zm-2.6-13.7c-1.1 2.8-1.1 5.9 0 8.7.3.5.6.9 1.1 1.1.5.3 1 .4 1.5.4s1.1-.1 1.5-.4c.5-.3.9-.8 1.1-1.1 1.1-2.8 1.1-5.9 0-8.7-.3-.5-.6-.9-1.1-1.1-.5-.3-1-.4-1.5-.4s-1.1.1-1.5.4c-.5.2-.9.6-1.1 1.1z" fill="#8ab7e9"/><path d="m178.2 7h7.3v17.9h-3.8v-14.6h-3.4v-3.3z" fill="#8ab7e9"/><path d="m197.9 25.1c-1 .1-2.2-.1-3.1-.5-1-.4-1.8-1.1-2.4-2-1.1-2-1.8-4.3-1.8-6.8s.6-4.7 1.8-6.8c.6-.8 1.5-1.4 2.6-1.9 1-.4 2-.6 3.1-.6s2 .3 3.1.6c1 .4 1.8 1 2.6 1.9 1.1 2 1.8 4.3 1.8 6.8s-.6 4.7-1.8 6.8c-.6.9-1.5 1.5-2.4 2s-2.5.5-3.5.5zm-2.7-13.7c-1.1 2.8-1.1 5.9 0 8.7.3.5.6.9 1.1 1.1.5.3 1 .4 1.5.4s1.1-.1 1.5-.4c.5-.3.9-.8 1.1-1.1 1.1-2.8 1.1-5.9 0-8.7-.3-.5-.6-.9-1.1-1.1-.5-.3-1-.4-1.5-.4s-1.1.1-1.5.4c-.5.2-.9.6-1.1 1.1z" fill="#8ab7e9"/><path d="m208.7 7h7.3v17.9h-3.8v-14.6h-3.4v-3.3z" fill="#8ab7e9"/><path d="m220.3 7h7.3v17.9h-3.8v-14.6h-3.4v-3.3z" fill="#8ab7e9"/><path d="m240 25.1c-1 .1-2.2-.1-3.1-.5s-1.8-1.1-2.4-2c-1.1-2-1.8-4.3-1.8-6.8s.6-4.7 1.8-6.8c.6-.8 1.5-1.4 2.6-1.9 1-.4 2-.6 3.1-.6 1 0 2 .3 3.1.6 1 .4 1.8 1 2.6 1.9 1.1 2 1.8 4.3 1.8 6.8s-.6 4.7-1.8 6.8c-.6.9-1.5 1.5-2.4 2-1.4.4-2.4.5-3.5.5zm-2.6-13.7c-1.1 2.8-1.1 5.9 0 8.7.3.5.6.9 1.1 1.1.5.3 1 .4 1.5.4s1.1-.1 1.5-.4c.5-.3.9-.8 1.1-1.1 1.1-2.8 1.1-5.9 0-8.7-.3-.5-.6-.9-1.1-1.1-.5-.3-1-.4-1.5-.4s-1.1.1-1.5.4c-.4.2-.8.6-1.1 1.1z" fill="#8ab7e9"/><path d="m259 25.1c-1 .1-2.2-.1-3.1-.5s-1.8-1.1-2.4-2c-1.1-2-1.8-4.3-1.8-6.8s.6-4.7 1.8-6.8c.6-.8 1.5-1.4 2.6-1.9 1-.4 2-.6 3.1-.6 1 0 2 .3 3.1.6 1 .4 1.8 1 2.6 1.9 1.1 2 1.8 4.3 1.8 6.8s-.6 4.7-1.8 6.8c-.6.9-1.5 1.5-2.4 2-1.4.4-2.5.5-3.5.5zm-2.7-13.7c-1.1 2.8-1.1 5.9 0 8.7.3.5.6.9 1.1 1.1s1 .4 1.5.4 1.1-.1 1.5-.4c.5-.3.9-.8 1.1-1.1 1.1-2.8 1.1-5.9 0-8.7-.3-.5-.6-.9-1.1-1.1-.5-.3-1-.4-1.5-.4s-1.1.1-1.5.4c-.5.2-.8.6-1.1 1.1z" fill="#8ab7e9"/><path d="m269.9 7h7.3v17.9h-3.8v-14.6h-3.4v-3.3z" fill="#8ab7e9"/><path d="m281.6 7h7.3v17.9h-3.9v-14.6h-3.4z" fill="#8ab7e9"/></svg>