<svg enable-background="new 0 0 424 215" viewBox="0 0 424 215" xmlns="http://www.w3.org/2000/svg"><path d="m264.4 189.6c0 2.2-.9 4.3-2.5 6-1.7 1.7-3.8 2.5-6 2.5l-156.7 1.3c-2.2 0-4.5-.9-6-2.4-1.7-1.7-2.5-3.8-2.5-6l-.2-30.2c0-2.2.9-4.5 2.4-6 1.7-1.6 3.8-2.5 6-2.5l156.5-1.2c2.2 0 4.5.9 6 2.4 1.6 1.6 2.5 3.8 2.5 6zm-167.7-28.8.2 30.2c0 .6.3 1.2.8 1.7s1 .8 1.7.8l156.6-1.2c.6 0 1.2-.3 1.6-.8.5-.5.8-1.1.8-1.7l-.3-30.2c0-.6-.3-1.2-.8-1.6s-1-.8-1.7-.8l-25.2.1.2 11.2c0 .8-.3 1.5-.8 2-.4.4-1.2.8-1.9.8s-1.5-.3-2-.8c-.4-.5-.8-1.2-.8-2l-.2-11.2h-6l.2 11.2c0 .8-.3 1.5-.8 2-.4.4-1.2.8-1.9.8s-1.5-.3-2-.8c-.4-.5-.8-1.2-.8-2l-.2-11.2h-6l.2 20.1c0 .8-.3 1.4-.9 1.8-.4.4-1.2.8-1.9.8s-1.3-.3-2-.8c-.4-.5-.9-1.2-.9-1.8l-.2-20.1h-6v11.2c0 .8-.3 1.4-.9 1.8-.4.4-1.2.8-1.9.8s-1.3-.3-2-.8c-.4-.5-.9-1.2-.9-1.8l-.2-11.2h-6v11.2c0 .8-.3 1.4-.9 1.8-.4.4-1.2.8-1.9.8s-1.3-.3-2-.8c-.4-.5-.9-1.2-.9-1.8l-.2-11.2h-6l.2 11.2c0 .8-.3 1.4-.9 1.8-.4.4-1.2.8-1.9.8s-1.3-.3-2-.8c-.4-.5-.9-1.2-.9-1.8v-10.8h-6l.2 20.1c0 .8-.3 1.3-.9 1.8-.4.5-1.2.8-1.9.8s-1.3-.3-2-.8c-.4-.4-.9-1.2-.9-1.8l-.2-20.1h-6l.2 11.2c0 .8-.3 1.5-.8 1.9-.4.5-1.2.8-1.9.8s-1.5-.3-2-.8c-.4-.4-.8-1.2-.8-1.9v-11.2h-6l.2 11.2c0 .8-.3 1.5-.8 1.9-.4.5-1.2.8-1.9.8s-1.5-.3-2-.8c-.4-.4-.8-1.2-.8-1.9v-11.2h-6l.2 11.2c0 .8-.3 1.5-.8 1.9-.4.5-1.2.8-1.9.8s-1.5-.3-2-.8c-.5-.4-.8-1.2-.8-1.9l-.2-11.2-21.4.3c-.6 0-1.2.3-1.7.8s-.8 1.1-.8 1.6h-1.5z" fill="#8ab7e9"/><path d="m333.8 26.6c0-1.7-.3-3.2-1.1-4.7-.6-1.5-1.7-2.8-2.9-3.9-1.1-1.2-2.4-2.2-3.9-2.8-1.5-.8-3.2-1-4.8-1-3.2.2-6.3 1.5-8.6 3.6l-2.2 2.2-57 57 .4.3-2.1 12.4v.9c.2.3.3.6.4.8v.2.1l-1.9 5.7v.2.1h.2.2l5.7-2h.2.1c.2.2.5.5.8.5.3.2.6.2.9 0l12.4-2.1.3.3 57.4-57.4 1.3-1.4c2.6-2.6 4.1-5.7 4.2-9zm-18.7-6.6c1.6-1.7 3.9-2.5 6.1-2.7 1.2 0 2.4.3 3.4.9 1.1.4 2.1 1.2 2.9 2.1.9.8 1.5 1.7 2.1 2.7.4 1.1.8 2.2.8 3.3-.1 2.6-1.2 4.8-3 6.6l-.8.6-12.8-12.8zm5.1 11.8-53.8 53.9-.2.1-.1-.1-3.6-3.6-.1-.1.1-.2 53.7-53.7.2-.2.1.2zm-62 45 .2-.1 52.5-52.5.2-.2.1.2 3 3 .2.1-.2.2-52.5 52.5-.3.1-.2-.1-3-3zm8.6 14.4-4.1.8-4 .8s0 0-.1 0c-.2 0 0 0-.2 0l-3.1-3.2s0 0 0-.1c0 0 0 0 0-.2l1.3-7.5.2-.8v-.1h.1.2.1l9.9 9.9s.1 0 .1.2v.1s0 .2-.1.2c-.3.1-.3.1-.3-.1zm57-54.4-52.5 52.5-.2.1-.1-.1-2.9-2.9-.1-.1.1-.2 52.5-52.5.2-.2.1.2 2.9 2.8.1.2z" fill="#ff6c0e"/><path d="m250.5 138c.3.1.6.2.9.2.3.1.6.1.9-.1.3-.1.6-.3.7-.4.2-.3.5-.5.5-.7l4.7-9.1c.3-.5.3-1.2.2-1.7 0-.3-.2-.6-.4-.7-.2-.3-.5-.5-.8-.5l-3.5-1.8c.4-2.1.6-4.2.4-6.4l3.8-1.2c.3-.1.5-.4.7-.4.3-.2.5-.5.5-.7.1-.3.2-.6.2-.9.1-.3.1-.6-.1-.9l-3.2-9.6c0-.3-.2-.6-.4-.7 0-.2-.5-.5-.7-.5-.3-.1-.6-.2-.9-.2-.3-.1-.6-.1-.9.1l-3.8 1.2c-1.3-1.8-2.6-3.3-4.2-4.8l1.8-3.5c.4-.5.3-1.2.1-1.6-.2-.6-.6-1.1-1.2-1.3l-9.2-4.7c-.5-.3-1.2-.3-1.7-.2-.3.1-.5.4-.7.4-.3.2-.5.5-.5.8l-1.8 3.5c-2-.5-4.2-.6-6.4-.5l-1.2-3.8c-.1-.3-.2-.6-.4-.7-.2-.3-.5-.5-.8-.5-.3-.1-.6-.2-.9-.2s-.6-.1-.9.1l-9.6 3.2c-.3 0-.5.4-.7.4-.3.2-.5.5-.5.8-.4.5-.3 1.2-.1 1.6l1.2 3.8c-1.7 1.3-3.4 2.7-4.7 4.3l-3.4-1.8c-.5-.4-1.2-.3-1.7-.2-.3 0-.6.3-.7.4-.3.2-.5.5-.5.8l-4.6 9.1c-.1.3-.2.6-.2.9-.1.3 0 .6.1.9s.3.6.4.7c.3.2.5.5.7.5l3.5 1.8c-.4 2.1-.6 4.2-.5 6.4l-3.8 1.2c-.3.1-.6.3-.7.4-.3.2-.5.5-.5.8-.1.3-.2.6-.2.9-.1.3 0 .6.1.9l3.2 9.6c.1.3.4.5.4.7.3.2.5.5.7.5.3.1.6.2.9.2s.6.1.9-.1l3.8-1.2c1.3 1.7 2.6 3.3 4.3 4.7l-1.8 3.5c-.1.3-.2.6-.2.9-.1.3 0 .6.1.9s.4.5.4.7c.2.3.5.5.7.5l9.2 4.6c.2.1.3.1.4.1.6.2 1.1.2 1.6-.2.6-.2 1-.6 1.2-1.1l1.8-3.5c2.1.4 4.2.6 6.4.4l1.2 3.8c.1.3.2.6.4.7.3.2.5.5.8.5.5.3 1.2.3 1.7.2l9.6-3.2c.6-.2 1.1-.6 1.3-1.2.4-.5.3-1.2.2-1.7l-1.2-3.8c1.8-1.2 3.4-2.7 4.8-4.2zm-5.8-6c-1.7 2.1-4 4.1-6.4 5.3-.4.2-.8.7-1 1.2-.1.4-.1 1 .1 1.6l1.1 3.2-5.4 1.9-1-3.4c-.2-.6-.6-1-.9-1.2-.3-.3-.9-.5-1.4-.4-2.7.3-5.6.1-8.3-.7-.4-.1-1-.2-1.6.2-.5.2-.8.6-1.1 1l-1.5 3.2-5-2.6 1.5-3.1c.3-.4.3-1.1.1-1.5-.2-.6-.4-.9-.9-1.4-2.2-1.7-4.1-4-5.4-6.3-.4-.4-.7-.8-1.1-.9-.5-.1-1.1-.1-1.6.1l-3.2 1.1-1.8-5.3 3.2-1.2c.5-.2 1-.6 1.2-.9s.5-.9.4-1.4c-.4-2.7-.2-5.7.6-8.4.1-.5.1-1-.2-1.4-.2-.6-.6-.8-1-1.1l-3.2-1.5 2.6-5 3.1 1.5c.5.2 1.1.3 1.5.2.6-.2.9-.4 1.4-.9 1.6-2.1 4-4.1 6.4-5.4.4-.4.8-.7.9-1.1s.1-1-.1-1.6l-1-3.3 5.4-1.7 1.1 3.2c.2.6.6 1 .9 1.2.4.2.9.4 1.4.4 2.7-.3 5.7-.2 8.4.6.4.1 1 .2 1.4-.2.5-.2.8-.6 1.2-1.1l1.5-3.2 5 2.5-1.5 3.2c-.3.4-.3 1-.1 1.5s.4.9.7 1.2c2.2 1.7 4.1 4 5.5 6.5.2.4.7.8 1.1.9s1 .2 1.6-.1l3.2-1.2 1.7 5.4-3.3 1.3c-.6.2-1 .6-1.2.9-.2.5-.4.9-.2 1.5.3 2.7.1 5.6-.7 8.3-.1.5-.1 1 .2 1.5.2.6.6.8 1 1.1l3.2 1.5-2.5 5-3.2-1.5c-.4-.3-1-.3-1.5-.3-.7.5-1 .7-1.3 1.1z" fill="#ff6c0e"/><path d="m204 96.5c1.1.1 2.2 0 3.2-.6.9-.6 1.5-1.6 1.8-2.7l3.4-18.4c.2-.6.2-1.1 0-1.6-.2-.6-.3-1.1-.6-1.5-.3-.5-.8-.9-1.2-1.2-.5-.3-.9-.4-1.5-.6l-7.1-1.4c-.3-3.9-1.2-7.8-2.4-11.4l6-4.1c.5-.3.9-.8 1.2-1.2.3-.5.4-.9.6-1.5s.2-1.1 0-1.6c-.2-.6-.3-1.1-.6-1.5l-10.5-15.5c-.3-.4-.8-.9-1.2-1.2s-.9-.5-1.5-.6c-.6-.2-1-.2-1.7 0-.6.1-1 .3-1.5.6l-6 4c-3-2.5-6.3-4.6-9.8-6.4l1.3-7.1c.2-1.1 0-2.2-.6-3.2-.6-.9-1.5-1.5-2.7-1.8l-18.3-3.2c-.6-.2-1-.2-1.7 0-.6.1-1 .3-1.5.6-.9.6-1.5 1.7-1.8 2.7l-1.3 7c-3.9.3-7.8 1.2-11.4 2.4l-4.1-6c-.3-.4-.8-.9-1.2-1.2-.5-.3-.9-.4-1.5-.6-1.1-.2-2.2 0-3.2.6l-15.3 10.5c-.5.3-.9.8-1.2 1.2s-.5.9-.6 1.5c-.2 1 0 2.2.6 3.1l4 6c-2.5 3-4.7 6.3-6.5 9.8l-7-1.4c-.6-.1-1-.1-1.7 0-.6.1-1 .3-1.5.6s-.9.8-1.2 1.2c-.3.5-.5.9-.6 1.5l-3.4 18.5c-.2 1.1 0 2.2.6 3.1s1.7 1.5 2.7 1.8l7 1.4c.3 3.9 1.2 7.8 2.4 11.4l-6 4c-.5.3-.9.8-1.2 1.2s-.5.9-.6 1.5c-.2.6-.2 1 0 1.6s.3 1 .6 1.5l10.5 15.5c.3.5.8.9 1.2 1.2.5.3.9.5 1.5.6s1 .1 1.7 0c.6-.2 1-.3 1.5-.6l6-4c3 2.5 6.3 4.7 9.7 6.5l-1.3 7c-.2 1.1 0 2.2.6 3.1s1.7 1.5 2.7 1.8l18.3 3.6h.8c.9 0 2-.3 2.7-.9.8-.6 1.2-1.5 1.5-2.4l1.3-7c3.9-.3 7.7-1.2 11.4-2.4l4 6c.3.5.8.9 1.2 1.2s.9.4 1.5.6c.6.1 1 .1 1.7 0 .6-.2 1-.3 1.5-.6l15.4-10.5c.9-.6 1.5-1.7 1.8-2.7.2-1 0-2.2-.6-3.2l-4.1-6c2.6-3 4.7-6.3 6.5-9.8zm-13.4-7.7c-2 4.8-4.8 9.2-8.4 12.8-.6.8-1.1 1.7-1.2 2.5-.2.9.2 2 .8 2.7l3.6 5.2-8.5 5.9-3.6-5.2c-.6-.8-1.3-1.4-2.2-1.7s-2-.1-2.8.2c-4.8 2-9.9 3-15 3.1-.9 0-1.8.3-2.6 1-.8.6-1.2 1.5-1.3 2.4l-1.2 6.2-10.2-2 1.2-6.1c.2-.9 0-2-.5-2.7-.4-.9-1.2-1.5-2.1-1.8-4.8-2-9.2-4.8-12.7-8.4-.8-.6-1.7-1-2.5-1.2-.9-.1-2 .2-2.7.8l-5.2 3.6-5.8-8.5 5.2-3.6c.8-.6 1.3-1.3 1.7-2.2.3-.9.2-2-.2-2.8-2-4.8-3-9.9-3.2-15 0-.9-.5-1.8-1-2.6s-1.5-1.2-2.4-1.3l-6.2-1.2 2-10.2 6.3 1.2c.9.1 2 0 2.7-.5.9-.4 1.5-1.2 1.8-2.1 2-4.8 4.8-9.1 8.4-12.8.6-.8 1-1.6 1.2-2.5s-.2-2-.8-2.7l-3.6-5.2 8.5-5.8 3.6 5.3c.6.8 1.3 1.4 2.2 1.6.9.3 1.9.3 2.8-.1 4.8-2 9.9-3 15-3.1.9 0 1.9-.3 2.5-1.1.8-.6 1.2-1.5 1.3-2.4l1.2-6.2 10.2 1.9-1.2 6.1c-.2.9 0 2 .4 2.7.5.9 1.2 1.5 2.1 2 4.8 1.9 9.2 4.8 12.8 8.4.8.6 1.7 1 2.6 1.2.9.1 1.9-.1 2.7-.8l5.2-3.6 5.8 8.6-5.2 3.6c-.8.6-1.3 1.4-1.7 2.2-.3.9-.2 1.9.2 2.9 2 4.8 3 9.9 3.2 15 0 .9.3 1.9.9 2.6.6.6 1.5 1.2 2.4 1.3l6.2 1.2-2.2 10-6.2-1.2c-.9-.1-1.9 0-2.7.5-.5.3-1.1 1-1.6 1.9z" fill="#e42e87"/><path d="m154.1 50.9c-3.2-.8-6.5-.8-9.6-.1-3.1.6-6.2 1.8-8.8 3.6-2.7 1.8-5 4-6.8 6.8-1.8 2.7-3 5.7-3.6 8.9-.6 3.1-.6 6.4.2 9.6s1.9 6.2 3.9 8.9c1.8 2.7 4.2 5 7 6.6 2.7 1.7 5.8 2.9 9 3.3 1.5.3 3 .5 4.5.5 6 0 11.8-2.2 16.2-6.3 4.5-4 7.2-9.6 7.8-15.6s-1-12-4.8-16.8c-3.9-5.1-9.1-8.2-15-9.4zm12.6 27c-.5 2.2-1.3 4.4-2.6 6.3-1.2 2-2.8 3.6-4.8 4.8-2 1.4-4.1 2.2-6.3 2.7s-4.5.5-6.8 0c-4.2-.8-8.1-3.1-10.7-6.6-2.5-3.5-3.8-7.8-3.4-12.2.4-4.3 2.4-8.4 5.5-11.2 3.2-3 7.3-4.5 11.7-4.6 1 0 2.2.1 3.3.3 4.5.9 8.6 3.5 11.1 7.4 2.9 3.8 3.8 8.6 3 13.1z" fill="#e42e87"/><path d="m230.4 105c-1.8-.6-3.5-.9-5.6-.7-1.8.2-3.7.6-5.3 1.6-1.8.9-3.2 2-4.3 3.5-1.2 1.4-2 3.2-2.5 4.9-.4 1.8-.6 3.8-.2 5.5.3 1.8.9 3.6 1.8 5.2s2.3 2.9 3.7 4.1c1.6 1 3.4 1.8 5 2.2.9.2 1.7.4 2.6.5 3.3.2 6.5-.9 9-2.9 2.6-2 4.3-4.9 4.8-8.2.6-3.3-.1-6.6-1.8-9.5-1.5-3.1-4-5.3-7.2-6.2zm4.6 15.3c-.6 2.4-2.2 4.5-4.3 5.6-2.1 1.3-4.8 1.6-7.1.9s-4.2-2.1-5.3-4.1c-1.3-2-1.7-4.3-1.4-6.7.4-2.3 1.6-4.3 3.5-5.8 1.9-1.4 4.1-2.1 6.4-1.9.6 0 1.2.1 1.7.3 1.1.4 2.3.9 3.3 1.7.9.8 1.7 1.7 2.4 2.8.7 1 1 2.2 1.2 3.5.1 1.2 0 2.6-.4 3.7z" fill="#ff6c0e"/></svg>