<svg enable-background="new 0 0 424 215" viewBox="0 0 424 215" xmlns="http://www.w3.org/2000/svg"><path d="m211.1 6.3c-20.1 0-39.9 6-56.7 17.2s-29.8 27.2-37.5 45.8-9.8 39.2-5.8 59 13.7 37.9 27.9 52.2 32.4 24 52.2 27.9 40.3 2 58.9-5.8c18.6-7.7 34.5-20.8 45.8-37.5 11.2-16.8 17.2-36.4 17.2-56.7 0-27-10.8-53-29.9-72.2-19.2-19.1-45.1-29.9-72.1-29.9zm0 195.8c-18.6 0-36.6-5.5-52.1-15.8-15.4-10.3-27.4-24.9-34.5-42s-9-36-5.4-54.1 12.6-34.9 25.7-48 29.8-22.1 48-25.6c18.1-3.7 37.1-1.9 54.1 5.3 17.1 7.1 31.8 19.1 42 34.5 10.3 15.5 15.8 33.6 15.8 52 0 12.3-2.4 24.5-7.2 35.8-4.7 11.4-11.6 21.8-20.2 30.4-8.7 8.7-19 15.6-30.5 20.2-11.3 4.8-23.4 7.3-35.7 7.3z" fill="#84b444"/><path d="m211.1 18.2c-17.8 0-35.2 5.2-50.1 15.2s-26.4 24-33.2 40.5-8.5 34.7-5.1 52.1c3.5 17.5 12 33.6 24.6 46.2s28.7 21.2 46.2 24.6 35.6 1.7 52.1-5.1 30.6-18.4 40.5-33.1c9.9-14.9 15.2-32.2 15.2-50.1 0-11.9-2.4-23.5-6.9-34.5s-11.2-21-19.6-29.4-18.3-15-29.2-19.5c-11-4.6-22.7-6.9-34.5-6.9zm0 171.9c-16.2 0-32-4.8-45.5-13.8s-24-21.8-30.2-36.8-7.8-31.4-4.7-47.2c3.2-15.9 11-30.5 22.3-41.9 11.4-11.4 26-19.2 41.8-22.3 15.9-3.2 32.2-1.5 47.2 4.7 15 6.1 27.8 16.7 36.7 30.2 9 13.5 13.8 29.2 13.8 45.4 0 10.8-2.1 21.3-6.2 31.3-4.1 9.9-10.2 18.9-17.7 26.6-7.7 7.7-16.7 13.7-26.6 17.7-9.6 4-20.1 6.1-30.9 6.1z" fill="#8a1a9b"/><g fill="#ff6c0e"><path d="m230 75.9c1.7 0 3.2-.4 4.5-1.3s2.4-2.2 3-3.8.8-3.2.5-4.8c-.3-1.7-1.1-3-2.2-4.2-1.2-1.2-2.6-1.9-4.2-2.2-1.7-.3-3.3-.1-4.8.5s-2.7 1.6-3.6 3c-.9 1.3-1.3 3-1.3 4.5 0 1.1.2 2.1.6 3.1.4 1.1 1 2 1.8 2.7s1.7 1.3 2.7 1.8c.9.6 1.9.7 3 .7z"/><path d="m247.7 86.9s.4-9.1-9.2-9.1h-16.8c-1.2-.2-2.4.1-3.6.4-1.2.4-2.2 1.1-3.2 1.9-.9.9-1.5 2-1.9 3-.5 1-.6 2.4-.6 3.6v26c.2.8.4 1.5 1 2.1s1.3.9 2.1.9 1.5-.5 2.1-.9c.6-.6.9-1.3 1.1-2.1l3 41.4c.2.8.6 1.5 1.2 2.1s1.5.8 2.2.8 1.7-.3 2.2-.8c.6-.6 1.1-1.2 1.2-2.1h2.5c.2.8.6 1.5 1.2 2.1s1.5.8 2.2.8 1.7-.3 2.2-.8c.6-.6 1-1.2 1.2-2.1l3-41.4c0 .8.3 1.5.9 2.1s1.3.9 2.1.9 1.5-.5 2.1-.9c.6-.6.9-1.3 1.1-2.1z"/><path d="m191.9 59.6c1.7 0 3.2.4 4.5 1.4 1.3.9 2.4 2.1 3 3.6s.8 3.2.6 4.8c-.3 1.7-1 3-2.2 4.2s-2.5 2-4.2 2.2c-1.7.3-3.3.2-4.8-.4s-2.8-1.6-3.8-3c-.9-1.3-1.3-3-1.3-4.5 0-2.1.8-4.2 2.2-5.7 1.8-1.8 3.7-2.6 6-2.6z"/><path d="m209.4 98.3c.8-3-3.5-15.6-3.5-15.6-.4-1.2-2.7-4.8-8.8-4.8h-12c-6-.3-8.2 3.2-8.7 5 0 0-4.1 12.6-3.3 15.5.5 1.8 3.8 4.2 7.3 5.8l-7.3 22.5h10.8v27.2c0 .4.2.9.3 1.2.2.5.5.8.8 1.1s.8.4 1.1.6c.3.1.9.1 1.2.1h1.2c.4-.1.8-.3 1-.6.3-.3.6-.6.8-.9s.3-.8.3-1.2h1c.2.8.6 1.5 1.2 2.1.6.5 1.3.8 2.2.8.8 0 1.7-.3 2.2-.8.6-.4 1-1.2 1.2-2.1v-27.4h11.6l-7.1-23c3.4-1.7 6.2-3.9 6.5-5.5z"/></g><path d="m211.1 31.5c-15.2 0-30 4.5-42.6 12.9s-22.5 20.4-28.2 34.5c-5.8 14.1-7.3 29.4-4.3 44.4 3 14.8 10.3 28.5 21 39.3 10.8 10.8 24.5 18 39.3 21s30.3 1.5 44.4-4.3c14.1-5.9 25.9-15.6 34.5-28.4 8.4-12.6 12.9-27.4 12.9-42.6 0-10-1.9-20.1-5.9-29.4-3.9-9.3-9.6-17.9-16.6-24.9-7.2-7.2-15.6-12.8-24.9-16.6-9.5-3.9-19.6-5.9-29.6-5.9zm0 145.8c-13.7 0-27-4-38.4-11.7-11.4-7.6-20.2-18.3-25.3-30.9-5.2-12.6-6.6-26.6-3.9-39.9 2.7-13.4 9.3-25.7 18.9-35.4 9.6-9.8 21.9-16.2 35.4-18.9 13.3-2.7 27.3-1.4 39.9 3.9 12.6 5.2 23.4 14.1 30.9 25.4 7.6 11.4 11.7 24.8 11.7 38.4 0 18.3-7.4 35.9-20.2 48.8-13.2 13-30.7 20.3-49 20.3z" fill="#e42e87"/></svg>