<svg enable-background="new 0 0 504 231" viewBox="0 0 504 231" xmlns="http://www.w3.org/2000/svg"><path d="m187.4 145.9 1.4-.7-1.1 1c2.9 3.2 5.3 6.7 7.3 10.5 6.7 14.9 5.7 30.9 4.6 39-.1.7-.1 1.6-.1 2.3v.3c0 .4.1.7.1 1.1h.1c.6 2 2.3 3.3 4.4 3.4 2.7.1 5-2 5.1-4.7h.1c-.1-.4-.1-.9-.1-1.3 1.3-9.1 2.4-27.2-5.4-44.4-2.2-4.7-5.1-9-8.5-12.8-8-9.7-17.8-21.6-17.8-57.1v-.1-.1c.3-55.3 53.4-58.1 64.1-58.1h4.7c13.1 0 56.1 4.1 62.4 57.7 0 1 .9 8.4 17.8 34.9.3.6.4 1.1.4 1.7-.3.5-.8 1.1-1.4 1.4-4.5 2.6-9.4 4.8-14.2 6.7-2.1.8-3.4 2.8-3.1 5.1v.3c.2 1.5 1.9 19.9.3 28.6-.5 2-7.3 5-20.7 5h-2c-.4-.1-.7-.1-1.1-.1-8.2 0-11 4.7-11 8.7v22.5c0 .4 0 .7-.1 1.1v.4c0 2.1 1.4 4.1 3.4 4.7 2.5.7 5.2-.7 6.1-3.3 0-.4.1-.7.1-1.1 0-.1 0-.3 0-.4.1-.6.1-1 .1-1.6v-21.4c.3-.1.7-.1 1-.1l.4.1h.3 2.6c10.3 0 28.1-1.7 30.2-13 1.4-7.7.7-20.4.1-27.9 4.2-1.7 8.2-3.7 12.2-6 .6-.3 1.2-.7 1.6-1 5.1-3.8 6.4-10.9 2.7-16-15.4-23.9-16.4-30.6-16.4-30.6-7.3-61.7-57.1-66.5-72.2-66.5-.8 0-1.4.1-2.1.1h-1.3-1.3c-7.5 0-73.6 2-73.9 67.9v.3c0 39 11.1 52.5 20.2 63.5zm87.5 48.4c.1-.1.1-.1.1-.1zm.7-.6c.1-.1.1-.1.3-.1-.2 0-.2.1-.3.1zm1.7-.7c.3 0 .5-.1 1-.1.3 0 .7.1 1 .1-.3-.1-.7-.1-1-.1-.4 0-.7.1-1 .1zm-.9.3c.2-.1.3-.1.6-.1-.3 0-.5.1-.6.1zm3.7 0-.4-.1zm.7.5-.1-.1z" fill="#011e41"/><path d="m239.7 111-2.4-1.2c-1.6-.8-38.7-19.2-38.7-45.7.1-12.7 11-23.1 24.3-23.1h.3c6.3 0 12.2 2.4 16.7 6.6 4.4-4.2 10.3-6.6 16.6-6.6h.2c13.5 0 24.4 10.4 24.4 23.2 0 11.6-6.9 23.3-19.9 33.7-9.3 7.4-18.5 11.7-18.9 11.9z" fill="#8ab7e9"/><path d="m239.8 107.6-1.3-.6c-1.5-.7-37-18.3-37-42.9.2-11.2 9.8-20.2 21.4-20.2h.3c6.7 0 12.8 3 16.7 8 4-5 10.1-8 16.6-8h.3c11.8 0 21.4 9.1 21.4 20.2 0 10.7-6.5 21.6-18.8 31.4-9 7.3-17.9 11.4-18.3 11.6z" fill="#011e41"/><path d="m239.8 107.6-1.3-.6c-1.5-.7-37-18.3-37-42.9.2-11.2 9.8-20.2 21.4-20.2h.3c6.7 0 12.8 3 16.7 8 4-5 10.1-8 16.6-8h.3c11.8 0 21.4 9.1 21.4 20.2 0 10.7-6.5 21.6-18.8 31.4-9 7.3-17.9 11.4-18.3 11.6z" fill="#011e41"/><g fill="#8ab7e9"><path d="m204.5 64.2c0 23 35.3 40.2 35.3 40.2s35.3-16.4 35.3-40.2c0-9.5-8.3-17.2-18.4-17.2-7.2-.1-13.9 4.1-16.9 10.7-2.9-6.6-9.6-10.8-16.9-10.7-10.1 0-18.3 7.7-18.4 17.2z"/><path d="m204.5 64.2c0 23 35.3 40.2 35.3 40.2s35.3-16.4 35.3-40.2c0-9.5-8.3-17.2-18.4-17.2-7.2-.1-13.9 4.1-16.9 10.7-2.9-6.6-9.6-10.8-16.9-10.7-10.1 0-18.3 7.7-18.4 17.2z"/></g></svg>