<svg enable-background="new 0 0 698.1 763.6" viewBox="0 0 698.1 763.6" xml:space="preserve" xmlns="http://www.w3.org/2000/svg" xmlns:xlink="http://www.w3.org/1999/xlink"><linearGradient id="a" gradientTransform="matrix(1 0 0 -1 0 696)" gradientUnits="userSpaceOnUse" x1="31.7656" x2="656.2057" y1="113.0555" y2="113.0555"><stop offset="0" stop-color="#8ab7e9"/><stop offset="1" stop-color="#011e41"/></linearGradient><path d="m802.6 236.5c-14.5 0-26.2 13.3-26.2 29.6 0 3 .4 5.9 1.2 8.7h50.2c.7-2.8 1.2-5.7 1.2-8.7-.1-16.3-11.9-29.6-26.4-29.6z" fill="none"/><path d="m92.1 20.1c-33.3 0-60.3 27-60.3 60.3s27 60.3 60.3 60.3 60.3-27 60.3-60.3-27.1-60.3-60.3-60.3z" fill="#fff"/><path d="m91.9 13.7c-36.9 0-66.8 29.9-66.8 66.8s29.9 66.8 66.8 66.8 66.8-29.9 66.8-66.8-29.8-66.8-66.8-66.8zm.2 129.3c-34.6 0-62.6-28-62.6-62.6s28-62.6 62.6-62.6 62.6 28 62.6 62.6c.1 34.5-28 62.6-62.6 62.6z" fill="#213958"/><path d="m92.1 17.7c-34.6 0-62.6 28-62.6 62.6s28 62.6 62.6 62.6 62.6-28 62.6-62.6c.1-34.5-28-62.6-62.6-62.6zm0 122.9c-33.3 0-60.3-27-60.3-60.3s27-60.3 60.3-60.3 60.3 27 60.3 60.3-27.1 60.3-60.3 60.3z" fill="#8ab7e9"/><path d="m75.7 158.5c0 .8-.3 1.4-.8 1.8s-1.3.7-2.3.7-1.9-.1-2.4-.4v-1c.4.2.8.3 1.2.4s.9.1 1.3.1c.7 0 1.2-.1 1.5-.4s.5-.6.5-1.1c0-.3-.1-.6-.2-.8s-.3-.4-.6-.5-.7-.4-1.3-.6c-.8-.3-1.4-.6-1.8-1s-.5-.9-.5-1.6.3-1.2.8-1.6 1.2-.6 2-.6c.9 0 1.7.2 2.4.5l-.3.9c-.7-.3-1.4-.5-2.1-.5-.5 0-1 .1-1.3.4s-.5.6-.5 1c0 .3.1.6.2.8s.3.4.6.5c.3.2.7.3 1.2.5.9.3 1.6.7 1.9 1.1.2.3.5.8.5 1.4z" fill="#fff"/><path d="m85.1 156.4c0 1.4-.4 2.5-1.1 3.3s-1.7 1.2-3 1.2-2.3-.4-3-1.2-1.1-1.9-1.1-3.4c0-1.4.4-2.6 1.1-3.4s1.7-1.2 3-1.2 2.3.4 3 1.2c.8 1 1.1 2.1 1.1 3.5zm-7 0c0 1.2.3 2.1.8 2.7s1.3.9 2.2.9c1 0 1.7-.3 2.2-.9s.8-1.5.8-2.7-.2-2.1-.7-2.7-1.2-.9-2.2-.9-1.7.3-2.2.9c-.8.7-.9 1.6-.9 2.7z" fill="#fff"/><path d="m90.8 152.8c-1 0-1.7.3-2.3 1-.6.6-.8 1.5-.8 2.7s.3 2.1.8 2.7 1.3.9 2.3.9c.6 0 1.3-.1 2.1-.3v.9c-.6.2-1.4.3-2.3.3-1.3 0-2.3-.4-3-1.2s-1.1-1.9-1.1-3.4c0-.9.2-1.7.5-2.4s.8-1.2 1.5-1.6c.6-.4 1.4-.6 2.3-.6s1.7.2 2.4.5l-.4.9c-.6-.2-1.2-.4-2-.4z" fill="#fff"/><path d="m94.8 160.9v-8.8h1v8.8z" fill="#fff"/><path d="m106.1 156.4c0 1.4-.4 2.5-1.1 3.3s-1.7 1.2-3 1.2-2.3-.4-3-1.2-1.1-1.9-1.1-3.4c0-1.4.4-2.6 1.1-3.4s1.7-1.2 3-1.2 2.3.4 3 1.2c.7 1 1.1 2.1 1.1 3.5zm-7.2 0c0 1.2.3 2.1.8 2.7s1.3.9 2.2.9c1 0 1.7-.3 2.2-.9s.8-1.5.8-2.7-.2-2.1-.7-2.7-1.2-.9-2.2-.9-1.7.3-2.2.9c-.6.7-.9 1.6-.9 2.7z" fill="#fff"/><path d="m112.9 158.5c0 .8-.3 1.4-.8 1.8s-1.3.7-2.3.7-1.9-.1-2.4-.4v-1c.4.2.8.3 1.2.4s.9.1 1.3.1c.7 0 1.2-.1 1.5-.4s.5-.6.5-1.1c0-.3-.1-.6-.2-.8s-.3-.4-.6-.5-.7-.4-1.3-.6c-.8-.3-1.4-.6-1.8-1s-.5-.9-.5-1.6.3-1.2.8-1.6 1.2-.6 2-.6c.9 0 1.7.2 2.4.5l-.3.9c-.7-.3-1.4-.5-2.1-.5-.5 0-1 .1-1.3.4s-.5.6-.5 1c0 .3.1.6.2.8s.3.4.6.5c.3.2.7.3 1.2.5.9.3 1.6.7 1.9 1.1.4.3.5.8.5 1.4z" fill="#fff"/><path d="m100.7 65.3c2.1 0 3.9-1.7 3.9-3.9 0-2.1-1.7-3.9-3.9-3.9-2.1 0-3.9 1.7-3.9 3.9 0 2.1 1.8 3.9 3.9 3.9z" fill="#ff6c0e"/><path d="m108.9 70.4s.2-4.3-4.3-4.3h-7.9c-4.4 0-4.4 4-4.4 4.3v12.2c.1.7.7 1.4 1.5 1.4s1.4-.7 1.5-1.4l1.4 19.5c.1 1 .8 1.4 1.7 1.4s1.6-.4 1.7-1.4h1.2c.1 1 .8 1.4 1.7 1.4s1.6-.4 1.7-1.4l1.4-19.5c0 .7.6 1.4 1.5 1.4.8 0 1.4-.7 1.5-1.4z" fill="#ff6c0e"/><path d="m86.4 61.3c0 2.1-1.7 3.8-3.8 3.8s-3.8-1.7-3.8-3.8 1.7-3.8 3.8-3.8 3.8 1.7 3.8 3.8z" fill="#ff6c0e"/><path d="m90.9 75.8c.3-1.4-1.6-7.3-1.6-7.3-.2-.6-1.2-2.3-4.2-2.3h-5.7c-2.8-.2-3.9 1.5-4.1 2.3 0 0-1.9 5.9-1.6 7.3.2.9 1.8 2 3.4 2.7l-3.5 10.6h5.1v12.8c.1 1 .8 1.3 1.6 1.3s1.5-.3 1.6-1.3h.5c.1 1 .8 1.3 1.6 1.3s1.5-.4 1.6-1.4v-12.8h5.4l-3.3-10.8c1.7-.7 3.1-1.6 3.2-2.4z" fill="#ff6c0e"/><path d="m92.1 189.1c-33.3 0-60.3 27-60.3 60.3s27 60.3 60.3 60.3 60.3-27 60.3-60.3-27.1-60.3-60.3-60.3z" fill="#fff"/><path d="m91.9 182.7c-36.9 0-66.8 29.9-66.8 66.8s29.9 66.8 66.8 66.8 66.8-29.9 66.8-66.8c.1-36.9-29.8-66.8-66.8-66.8zm.2 129.3c-34.6 0-62.6-28-62.6-62.6s28-62.6 62.6-62.6 62.6 28 62.6 62.6c-.1 34.5-28 62.6-62.6 62.6z" fill="#213958"/><path d="m92.1 186.7c-34.6 0-62.6 28-62.6 62.6s28 62.6 62.6 62.6 62.6-28 62.6-62.6c-.1-34.5-28-62.6-62.6-62.6zm0 122.9c-33.3 0-60.3-27-60.3-60.3s27-60.3 60.3-60.3 60.3 27 60.3 60.3-27.1 60.3-60.3 60.3z" fill="#8ab7e9"/><path d="m52.2 326.2v3.7h-1v-8.8h2.4c1.1 0 1.9.2 2.4.6s.8 1 .8 1.9c0 1.2-.6 2-1.8 2.4l2.4 4h-1.2l-2.1-3.7zm0-.9h1.4c.7 0 1.3-.1 1.6-.4s.5-.7.5-1.3-.2-1-.5-1.3-.9-.4-1.7-.4h-1.3z" fill="#fff"/><path d="m63.8 329.9h-4.9v-8.8h4.9v.9h-3.9v2.9h3.7v.9h-3.7v3.3h3.9z" fill="#fff"/><path d="m65.8 329.9v-8.8h1v8.8z" fill="#fff"/><path d="m76.1 329.9h-1.2l-4.8-7.4c.1.9.1 1.7.1 2.4v5h-1v-8.8h1.2l4.8 7.4c0-.1 0-.5-.1-1.1 0-.6 0-1 0-1.3v-5.1h1z" fill="#fff"/><path d="m82.3 321.8c-1 0-1.7.3-2.3 1-.6.6-.8 1.5-.8 2.7s.3 2.1.8 2.7 1.3.9 2.3.9c.6 0 1.3-.1 2.1-.3v.9c-.6.2-1.4.3-2.3.3-1.3 0-2.3-.4-3-1.2s-1.1-1.9-1.1-3.4c0-.9.2-1.7.5-2.4s.8-1.2 1.5-1.6c.6-.4 1.4-.6 2.3-.6s1.7.2 2.4.5l-.4.9c-.6-.2-1.4-.4-2-.4z" fill="#fff"/><path d="m86.3 329.9v-8.8h1v8.8z" fill="#fff"/><path d="m96.8 325.4c0 1.5-.4 2.6-1.2 3.3-.8.8-1.9 1.2-3.4 1.2h-2.5v-8.8h2.7c1.4 0 2.4.4 3.2 1.1s1.2 1.8 1.2 3.2zm-1 0c0-1.2-.3-2-.9-2.6s-1.4-.9-2.6-.9h-1.5v7.1h1.3c1.2 0 2.1-.3 2.8-.9.5-.6.9-1.5.9-2.7z" fill="#fff"/><path d="m103.8 329.9h-4.9v-8.8h4.9v.9h-3.9v2.9h3.7v.9h-3.7v3.3h3.9z" fill="#fff"/><path d="m112.7 329.9h-1.2l-4.8-7.4c.1.9.1 1.7.1 2.4v5h-1v-8.8h1.2l4.8 7.4c0-.1 0-.5-.1-1.1 0-.6 0-1 0-1.3v-5.1h1z" fill="#fff"/><path d="m118.8 321.8c-1 0-1.7.3-2.3 1-.6.6-.8 1.5-.8 2.7s.3 2.1.8 2.7 1.3.9 2.3.9c.6 0 1.3-.1 2.1-.3v.9c-.6.2-1.4.3-2.3.3-1.3 0-2.3-.4-3-1.2s-1.1-1.9-1.1-3.4c0-.9.2-1.7.5-2.4s.8-1.2 1.5-1.6c.6-.4 1.4-.6 2.3-.6s1.7.2 2.4.5l-.4.9c-.6-.2-1.2-.4-2-.4z" fill="#fff"/><path d="m122.8 329.9v-8.8h1v8.8z" fill="#fff"/><path d="m131.9 329.9-1.1-2.8h-3.5l-1.1 2.8h-1l3.5-8.9h.9l3.5 8.9zm-1.5-3.8-1-2.7c-.1-.3-.3-.8-.4-1.3-.1.4-.2.8-.4 1.3l-1 2.7z" fill="#fff"/><path d="m111.1 234.6h-7.3v-3.6c0-1.6-1.3-2.9-2.9-2.9s-2.9 1.3-2.9 2.9v3.6h-13.2v-3.6c0-1.6-1.3-2.9-2.9-2.9s-2.9 1.3-2.9 2.9v3.6h-7.3c-1.2 0-2.2 1-2.2 2.2v31.8c0 1.2 1 2.2 2.2 2.2h39.5c1.2 0 2.2-1 2.2-2.2v-31.8c-.2-1.2-1.2-2.2-2.3-2.2zm-21.3 9.8v5.9h-6.9v-5.9zm3 0h6.9v5.9h-6.9zm-12.9 0v5.9h-6.2v-5.9zm0 8.8v4.4h-6.2v-4.4zm2.9 0h6.9v4.4h-6.9zm7 7.3v5.9h-6.9v-5.9zm3 0h6.9v5.9h-6.9zm0-2.9v-4.4h6.9v4.4zm9.8-4.4h6.2v4.4h-6.2zm0-2.9v-5.9h6.2v5.9zm-28.9 10.2h6.2v5.9h-6.2zm28.9 5.9v-5.9h6.2v5.9z" fill="#e42e87"/><path d="m92.2 361.4c-33.3 0-60.3 27-60.3 60.3s27 60.3 60.3 60.3 60.3-27 60.3-60.3c-.1-33.3-27.2-60.3-60.3-60.3z" fill="#fff"/><path d="m91.9 355c-36.9 0-66.8 29.9-66.8 66.8s29.9 66.8 66.8 66.8 66.8-29.9 66.8-66.8-29.8-66.8-66.8-66.8zm.3 129.3c-34.6 0-62.6-28-62.6-62.6s28-62.6 62.6-62.6 62.6 28 62.6 62.6c0 34.5-28.1 62.6-62.6 62.6z" fill="#213958"/><path d="m92.2 359c-34.6 0-62.6 28-62.6 62.6s28 62.6 62.6 62.6 62.6-28 62.6-62.6c0-34.5-28.1-62.6-62.6-62.6zm0 122.9c-33.3 0-60.3-27-60.3-60.3s27-60.3 60.3-60.3 60.3 27 60.3 60.3c-.1 33.3-27.2 60.3-60.3 60.3z" fill="#8ab7e9"/><path d="m57.2 502.2h-1v-8.8h4.9v.9h-3.9v3.2h3.7v.9h-3.7z" fill="#fff"/><path d="m63.5 498.5v3.7h-1v-8.8h2.4c1.1 0 1.9.2 2.4.6s.8 1 .8 1.9c0 1.2-.6 2-1.8 2.4l2.4 4h-1.2l-2.1-3.7zm0-.9h1.4c.7 0 1.3-.1 1.6-.4s.5-.7.5-1.3-.2-1-.5-1.3-.9-.4-1.7-.4h-1.3c.1 0 .1 3.4 0 3.4z" fill="#fff"/><path d="m75.2 502.2h-4.9v-8.8h4.9v.9h-3.9v2.9h3.7v.9h-3.7v3.3h3.9z" fill="#fff"/><path d="m80.9 494.1c-1 0-1.7.3-2.3 1-.6.6-.8 1.5-.8 2.7s.3 2.1.8 2.7 1.3.9 2.3.9c.6 0 1.3-.1 2.1-.3v.9c-.6.2-1.4.3-2.3.3-1.3 0-2.3-.4-3-1.2s-1.1-1.9-1.1-3.4c0-.9.2-1.7.5-2.4s.8-1.2 1.5-1.6c.6-.4 1.4-.6 2.3-.6s1.7.2 2.4.5l-.4.9c-.7-.2-1.3-.4-2-.4z" fill="#fff"/><path d="m91.7 493.3v5.7c0 1-.3 1.8-.9 2.4s-1.4.9-2.5.9-1.9-.3-2.5-.9-.9-1.4-.9-2.4v-5.7h1v5.8c0 .7.2 1.3.6 1.7s1 .6 1.8.6c.7 0 1.3-.2 1.7-.6s.6-1 .6-1.7v-5.8z" fill="#fff"/><path d="m98.8 502.2h-4.9v-8.8h4.9v.9h-3.9v2.9h3.7v.9h-3.7v3.3h3.9z" fill="#fff"/><path d="m107.8 502.2h-1.2l-4.8-7.4c.1.9.1 1.7.1 2.4v5h-1v-8.8h1.2l4.8 7.4c0-.1 0-.5-.1-1.1 0-.6 0-1 0-1.3v-5.1h1z" fill="#fff"/><path d="m113.9 494.1c-1 0-1.7.3-2.3 1-.6.6-.8 1.5-.8 2.7s.3 2.1.8 2.7 1.3.9 2.3.9c.6 0 1.3-.1 2.1-.3v.9c-.6.2-1.4.3-2.3.3-1.3 0-2.3-.4-3-1.2s-1.1-1.9-1.1-3.4c0-.9.2-1.7.5-2.4s.8-1.2 1.5-1.6c.6-.4 1.4-.6 2.3-.6s1.7.2 2.4.5l-.4.9c-.6-.2-1.2-.4-2-.4z" fill="#fff"/><path d="m118.1 502.2v-8.8h1v8.8z" fill="#fff"/><path d="m127.1 502.2-1.1-2.8h-3.5l-1.1 2.8h-1l3.5-8.9h.9l3.5 8.9zm-1.4-3.8-1-2.7c-.1-.3-.3-.8-.4-1.3-.1.4-.2.8-.4 1.3l-1 2.7z" fill="#fff"/><path clip-rule="evenodd" d="m114.2 422.9c0-6.5-2.9-12.3-7.6-16.1l-3 6.4c2.3 2.4 3.8 6 3.8 9.6 0 2.6-.7 5-1.8 7l-2.1-2.8-1.5 5.6-1.6 5.6 5.9.2 5.8.3-2.3-3.2c2.9-3.4 4.4-7.8 4.4-12.6z" fill="#8ab7e9" fill-rule="evenodd"/><path clip-rule="evenodd" d="m93.3 437c-5.5 0-10.3-3.2-12.6-7.9l3.8-.2-4-4.3-4.1-4.2-3.2 4.9-3.3 4.8 3.6-.3c3 8.1 10.6 13.9 19.8 13.9 2.7 0 5.2-.6 7.6-1.3l-4.1-5.9c-1.1.4-2.4.5-3.5.5z" fill="#8ab7e9" fill-rule="evenodd"/><path clip-rule="evenodd" d="m93.3 408.6h.4l-1.7 3.6 5.7-1.3 5.7-1.4-2.7-5.2-2.6-5.2-1.3 3.2c-1.2-.3-2.3-.4-3.4-.4-10.2 0-18.6 7.2-20.5 16.8l7.2-.7c2-5.5 7.1-9.4 13.2-9.4z" fill="#8ab7e9" fill-rule="evenodd"/><path d="m92.1 525.3c-33.3 0-60.3 27-60.3 60.3s27 60.3 60.3 60.3 60.3-27 60.3-60.3-27.1-60.3-60.3-60.3z" fill="#fff"/><path d="m91.9 518.9c-36.9 0-66.8 29.9-66.8 66.8s29.9 66.8 66.8 66.8 66.8-29.9 66.8-66.8-29.8-66.8-66.8-66.8zm.2 129.3c-34.6 0-62.6-28-62.6-62.6s28-62.6 62.6-62.6 62.6 28 62.6 62.6c.1 34.5-28 62.6-62.6 62.6z" fill="#213958"/><path d="m92.1 522.9c-34.6 0-62.6 28-62.6 62.6s28 62.6 62.6 62.6 62.6-28 62.6-62.6c.1-34.5-28-62.6-62.6-62.6zm0 122.9c-33.3 0-60.3-27-60.3-60.3s27-60.3 60.3-60.3 60.3 27 60.3 60.3-27.1 60.3-60.3 60.3z" fill="#8ab7e9"/><path d="m41.5 666.1h-1v-7.9h-2.8v-.9h6.6v.9h-2.8z" fill="#fff"/><path d="m45.8 666.1v-8.8h1v8.8z" fill="#fff"/><path d="m53 658c-1 0-1.7.3-2.3 1-.6.6-.8 1.5-.8 2.7s.3 2.1.8 2.7 1.3.9 2.3.9c.6 0 1.3-.1 2.1-.3v.9c-.6.2-1.4.3-2.3.3-1.3 0-2.3-.4-3-1.2s-1.1-1.9-1.1-3.4c0-.9.2-1.7.5-2.4s.8-1.2 1.5-1.6c.6-.4 1.4-.6 2.3-.6s1.7.2 2.4.5l-.4.9c-.8-.2-1.3-.4-2-.4z" fill="#fff"/><path d="m63.3 666.1h-1.2l-3.2-4.3-.9.8v3.5h-1v-8.8h1v4.4l4-4.4h1.2l-3.6 3.8z" fill="#fff"/><path d="m69.6 666.1h-4.9v-8.8h4.9v.9h-3.9v2.9h3.7v.9h-3.7v3.3h3.9z" fill="#fff"/><path d="m74.2 666.1h-1v-7.9h-2.8v-.9h6.6v.9h-2.8z" fill="#fff"/><path d="m87.2 659.8c0 .9-.3 1.6-.9 2.1s-1.5.7-2.6.7h-1v3.5h-1v-8.8h2.3c2.1-.1 3.2.8 3.2 2.5zm-4.6 1.9h.9c.9 0 1.6-.1 2-.4s.6-.8.6-1.4-.2-1-.6-1.3-1-.4-1.8-.4h-1.1z" fill="#fff"/><path d="m90.1 662.4v3.7h-1v-8.8h2.4c1.1 0 1.9.2 2.4.6s.8 1 .8 1.9c0 1.2-.6 2-1.8 2.4l2.4 4h-1.2l-2.1-3.7zm0-.9h1.4c.7 0 1.3-.1 1.6-.4s.5-.7.5-1.3-.2-1-.5-1.3-.9-.4-1.7-.4h-1.3z" fill="#fff"/><path d="m104.3 661.6c0 1.4-.4 2.5-1.1 3.3s-1.7 1.2-3 1.2-2.3-.4-3-1.2-1.1-1.9-1.1-3.4c0-1.4.4-2.6 1.1-3.4s1.7-1.2 3-1.2 2.3.4 3 1.2c.9 1 1.1 2.1 1.1 3.5zm-7 0c0 1.2.3 2.1.8 2.7s1.3.9 2.2.9c1 0 1.7-.3 2.2-.9s.8-1.5.8-2.7-.2-2.1-.7-2.7-1.2-.9-2.2-.9-1.7.3-2.2.9c-.6.7-.9 1.6-.9 2.7z" fill="#fff"/><path d="m110.2 666.1-3-7.8c.1.6.1 1.4.1 2.2v5.6h-1v-8.8h1.5l2.8 7.3 2.8-7.3h1.5v8.8h-1v-5.7c0-.7 0-1.4.1-2.1l-3 7.8z" fill="#fff"/><path d="m122.4 666.1h-4.9v-8.8h4.9v.9h-3.9v2.9h3.7v.9h-3.7v3.3h3.9z" fill="#fff"/><path d="m131.4 661.6c0 1.5-.4 2.6-1.2 3.3-.8.8-1.9 1.2-3.4 1.2h-2.4v-8.8h2.7c1.4 0 2.4.4 3.2 1.1s1.1 1.8 1.1 3.2zm-1 0c0-1.2-.3-2-.9-2.6s-1.4-.9-2.6-.9h-1.5v7.1h1.3c1.2 0 2.1-.3 2.8-.9.6-.6.9-1.5.9-2.7z" fill="#fff"/><path d="m133.4 666.1v-8.8h1v8.8z" fill="#fff"/><path d="m144.6 661.6c0 1.4-.4 2.5-1.1 3.3s-1.7 1.2-3 1.2-2.3-.4-3-1.2-1.1-1.9-1.1-3.4c0-1.4.4-2.6 1.1-3.4s1.7-1.2 3-1.2 2.3.4 3 1.2c.7 1 1.1 2.1 1.1 3.5zm-7 0c0 1.2.3 2.1.8 2.7s1.3.9 2.2.9c1 0 1.7-.3 2.2-.9s.8-1.5.8-2.7-.2-2.1-.7-2.7-1.2-.9-2.2-.9-1.7.3-2.2.9c-.6.7-.9 1.6-.9 2.7z" fill="#fff"/><path d="m104.3 564.9h-26.9v41.8h26.9c1.6 0 3-1.3 3-3v-35.9c0-1.6-1.4-2.9-3-2.9zm-10.5 35.8h-12c-.8 0-1.5-.7-1.5-1.5s.7-1.5 1.5-1.5h12c.8 0 1.5.7 1.5 1.5 0 .9-.5 1.5-1.5 1.5zm9-5.9h-20.9c-.8 0-1.5-.7-1.5-1.5s.7-1.5 1.5-1.5h20.9c.8 0 1.5.7 1.5 1.5s-.6 1.5-1.5 1.5zm0-6h-20.9c-.8 0-1.5-.7-1.5-1.5s.7-1.5 1.5-1.5h20.9c.8 0 1.5.7 1.5 1.5s-.6 1.5-1.5 1.5zm0-6h-20.9c-.8 0-1.5-.7-1.5-1.5s.7-1.5 1.5-1.5h20.9c.8 0 1.5.7 1.5 1.5 0 .9-.6 1.5-1.5 1.5zm0-6h-20.9c-.8 0-1.5-.7-1.5-1.5s.7-1.5 1.5-1.5h20.9c.8 0 1.5.7 1.5 1.5 0 .9-.6 1.5-1.5 1.5zm0-5.9h-20.9c-.8 0-1.5-.7-1.5-1.5s.7-1.5 1.5-1.5h20.9c.8 0 1.5.7 1.5 1.5s-.6 1.5-1.5 1.5z" fill="none"/><path d="m102.8 591.8h-20.9c-.8 0-1.5.7-1.5 1.5s.7 1.5 1.5 1.5h20.9c.8 0 1.5-.7 1.5-1.5s-.6-1.5-1.5-1.5z" fill="#753d86"/><path d="m104.2 561.9h-30.4v47.8h30.4c3.3 0 6-2.7 6-6v-35.9c0-3.2-2.6-5.9-6-5.9zm3 41.8c0 1.6-1.3 3-3 3h-26.9v-41.8h26.9c1.6 0 3 1.3 3 3z" fill="#753d86"/><path d="m102.8 585.8h-20.9c-.8 0-1.5.7-1.5 1.5s.7 1.5 1.5 1.5h20.9c.8 0 1.5-.7 1.5-1.5s-.6-1.5-1.5-1.5z" fill="#753d86"/><path d="m93.8 597.8h-12c-.8 0-1.5.7-1.5 1.5s.7 1.5 1.5 1.5h12c.8 0 1.5-.7 1.5-1.5 0-.9-.5-1.5-1.5-1.5z" fill="#753d86"/><path d="m102.8 567.9h-20.9c-.8 0-1.5.7-1.5 1.5s.7 1.5 1.5 1.5h20.9c.8 0 1.5-.7 1.5-1.5 0-.9-.6-1.5-1.5-1.5z" fill="#753d86"/><path d="m102.8 579.8h-20.9c-.8 0-1.5.7-1.5 1.5s.7 1.5 1.5 1.5h20.9c.8 0 1.5-.7 1.5-1.5s-.6-1.5-1.5-1.5z" fill="#753d86"/><path d="m102.8 573.9h-20.9c-.8 0-1.5.7-1.5 1.5s.7 1.5 1.5 1.5h20.9c.8 0 1.5-.7 1.5-1.5 0-.9-.6-1.5-1.5-1.5z" fill="#753d86"/><path d="m260 98.7c-33.3 0-60.3 27-60.3 60.3s27 60.3 60.3 60.3 60.3-27 60.3-60.3-27.1-60.3-60.3-60.3z" fill="#fff"/><path d="m259.9 92.4c-36.9 0-66.8 29.9-66.8 66.8s29.9 66.8 66.8 66.8 66.8-29.9 66.8-66.8-29.9-66.8-66.8-66.8zm.1 129.3c-34.6 0-62.6-28-62.6-62.6s28-62.6 62.6-62.6 62.6 28 62.6 62.6c0 34.5-28.1 62.6-62.6 62.6z" fill="#213958"/><path d="m260 96.4c-34.6 0-62.6 28-62.6 62.6s28 62.6 62.6 62.6 62.6-28 62.6-62.6-28.1-62.6-62.6-62.6zm0 122.9c-33.3 0-60.3-27-60.3-60.3s27-60.3 60.3-60.3 60.3 27 60.3 60.3-27.1 60.3-60.3 60.3z" fill="#8ab7e9"/><path d="m243.1 230.7h1.1l-3.2 8.8h-1l-3.2-8.8h1.1l2 5.7c.2.7.4 1.3.6 1.9.1-.7.3-1.3.6-2z" fill="#fff"/><path d="m250.4 239.6h-4.9v-8.8h4.9v.9h-3.9v2.9h3.7v.9h-3.7v3.3h3.9z" fill="#fff"/><path d="m259.2 239.6h-1.2l-4.8-7.4c.1.9.1 1.7.1 2.4v5h-1v-8.8h1.2l4.8 7.4c0-.1 0-.5-.1-1s0-1 0-1.3v-5.1h1z" fill="#fff"/><path d="m264.5 239.6h-1v-7.9h-2.9v-.9h6.6v.9h-2.8z" fill="#fff"/><path d="m274.1 239.6-1.1-2.8h-3.5l-1.1 2.8h-1l3.5-8.9h.9l3.5 8.9zm-1.5-3.8-1-2.7c-.1-.3-.3-.8-.4-1.3-.1.4-.2.8-.4 1.3l-1 2.7z" fill="#fff"/><path d="m281.4 237.2c0 .8-.3 1.4-.8 1.8-.6.4-1.3.7-2.3.7s-1.9-.1-2.4-.4v-1c.4.2.8.3 1.2.4s.9.1 1.3.1c.7 0 1.2-.1 1.5-.4s.5-.6.5-1.1c0-.3-.1-.6-.2-.8s-.3-.4-.6-.5c-.3-.2-.7-.4-1.3-.6-.8-.3-1.4-.6-1.8-1s-.5-.9-.5-1.6.3-1.2.8-1.6 1.2-.6 2-.6c.9 0 1.7.2 2.4.5l-.3.9c-.7-.3-1.4-.5-2.1-.5-.5 0-1 .1-1.3.4-.3.2-.5.6-.5 1 0 .3.1.6.2.8s.3.4.6.5c.3.2.7.3 1.2.5.9.3 1.6.7 1.9 1.1.3.3.5.8.5 1.4z" fill="#fff"/><path d="m256.9 135.3h5v3.6c2.3.1 4.6.8 6.9 2.1v8.4c-2.5-2.4-4.8-3.6-7-3.6-1.1 0-2 .3-2.9 1s-1.3 1.6-1.3 2.7c0 .9.3 1.6.9 2.2s2 1.5 4.2 2.4c2 .9 3.5 1.7 4.6 2.5s2 1.9 2.8 3.3c.7 1.4 1.1 2.9 1.1 4.6 0 2.6-.8 5-2.3 7.1s-3.9 3.6-7 4.5v4.1h-5v-3.6c-2.3-.1-5-.8-8.1-2.3v-8.7c2.9 2.7 5.6 4.1 8.3 4.1 1.5 0 2.7-.4 3.7-1.3s1.5-2 1.5-3.4c0-1.2-.4-2.1-1.2-2.8s-2.2-1.5-4.3-2.4c-2.6-1.1-4.6-2.5-6-4.1s-2.1-3.7-2.1-6.2.7-4.6 2-6.3c1.4-1.7 3.4-3 6.1-4v-3.9z" fill="#011e41"/><path d="m260.5 267.7c-33.3 0-60.3 27-60.3 60.3s27 60.3 60.3 60.3 60.3-27 60.3-60.3-27-60.3-60.3-60.3z" fill="#fff"/><path d="m260.4 261.4c-36.9 0-66.8 29.9-66.8 66.8s29.9 66.8 66.8 66.8 66.8-29.9 66.8-66.8-30-66.8-66.8-66.8zm.1 129.3c-34.6 0-62.6-28-62.6-62.6s28-62.6 62.6-62.6 62.6 28 62.6 62.6c0 34.5-28.1 62.6-62.6 62.6z" fill="#213958"/><path d="m260.5 265.4c-34.6 0-62.6 28-62.6 62.6s28 62.6 62.6 62.6 62.6-28 62.6-62.6-28.1-62.6-62.6-62.6zm0 122.9c-33.3 0-60.3-27-60.3-60.3s27-60.3 60.3-60.3 60.3 27 60.3 60.3-27 60.3-60.3 60.3z" fill="#8ab7e9"/><g fill="#fff"><path d="m190.1 404.9v3.7h-1v-8.8h2.4c1.1 0 1.9.2 2.4.6s.8 1 .8 1.9c0 1.2-.6 2-1.8 2.4l2.4 4h-1.3l-2.1-3.7h-1.9zm0-.9h1.4c.7 0 1.3-.1 1.6-.4s.5-.7.5-1.3-.2-1-.5-1.3-.9-.4-1.7-.4h-1.3z"/><path d="m201.6 408.6h-4.9v-8.8h4.9v.9h-3.9v2.9h3.7v.9h-3.7v3.3h3.9z"/><path d="m206.4 408.6h-1v-7.9h-2.8v-.9h6.6v.9h-2.8z"/><path d="m218.1 404.1c0 1.4-.4 2.5-1.1 3.3s-1.7 1.2-3 1.2-2.3-.4-3-1.2-1.1-1.9-1.1-3.4c0-1.4.4-2.6 1.1-3.4s1.7-1.2 3-1.2 2.3.4 3 1.2c.8 1 1.1 2.1 1.1 3.5zm-7 0c0 1.2.3 2.1.8 2.7s1.3.9 2.2.9c1 0 1.7-.3 2.2-.9s.8-1.5.8-2.7-.2-2.1-.7-2.7-1.2-.9-2.2-.9-1.7.3-2.2.9c-.6.6-.9 1.5-.9 2.7z"/><path d="m221.1 404.9v3.7h-1v-8.8h2.4c1.1 0 1.9.2 2.4.6s.8 1 .8 1.9c0 1.2-.6 2-1.8 2.4l2.4 4h-1.2l-2.1-3.7h-1.9zm0-.9h1.4c.7 0 1.3-.1 1.6-.4s.5-.7.5-1.3-.2-1-.5-1.3-.9-.4-1.7-.4h-1.3z"/><path d="m234.8 408.6h-1.2l-4.8-7.4c.1.9.1 1.7.1 2.4v5h-1v-8.8h1.2l4.8 7.4c0-.1 0-.5-.1-1s0-1 0-1.3v-5.1h1z"/><path d="m244.9 404.1c0 1.4-.4 2.5-1.1 3.3s-1.7 1.2-3 1.2-2.3-.4-3-1.2-1.1-1.9-1.1-3.4c0-1.4.4-2.6 1.1-3.4s1.7-1.2 3-1.2 2.3.4 3 1.2c.6 1 1.1 2.1 1.1 3.5zm-7.1 0c0 1.2.3 2.1.8 2.7s1.3.9 2.2.9c1 0 1.7-.3 2.2-.9s.8-1.5.8-2.7-.2-2.1-.7-2.7-1.2-.9-2.2-.9-1.7.3-2.2.9c-.6.6-.9 1.5-.9 2.7z"/><path d="m257 404c0 1.5-.4 2.6-1.2 3.4s-1.9 1.2-3.4 1.2h-2.4v-8.8h2.7c1.4 0 2.4.4 3.2 1.1.7.7 1.1 1.8 1.1 3.1zm-1.1.1c0-1.2-.3-2-.9-2.6s-1.4-.9-2.6-.9h-1.5v7.1h1.3c1.2 0 2.1-.3 2.8-.9.6-.6.9-1.5.9-2.7z"/><path d="m264 408.6h-4.9v-8.8h4.9v.9h-3.9v2.9h3.7v.9h-3.7v3.3h3.9z"/><path d="m269.1 408.6v-8.8h1v8.8z"/><path d="m279.5 408.6h-1.2l-4.8-7.4c.1.9.1 1.7.1 2.4v5h-1v-8.8h1.2l4.8 7.4c0-.1 0-.5-.1-1s0-1 0-1.3v-5.1h1z"/><path d="m287 399.7h1.1l-3.2 8.8h-1l-3.2-8.8h1.1l2 5.7c.2.7.4 1.3.6 1.9.1-.7.3-1.3.6-2z"/><path d="m294.2 408.6h-4.9v-8.8h4.9v.9h-3.9v2.9h3.7v.9h-3.7v3.3h3.9z"/><path d="m297.2 404.9v3.7h-1v-8.8h2.4c1.1 0 1.9.2 2.4.6s.8 1 .8 1.9c0 1.2-.6 2-1.8 2.4l2.4 4h-1.2l-2.1-3.7h-1.9zm0-.9h1.4c.7 0 1.3-.1 1.6-.4s.5-.7.5-1.3-.2-1-.5-1.3-.9-.4-1.7-.4h-1.3z"/><path d="m308.9 406.2c0 .8-.3 1.4-.8 1.8-.6.4-1.3.7-2.3.7s-1.9-.1-2.4-.4v-1c.4.2.8.3 1.2.4s.9.1 1.3.1c.7 0 1.2-.1 1.5-.4s.5-.6.5-1.1c0-.3-.1-.6-.2-.8s-.3-.4-.6-.5c-.3-.2-.7-.4-1.3-.6-.8-.3-1.4-.6-1.8-1s-.5-.9-.5-1.6.3-1.2.8-1.6 1.2-.6 2-.6c.9 0 1.7.2 2.4.5l-.3.9c-.7-.3-1.4-.5-2.1-.5-.5 0-1 .1-1.3.4-.3.2-.5.6-.5 1 0 .3.1.6.2.8s.3.4.6.5c.3.2.7.3 1.2.5.9.3 1.6.7 1.9 1.1.4.3.5.8.5 1.4z"/><path d="m310.8 408.6v-8.8h1v8.8z"/><path d="m321.9 404.1c0 1.4-.4 2.5-1.1 3.3s-1.7 1.2-3 1.2-2.3-.4-3-1.2-1.1-1.9-1.1-3.4c0-1.4.4-2.6 1.1-3.4s1.7-1.2 3-1.2 2.3.4 3 1.2c.7 1 1.1 2.1 1.1 3.5zm-7.1 0c0 1.2.3 2.1.8 2.7s1.3.9 2.2.9c1 0 1.7-.3 2.2-.9s.8-1.5.8-2.7-.2-2.1-.7-2.7-1.2-.9-2.2-.9-1.7.3-2.2.9c-.7.6-.9 1.5-.9 2.7zm2.2-5.3c.2-.2.4-.6.6-.9.2-.4.4-.7.5-.9h1.2v.1c-.2.3-.4.6-.8 1s-.7.7-.9.9h-.7z"/><path d="m330.8 408.6h-1.2l-4.8-7.4c.1.9.1 1.7.1 2.4v5h-1v-8.8h1.2l4.8 7.4c0-.1 0-.5-.1-1s0-1 0-1.3v-5.1h1z"/></g><path d="m226.4 290.6h5.2v66.4h-5.2z" fill="#93bc53"/><path d="m227.4 351.8h66.4v5.2h-66.4z" fill="#93bc53"/><path d="m238.9 330.8h8.5v24.5h-8.5z" fill="#93bc53"/><path d="m255.4 319.1h8.5v36.1h-8.5z" fill="#93bc53"/><path d="m272.1 307.1h8.5v48.2h-8.5z" fill="#93bc53"/><path d="m260 437c-33.3 0-60.3 27-60.3 60.3s27 60.3 60.3 60.3 60.3-27 60.3-60.3-27.1-60.3-60.3-60.3z" fill="#fff"/><path d="m259.9 430.7c-36.9 0-66.8 29.9-66.8 66.8s29.9 66.8 66.8 66.8 66.8-29.9 66.8-66.8-29.9-66.8-66.8-66.8zm.1 129.3c-34.6 0-62.6-28-62.6-62.6s28-62.6 62.6-62.6 62.6 28 62.6 62.6c-.1 34.5-28.1 62.6-62.6 62.6z" fill="#213958"/><path d="m260 434.7c-34.6 0-62.6 28-62.6 62.6s28 62.6 62.6 62.6 62.6-28 62.6-62.6-28.1-62.6-62.6-62.6zm0 122.9c-33.3 0-60.3-27-60.3-60.3s27-60.3 60.3-60.3 60.3 27 60.3 60.3-27.1 60.3-60.3 60.3z" fill="#8ab7e9"/><path d="m223.6 575.5c0 .8-.3 1.4-.8 1.8-.6.4-1.3.7-2.3.7s-1.9-.1-2.4-.4v-1c.4.2.8.3 1.2.4s.9.1 1.3.1c.7 0 1.2-.1 1.5-.4s.5-.6.5-1.1c0-.3-.1-.6-.2-.8s-.3-.4-.6-.5c-.3-.2-.7-.4-1.3-.6-.8-.3-1.4-.6-1.8-1s-.5-.9-.5-1.6.3-1.2.8-1.6 1.2-.6 2-.6c.9 0 1.7.2 2.4.5l-.3.9c-.7-.3-1.4-.5-2.1-.5-.5 0-1 .1-1.3.4-.3.2-.5.6-.5 1 0 .3.1.6.2.8s.3.4.6.5c.3.2.7.3 1.2.5.9.3 1.6.7 1.9 1.1.3.3.5.8.5 1.4z" fill="#fff"/><path d="m230.9 577.9-1.1-2.8h-3.5l-1.1 2.8h-1l3.5-8.9h.9l3.5 8.9zm-1.5-3.8-1-2.7c-.1-.3-.3-.8-.4-1.3-.1.4-.2.8-.4 1.3l-1 2.7z" fill="#fff"/><path d="m235.9 577.9h-1v-7.9h-2.8v-.9h6.6v.9h-2.8z" fill="#fff"/><path d="m240.1 577.9v-8.8h1v8.8z" fill="#fff"/><path d="m248.4 575.5c0 .8-.3 1.4-.8 1.8-.6.4-1.3.7-2.3.7s-1.9-.1-2.4-.4v-1c.4.2.8.3 1.2.4s.9.1 1.3.1c.7 0 1.2-.1 1.5-.4s.5-.6.5-1.1c0-.3-.1-.6-.2-.8s-.3-.4-.6-.5c-.3-.2-.7-.4-1.3-.6-.8-.3-1.4-.6-1.8-1s-.5-.9-.5-1.6.3-1.2.8-1.6 1.2-.6 2-.6c.9 0 1.7.2 2.4.5l-.3.9c-.7-.3-1.4-.5-2.1-.5-.5 0-1 .1-1.3.4-.3.2-.5.6-.5 1 0 .3.1.6.2.8s.3.4.6.5c.3.2.7.3 1.2.5.9.3 1.6.7 1.9 1.1.5.3.5.8.5 1.4z" fill="#fff"/><path d="m251.4 577.9h-1v-8.8h4.9v.9h-3.9v3.2h3.7v.9h-3.7z" fill="#fff"/><path d="m262.2 577.9-1.1-2.8h-3.5l-1.1 2.8h-1l3.5-8.9h.9l3.5 8.9zm-1.3-3.8-1-2.7c-.1-.3-.3-.8-.4-1.3-.1.4-.2.8-.4 1.3l-1 2.7z" fill="#fff"/><path d="m268.4 569.8c-1 0-1.7.3-2.3 1-.6.6-.8 1.5-.8 2.7s.3 2.1.8 2.7 1.3.9 2.3.9c.6 0 1.3-.1 2.1-.3v.9c-.6.2-1.4.3-2.3.3-1.3 0-2.3-.4-3-1.2s-1.1-1.9-1.1-3.4c0-.9.2-1.7.5-2.4s.8-1.2 1.5-1.6c.6-.4 1.4-.6 2.3-.6s1.7.2 2.4.5l-.4.9c-.8-.2-1.4-.4-2-.4z" fill="#fff"/><path d="m276.1 569.8c-1 0-1.7.3-2.3 1-.6.6-.8 1.5-.8 2.7s.3 2.1.8 2.7 1.3.9 2.3.9c.6 0 1.3-.1 2.1-.3v.9c-.6.2-1.4.3-2.3.3-1.3 0-2.3-.4-3-1.2s-1.1-1.9-1.1-3.4c0-.9.2-1.7.5-2.4s.8-1.2 1.5-1.6c.6-.4 1.4-.6 2.3-.6s1.7.2 2.4.5l-.4.9c-.6-.2-1.2-.4-2-.4z" fill="#fff"/><path d="m280.1 577.9v-8.8h1v8.8z" fill="#fff"/><path d="m291.4 573.4c0 1.4-.4 2.5-1.1 3.3s-1.7 1.2-3 1.2-2.3-.4-3-1.2-1.1-1.9-1.1-3.4c0-1.4.4-2.6 1.1-3.4s1.7-1.2 3-1.2 2.3.4 3 1.2c.7 1 1.1 2.1 1.1 3.5zm-7.2 0c0 1.2.3 2.1.8 2.7s1.3.9 2.2.9c1 0 1.7-.3 2.2-.9s.8-1.5.8-2.7-.2-2.1-.7-2.7-1.2-.9-2.2-.9-1.7.3-2.2.9c-.6.6-.9 1.5-.9 2.7zm2.2-5.3c.2-.2.4-.6.6-.9.2-.4.4-.7.5-.9h1.2v.1c-.2.3-.4.6-.8 1s-.7.7-.9.9h-.7z" fill="#fff"/><path d="m300.1 577.9h-1.2l-4.8-7.4c.1.9.1 1.7.1 2.4v5h-1v-8.8h1.2l4.8 7.4c0-.1 0-.5-.1-1s0-1 0-1.3v-5.1h1z" fill="#fff"/><circle cx="244.9" cy="486.6" fill="#e42e87" r="6.5"/><path d="m267 483.3h15.8v4.6h-15.8z" fill="#e42e87"/><path d="m260 526.1c11.1 0 20.5-7.9 22.9-18.5h-5.3c-2.3 7.7-9.3 13.3-17.6 13.3s-15.3-5.6-17.6-13.3h-5.3c2.5 10.6 11.8 18.5 22.9 18.5z" fill="#e42e87"/><path d="m440.9 182.2c-33.3 0-60.3 27-60.3 60.3s27 60.3 60.3 60.3 60.3-27 60.3-60.3-27.1-60.3-60.3-60.3z" fill="#fff"/><path d="m440.8 175.8c-36.9 0-66.8 29.9-66.8 66.8s29.9 66.8 66.8 66.8 66.8-29.9 66.8-66.8-30-66.8-66.8-66.8zm.1 129.3c-34.6 0-62.6-28-62.6-62.6s28-62.6 62.6-62.6 62.6 28 62.6 62.6c0 34.5-28 62.6-62.6 62.6z" fill="#213958"/><path d="m440.9 179.8c-34.6 0-62.6 28-62.6 62.6s28 62.6 62.6 62.6 62.6-28 62.6-62.6-28-62.6-62.6-62.6zm0 122.9c-33.3 0-60.3-27-60.3-60.3s27-60.3 60.3-60.3 60.3 27 60.3 60.3-27.1 60.3-60.3 60.3z" fill="#8ab7e9"/><path d="m444.8 253.5c-1 0-1.9-.6-2.7-1.1-.6-.4-1.4-.9-1.8-.9-.5 0-1.2.5-1.8.9-1 .7-2.2 1.4-3.4 1s-1.8-1.7-2.2-2.9c-.3-.7-.6-1.5-.9-1.7-.3-.3-1.2-.3-1.9-.4-1.3-.1-2.7-.2-3.4-1.2s-.4-2.4-.1-3.6c.2-.7.4-1.6.3-2s-.8-.9-1.3-1.4c-1-.8-2.1-1.7-2.1-3s1.1-2.2 2.1-3c.6-.5 1.2-1 1.3-1.4s-.1-1.2-.3-2c-.3-1.2-.7-2.6.1-3.6s2.2-1.1 3.4-1.2c.7 0 1.6-.1 1.9-.4.3-.2.6-1 .9-1.7.5-1.2 1-2.5 2.2-2.9s2.4.4 3.4 1c.6.4 1.4.9 1.8.9.5 0 1.2-.5 1.8-.9 1-.7 2.2-1.4 3.4-1s1.8 1.7 2.2 2.9c.3.7.6 1.5.9 1.7.3.3 1.2.3 1.9.4 1.3.1 2.7.2 3.4 1.2s.4 2.4.1 3.6c-.2.7-.4 1.6-.3 2s.8.9 1.3 1.4c1 .8 2.1 1.7 2.1 3s-1.1 2.2-2.1 3c-.6.5-1.2 1-1.3 1.4s.1 1.2.3 2c.3 1.2.7 2.6-.1 3.6s-2.2 1.1-3.4 1.2c-.7 0-1.6.1-1.9.4-.3.2-.6 1-.9 1.7-.5 1.2-1 2.5-2.2 2.9-.4.1-.5.1-.7.1zm-9.2-30.6h-.1c-.4.1-.8 1.1-1.1 1.8-.4 1-.8 2-1.6 2.5-.8.6-1.9.6-2.9.7-.8 0-1.8.1-2 .4s0 1.3.2 2c.3 1 .5 2.1.2 3s-1.1 1.6-1.9 2.2c-.6.5-1.4 1.2-1.4 1.6s.8 1.1 1.4 1.6c.8.7 1.6 1.3 1.9 2.2s0 2-.2 3c-.2.7-.4 1.7-.2 2s1.3.4 2 .4c1 .1 2.1.1 2.9.7s1.2 1.6 1.6 2.5c.3.8.7 1.7 1.1 1.8s1.2-.4 1.8-.8c.9-.6 1.8-1.2 2.8-1.2s1.9.6 2.8 1.2c.6.4 1.5.9 1.8.8.4-.1.8-1.1 1.1-1.8.4-1 .8-2 1.6-2.5.8-.6 1.9-.6 2.9-.7.8 0 1.8-.1 2-.4s0-1.3-.2-2c-.3-1-.5-2.1-.2-3s1.1-1.6 1.9-2.2c.6-.5 1.4-1.2 1.4-1.6s-.8-1.1-1.4-1.6c-.8-.7-1.6-1.3-1.9-2.2s0-2 .2-3c.2-.7.4-1.7.2-2s-1.3-.4-2-.4c-1-.1-2.1-.1-2.9-.7s-1.2-1.6-1.6-2.5c-.3-.8-.7-1.7-1.1-1.8s-1.2.4-1.8.8c-.9.6-1.8 1.2-2.8 1.2s-1.9-.6-2.8-1.2c-.5-.4-1.3-.8-1.7-.8z" fill="#ff6c0e"/><path d="m440.1 247.8c-5.8 0-10.5-4.7-10.5-10.5s4.7-10.5 10.5-10.5 10.5 4.7 10.5 10.5c.2 5.8-4.6 10.5-10.5 10.5zm0-19.2c-4.8 0-8.7 3.9-8.7 8.7s3.9 8.7 8.7 8.7 8.7-3.9 8.7-8.7-3.8-8.7-8.7-8.7z" fill="#ff6c0e"/><path d="m434.2 265.5c-.4 0-.7-.2-.8-.5l-2.2-4.8-5 1.8c-.3.1-.7 0-1-.2-.3-.3-.3-.7-.2-1l5.5-13.3c.2-.5.7-.7 1.2-.5s.7.7.5 1.2l-4.7 11.3 3.8-1.4c.5-.2 1 0 1.2.5l1.7 3.7 4.9-11.7c.2-.5.7-.7 1.2-.5s.7.7.5 1.2l-5.7 13.7c-.1.3-.5.5-.9.5z" fill="#ff6c0e"/><path d="m446 265.5c-.4 0-.7-.2-.9-.6l-5.7-13.7c-.2-.5 0-1 .5-1.2s1 0 1.2.5l4.9 11.7 1.7-3.7c.2-.4.7-.6 1.2-.5l3.8 1.4-4.7-11.3c-.2-.5 0-1 .5-1.2s1 0 1.2.5l5.5 13.3c.1.3.1.7-.2 1s-.6.4-1 .2l-5-1.8-2.2 4.8c0 .4-.3.6-.8.6z" fill="#ff6c0e"/><path d="m443.5 242.8c-.2 0-.4-.1-.5-.2l-2.8-2-2.8 2c-.3.2-.8.2-1.1 0s-.5-.7-.3-1l1.1-3.3-2.8-2c-.3-.2-.5-.7-.3-1 .1-.4.5-.6.9-.6h3.5l1.1-3.3c.1-.4.5-.6.9-.6s.8.3.9.6l1.1 3.3h3.5c.4 0 .8.3.9.6.1.4 0 .8-.3 1l-2.8 2 1.1 3.3c.1.4 0 .8-.3 1-.5.2-.7.2-1 .2zm-3.4-4.3c.2 0 .4.1.5.2l1 .8-.4-1.2c-.1-.4 0-.8.3-1l1-.8h-1.3c-.4 0-.8-.3-.9-.6l-.4-1.2-.4 1.2c-.1.4-.5.6-.9.6h-1.1l1 .8c.3.2.5.7.3 1l-.3 1.2 1-.8c.3-.1.5-.2.6-.2z" fill="#ff6c0e"/><path d="m394.5 314.2h1.1l-3.2 8.8h-1l-3.2-8.8h1.1l2 5.7c.2.7.4 1.3.6 1.9.1-.7.3-1.3.6-2z" fill="#fff"/><path d="m402.4 323-1.1-2.8h-3.5l-1.1 2.8h-1l3.5-8.9h.9l3.5 8.9zm-1.5-3.7-1-2.7c-.1-.3-.3-.8-.4-1.3-.1.4-.2.8-.4 1.3l-1 2.7z" fill="#fff"/><path d="m404.5 323v-8.8h1v7.9h3.9v.9z" fill="#fff"/><path d="m418.8 318.6c0 1.4-.4 2.5-1.1 3.3s-1.7 1.2-3 1.2-2.3-.4-3-1.2-1.1-1.9-1.1-3.4c0-1.4.4-2.6 1.1-3.4s1.7-1.2 3-1.2 2.3.4 3 1.2 1.1 2 1.1 3.5zm-7.2 0c0 1.2.3 2.1.8 2.7s1.3.9 2.2.9c1 0 1.7-.3 2.2-.9s.8-1.5.8-2.7-.2-2.1-.7-2.7-1.2-.9-2.2-.9-1.7.3-2.2.9-.9 1.5-.9 2.7z" fill="#fff"/><path d="m421.8 319.3v3.7h-1v-8.8h2.4c1.1 0 1.9.2 2.4.6s.8 1 .8 1.9c0 1.2-.6 2-1.8 2.4l2.4 4h-1.2l-2.1-3.7h-1.9zm0-.9h1.4c.7 0 1.3-.1 1.6-.4s.5-.7.5-1.3-.2-1-.5-1.3-.9-.4-1.7-.4h-1.3z" fill="#fff"/><path d="m438.6 318.5c0 1.5-.4 2.6-1.2 3.4s-1.9 1.2-3.4 1.2h-2.5v-8.8h2.7c1.4 0 2.4.4 3.2 1.1s1.2 1.7 1.2 3.1zm-1.1 0c0-1.2-.3-2-.9-2.6s-1.4-.9-2.6-.9h-1.5v7.1h1.3c1.2 0 2.1-.3 2.8-.9.6-.6.9-1.5.9-2.7z" fill="#fff"/><path d="m445.5 323h-4.9v-8.8h4.9v.9h-3.9v2.9h3.7v.9h-3.7v3.3h3.9z" fill="#fff"/><path d="m454.6 323-3-7.8c.1.6.1 1.4.1 2.2v5.6h-1v-8.8h1.5l2.8 7.3 2.8-7.3h1.5v8.8h-1v-5.7c0-.7 0-1.4.1-2.1l-3 7.8z" fill="#fff"/><path d="m467.5 323-1.1-2.8h-3.5l-1.1 2.8h-1l3.5-8.9h.9l3.5 8.9zm-1.5-3.7-1-2.7c-.1-.3-.3-.8-.4-1.3-.1.4-.2.8-.4 1.3l-1 2.7z" fill="#fff"/><path d="m470.8 319.3v3.7h-1v-8.8h2.4c1.1 0 1.9.2 2.4.6s.8 1 .8 1.9c0 1.2-.6 2-1.8 2.4l2.4 4h-1.2l-2.1-3.7h-1.9zm0-.9h1.4c.7 0 1.3-.1 1.6-.4s.5-.7.5-1.3-.2-1-.5-1.3-.9-.4-1.7-.4h-1.3z" fill="#fff"/><path d="m481.1 314.9c-1 0-1.7.3-2.3 1-.6.6-.8 1.5-.8 2.7s.3 2.1.8 2.7 1.3.9 2.3.9c.6 0 1.3-.1 2.1-.3v.9c-.6.2-1.4.3-2.3.3-1.3 0-2.3-.4-3-1.2s-1.1-1.9-1.1-3.4c0-.9.2-1.7.5-2.4s.8-1.2 1.5-1.6c.6-.4 1.4-.6 2.3-.6s1.7.2 2.4.5l-.4.9c-.6-.2-1.2-.4-2-.4z" fill="#fff"/><path d="m490.8 323-1.1-2.8h-3.5l-1.2 2.8h-1l3.5-8.9h.9l3.5 8.9zm-1.4-3.7-1-2.7c-.1-.3-.3-.8-.4-1.3-.1.4-.2.8-.4 1.3l-1 2.7z" fill="#fff"/><path d="m441 353.7c-33.3 0-60.3 27-60.3 60.3s27 60.3 60.3 60.3 60.3-27 60.3-60.3c-.2-33.3-27.2-60.3-60.3-60.3z" fill="#fff"/><path d="m440.8 347.3c-36.9 0-66.8 29.9-66.8 66.8s29.9 66.8 66.8 66.8 66.8-29.9 66.8-66.8-30-66.8-66.8-66.8zm.2 129.3c-34.6 0-62.6-28-62.6-62.6s28-62.6 62.6-62.6 62.6 28 62.6 62.6c-.1 34.5-28.1 62.6-62.6 62.6z" fill="#213958"/><path d="m441 351.3c-34.6 0-62.6 28-62.6 62.6s28 62.6 62.6 62.6 62.6-28 62.6-62.6-28.1-62.6-62.6-62.6zm0 122.9c-33.3 0-60.3-27-60.3-60.3s27-60.3 60.3-60.3 60.3 27 60.3 60.3c-.2 33.3-27.2 60.3-60.3 60.3z" fill="#8ab7e9"/><path d="m415.9 494.5v-8.8h1v7.9h3.9v.9z" fill="#fff"/><path d="m427.2 494.5h-4.9v-8.8h4.9v.9h-3.9v2.9h3.7v.9h-3.7v3.3h3.9z" fill="#fff"/><path d="m434.8 494.5-1.1-2.8h-3.5l-1.1 2.8h-1l3.5-8.9h.9l3.5 8.9zm-1.4-3.8-1-2.7c-.1-.3-.3-.8-.4-1.3-.1.4-.2.8-.4 1.3l-1 2.7z" fill="#fff"/><path d="m437 494.5v-8.8h1v7.9h3.9v.9z" fill="#fff"/><path d="m446.1 494.5h-1v-7.9h-2.8v-.9h6.6v.9h-2.8z" fill="#fff"/><path d="m455.9 494.5-1.1-2.8h-3.5l-1.1 2.8h-1l3.5-8.9h.9l3.5 8.9zm-1.4-3.8-1-2.7c-.1-.3-.3-.8-.4-1.3-.1.4-.2.8-.4 1.3l-1 2.7z" fill="#fff"/><path d="m465.2 490c0 1.5-.4 2.6-1.2 3.4s-1.9 1.2-3.4 1.2h-2.5v-8.8h2.7c1.4 0 2.4.4 3.2 1.1.9.6 1.2 1.7 1.2 3.1zm-1.1 0c0-1.2-.3-2-.9-2.6s-1.4-.9-2.6-.9h-1.5v7.1h1.3c1.2 0 2.1-.3 2.8-.9s.9-1.5.9-2.7z" fill="#fff"/><path d="m439 434.6-1.5-.7c-1-.5-24.1-11.9-24.1-28.4.1-7.9 6.8-14.4 15.1-14.4h.2c3.9 0 7.6 1.5 10.4 4.1 2.7-2.6 6.4-4.1 10.3-4.1h.1c8.4 0 15.2 6.5 15.2 14.4 0 7.2-4.3 14.5-12.4 21-5.8 4.6-11.5 7.3-11.8 7.4z" fill="#8ab7e9"/><path d="m439.1 432.5-.8-.4c-.9-.4-23-11.4-23-26.7.1-7 6.1-12.6 13.3-12.6h.2c4.2 0 8 1.9 10.4 5 2.5-3.1 6.3-5 10.3-5h.2c7.3 0 13.3 5.7 13.3 12.6 0 6.7-4 13.4-11.7 19.5-5.6 4.5-11.1 7.1-11.4 7.2z" fill="#011e41"/><path d="m439.1 432.5-.8-.4c-.9-.4-23-11.4-23-26.7.1-7 6.1-12.6 13.3-12.6h.2c4.2 0 8 1.9 10.4 5 2.5-3.1 6.3-5 10.3-5h.2c7.3 0 13.3 5.7 13.3 12.6 0 6.7-4 13.4-11.7 19.5-5.6 4.5-11.1 7.1-11.4 7.2z" fill="#011e41"/><path d="m417.1 405.5c0 14.3 22 25 22 25s22-10.2 22-25c0-5.9-5.2-10.7-11.4-10.7-4.5-.1-8.6 2.6-10.5 6.7-1.8-4.1-6-6.7-10.5-6.7-6.3 0-11.5 4.8-11.6 10.7z" fill="#8ab7e9"/><path d="m620 267.8c-33.3 0-60.3 27-60.3 60.3s27 60.3 60.3 60.3 60.3-27 60.3-60.3-27-60.3-60.3-60.3z" fill="#fff"/><path d="m620 261.5c-36.9 0-66.8 29.9-66.8 66.8s29.9 66.8 66.8 66.8 66.8-29.9 66.8-66.8-30-66.8-66.8-66.8zm0 129.3c-34.6 0-62.6-28-62.6-62.6s28-62.6 62.6-62.6 62.6 28 62.6 62.6c.2 34.5-27.9 62.6-62.6 62.6z" fill="#213958"/><path d="m620 265.5c-34.6 0-62.6 28-62.6 62.6s28 62.6 62.6 62.6 62.6-28 62.6-62.6c.2-34.6-27.9-62.6-62.6-62.6zm0 122.9c-33.3 0-60.3-27-60.3-60.3s27-60.3 60.3-60.3 60.3 27 60.3 60.3-27 60.3-60.3 60.3z" fill="#8ab7e9"/><path d="m573.2 408.7v-8.8h1v7.9h3.9v.9z" fill="#fff"/><path d="m587.2 404.2c0 1.4-.4 2.5-1.1 3.3s-1.7 1.2-3 1.2-2.3-.4-3-1.2-1.1-1.9-1.1-3.4c0-1.4.4-2.6 1.1-3.4s1.7-1.2 3-1.2 2.3.4 3 1.2 1.1 2.1 1.1 3.5zm-7 0c0 1.2.3 2.1.8 2.7s1.3.9 2.2.9c1 0 1.7-.3 2.2-.9s.8-1.5.8-2.7-.2-2.1-.7-2.7-1.2-.9-2.2-.9-1.7.3-2.2.9c-.6.6-.9 1.5-.9 2.7z" fill="#fff"/><path d="m591.5 404.2 2.4-4.4h1.1l-3 5.4v3.4h-1v-3.3l-2.9-5.5h1.1z" fill="#fff"/><path d="m601.8 408.7-1.1-2.8h-3.5l-1.1 2.8h-1l3.5-8.9h.9l3.5 8.9zm-1.5-3.8-1-2.7c-.1-.3-.3-.8-.4-1.3-.1.4-.2.8-.4 1.3l-1 2.7z" fill="#fff"/><path d="m604 408.7v-8.8h1v7.9h3.9v.9z" fill="#fff"/><path d="m613.2 408.7h-1v-7.9h-2.8v-.9h6.6v.9h-2.8z" fill="#fff"/><path d="m619.5 404.2 2.4-4.4h1.1l-3 5.4v3.4h-1v-3.3l-2.9-5.5h1.1z" fill="#fff"/><path d="m633 402.4c0 .9-.3 1.6-.9 2.1s-1.5.7-2.6.7h-1v3.5h-1v-8.8h2.3c2.2-.1 3.2.8 3.2 2.5zm-4.5 1.9h.9c.9 0 1.6-.1 2-.4s.6-.8.6-1.4-.2-1-.6-1.3-1-.4-1.8-.4h-1.2z" fill="#fff"/><path d="m636 405v3.7h-1v-8.8h2.4c1.1 0 1.9.2 2.4.6s.8 1 .8 1.9c0 1.2-.6 2-1.8 2.4l2.4 4h-1.2l-2.1-3.7zm0-.9h1.4c.7 0 1.3-.1 1.6-.4s.5-.7.5-1.3-.2-1-.5-1.3-.9-.4-1.7-.4h-1.3z" fill="#fff"/><path d="m650.2 404.2c0 1.4-.4 2.5-1.1 3.3s-1.7 1.2-3 1.2-2.3-.4-3-1.2-1.1-1.9-1.1-3.4c0-1.4.4-2.6 1.1-3.4s1.7-1.2 3-1.2 2.3.4 3 1.2c.9 1 1.1 2.1 1.1 3.5zm-7 0c0 1.2.3 2.1.8 2.7s1.3.9 2.2.9c1 0 1.7-.3 2.2-.9s.8-1.5.8-2.7-.2-2.1-.7-2.7-1.2-.9-2.2-.9-1.7.3-2.2.9c-.6.6-.9 1.5-.9 2.7z" fill="#fff"/><path d="m653.2 408.7h-1v-8.8h4.9v.9h-3.9v3.2h3.7v.9h-3.7z" fill="#fff"/><path d="m658.7 408.7v-8.8h1v8.8z" fill="#fff"/><path d="m664.8 408.7h-1v-7.9h-2.8v-.9h6.6v.9h-2.8z" fill="#fff"/><path d="m649.2 286.3h1.8v1.3c.8 0 1.7.3 2.5.8v3c-.9-.9-1.7-1.3-2.5-1.3-.4 0-.7.1-1 .4s-.5.6-.5 1c0 .3.1.6.3.8s.7.5 1.5.9c.7.3 1.3.6 1.7.9s.7.7 1 1.2.4 1 .4 1.7c0 .9-.3 1.8-.8 2.6s-1.4 1.3-2.5 1.6v1.5h-1.8v-1.3c-.8 0-1.8-.3-2.9-.8v-3.1c1 1 2 1.5 3 1.5.5 0 1-.1 1.3-.5.4-.3.5-.7.5-1.2 0-.4-.1-.8-.4-1-.3-.3-.8-.5-1.5-.9-.9-.4-1.7-.9-2.2-1.5s-.8-1.3-.8-2.2.3-1.7.7-2.3c.5-.6 1.2-1.1 2.2-1.4z" fill="#011e41"/><path d="m589.8 346.3h11.1v23.2h-11.1z" fill="#e42e87"/><path d="m606.7 343h11.1v26.4h-11.1z" fill="#ff6c0e"/><path d="m622.5 338.9h11.1v30.5h-11.1z" fill="#753d86"/><path d="m639.2 330.8h11.1v38.8h-11.1z" fill="#213958"/><path d="m657 306.9-4.3.2h-.4l-11.9.6.2 4.6 8.6-.4c-10.4 13-29.6 23.8-52.9 28.3-5.9 1.1-11.7 1.8-17.4 2 .1 1.3.3 2.7.6 4 7.2.1 14.8-.6 22.6-2.1 21.7-4.2 39.9-13.9 50.7-25.8l.3 5.3 4.6-.2-.5-10.6-.1-1.4z" fill="#93bc53"/><path d="m579.5 321c.2-8.5 7.4-15.3 16.2-15.3h.2c5.1 0 9.7 2.3 12.7 6.1 3-3.8 7.7-6.1 12.6-6.1h.2c8.9 0 16.2 6.9 16.2 15.3 0 .7 0 1.3-.1 2 .8-.6 1.6-1.2 2.3-1.8v-.1c0-9.7-8.3-17.6-18.5-17.6h-.2c-4.8 0-9.2 1.8-12.6 5-3.4-3.2-7.9-5-12.7-5h-.2c-10.1 0-18.3 7.9-18.4 17.5 0 8 4.5 15 9.9 20.6.9-.1 1.8-.2 2.8-.4-5.6-5.4-10.4-12.3-10.4-20.2z" fill="#8ab7e9"/><path d="m621.3 305.7h-.2c-4.9 0-9.5 2.3-12.6 6.1-3-3.8-7.6-6.1-12.7-6.1h-.2c-8.8 0-16.1 6.8-16.2 15.3 0 7.9 4.8 14.8 10.5 20.3.9-.1 1.9-.3 2.8-.4-5.8-5.2-11-12.1-11-19.8.1-7.2 6.3-13 13.9-13 5.5-.1 10.6 3.1 12.8 8.1 2.3-5 7.3-8.2 12.8-8.1 7.7 0 13.9 5.8 13.9 13 0 1.3-.1 2.5-.4 3.8.9-.6 1.8-1.2 2.6-1.9.1-.7.1-1.3.1-2 .1-8.4-7.1-15.3-16.1-15.3z" fill="#011e41"/><path d="m634.8 324.8c.3-1.2.4-2.5.4-3.8 0-7.2-6.3-13-13.9-13-5.5-.1-10.5 3.1-12.8 8.1-2.2-5-7.3-8.2-12.8-8.1-7.7 0-13.9 5.8-13.9 13 0 7.7 5.2 14.5 11 19.8 1.1-.2 2.3-.4 3.4-.6 15-2.8 28.3-8.4 38.6-15.4z" fill="#8ab7e9"/><path d="m634.5 432.4c-4.2-12.9-15.4-10.6-24-5-36 23.3-25.5 16.6-61.5 39.8-14.4 9.3 6.1 25.4 20.3 16.2 21.2-13.6-4.4 2.7 16.8-11-67.7 180-306.6 286-536.5 234.3-17.8-4-25.5 18.1-7.6 22.1 124.5 27.9 261.7 14.6 372-40 101.1-50 173.6-129.7 203.5-221.1 2.7 8.6 2.5 7.3 10.1 31.8 4.3 14 32.1 12.5 28.3-1.8-10.7-39.5-10.7-32.7-21.4-65.3z" fill="url(#a)"/><path d="m206 675.7 2.5 32.3-4.2.3-2.5-32.3z" fill="#fff"/><path d="m221.6 706.9-4.2-32.1 4.5-.6 12.4 14.9c2.9 3.4 5.2 6.6 7.1 9.7l.1-.1c-.9-4.2-1.5-8.1-2.2-13.1l-1.8-13.4 3.9-.5 4.2 32.1-4.2.5-12.3-14.9c-2.7-3.3-5.3-6.7-7.4-9.9l-.1.1c.8 4 1.4 7.9 2.1 13.2l1.8 13.7z" fill="#fff"/><path d="m281 695.9c-1.4 1.1-4.2 2.4-8.1 3.2-8.9 1.8-16.8-2.5-18.9-12.9-2-9.9 3.4-18 13.2-20 4-.8 6.6-.5 7.8-.1l-.3 3.5c-1.7-.4-4-.6-6.7 0-7.4 1.5-11.4 7.2-9.7 15.6 1.6 7.8 7 11.9 14.8 10.3 2.5-.5 4.9-1.5 6.4-2.7z" fill="#fff"/><path d="m283.9 663.5c1.9-1 4.8-2 7.6-2.7 4.3-1.2 7.3-1.1 9.7.1 1.9 1 3.4 2.9 4.1 5.3 1.1 4.1-.8 7.6-3.7 9.6v.1c2.6.2 4.7 2 6.3 5.1 2.2 4.1 3.7 6.9 4.7 7.9l-4.2 1.1c-.7-.7-2.2-3.2-4.1-6.9-2.1-4.1-4.2-5.2-7.9-4.4l-3.8 1 3.6 13.5-4 1.1zm7.8 13.1 4.1-1.1c4.3-1.2 6.4-4.3 5.5-7.8-1.1-4-4.5-5-8.8-3.9-1.9.5-3.3 1.1-3.9 1.4z" fill="#fff"/><path d="m333.9 665.9-11.9 4 3.7 11.1 13.3-4.5 1.1 3.3-17.3 5.8-10.3-30.7 16.6-5.6 1.1 3.3-12.6 4.2 3.2 9.7 11.9-4z" fill="#fff"/><path d="m370.7 652.1c-2-4.1-4.4-8.9-5.9-12.7l-.1.1c.5 3.9.8 8.2 1 12.9l.9 16.7-2.9 1.2-10.8-12.1c-3.2-3.6-6-6.9-8.4-10.1h-.1c1.5 3.8 3.4 8.8 5 13.4l4.6 13.1-3.7 1.6-10.5-30.7 4.9-2.1 11.2 12.3c2.8 3.1 5.2 6 7.3 8.8l.1-.1c-.5-3.3-.8-7-1.1-11.4l-.8-16.7 4.9-2.1 14.5 29-3.8 1.6z" fill="#fff"/><path d="m400.1 636.3-11.2 5.8 5.4 10.3 12.4-6.5 1.6 3.1-16.1 8.4-15-28.7 15.5-8.1 1.6 3.1-11.8 6.2 4.7 9.1 11.2-5.8z" fill="#fff"/><path d="m418.7 643.4-17.1-27.5 3.9-2.4 17.5 8.4c4 1.9 7.4 3.9 10.5 5.8l.1-.1c-2.6-3.5-4.8-6.8-7.4-11l-7.2-11.5 3.3-2.1 17.1 27.5-3.6 2.2-17.4-8.5c-3.8-1.9-7.6-3.9-10.8-6l-.1.1c2.4 3.3 4.5 6.6 7.3 11.1l7.3 11.7z" fill="#fff"/><path d="m438.3 595.9-7.9 5.9-2.1-2.9 19.2-14.3 2.1 2.9-7.9 5.9 17.2 23.1-3.4 2.5z" fill="#fff"/><path d="m469 595.5 4.1 9.9-3.3 2.8-12.8-31.7 3.8-3.3 29.5 17.2-3.4 2.9-9.3-5.4zm5.9-9.4-8.5-5c-1.9-1.1-3.5-2.3-5.1-3.4l-.1.1c.9 1.8 1.8 3.6 2.6 5.5l3.7 9.1z" fill="#fff"/><path d="m475.5 560.4c1.1-1.8 3.1-4.2 5.1-6.3 3.1-3.2 5.7-4.7 8.4-4.9 2.2-.2 4.4.7 6.2 2.4 3.1 3 3.3 6.9 1.7 10.1l.1.1c2.4-1.2 5-.7 8 1.1 4 2.4 6.8 4 8.1 4.3l-3 3.1c-1-.2-3.5-1.7-7.1-3.8-3.9-2.4-6.3-2.3-9 .3l-2.7 2.8 10.1 9.7-2.9 3zm13.5 7.2 3-3.1c3.1-3.2 3.3-7 .6-9.5-3-2.9-6.4-2-9.5 1.2-1.4 1.5-2.3 2.6-2.6 3.2z" fill="#fff"/><path d="m171.1 751.7c-44.6 0-88.8-4.9-131.4-14.4-13.7-3.1-18.8-13.5-17.8-22.5 1.3-11.4 11.4-19.9 23.5-19.9 2.1 0 4.2.2 6.4.7 37.9 8.5 77 12.8 116 12.8 45.7 0 90.9-5.8 134.5-17.4 42.8-11.3 82.9-27.8 119.3-49.1 36.6-21.4 68.4-47 94.6-76.1 20-22.3 36.4-46.3 49-71.6-1.7.3-3.5.5-5.2.5-11.5 0-22.3-7.1-25.1-16.6-1.8-6.1-.4-14.8 8.8-20.7 18-11.6 24.5-15.8 30.8-19.9s12.8-8.3 30.9-19.9c6-3.9 11.8-5.8 17.3-5.8 5.3 0 15.2 2 21.2 15.1l.3.7c12.2 26.5 12.3 27 18 51.6 1 4.1 2.1 9 3.5 14.8 1.4 5.7.2 11.3-3.3 15.7-4.2 5.3-11.2 8.3-19.4 8.3-12.6 0-22.7-7.1-25.1-17.7-.3-1.4-.6-2.7-.9-3.9-15.7 36.4-38.1 70.7-66.8 102.1-36.2 39.6-80.5 72.6-131.7 97.9-73.1 36.2-158.6 55.3-247.4 55.3z" fill="none"/><text font-family="ArialMT" font-size="12" transform="translate(1.25 -13.1011)"></text></svg>