<svg fill="none" height="400" viewBox="0 0 400 400" width="400" xmlns="http://www.w3.org/2000/svg" xmlns:xlink="http://www.w3.org/1999/xlink"><clipPath id="a"><path d="m0 0h400v400h-400z"/></clipPath><g clip-path="url(#a)"><path d="m200.001 399.998c-110.457 0-199.99980981-89.543-199.99980981-199.999 0-110.4565 89.54280981-199.999 199.99980981-199.999 110.456 0 199.999 89.5425 199.999 199.999 0 110.456-89.543 199.999-199.999 199.999z" fill="#121d3f"/><path d="m199.96 381.721c-100.3394 0-181.6805-81.342-181.6805-181.681 0-100.3395 81.3411-181.6806 181.6805-181.6806 100.339 0 181.681 81.3411 181.681 181.6806 0 100.339-81.342 181.681-181.681 181.681z" fill="#84b4e1"/><path d="m199.967 371.55c-94.727 0-171.5179-76.791-171.5179-171.517 0-94.727 76.7909-171.5174 171.5179-171.5174 94.726 0 171.517 76.7904 171.517 171.5174 0 94.726-76.791 171.517-171.517 171.517z" fill="#121d3f"/><path d="m127.148 115.43h91.159c16.693 0 29.508 4.134 38.445 12.401 8.938 8.268 13.406 18.505 13.406 30.709 0 10.237-3.189 19.016-9.567 26.339-2.795 3.209-7.44 6.975-11.935 9.3 6.12 1.984 14.868 6.775 20.734 14.058 5.866 7.284 8.8 20.068 8.8 31.092 0 8.976-2.087 17.047-6.26 24.212-4.174 7.166-9.882 12.835-17.127 17.009-4.488 2.598-11.259 4.488-20.315 5.669-12.047 1.575-20.04 2.362-23.977 2.362h-83.363zm44.977 67.914h31.169c8.347 0 14.154-1.437 17.421-4.311 3.268-2.874 4.902-7.028 4.902-12.461 0-5.039-1.634-8.976-4.902-11.811-3.267-2.835-8.957-4.252-17.067-4.252h-31.523zm0 68.032h35.284c9.213 0 15.709-1.634 19.488-4.902 3.471-3 5.7-8.869 5.71-13.621.009-4.752-1.91-11.78-5.65-14.89-3.741-3.111-10.296-4.666-19.666-4.666h-35.166z" fill="#fff"/><g fill="#121d3f"><path d="m384.622 366.802c4.764.191 9.367 2.461 12.296 6.349 0 0 6.827 11.55.003 20.503-4.482 5.881-13.099 7.973-19.721 4.725-6.275-3.079-10.302-10.551-8.829-18.304 0 0 .535-2.316 1.255-3.864 2.542-5.46 8.133-9.168 14.162-9.409.419-.007.417-.007.834 0zm-.734 3.736c-5.474.219-10.396 4.227-11.826 9.666-.407 1.552.177 7.034.177 7.034 2.375 7.135 10.923 10.944 17.404 7.768 9.515-4.663 10.126-24.724-5.755-24.468z"/><path d="m378.418 390.261h3.058v-5.581h3.057c1.538 0 2.103.66 2.317 2.16.156 1.14.117 2.521.487 3.421h3.057c-.545-.8-.525-2.481-.584-3.381-.097-1.44-.526-2.941-2.026-3.341v-.04c1.539-.64 2.201-1.901 2.201-3.581 0-2.161-1.577-3.941-4.07-3.941h-7.497zm3.058-11.843h3.349c1.363 0 2.103.6 2.103 1.98 0 1.44-.74 2.041-2.103 2.041h-3.349z"/></g></g></svg>