<svg clip-rule="evenodd" fill-rule="evenodd" stroke-linejoin="round" stroke-miterlimit="1.41421" viewBox="0 0 196 35" xmlns="http://www.w3.org/2000/svg" xmlns:xlink="http://www.w3.org/1999/xlink"><radialGradient id="a" cx="0" cy="0" gradientTransform="matrix(20.3747 4.23619 -4.23619 20.3747 19.7311 12.695)" gradientUnits="userSpaceOnUse" r="1"><stop offset="0" stop-color="#fff"/><stop offset="1" stop-color="#949699"/></radialGradient><linearGradient id="b"><stop offset="0" stop-color="#eebd47"/><stop offset=".33" stop-color="#efa54d"/><stop offset=".55" stop-color="#a26326"/><stop offset="1" stop-color="#eebd47"/></linearGradient><linearGradient id="c" gradientUnits="userSpaceOnUse" x1="135.509" x2="199.9198" xlink:href="#b" y1="16.5938" y2="16.5938"/><linearGradient id="d" gradientUnits="userSpaceOnUse" x1="135.51" x2="199.916" xlink:href="#b" y1="16.594" y2="16.594"/><linearGradient id="e" gradientUnits="userSpaceOnUse" x1="135.511" x2="199.917" xlink:href="#b" y1="16.7571" y2="16.7571"/><linearGradient id="f" gradientUnits="userSpaceOnUse" x1="135.515" x2="199.9163" xlink:href="#b" y1="16.594" y2="16.594"/><clipPath id="g"><path clip-rule="nonzero" d="m3.652 30.094h26.488v-26.487h-26.488z"/></clipPath><clipPath id="h"><path clip-rule="nonzero" d="m14.937 3.773h13.759v10.08h-13.759z"/></clipPath><clipPath id="i"><path clip-rule="nonzero" d="m15.151 3.852h13.404v9.816h-13.404z"/></clipPath><clipPath id="j"><path clip-rule="nonzero" d="m15.365 3.93h13.048v9.553h-13.048z"/></clipPath><clipPath id="k"><path clip-rule="nonzero" d="m15.579 4.008h12.692v9.29h-12.692z"/></clipPath><clipPath id="l"><path clip-rule="nonzero" d="m15.794 4.086h12.336v9.028h-12.336z"/></clipPath><clipPath id="m"><path clip-rule="nonzero" d="m16.008 4.165h11.981v8.764h-11.981z"/></clipPath><clipPath id="n"><path clip-rule="nonzero" d="m16.438 4.322h11.268v8.237h-11.268z"/></clipPath><clipPath id="o"><path clip-rule="nonzero" d="m16.867 4.479h10.556v7.711h-10.556z"/></clipPath><clipPath id="p"><path clip-rule="nonzero" d="m17.081 4.557h10.201v7.448h-10.201z"/></clipPath><clipPath id="q"><path clip-rule="nonzero" d="m17.295 4.635h9.844v7.185h-9.844z"/></clipPath><clipPath id="r"><path clip-rule="nonzero" d="m17.51 4.714h9.489v6.922h-9.489z"/></clipPath><clipPath id="s"><path clip-rule="nonzero" d="m17.724 4.792h9.133v6.659h-9.133z"/></clipPath><clipPath id="t"><path clip-rule="nonzero" d="m17.938 4.87h8.778v6.396h-8.778z"/></clipPath><clipPath id="u"><path clip-rule="nonzero" d="m18.153 4.948h8.421v6.133h-8.421z"/></clipPath><clipPath id="v"><path clip-rule="nonzero" d="m18.367 5.027h8.065v5.869h-8.065z"/></clipPath><clipPath id="w"><path clip-rule="nonzero" d="m18.797 5.184h7.353v5.343h-7.353z"/></clipPath><clipPath id="x"><path clip-rule="nonzero" d="m19.011 5.262h6.997v5.08h-6.997z"/></clipPath><clipPath id="y"><path clip-rule="nonzero" d="m19.225 5.34h6.642v4.818h-6.642z"/></clipPath><clipPath id="z"><path clip-rule="nonzero" d="m19.653 5.496h5.931v4.292h-5.931z"/></clipPath><clipPath id="A"><path clip-rule="nonzero" d="m19.868 5.575h5.575v4.029h-5.575z"/></clipPath><clipPath id="B"><path clip-rule="nonzero" d="m20.082 5.653h5.219v3.766h-5.219z"/></clipPath><clipPath id="C"><path clip-rule="nonzero" d="m20.297 5.731h4.863v3.503h-4.863z"/></clipPath><clipPath id="D"><path clip-rule="nonzero" d="m20.511 5.809h4.507v3.24h-4.507z"/></clipPath><clipPath id="E"><path clip-rule="nonzero" d="m20.726 5.887h4.152v2.978h-4.152z"/></clipPath><clipPath id="F"><path clip-rule="nonzero" d="m20.94 5.965h3.796v2.715h-3.796z"/></clipPath><clipPath id="G"><path clip-rule="nonzero" d="m21.154 6.043h3.441v2.453h-3.441z"/></clipPath><clipPath id="H"><path clip-rule="nonzero" d="m21.369 6.121h3.084v2.19h-3.084z"/></clipPath><clipPath id="I"><path clip-rule="nonzero" d="m21.582 6.198h2.73v1.929h-2.73z"/></clipPath><clipPath id="J"><path clip-rule="nonzero" d="m21.797 6.276h2.375v1.667h-2.375z"/></clipPath><clipPath id="K"><path clip-rule="nonzero" d="m22.011 6.353h2.019v1.406h-2.019z"/></clipPath><clipPath id="L"><path clip-rule="nonzero" d="m22.225 6.429h1.665v1.146h-1.665z"/></clipPath><clipPath id="M"><path clip-rule="nonzero" d="m22.439 6.504h1.311v.888h-1.311z"/></clipPath><clipPath id="N"><path clip-rule="nonzero" d="m19.779 5.012h6.409v4.77h-6.409z"/></clipPath><clipPath id="O"><path clip-rule="nonzero" d="m19.87 5.062h6.236v4.641h-6.236z"/></clipPath><clipPath id="P"><path clip-rule="nonzero" d="m19.96 5.112h6.063v4.512h-6.063z"/></clipPath><clipPath id="Q"><path clip-rule="nonzero" d="m20.05 5.162h5.89v4.383h-5.89z"/></clipPath><clipPath id="R"><path clip-rule="nonzero" d="m20.231 5.263h5.544v4.125h-5.544z"/></clipPath><clipPath id="S"><path clip-rule="nonzero" d="m20.322 5.313h5.37v3.996h-5.37z"/></clipPath><clipPath id="T"><path clip-rule="nonzero" d="m20.412 5.363h5.197v3.867h-5.197z"/></clipPath><clipPath id="U"><path clip-rule="nonzero" d="m20.593 5.464h4.851v3.609h-4.851z"/></clipPath><clipPath id="V"><path clip-rule="nonzero" d="m20.683 5.514h4.677v3.48h-4.677z"/></clipPath><clipPath id="W"><path clip-rule="nonzero" d="m20.774 5.564h4.504v3.35h-4.504z"/></clipPath><clipPath id="X"><path clip-rule="nonzero" d="m20.864 5.614h4.331v3.222h-4.331z"/></clipPath><clipPath id="Y"><path clip-rule="nonzero" d="m20.954 5.664h4.158v3.093h-4.158z"/></clipPath><clipPath id="Z"><path clip-rule="nonzero" d="m21.045 5.715h3.984v2.963h-3.984z"/></clipPath><clipPath id="aa"><path clip-rule="nonzero" d="m21.135 5.765h3.811v2.834h-3.811z"/></clipPath><clipPath id="ab"><path clip-rule="nonzero" d="m21.225 5.815h3.638v2.706h-3.638z"/></clipPath><clipPath id="ac"><path clip-rule="nonzero" d="m21.316 5.865h3.465v2.576h-3.465z"/></clipPath><clipPath id="ad"><path clip-rule="nonzero" d="m21.407 5.915h3.291v2.448h-3.291z"/></clipPath><clipPath id="ae"><path clip-rule="nonzero" d="m21.496 5.965h3.119v2.319h-3.119z"/></clipPath><clipPath id="af"><path clip-rule="nonzero" d="m21.677 6.066h2.773v2.06h-2.773z"/></clipPath><clipPath id="ag"><path clip-rule="nonzero" d="m21.768 6.116h2.599v1.932h-2.599z"/></clipPath><clipPath id="ah"><path clip-rule="nonzero" d="m21.858 6.166h2.427v1.802h-2.427z"/></clipPath><clipPath id="ai"><path clip-rule="nonzero" d="m21.948 6.216h2.254v1.674h-2.254z"/></clipPath><clipPath id="aj"><path clip-rule="nonzero" d="m22.129 6.316h1.907v1.416h-1.907z"/></clipPath><clipPath id="ak"><path clip-rule="nonzero" d="m22.22 6.367h1.734v1.286h-1.734z"/></clipPath><clipPath id="al"><path clip-rule="nonzero" d="m22.31 6.417h1.561v1.157h-1.561z"/></clipPath><clipPath id="am"><path clip-rule="nonzero" d="m22.4 6.467h1.388v1.028h-1.388z"/></clipPath><clipPath id="an"><path clip-rule="nonzero" d="m22.491 6.517h1.215v.9h-1.215z"/></clipPath><clipPath id="ao"><path clip-rule="nonzero" d="m4.068 18.423h14.531v11.533h-14.531z"/></clipPath><clipPath id="ap"><path clip-rule="nonzero" d="m4.145 18.568h14.298v11.34h-14.298z"/></clipPath><clipPath id="aq"><path clip-rule="nonzero" d="m4.221 18.713h14.068v11.148h-14.068z"/></clipPath><clipPath id="ar"><path clip-rule="nonzero" d="m4.373 19.004h13.605v10.763h-13.605z"/></clipPath><clipPath id="as"><path clip-rule="nonzero" d="m4.45 19.149h13.373v10.571h-13.373z"/></clipPath><clipPath id="at"><path clip-rule="nonzero" d="m4.526 19.294h13.142v10.379h-13.142z"/></clipPath><clipPath id="au"><path clip-rule="nonzero" d="m4.603 19.439h12.91v10.187h-12.91z"/></clipPath><clipPath id="av"><path clip-rule="nonzero" d="m4.679 19.584h12.68v9.996h-12.68z"/></clipPath><clipPath id="aw"><path clip-rule="nonzero" d="m4.755 19.728h12.449v9.806h-12.449z"/></clipPath><clipPath id="ax"><path clip-rule="nonzero" d="m4.831 19.872h12.218v9.616h-12.218z"/></clipPath><clipPath id="ay"><path clip-rule="nonzero" d="m4.907 20.017h11.987v9.425h-11.987z"/></clipPath><clipPath id="az"><path clip-rule="nonzero" d="m4.983 20.161h11.756v9.235h-11.756z"/></clipPath><clipPath id="aA"><path clip-rule="nonzero" d="m5.059 20.305h11.526v9.046h-11.526z"/></clipPath><clipPath id="aB"><path clip-rule="nonzero" d="m5.136 20.449h11.294v8.856h-11.294z"/></clipPath><clipPath id="aC"><path clip-rule="nonzero" d="m5.211 20.592h11.063v8.668h-11.063z"/></clipPath><clipPath id="aD"><path clip-rule="nonzero" d="m5.287 20.736h10.833v8.48h-10.833z"/></clipPath><clipPath id="aE"><path clip-rule="nonzero" d="m5.363 20.879h10.602v8.292h-10.602z"/></clipPath><clipPath id="aF"><path clip-rule="nonzero" d="m5.439 21.023h10.372v8.104h-10.372z"/></clipPath><clipPath id="aG"><path clip-rule="nonzero" d="m5.591 21.308h9.912v7.73h-9.912z"/></clipPath><clipPath id="aH"><path clip-rule="nonzero" d="m5.666 21.452h9.681v7.543h-9.681z"/></clipPath><clipPath id="aI"><path clip-rule="nonzero" d="m5.742 21.594h9.45v7.357h-9.45z"/></clipPath><clipPath id="aJ"><path clip-rule="nonzero" d="m5.817 21.736h9.221v7.172h-9.221z"/></clipPath><clipPath id="aK"><path clip-rule="nonzero" d="m5.893 21.878h8.99v6.987h-8.99z"/></clipPath><clipPath id="aL"><path clip-rule="nonzero" d="m5.968 22.021h8.761v6.802h-8.761z"/></clipPath><clipPath id="aM"><path clip-rule="nonzero" d="m6.044 22.162h8.531v6.619h-8.531z"/></clipPath><clipPath id="aN"><path clip-rule="nonzero" d="m6.119 22.304h8.302v6.435h-8.302z"/></clipPath><clipPath id="aO"><path clip-rule="nonzero" d="m6.194 22.446h8.073v6.251h-8.073z"/></clipPath><clipPath id="aP"><path clip-rule="nonzero" d="m6.27 22.588h7.843v6.069h-7.843z"/></clipPath><clipPath id="aQ"><path clip-rule="nonzero" d="m6.345 22.729h7.613v5.887h-7.613z"/></clipPath><clipPath id="aR"><path clip-rule="nonzero" d="m6.42 22.87h7.385v5.705h-7.385z"/></clipPath><clipPath id="aS"><path clip-rule="nonzero" d="m6.495 23.011h7.155v5.524h-7.155z"/></clipPath><clipPath id="aT"><path clip-rule="nonzero" d="m6.645 23.293h6.698v5.163h-6.698z"/></clipPath><clipPath id="aU"><path clip-rule="nonzero" d="m6.72 23.434h6.469v4.982h-6.469z"/></clipPath><clipPath id="aV"><path clip-rule="nonzero" d="m6.794 23.574h6.241v4.804h-6.241z"/></clipPath><clipPath id="aW"><path clip-rule="nonzero" d="m5.926 22.234h7.712v6.49h-7.712z"/></clipPath><clipPath id="aX"><path clip-rule="nonzero" d="m6.017 22.343h7.505v6.316h-7.505z"/></clipPath><clipPath id="aY"><path clip-rule="nonzero" d="m6.106 22.451h7.299v6.143h-7.299z"/></clipPath><clipPath id="aZ"><path clip-rule="nonzero" d="m6.196 22.56h7.092v5.969h-7.092z"/></clipPath><clipPath id="a0"><path clip-rule="nonzero" d="m6.286 22.669h6.886v5.795h-6.886z"/></clipPath><clipPath id="a1"><path clip-rule="nonzero" d="m6.376 22.778h6.679v5.621h-6.679z"/></clipPath><clipPath id="a2"><path clip-rule="nonzero" d="m6.466 22.887h6.473v5.446h-6.473z"/></clipPath><clipPath id="a3"><path clip-rule="nonzero" d="m6.556 22.995h6.266v5.274h-6.266z"/></clipPath><clipPath id="a4"><path clip-rule="nonzero" d="m6.646 23.104h6.06v5.1h-6.06z"/></clipPath><clipPath id="a5"><path clip-rule="nonzero" d="m6.735 23.212h5.854v4.927h-5.854z"/></clipPath><clipPath id="a6"><path clip-rule="nonzero" d="m6.826 23.321h5.647v4.753h-5.647z"/></clipPath><clipPath id="a7"><path clip-rule="nonzero" d="m6.916 23.43h5.442v4.579h-5.442z"/></clipPath><clipPath id="a8"><path clip-rule="nonzero" d="m7.005 23.539h5.236v4.405h-5.236z"/></clipPath><clipPath id="a9"><path clip-rule="nonzero" d="m7.096 23.648h5.028v4.231h-5.028z"/></clipPath><clipPath id="ba"><path clip-rule="nonzero" d="m7.185 23.757h4.822v4.056h-4.822z"/></clipPath><clipPath id="bb"><path clip-rule="nonzero" d="m7.275 23.865h4.616v3.884h-4.616z"/></clipPath><clipPath id="bc"><path clip-rule="nonzero" d="m7.366 23.974h4.409v3.71h-4.409z"/></clipPath><clipPath id="bd"><path clip-rule="nonzero" d="m7.546 24.192h3.996v3.362h-3.996z"/></clipPath><clipPath id="be"><path clip-rule="nonzero" d="m7.635 24.3h3.79v3.188h-3.79z"/></clipPath><clipPath id="bf"><path clip-rule="nonzero" d="m7.725 24.409h3.584v3.014h-3.584z"/></clipPath><clipPath id="bg"><path clip-rule="nonzero" d="m7.815 24.517h3.377v2.842h-3.377z"/></clipPath><clipPath id="bh"><path clip-rule="nonzero" d="m7.905 24.627h3.171v2.667h-3.171z"/></clipPath><clipPath id="bi"><path clip-rule="nonzero" d="m8.085 24.844h2.759v2.32h-2.759z"/></clipPath><clipPath id="bj"><path clip-rule="nonzero" d="m8.174 24.953h2.552v2.146h-2.552z"/></clipPath><clipPath id="bk"><path clip-rule="nonzero" d="m8.265 25.061h2.346v1.972h-2.346z"/></clipPath><clipPath id="bl"><path clip-rule="nonzero" d="m8.355 25.17h2.139v1.799h-2.139z"/></clipPath><clipPath id="bm"><path clip-rule="nonzero" d="m8.444 25.279h1.933v1.625h-1.933z"/></clipPath><clipPath id="bn"><path clip-rule="nonzero" d="m8.535 25.387h1.726v1.451h-1.726z"/></clipPath><clipPath id="bo"><path clip-rule="nonzero" d="m8.625 25.496h1.519v1.278h-1.519z"/></clipPath><clipPath id="bp"><path clip-rule="nonzero" d="m8.714 25.605h1.314v1.104h-1.314z"/></clipPath><clipPath id="bq"><path clip-rule="nonzero" d="m8.804 25.714h1.107v.929h-1.107z"/></clipPath><g fill-rule="nonzero"><path d="m126.865 31.846c.27 0 .509-.026.509-.342 0-.269-.257-.298-.476-.298h-.436v.64zm-.403 1.249h-.364v-2.198h.836c.533 0 .801.185.801.632 0 .401-.241.562-.57.598l.614.968h-.411l-.567-.94h-.339zm.39-2.778c-.855 0-1.528.677-1.528 1.641 0 .905.588 1.64 1.528 1.64.853 0 1.523-.667 1.523-1.64 0-.964-.67-1.641-1.523-1.641m0 3.625c-1.137 0-1.949-.853-1.949-1.984 0-1.194.898-1.984 1.949-1.984 1.046 0 1.947.79 1.947 1.984 0 1.195-.901 1.984-1.947 1.984" fill="#fff"/><path d="m131.943.057h-108.589c-3.797 0-5.731.041-7.845.299-4.758.548-8.957 2.602-11.528 5.633-2.579 3.073-3.955 6.817-3.955 10.829 0 4.545 1.797 8.807 5.068 12.003 2.438 2.378 5.575 3.828 9.582 4.426 2.676.4 5.352.373 7.72.343l1.648-.011h98.931l8.968-33.522z" fill="#009a4e"/><path d="m122.398 32.838h-98.354c-6.524 0-13.315.424-18.42-4.555-3-2.933-4.844-6.979-4.844-11.465 0-3.923 1.413-7.582 3.748-10.352 2.679-3.161 6.895-4.877 11.074-5.371 2.147-.266 4.152-.296 7.752-.296h107.603z" fill="#fff"/><path d="m104.702 12.487c-.526 0-.884.235-1.251.596-1.258 1.235-2.704 5-3.419 7.907-.327 1.397-.485 2.183-.485 3.005 0 .778.357 1.215.969 1.215.478 0 .992-.334 1.353-.718.654-.679 1.109-1.668 1.623-2.899 1.227-2.902 2.103-6.681 2.103-7.914 0-.6-.185-1.192-.893-1.192m4.447 8.042c-1.544 4.314-4.085 7.801-9.084 7.801-3.464 0-5.435-1.678-5.435-5.239 0-1.574.392-3.252.888-4.739 1.411-4.147 4.48-8.996 9.38-8.996 3.664 0 5.438 1.852 5.438 5.472 0 1.748-.588 4.052-1.187 5.701m-56.481 2.668c0 1.12.529 2.006 1.744 2.006.459 0 .891 0 1.352-.099l1.616-5.897c-2.241.266-4.712 1.353-4.712 3.99m10.31-6.79-3.06 11.103c-2.143.556-4.351.884-6.594.884-2.83 0-5.629-1.378-5.629-4.575 0-5.562 5.991-7.148 10.476-7.569.231-.73.461-1.484.461-2.245 0-1.246-1.091-1.55-2.144-1.55-1.476 0-3.492.399-4.901.856l.788-3.031c1.513-.656 3.818-.951 5.469-.951 2.697 0 5.597.864 5.597 4.084 0 1.018-.197 2.011-.463 2.994m35.776-6.558c-.743-.403-2.011-.493-3.044-.493-2.069 0-4.512.367-6.381 1.326l-4.78 17.221h4.811l4.104-14.986c.715-.259 1.424-.363 2.18-.363.62 0 .97.034 1.253.046zm-48.873-.836c0-3.264-2.209-4.414-5.174-4.414-2.994 0-5.528 1.376-7.44 3.651-2.67 3.195-4.877 9.955-4.877 14.068 0 4.311 1.78 6.39 6.159 6.39 6.097 0 7.575-4.948 8.995-9.854l-5.27.991c-.426 1.38-1.485 5.371-3.333 5.371-1.117 0-1.345-1.051-1.345-1.975 0-2.767 1.647-8.04 2.636-10.672.527-1.386 1.878-4.582 3.721-4.582.422 0 .719.227.847.446.167.255.214.554.214.919 0 .147-.034.58-.1.892-.129.654-1.09 4.133-1.09 4.133l5.069-.889c.39-1.357.988-3.068.988-4.475m26.463.839c-1.223-.36-2.565-.523-3.826-.523-3.715 0-7.654 2.006-7.69 6.191-.029 3.792 4.576 5.07 4.55 7.218-.019 1.743-1.571 2.403-3.083 2.403-1.219 0-2.518-.165-3.699-.494l-.838 2.897c1.545.495 3.425.722 5.031.722 3.76 0 7.232-2.14 7.27-6.22.04-4.023-4.301-4.906-4.286-7.218.016-1.785 1.801-2.302 3.285-2.302.784 0 1.639.062 2.434.233zm11.352.106h-3.521l1.375-5.08-5.068.83-1.115 4.25h-1.75l-.789 2.801h1.746s-2.703 9.843-2.899 10.665c-.131.529-.265 1.187-.265 1.717 0 1.316.859 2.268 1.974 2.567.422.134 1.151.195 1.983.195h3.492l.784-2.829h-1.771c-.793 0-1.521-.071-1.521-.99 0-.232.068-.496.131-.82.097-.398 2.9-10.505 2.9-10.505h3.515zm27.674 12.744c-.107.459-.171.858-.171 1.185 0 .986.758 1.187 1.585 1.187h1.648l-.666 2.829h-3.29c-1.029 0-1.847-.102-2.341-.294-1.118-.463-1.842-1.452-1.842-2.931 0-.662.133-1.348.293-2.041.201-.856 4.64-16.801 4.64-16.801l5.048-.958s-4.745 17.093-4.904 17.824" fill="#ed1b2d"/><path d="m12.724 17.73c-.174 0-.307-.14-.307-.31 0-.172.133-.312.307-.312h.843c.164 0 .313.14.313.312 0 .17-.149.31-.313.31zm-.922-1.031c-.115 0-.215-.095-.215-.21 0-.123.1-.217.215-.217h.533c.114 0 .211.094.211.217 0 .115-.095.21-.211.21zm-.032 1.885h-.522c-.122 0-.211-.1-.211-.217s.096-.213.211-.213h.522c.116 0 .214.096.214.213s-.092.217-.214.217m-1.053-.955h-.517c-.12 0-.212-.099-.212-.213 0-.118.092-.218.212-.218h.517c.123 0 .216.1.216.218 0 .114-.093.213-.216.213m-.997-.93h-.525c-.121 0-.216-.095-.216-.21 0-.123.097-.217.216-.217h.525c.119 0 .216.094.216.217 0 .115-.097.21-.216.21m-.559 1.885h-.522c-.118 0-.222-.1-.222-.217s.104-.213.222-.213h.522c.116 0 .211.096.211.213s-.093.217-.211.217m.598-4.202h.516c.121 0 .219.099.219.22 0 .117-.093.215-.219.215h-.516c-.125 0-.219-.098-.219-.215 0-.121.094-.22.219-.22m1.006.929h.529c.116 0 .217.099.217.216 0 .119-.101.214-.217.214h-.529c-.121 0-.221-.095-.221-.214 0-.117.1-.216.221-.216m1.602-.929h.521c.121 0 .218.099.218.22 0 .117-.097.215-.218.215h-.521c-.123 0-.225-.098-.225-.215 0-.121.102-.22.225-.22m1.749.832c.175 0 .313.14.313.311 0 .17-.138.309-.313.309h-.839c-.171 0-.315-.139-.315-.309 0-.171.144-.311.315-.311z" fill="#f9adb3"/><path d="m10.765 15.742h.529c.116 0 .217-.095.217-.214 0-.117-.101-.216-.217-.216h-.529c-.121 0-.221.099-.221.216 0 .119.1.214.221.214" fill="#ed1b2d"/><path d="m12.366 14.818h.521c.122 0 .218-.098.218-.215 0-.121-.096-.22-.218-.22h-.521c-.123 0-.225.099-.225.22 0 .117.102.215.225.215" fill="#ed1b2d"/><path d="m16.161 14.137h-.877c-.262 0-.473.203-.473.465 0 .259.211.469.473.469h.652l.282-.934z" fill="#ed1b2d"/><path d="m12.962 15.526c0 .169.144.309.314.309h.839c.176 0 .314-.14.314-.309 0-.171-.138-.311-.314-.311h-.839c-.17 0-.314.14-.314.311" fill="#ed1b2d"/><path d="m13.693 18.358c0 .258.214.47.468.47h.668l.277-.936h-.945c-.254 0-.468.204-.468.466" fill="#ed1b2d"/></g><path d="m15.376 16.955h.004v.005h-.004z" fill="#e01e2a"/><path d="m14.274 16.478c0 .26.209.482.465.482h.637l.002-.005h.001l.286-.955h-.008-.918c-.256 0-.465.221-.465.478" fill="#ed1b2d" fill-rule="nonzero"/><path d="m11.769 18.155h-.521c-.116 0-.212.096-.212.213s.089.217.212.217h.521c.122 0 .214-.1.214-.217s-.098-.213-.214-.213" fill="#ed1b2d" fill-rule="nonzero"/><path d="m12.546 16.49c0-.123-.098-.217-.211-.217h-.533c-.115 0-.215.094-.215.217 0 .115.1.21.215.21h.533c.115 0 .211-.095.211-.21" fill="#ed1b2d" fill-rule="nonzero"/><path d="m13.88 17.421c0-.172-.149-.312-.314-.312h-.842c-.174 0-.307.14-.307.312 0 .169.133.31.307.31h.842c.165 0 .314-.141.314-.31" fill="#ed1b2d" fill-rule="nonzero"/><path d="m9.759 14.818h.516c.126 0 .218-.098.218-.215 0-.121-.097-.22-.218-.22h-.516c-.125 0-.219.099-.219.22 0 .117.094.215.219.215" fill="#ed1b2d" fill-rule="nonzero"/><path d="m23.05 14.898h-.592c-.137 0-.256-.114-.256-.258 0-.143.119-.257.256-.257h.592c.139 0 .248.114.248.257 0 .144-.109.258-.248.258m-.553 1.833h-.594c-.13 0-.251-.104-.251-.253 0-.143.121-.257.251-.257h.594c.142 0 .258.114.258.257 0 .149-.116.253-.258.253m-.556 1.853h-.58c-.149 0-.263-.119-.263-.261 0-.138.114-.252.263-.252h.58c.147 0 .261.114.261.252 0 .142-.114.261-.261.261m-1.193-.906h-.588c-.139 0-.255-.113-.255-.257 0-.147.116-.257.255-.257h.588c.14 0 .257.11.257.257 0 .144-.117.257-.257.257m-1.197-.947h-.587c-.144 0-.258-.104-.258-.253 0-.143.114-.257.258-.257h.587c.14 0 .259.114.259.257 0 .149-.119.253-.259.253m-.554 1.853h-.58c-.144 0-.264-.119-.264-.261 0-.138.12-.252.264-.252h.58c.141 0 .26.114.26.252 0 .142-.119.261-.26.261m-1.996-.816c-.2 0-.359-.157-.359-.347 0-.193.159-.359.359-.359h.955c.197 0 .358.166.358.359 0 .19-.161.347-.358.347zm.553-2.594h.962c.19 0 .348.163.348.352 0 .197-.158.356-.348.356h-.962c-.201 0-.359-.159-.359-.356 0-.189.158-.352.359-.352m1.963-.791h.584c.144 0 .261.114.261.257 0 .144-.117.258-.261.258h-.584c-.14 0-.26-.114-.26-.258 0-.143.12-.257.26-.257m1.195.89h.584c.147 0 .258.115.258.253 0 .146-.111.261-.258.261h-.584c-.137 0-.256-.115-.256-.261 0-.138.119-.253.256-.253m9.157-1.136h-12.868c.199.058.352.242.352.466 0 .258-.206.468-.465.468h-.951l-.28.929h.689c.258 0 .468.219.468.482 0 .258-.21.473-.468.473h-.966l-.002.005h-.002l-.269.932h.654c.258 0 .469.205.469.466 0 .231-.172.425-.399.474h14.17c.095-.648.148-1.312.148-1.987 0-.929-.097-1.833-.28-2.708" fill="#ed1b2d" fill-rule="nonzero"/><path d="m9.161 18.155h-.522c-.119 0-.222.096-.222.213s.103.217.222.217h.522c.117 0 .211-.1.211-.217s-.096-.213-.211-.213" fill="#ed1b2d" fill-rule="nonzero"/><path d="m10.717 17.198h-.518c-.119 0-.211.101-.211.219 0 .114.092.213.211.213h.518c.123 0 .216-.099.216-.213 0-.118-.093-.219-.216-.219" fill="#ed1b2d" fill-rule="nonzero"/><path d="m9.72 16.273h-.525c-.12 0-.216.094-.216.217 0 .115.095.209.216.209h.525c.119 0 .216-.094.216-.209 0-.123-.097-.217-.216-.217" fill="#ed1b2d" fill-rule="nonzero"/><path d="m30.14 16.85c0 7.315-5.929 13.242-13.243 13.242s-13.241-5.927-13.241-13.242c0-7.313 5.927-13.242 13.241-13.242s13.243 5.929 13.243 13.242" fill="#009a4e" fill-rule="nonzero"/><g clip-path="url(#g)"><path d="m29.862 19.546c1.488-7.155-3.114-14.172-10.27-15.66s-14.174 3.114-15.661 10.269c-1.488 7.155 3.114 14.172 10.27 15.66s14.174-3.114 15.661-10.269z" fill="url(#a)"/></g><g clip-path="url(#h)"><path d="m28.474 13.211c-.878 1.501-4.486.195-8.168-2.161-3.684-2.359-6.104-4.905-5.166-6.372.936-1.463 5.303-1.2 8.923 1.126 3.767 2.415 5.236 5.998 4.411 7.407" fill="#009a4e" fill-rule="nonzero"/></g><g clip-path="url(#i)"><path d="m28.339 13.044c-.855 1.461-4.367.187-7.955-2.107-3.588-2.299-5.949-4.778-5.036-6.206.911-1.423 5.163-1.165 8.69 1.101 3.67 2.352 5.104 5.841 4.301 7.212" fill="#059c51" fill-rule="nonzero"/></g><g clip-path="url(#j)"><path d="m28.203 12.877c-.831 1.421-4.248.18-7.74-2.055-3.493-2.237-5.794-4.65-4.906-6.038.885-1.384 5.022-1.13 8.458 1.075 3.572 2.29 4.969 5.684 4.188 7.018" fill="#099e54" fill-rule="nonzero"/></g><g clip-path="url(#k)"><path d="m28.067 12.71c-.807 1.381-4.129.171-7.526-2.003-3.399-2.176-5.639-4.521-4.777-5.87.862-1.345 4.884-1.096 8.225 1.05 3.476 2.227 4.838 5.527 4.078 6.823" fill="#0e9f58" fill-rule="nonzero"/></g><g clip-path="url(#l)"><path d="m27.932 12.544c-.784 1.341-4.011.164-7.312-1.949-3.305-2.116-5.485-4.394-4.647-5.704.836-1.306 4.744-1.061 7.992 1.025 3.378 2.165 4.704 5.37 3.967 6.628" fill="#12a15b" fill-rule="nonzero"/></g><g clip-path="url(#m)"><path d="m27.798 12.376c-.761 1.301-3.893.157-7.1-1.895-3.209-2.055-5.328-4.267-4.515-5.537.81-1.266 4.604-1.026 7.76.999 3.279 2.102 4.57 5.213 3.855 6.433" fill="#17a35e" fill-rule="nonzero"/></g><path d="m27.662 12.209c-.737 1.261-3.772.148-6.886-1.843-3.113-1.994-5.172-4.138-4.384-5.369.785-1.227 4.463-.993 7.525.974 3.184 2.039 4.438 5.056 3.745 6.238" fill="#1ca561" fill-rule="nonzero"/><g clip-path="url(#n)"><path d="m27.526 12.042c-.713 1.22-3.654.14-6.672-1.789-3.017-1.934-5.017-4.011-4.254-5.203.76-1.188 4.324-.958 7.292.949 3.087 1.977 4.306 4.898 3.634 6.043" fill="#20a764" fill-rule="nonzero"/></g><path d="m27.391 11.875c-.689 1.181-3.535.132-6.457-1.737-2.924-1.872-4.863-3.883-4.125-5.035.735-1.149 4.185-.924 7.06.923 2.989 1.915 4.172 4.742 3.522 5.849" fill="#25a967" fill-rule="nonzero"/><g clip-path="url(#o)"><path d="m27.257 11.708c-.667 1.14-3.417.125-6.244-1.684-2.829-1.812-4.707-3.754-3.994-4.868.709-1.109 4.045-.888 6.826.898 2.892 1.852 4.039 4.585 3.412 5.654" fill="#2aaa6b" fill-rule="nonzero"/></g><g clip-path="url(#p)"><path d="m27.122 11.541c-.645 1.1-3.299.117-6.031-1.631-2.734-1.751-4.551-3.626-3.865-4.701.686-1.07 3.906-.854 6.594.873 2.794 1.79 3.906 4.428 3.302 5.459" fill="#2eac6e" fill-rule="nonzero"/></g><g clip-path="url(#q)"><path d="m26.985 11.374c-.619 1.06-3.179.109-5.816-1.578-2.638-1.69-4.397-3.499-3.734-4.534.66-1.031 3.765-.82 6.361.847 2.697 1.728 3.773 4.271 3.189 5.265" fill="#33ae71" fill-rule="nonzero"/></g><g clip-path="url(#r)"><path d="m26.85 11.207c-.597 1.02-3.061.101-5.603-1.525-2.543-1.63-4.241-3.371-3.603-4.367.635-.992 3.625-.785 6.128.822 2.598 1.665 3.639 4.114 3.078 5.07" fill="#37b074" fill-rule="nonzero"/></g><g clip-path="url(#s)"><path d="m26.716 11.04c-.573.98-2.941.093-5.39-1.473-2.448-1.568-4.085-3.242-3.473-4.198.61-.954 3.486-.751 5.895.795 2.502 1.603 3.507 3.958 2.968 4.876" fill="#3cb278" fill-rule="nonzero"/></g><g clip-path="url(#t)"><path d="m26.581 10.873c-.551.94-2.823.086-5.176-1.419-2.353-1.508-3.931-3.115-3.344-4.032.585-.914 3.346-.716 5.663.77 2.404 1.54 3.374 3.801 2.857 4.681" fill="#41b47b" fill-rule="nonzero"/></g><g clip-path="url(#u)"><path d="m26.445 10.706c-.526.9-2.704.078-4.962-1.366-2.258-1.447-3.774-2.988-3.213-3.864.56-.875 3.206-.683 5.43.745 2.307 1.477 3.24 3.643 2.745 4.485" fill="#45b57e" fill-rule="nonzero"/></g><g clip-path="url(#v)"><path d="m26.31 10.539c-.504.86-2.586.069-4.749-1.313-2.163-1.386-3.619-2.859-3.082-3.698.535-.835 3.066-.647 5.195.72 2.21 1.415 3.109 3.486 2.636 4.291" fill="#4ab781" fill-rule="nonzero"/></g><path d="m26.175 10.372c-.48.819-2.467.061-4.535-1.26-2.068-1.325-3.464-2.731-2.951-3.53.509-.797 2.926-.614 4.963.694 2.112 1.352 2.974 3.329 2.523 4.096" fill="#4eb984" fill-rule="nonzero"/><g clip-path="url(#w)"><path d="m26.04 10.205c-.457.779-2.348.054-4.321-1.207-1.974-1.265-3.309-2.604-2.822-3.363.485-.757 2.786-.579 4.73.669 2.015 1.29 2.842 3.172 2.413 3.901" fill="#53bb88" fill-rule="nonzero"/></g><g clip-path="url(#x)"><path d="m25.904 10.038c-.433.739-2.229.046-4.106-1.154-1.879-1.204-3.155-2.476-2.692-3.197.459-.717 2.647-.544 4.496.644 1.918 1.228 2.709 3.016 2.302 3.707" fill="#57bd8b" fill-rule="nonzero"/></g><g clip-path="url(#y)"><path d="m25.769 9.871c-.409.699-2.11.038-3.894-1.102-1.783-1.142-2.998-2.347-2.561-3.029.434-.678 2.507-.509 4.264.619 1.821 1.165 2.576 2.859 2.191 3.512" fill="#5cbe8e" fill-rule="nonzero"/></g><path d="m25.634 9.704c-.386.659-1.991.03-3.68-1.049-1.687-1.081-2.842-2.22-2.43-2.861.409-.639 2.367-.475 4.031.593 1.723 1.102 2.442 2.702 2.079 3.317" fill="#61c091" fill-rule="nonzero"/><g clip-path="url(#z)"><path d="m25.499 9.537c-.363.619-1.873.022-3.466-.996-1.593-1.021-2.688-2.091-2.302-2.695.385-.599 2.229-.44 3.799.568 1.625 1.041 2.31 2.545 1.969 3.123" fill="#65c294" fill-rule="nonzero"/></g><g clip-path="url(#A)"><path d="m25.364 9.37c-.34.579-1.754.015-3.253-.943-1.498-.96-2.532-1.963-2.171-2.527.36-.561 2.088-.406 3.566.542 1.528.978 2.176 2.388 1.858 2.928" fill="#6ac497" fill-rule="nonzero"/></g><g clip-path="url(#B)"><path d="m25.228 9.203c-.315.538-1.635.007-3.038-.89-1.403-.9-2.378-1.836-2.041-2.36.334-.521 1.948-.371 3.332.517 1.431.915 2.044 2.23 1.747 2.733" fill="#6ec69b" fill-rule="nonzero"/></g><g clip-path="url(#C)"><path d="m25.094 9.035c-.293.498-1.517-.001-2.825-.837-1.309-.838-2.222-1.707-1.91-2.193.308-.482 1.808-.336 3.099.492 1.333.852 1.91 2.074 1.636 2.538" fill="#73c89e" fill-rule="nonzero"/></g><g clip-path="url(#D)"><path d="m24.958 8.868c-.27.458-1.397-.009-2.611-.784-1.213-.777-2.067-1.579-1.78-2.025.284-.443 1.668-.303 2.866.466 1.236.79 1.777 1.916 1.525 2.343" fill="#78c9a1" fill-rule="nonzero"/></g><g clip-path="url(#E)"><path d="m24.823 8.701c-.246.418-1.279-.017-2.398-.731-1.118-.717-1.911-1.452-1.649-1.858.258-.404 1.528-.268 2.633.441 1.139.727 1.644 1.759 1.414 2.148" fill="#7ccba4" fill-rule="nonzero"/></g><g clip-path="url(#F)"><path d="m24.688 8.534c-.224.378-1.16-.024-2.184-.678-1.024-.656-1.756-1.324-1.519-1.691.232-.365 1.389-.234 2.4.415 1.04.665 1.51 1.602 1.303 1.954" fill="#81cda8" fill-rule="nonzero"/></g><g clip-path="url(#G)"><path d="m24.553 8.367c-.2.337-1.041-.033-1.97-.626-.928-.594-1.601-1.195-1.389-1.523.208-.326 1.249-.199 2.167.39.944.603 1.379 1.445 1.192 1.759" fill="#86cfab" fill-rule="nonzero"/></g><g clip-path="url(#H)"><path d="m24.417 8.2c-.176.297-.922-.04-1.756-.572-.833-.534-1.444-1.068-1.259-1.357.185-.286 1.11-.164 1.935.364.846.541 1.244 1.289 1.08 1.565" fill="#8ad1ae" fill-rule="nonzero"/></g><g clip-path="url(#I)"><path d="m24.282 8.033c-.152.258-.804-.048-1.543-.519-.738-.473-1.289-.94-1.129-1.189.158-.248.971-.13 1.702.339.749.477 1.112 1.131.97 1.369" fill="#8fd3b1" fill-rule="nonzero"/></g><g clip-path="url(#J)"><path d="m24.147 7.866c-.13.217-.686-.056-1.329-.466-.644-.413-1.134-.812-.999-1.022.134-.208.83-.096 1.469.313.652.415.978.975.859 1.175" fill="#93d4b4" fill-rule="nonzero"/></g><g clip-path="url(#K)"><path d="m24.012 7.699c-.106.177-.567-.062-1.115-.413-.549-.351-.978-.684-.868-.855.109-.169.69-.061 1.236.288.554.352.845.817.747.98" fill="#98d6b7" fill-rule="nonzero"/></g><g clip-path="url(#L)"><path d="m23.876 7.532c-.083.137-.447-.071-.9-.36-.454-.29-.825-.556-.739-.688.084-.129.551-.026 1.002.263.457.291.713.66.637.785" fill="#9dd8bb" fill-rule="nonzero"/></g><g clip-path="url(#M)"><path d="m23.741 7.365c-.059.097-.328-.079-.687-.308s-.668-.427-.608-.52c.059-.09.41.009.77.238.359.228.58.503.525.59" fill="#a1dabe" fill-rule="nonzero"/></g><path d="m23.606 7.198c-.035.057-.21-.087-.475-.254-.262-.17-.513-.301-.476-.354.032-.051.27.043.536.212.263.166.448.347.415.396" fill="#a6dcc1" fill-rule="nonzero"/><g clip-path="url(#N)"><path d="m19.844 5.317c.362-.529 2.503-.429 4.228.753 1.726 1.18 2.382 2.994 2.02 3.524-.361.531-1.958-.115-3.684-1.297-1.725-1.18-2.926-2.45-2.564-2.98" fill="#85cfaa" fill-rule="nonzero"/></g><g clip-path="url(#O)"><path d="m19.932 5.359c.354-.515 2.434-.417 4.113.732 1.68 1.149 2.319 2.914 1.966 3.43-.351.515-1.905-.113-3.584-1.262-1.679-1.148-2.848-2.384-2.495-2.9" fill="#88d0ac" fill-rule="nonzero"/></g><g clip-path="url(#P)"><path d="m20.021 5.401c.343-.501 2.366-.404 3.998.712 1.634 1.118 2.255 2.832 1.912 3.334-.342.502-1.852-.109-3.484-1.226s-2.769-2.319-2.426-2.82" fill="#8bd1af" fill-rule="nonzero"/></g><g clip-path="url(#Q)"><path d="m20.109 5.443c.333-.487 2.298-.393 3.884.692 1.587 1.085 2.191 2.75 1.858 3.238-.332.487-1.8-.106-3.386-1.191-1.585-1.085-2.689-2.253-2.356-2.739" fill="#8fd3b1" fill-rule="nonzero"/></g><path d="m20.198 5.484c.324-.472 2.23-.381 3.77.673 1.539 1.053 2.126 2.668 1.802 3.142-.321.473-1.746-.103-3.285-1.156-1.539-1.054-2.609-2.187-2.287-2.659" fill="#92d4b3" fill-rule="nonzero"/><g clip-path="url(#R)"><path d="m20.287 5.526c.314-.458 2.162-.369 3.654.653 1.494 1.021 2.064 2.588 1.75 3.046-.312.459-1.693-.099-3.186-1.121-1.492-1.021-2.531-2.12-2.218-2.578" fill="#96d5b6" fill-rule="nonzero"/></g><g clip-path="url(#S)"><path d="m20.376 5.568c.304-.444 2.094-.357 3.54.632 1.446.99 1.999 2.507 1.695 2.952-.302.444-1.641-.097-3.087-1.087-1.445-.989-2.452-2.054-2.148-2.497" fill="#99d7b8" fill-rule="nonzero"/></g><g clip-path="url(#T)"><path d="m20.464 5.61c.295-.429 2.027-.345 3.426.613 1.399.957 1.935 2.425 1.64 2.855-.293.43-1.587-.094-2.986-1.051s-2.373-1.988-2.08-2.417" fill="#9cd8bb" fill-rule="nonzero"/></g><path d="m20.553 5.652c.284-.415 1.959-.333 3.312.593 1.352.925 1.871 2.344 1.586 2.759-.283.416-1.535-.09-2.887-1.016-1.353-.925-2.295-1.922-2.011-2.336" fill="#a0d9bd" fill-rule="nonzero"/><g clip-path="url(#U)"><path d="m20.641 5.694c.274-.4 1.891-.321 3.196.572 1.307.894 1.807 2.263 1.533 2.665-.273.401-1.483-.088-2.788-.981-1.306-.894-2.214-1.856-1.941-2.256" fill="#a3dbbf" fill-rule="nonzero"/></g><g clip-path="url(#V)"><path d="m20.73 5.735c.265-.386 1.822-.308 3.081.553 1.261.862 1.743 2.181 1.479 2.569-.263.386-1.43-.085-2.689-.947-1.259-.861-2.135-1.789-1.871-2.175" fill="#a7dcc2" fill-rule="nonzero"/></g><g clip-path="url(#W)"><path d="m20.819 5.777c.254-.371 1.754-.296 2.967.533 1.213.83 1.679 2.1 1.425 2.473-.254.372-1.377-.081-2.59-.911s-2.057-1.723-1.802-2.095" fill="#aaddc4" fill-rule="nonzero"/></g><g clip-path="url(#X)"><path d="m20.907 5.819c.245-.358 1.687-.285 2.853.513 1.167.799 1.615 2.019 1.37 2.378-.243.357-1.323-.078-2.49-.876-1.166-.798-1.977-1.658-1.733-2.015" fill="#addfc6" fill-rule="nonzero"/></g><g clip-path="url(#Y)"><path d="m20.996 5.861c.235-.343 1.618-.273 2.738.493s1.551 1.938 1.316 2.282c-.234.343-1.271-.075-2.39-.841-1.12-.766-1.898-1.591-1.664-1.934" fill="#b1e0c9" fill-rule="nonzero"/></g><g clip-path="url(#Z)"><path d="m21.085 5.903c.226-.329 1.551-.261 2.623.473 1.073.734 1.487 1.856 1.262 2.186-.225.329-1.218-.072-2.291-.806s-1.819-1.524-1.594-1.853" fill="#b4e1cb" fill-rule="nonzero"/></g><g clip-path="url(#aa)"><path d="m21.174 5.944c.216-.314 1.481-.249 2.509.453 1.026.703 1.422 1.775 1.207 2.09s-1.165-.068-2.192-.771c-1.025-.701-1.739-1.458-1.524-1.772" fill="#b8e3cd" fill-rule="nonzero"/></g><g clip-path="url(#ab)"><path d="m21.262 5.986c.206-.301 1.415-.237 2.395.433.979.671 1.358 1.693 1.153 1.995-.205.3-1.112-.065-2.092-.736-.979-.67-1.66-1.393-1.456-1.692" fill="#bbe4d0" fill-rule="nonzero"/></g><g clip-path="url(#ac)"><path d="m21.35 6.028c.196-.286 1.347-.225 2.279.413.934.639 1.295 1.613 1.1 1.9-.195.285-1.06-.063-1.992-.702-.934-.637-1.581-1.325-1.387-1.611" fill="#bee5d2" fill-rule="nonzero"/></g><g clip-path="url(#ad)"><path d="m21.439 6.07c.186-.271 1.278-.213 2.165.393.887.607 1.23 1.532 1.045 1.804-.186.271-1.007-.059-1.893-.666-.886-.606-1.502-1.26-1.317-1.531" fill="#c2e7d5" fill-rule="nonzero"/></g><g clip-path="url(#ae)"><path d="m21.527 6.112c.177-.258 1.211-.201 2.051.373.841.575 1.167 1.45.991 1.708-.176.256-.954-.056-1.793-.631-.84-.574-1.425-1.194-1.249-1.45" fill="#c5e8d7" fill-rule="nonzero"/></g><path d="m21.616 6.153c.166-.243 1.143-.188 1.937.354.793.543 1.102 1.369.936 1.613-.166.241-.901-.054-1.694-.596-.793-.543-1.345-1.128-1.179-1.371" fill="#c9e9d9" fill-rule="nonzero"/><g clip-path="url(#af)"><path d="m21.705 6.195c.157-.229 1.074-.176 1.821.334.746.511 1.039 1.287.883 1.516-.156.228-.848-.049-1.595-.56-.746-.511-1.265-1.062-1.109-1.29" fill="#ccebdc" fill-rule="nonzero"/></g><g clip-path="url(#ag)"><path d="m21.794 6.237c.146-.214 1.006-.165 1.707.313.699.48.975 1.207.828 1.422-.146.214-.795-.047-1.495-.526s-1.186-.996-1.04-1.209" fill="#cfecde" fill-rule="nonzero"/></g><g clip-path="url(#ah)"><path d="m21.882 6.279c.138-.2.939-.152 1.593.294.653.447.911 1.125.774 1.325-.137.199-.742-.044-1.395-.491-.654-.446-1.107-.929-.972-1.128" fill="#d3eee0" fill-rule="nonzero"/></g><g clip-path="url(#ai)"><path d="m21.971 6.321c.128-.187.871-.141 1.478.273.607.416.847 1.044.72 1.23-.126.185-.689-.04-1.296-.455s-1.028-.864-.902-1.048" fill="#d6efe3" fill-rule="nonzero"/></g><path d="m22.059 6.362c.117-.171.803-.128 1.363.254.56.384.783.963.666 1.135-.116.17-.636-.038-1.197-.421-.56-.383-.949-.797-.832-.968" fill="#daf0e5" fill-rule="nonzero"/><g clip-path="url(#aj)"><path d="m22.148 6.404c.108-.157.734-.116 1.248.233.514.353.72.883.612 1.04-.106.156-.584-.035-1.097-.386-.514-.351-.87-.731-.763-.887" fill="#ddf2e7" fill-rule="nonzero"/></g><g clip-path="url(#ak)"><path d="m22.237 6.446c.098-.143.666-.104 1.134.214.467.32.655.8.557.943-.096.142-.531-.032-.998-.35-.466-.319-.791-.665-.693-.807" fill="#e0f3ea" fill-rule="nonzero"/></g><g clip-path="url(#al)"><path d="m22.325 6.487c.088-.128.6-.092 1.02.194.419.288.591.719.503.849-.086.126-.478-.03-.898-.316-.42-.288-.712-.599-.625-.727" fill="#e4f4ec" fill-rule="nonzero"/></g><g clip-path="url(#am)"><path d="m22.414 6.529c.078-.114.531-.081.905.174.373.255.528.638.45.752-.077.113-.426-.025-.799-.281-.373-.254-.633-.532-.556-.645" fill="#e7f6ef" fill-rule="nonzero"/></g><g clip-path="url(#an)"><path d="m22.503 6.571c.068-.1.463-.068.79.154.327.224.464.557.396.657-.067.098-.374-.022-.7-.246-.327-.223-.554-.466-.486-.565" fill="#ebf7f1" fill-rule="nonzero"/></g><path d="m22.591 6.613c.059-.085.397-.057.676.134.281.192.399.476.342.561-.058.084-.321-.019-.601-.21s-.474-.4-.417-.485" fill="#eef8f3" fill-rule="nonzero"/><path d="m22.681 6.655c.049-.071.327-.045.561.114s.335.395.287.466c-.047.069-.268-.017-.501-.176-.234-.159-.396-.334-.347-.404" fill="#f1faf6" fill-rule="nonzero"/><path d="m22.768 6.696c.039-.057.26-.033.446.094.189.128.272.314.234.37s-.215-.013-.402-.14c-.186-.128-.315-.268-.278-.324" fill="#f5fbf8" fill-rule="nonzero"/><path d="m22.857 6.738c.029-.042.191-.021.331.074.142.096.209.232.18.275-.028.04-.161-.011-.302-.106-.14-.096-.237-.202-.209-.243" fill="#f8fcfa" fill-rule="nonzero"/><path d="m22.946 6.78c.019-.028.123-.009.217.054.094.064.143.152.125.179s-.11-.006-.203-.07c-.094-.064-.158-.136-.139-.163" fill="#fcfefd" fill-rule="nonzero"/><path d="m23.034 6.822c.012-.013.055.004.104.034.046.033.078.069.07.084-.01.01-.057-.004-.104-.036s-.077-.069-.07-.082" fill="#fff" fill-rule="nonzero"/><g clip-path="url(#ao)"><path d="m18.532 29.603c-.477.628-5.654.72-9.621-2.323-3.967-3.039-5.225-8.057-4.746-8.686.48-.623 4.762.437 8.729 3.478 3.968 3.038 6.12 6.906 5.638 7.531" fill="#009a4e" fill-rule="nonzero"/></g><g clip-path="url(#ap)"><path d="m18.38 29.568c-.47.613-5.547.686-9.452-2.31-3.905-2.991-5.159-7.91-4.689-8.525.468-.612 4.659.466 8.564 3.459 3.905 2.99 6.046 6.763 5.577 7.376" fill="#029b4f" fill-rule="nonzero"/></g><g clip-path="url(#aq)"><path d="m18.227 29.534c-.46.6-5.441.65-9.283-2.297-3.843-2.943-5.093-7.764-4.633-8.366.459-.599 4.557.497 8.399 3.441 3.843 2.943 5.976 6.621 5.517 7.222" fill="#039b50" fill-rule="nonzero"/></g><path d="m18.074 29.499c-.45.588-5.334.616-9.114-2.283-3.78-2.896-5.026-7.617-4.574-8.206.447-.586 4.453.525 8.233 3.423 3.78 2.894 5.904 6.479 5.455 7.066" fill="#049c51" fill-rule="nonzero"/><g clip-path="url(#ar)"><path d="m17.921 29.464c-.439.574-5.227.581-8.944-2.271-3.718-2.847-4.959-7.47-4.519-8.045.439-.573 4.352.554 8.068 3.403 3.719 2.848 5.834 6.338 5.395 6.913" fill="#069c52" fill-rule="nonzero"/></g><g clip-path="url(#as)"><path d="m17.768 29.43c-.43.562-5.12.546-8.775-2.258-3.655-2.8-4.892-7.323-4.461-7.885.427-.56 4.248.584 7.903 3.385 3.655 2.799 5.763 6.197 5.333 6.758" fill="#079d53" fill-rule="nonzero"/></g><g clip-path="url(#at)"><path d="m17.615 29.395c-.419.548-5.013.512-8.605-2.244-3.593-2.752-4.826-7.176-4.405-7.726.419-.546 4.146.614 7.739 3.367 3.592 2.751 5.691 6.054 5.271 6.603" fill="#089d54" fill-rule="nonzero"/></g><g clip-path="url(#au)"><path d="m17.462 29.36c-.409.535-4.906.478-8.436-2.23-3.53-2.705-4.757-7.028-4.347-7.566.41-.533 4.043.643 7.573 3.349 3.53 2.703 5.62 5.911 5.21 6.447" fill="#0a9e55" fill-rule="nonzero"/></g><g clip-path="url(#av)"><path d="m17.309 29.326c-.399.522-4.799.442-8.267-2.218-3.467-2.655-4.692-6.881-4.291-7.404.4-.522 3.941.671 7.41 3.329 3.466 2.655 5.548 5.771 5.148 6.293" fill="#0b9e56" fill-rule="nonzero"/></g><g clip-path="url(#aw)"><path d="m17.157 29.291c-.391.51-4.693.407-8.098-2.205-3.405-2.607-4.625-6.734-4.234-7.245.389-.508 3.838.702 7.243 3.311 3.405 2.608 5.48 5.629 5.089 6.139" fill="#0d9f57" fill-rule="nonzero"/></g><g clip-path="url(#ax)"><path d="m17.004 29.256c-.38.497-4.586.373-7.929-2.191-3.341-2.561-4.557-6.587-4.176-7.085.378-.495 3.735.731 7.078 3.292 3.343 2.56 5.407 5.487 5.027 5.984" fill="#0ea058" fill-rule="nonzero"/></g><g clip-path="url(#ay)"><path d="m16.85 29.221c-.37.484-4.479.339-7.759-2.178-3.28-2.511-4.491-6.44-4.12-6.924.369-.482 3.633.76 6.913 3.274 3.28 2.512 5.337 5.345 4.966 5.828" fill="#10a059" fill-rule="nonzero"/></g><g clip-path="url(#az)"><path d="m16.698 29.187c-.359.471-4.372.304-7.59-2.165-3.218-2.465-4.425-6.293-4.063-6.765.359-.468 3.53.79 6.748 3.256 3.218 2.464 5.266 5.203 4.905 5.674" fill="#11a15a" fill-rule="nonzero"/></g><g clip-path="url(#aA)"><path d="m16.546 29.153c-.351.458-4.266.269-7.421-2.152-3.155-2.416-4.357-6.145-4.007-6.605.35-.455 3.427.819 6.583 3.237 3.156 2.416 5.196 5.062 4.845 5.52" fill="#12a15b" fill-rule="nonzero"/></g><g clip-path="url(#aB)"><path d="m16.392 29.118c-.341.444-4.159.234-7.251-2.139-3.093-2.368-4.291-5.998-3.949-6.444.34-.442 3.323.849 6.418 3.219 3.092 2.368 5.123 4.92 4.782 5.364" fill="#14a25c" fill-rule="nonzero"/></g><g clip-path="url(#aC)"><path d="m16.239 29.083c-.33.432-4.052.2-7.082-2.125-3.029-2.32-4.223-5.851-3.893-6.284.33-.43 3.222.878 6.254 3.2 3.03 2.32 5.051 4.776 4.721 5.209" fill="#15a25d" fill-rule="nonzero"/></g><g clip-path="url(#aD)"><path d="m16.087 29.048c-.32.419-3.945.165-6.912-2.112-2.969-2.273-4.158-5.704-3.837-6.124.319-.418 3.119.907 6.088 3.18 2.968 2.274 4.981 4.637 4.661 5.056" fill="#17a35e" fill-rule="nonzero"/></g><g clip-path="url(#aE)"><path d="m15.933 29.014c-.31.405-3.838.13-6.743-2.1-2.905-2.224-4.09-5.556-3.779-5.963.31-.404 3.016.936 5.922 3.163 2.906 2.224 4.911 4.494 4.6 4.9" fill="#18a35f" fill-rule="nonzero"/></g><g clip-path="url(#aF)"><path d="m15.781 28.979c-.301.394-3.731.096-6.574-2.086-2.843-2.177-4.024-5.409-3.722-5.804.3-.39 2.913.966 5.757 3.144 2.843 2.178 4.839 4.353 4.539 4.746" fill="#1aa460" fill-rule="nonzero"/></g><path d="m15.628 28.945c-.29.38-3.624.061-6.404-2.073-2.781-2.129-3.957-5.263-3.666-5.644.291-.378 2.811.995 5.592 3.126 2.781 2.129 4.769 4.21 4.478 4.591" fill="#1ba561" fill-rule="nonzero"/><g clip-path="url(#aG)"><path d="m15.475 28.91c-.281.367-3.518.026-6.235-2.06-2.718-2.081-3.892-5.116-3.609-5.484.28-.365 2.708 1.025 5.427 3.107 2.718 2.082 4.698 4.07 4.417 4.437" fill="#1ca562" fill-rule="nonzero"/></g><g clip-path="url(#aH)"><path d="m15.322 28.875c-.27.354-3.41-.009-6.065-2.047-2.657-2.033-3.825-4.969-3.552-5.323.269-.352 2.605 1.054 5.262 3.088 2.655 2.034 4.626 3.928 4.355 4.282" fill="#1ea663" fill-rule="nonzero"/></g><g clip-path="url(#aI)"><path d="m15.169 28.84c-.26.341-3.304-.043-5.896-2.033-2.593-1.985-3.757-4.821-3.495-5.163.26-.34 2.503 1.083 5.097 3.069 2.593 1.986 4.556 3.786 4.294 4.127" fill="#1fa664" fill-rule="nonzero"/></g><g clip-path="url(#aJ)"><path d="m15.016 28.805c-.252.329-3.197-.077-5.728-2.02-2.53-1.937-3.69-4.673-3.437-5.003.25-.327 2.4 1.113 4.932 3.052 2.53 1.938 4.483 3.643 4.233 3.971" fill="#21a765" fill-rule="nonzero"/></g><g clip-path="url(#aK)"><path d="m14.863 28.771c-.241.314-3.09-.112-5.558-2.007-2.467-1.889-3.623-4.527-3.381-4.844.241-.312 2.298 1.143 4.767 3.034 2.468 1.89 4.413 3.502 4.172 3.817" fill="#22a766" fill-rule="nonzero"/></g><g clip-path="url(#aL)"><path d="m14.711 28.736c-.232.303-2.983-.146-5.389-1.993-2.405-1.842-3.557-4.38-3.324-4.683.231-.301 2.194 1.171 4.603 3.015 2.405 1.842 4.341 3.359 4.11 3.661" fill="#23a867" fill-rule="nonzero"/></g><g clip-path="url(#aM)"><path d="m14.557 28.702c-.221.289-2.876-.182-5.219-1.98-2.343-1.794-3.49-4.233-3.267-4.524.22-.287 2.091 1.201 4.437 2.996 2.342 1.795 4.271 3.218 4.049 3.508" fill="#25a967" fill-rule="nonzero"/></g><g clip-path="url(#aN)"><path d="m14.405 28.666c-.211.276-2.77-.216-5.05-1.967-2.281-1.746-3.424-4.086-3.211-4.363.21-.274 1.99 1.23 4.273 2.978 2.279 1.747 4.199 3.076 3.988 3.352" fill="#26a969" fill-rule="nonzero"/></g><g clip-path="url(#aO)"><path d="m14.253 28.632c-.201.263-2.664-.251-4.882-1.954-2.218-1.697-3.356-3.939-3.153-4.203.201-.262 1.887 1.259 4.107 2.959 2.218 1.7 4.129 2.934 3.928 3.198" fill="#28aa6a" fill-rule="nonzero"/></g><g clip-path="url(#aP)"><path d="m14.099 28.598c-.19.25-2.556-.286-4.712-1.941-2.155-1.651-3.29-3.791-3.097-4.043.191-.248 1.785 1.289 3.943 2.94 2.154 1.652 4.057 2.793 3.866 3.044" fill="#29aa6a" fill-rule="nonzero"/></g><g clip-path="url(#aQ)"><path d="m13.946 28.563c-.182.237-2.449-.32-4.542-1.928-2.093-1.601-3.224-3.644-3.04-3.882.182-.236 1.682 1.318 3.777 2.921 2.093 1.605 3.987 2.652 3.805 2.889" fill="#2bab6c" fill-rule="nonzero"/></g><g clip-path="url(#aR)"><path d="m13.794 28.528c-.172.225-2.342-.354-4.373-1.914-2.031-1.554-3.157-3.497-2.983-3.723.17-.222 1.579 1.348 3.611 2.904 2.031 1.556 3.916 2.508 3.745 2.733" fill="#2cab6c" fill-rule="nonzero"/></g><g clip-path="url(#aS)"><path d="m13.64 28.494c-.161.211-2.235-.39-4.204-1.901-1.968-1.506-3.09-3.35-2.926-3.563.16-.21 1.477 1.377 3.446 2.885 1.968 1.509 3.845 2.367 3.684 2.579" fill="#2dac6e" fill-rule="nonzero"/></g><path d="m13.487 28.458c-.151.199-2.128-.424-4.033-1.888-1.906-1.458-3.024-3.202-2.869-3.402.15-.196 1.373 1.406 3.281 2.866 1.905 1.461 3.773 2.226 3.621 2.424" fill="#2fac6e" fill-rule="nonzero"/><g clip-path="url(#aT)"><path d="m13.335 28.424c-.142.186-2.021-.459-3.865-1.875-1.843-1.41-2.956-3.055-2.813-3.242.141-.183 1.272 1.435 3.117 2.847 1.843 1.414 3.703 2.084 3.561 2.27" fill="#30ad6f" fill-rule="nonzero"/></g><g clip-path="url(#aU)"><path d="m13.182 28.389c-.133.173-1.916-.493-3.696-1.861-1.781-1.363-2.89-2.909-2.755-3.082.131-.171 1.168 1.464 2.951 2.829 1.78 1.365 3.631 1.941 3.5 2.114" fill="#31ae70" fill-rule="nonzero"/></g><g clip-path="url(#aV)"><path d="m13.029 28.355c-.121.16-1.808-.528-3.526-1.849-1.719-1.314-2.824-2.761-2.7-2.922.121-.158 1.067 1.495 2.787 2.811 1.718 1.317 3.561 1.801 3.439 1.96" fill="#33ae71" fill-rule="nonzero"/></g><path d="m13.64 28.534c-.571.707-2.75-.107-4.867-1.815-2.116-1.711-3.369-3.668-2.799-4.375.574-.708 2.376.387 4.489 2.093 2.118 1.712 3.747 3.39 3.177 4.097" fill="#009a4e" fill-rule="nonzero"/><g clip-path="url(#aW)"><path d="m13.526 28.475c-.557.688-2.679-.105-4.74-1.768-2.061-1.667-3.281-3.572-2.726-4.261.558-.689 2.315.378 4.372 2.039 2.063 1.668 3.649 3.302 3.094 3.99" fill="#059c51" fill-rule="nonzero"/></g><g clip-path="url(#aX)"><path d="m13.412 28.416c-.541.671-2.606-.101-4.613-1.721-2.005-1.621-3.193-3.476-2.652-4.146.543-.671 2.252.367 4.255 1.984 2.008 1.623 3.551 3.214 3.01 3.883" fill="#099e54" fill-rule="nonzero"/></g><g clip-path="url(#aY)"><path d="m13.299 28.359c-.526.651-2.534-.1-4.486-1.674-1.951-1.577-3.106-3.381-2.58-4.033.528-.651 2.191.357 4.139 1.93 1.953 1.578 3.453 3.126 2.927 3.777" fill="#0e9f58" fill-rule="nonzero"/></g><g clip-path="url(#aZ)"><path d="m13.184 28.3c-.51.633-2.462-.097-4.358-1.627-1.896-1.533-3.018-3.285-2.507-3.918.513-.634 2.13.347 4.022 1.874 1.898 1.534 3.355 3.038 2.843 3.671" fill="#12a15b" fill-rule="nonzero"/></g><g clip-path="url(#a0)"><path d="m13.072 28.243c-.496.614-2.391-.095-4.232-1.58-1.84-1.488-2.93-3.19-2.435-3.804.499-.615 2.068.336 3.906 1.82 1.843 1.488 3.256 2.95 2.761 3.564" fill="#17a35e" fill-rule="nonzero"/></g><g clip-path="url(#a1)"><path d="m12.958 28.184c-.48.596-2.318-.092-4.104-1.533-1.786-1.444-2.842-3.094-2.362-3.69.484-.596 2.007.327 3.79 1.766 1.787 1.443 3.158 2.861 2.676 3.457" fill="#1ca561" fill-rule="nonzero"/></g><g clip-path="url(#a2)"><path d="m12.845 28.125c-.466.577-2.246-.09-3.979-1.485-1.729-1.4-2.753-2.999-2.288-3.575.468-.579 1.946.315 3.673 1.709 1.733 1.4 3.061 2.775 2.594 3.351" fill="#20a764" fill-rule="nonzero"/></g><g clip-path="url(#a3)"><path d="m12.731 28.068c-.45.559-2.175-.087-3.851-1.439-1.674-1.354-2.667-2.903-2.215-3.461.453-.56 1.882.305 3.556 1.655 1.676 1.355 2.961 2.687 2.51 3.245" fill="#25a967" fill-rule="nonzero"/></g><g clip-path="url(#a4)"><path d="m12.618 28.009c-.436.54-2.103-.084-3.724-1.392-1.62-1.309-2.579-2.806-2.143-3.346.438-.541 1.822.295 3.439 1.6 1.622 1.311 2.864 2.598 2.428 3.138" fill="#2aaa6b" fill-rule="nonzero"/></g><g clip-path="url(#a5)"><path d="m12.505 27.951c-.421.522-2.031-.081-3.597-1.345-1.565-1.264-2.492-2.712-2.071-3.232.423-.523 1.762.285 3.323 1.546 1.567 1.265 2.766 2.51 2.345 3.031" fill="#2eac6e" fill-rule="nonzero"/></g><g clip-path="url(#a6)"><path d="m12.391 27.892c-.406.504-1.96-.078-3.47-1.297-1.51-1.221-2.403-2.615-1.998-3.119.407-.503 1.699.275 3.206 1.491 1.512 1.222 2.668 2.423 2.262 2.925" fill="#33ae71" fill-rule="nonzero"/></g><g clip-path="url(#a7)"><path d="m12.278 27.834c-.392.484-1.888-.076-3.343-1.25-1.455-1.177-2.316-2.52-1.925-3.005.393-.484 1.637.265 3.089 1.437 1.456 1.176 2.57 2.334 2.179 2.818" fill="#37b074" fill-rule="nonzero"/></g><g clip-path="url(#a8)"><path d="m12.165 27.776c-.377.467-1.816-.074-3.217-1.203-1.399-1.131-2.228-2.425-1.852-2.891.377-.466 1.577.255 2.974 1.383 1.401 1.131 2.471 2.246 2.095 2.711" fill="#3cb278" fill-rule="nonzero"/></g><g clip-path="url(#a9)"><path d="m12.051 27.717c-.36.448-1.743-.07-3.089-1.155-1.344-1.087-2.14-2.329-1.779-2.777.363-.447 1.514.244 2.857 1.327 1.346 1.087 2.372 2.159 2.011 2.605" fill="#41b47b" fill-rule="nonzero"/></g><g clip-path="url(#ba)"><path d="m11.937 27.659c-.347.429-1.672-.068-2.961-1.107-1.29-1.043-2.054-2.234-1.708-2.663.349-.429 1.454.234 2.741 1.272 1.29 1.043 2.274 2.07 1.928 2.498" fill="#45b57e" fill-rule="nonzero"/></g><g clip-path="url(#bb)"><path d="m11.824 27.601c-.331.411-1.601-.065-2.835-1.061-1.234-.999-1.966-2.138-1.635-2.548.333-.411 1.393.223 2.625 1.217 1.236.999 2.176 1.983 1.845 2.392" fill="#4ab781" fill-rule="nonzero"/></g><g clip-path="url(#bc)"><path d="m11.711 27.542c-.316.393-1.528-.062-2.708-1.014-1.179-.954-1.877-2.042-1.562-2.433.318-.393 1.331.213 2.508 1.162 1.181.953 2.078 1.895 1.762 2.285" fill="#4eb984" fill-rule="nonzero"/></g><path d="m11.598 27.485c-.302.373-1.456-.061-2.581-.968-1.124-.909-1.79-1.947-1.489-2.319.302-.374 1.269.203 2.391 1.107 1.125.91 1.98 1.808 1.679 2.18" fill="#53bb88" fill-rule="nonzero"/><g clip-path="url(#bd)"><path d="m11.483 27.426c-.285.355-1.384-.058-2.453-.92-1.068-.864-1.701-1.851-1.416-2.205.288-.355 1.207.192 2.274 1.053 1.07.864 1.882 1.718 1.595 2.072" fill="#57bd8b" fill-rule="nonzero"/></g><g clip-path="url(#be)"><path d="m11.37 27.368c-.271.336-1.312-.056-2.326-.873-1.014-.819-1.615-1.755-1.344-2.091.273-.337 1.147.183 2.158.998 1.015.82 1.783 1.631 1.512 1.966" fill="#5cbe8e" fill-rule="nonzero"/></g><g clip-path="url(#bf)"><path d="m11.257 27.309c-.257.317-1.24-.053-2.199-.825-.959-.776-1.528-1.66-1.272-1.978.258-.317 1.086.173 2.042.945.96.774 1.685 1.542 1.429 1.858" fill="#61c091" fill-rule="nonzero"/></g><g clip-path="url(#bg)"><path d="m11.143 27.251c-.242.299-1.169-.051-2.072-.779-.905-.731-1.44-1.564-1.199-1.863.242-.299 1.024.162 1.925.889.905.73 1.587 1.454 1.346 1.753" fill="#65c294" fill-rule="nonzero"/></g><g clip-path="url(#bh)"><path d="m11.03 27.193c-.228.281-1.097-.048-1.945-.731-.85-.686-1.352-1.469-1.126-1.749.227-.281.962.152 1.808.834.85.686 1.489 1.367 1.263 1.646" fill="#6ac497" fill-rule="nonzero"/></g><path d="m10.917 27.134c-.212.263-1.025-.044-1.818-.685-.794-.64-1.265-1.372-1.053-1.633.212-.262.9.141 1.691.779.794.641 1.391 1.279 1.18 1.539" fill="#6ec69b" fill-rule="nonzero"/><g clip-path="url(#bi)"><path d="m10.804 27.077c-.197.244-.953-.043-1.691-.638-.739-.596-1.178-1.277-.981-1.52s.839.132 1.575.724c.74.597 1.293 1.192 1.097 1.434" fill="#73c89e" fill-rule="nonzero"/></g><g clip-path="url(#bj)"><path d="m10.69 27.018c-.183.226-.882-.04-1.564-.59-.684-.553-1.09-1.181-.909-1.406.182-.225.779.121 1.459.67.684.551 1.194 1.102 1.014 1.326" fill="#78c9a1" fill-rule="nonzero"/></g><g clip-path="url(#bk)"><path d="m10.577 26.959c-.168.206-.811-.037-1.437-.543-.629-.508-1.002-1.086-.835-1.292s.715.111 1.341.615c.629.507 1.096 1.016.931 1.22" fill="#7ccba4" fill-rule="nonzero"/></g><g clip-path="url(#bl)"><path d="m10.463 26.902c-.152.187-.737-.035-1.31-.497-.574-.462-.914-.989-.762-1.177.151-.188.655.101 1.225.561.575.462.998.926.847 1.113" fill="#81cda8" fill-rule="nonzero"/></g><g clip-path="url(#bm)"><path d="m10.349 26.843c-.138.17-.666-.032-1.184-.449-.518-.418-.825-.895-.689-1.063.138-.17.593.09 1.11.505.518.418.899.839.763 1.007" fill="#86cfab" fill-rule="nonzero"/></g><g clip-path="url(#bn)"><path d="m10.236 26.785c-.122.151-.594-.029-1.056-.401-.464-.374-.738-.799-.617-.95s.531.08.992.452c.463.373.801.751.681.899" fill="#8ad1ae" fill-rule="nonzero"/></g><g clip-path="url(#bo)"><path d="m10.122 26.727c-.107.132-.521-.027-.928-.355-.408-.33-.65-.703-.545-.834.108-.133.471.069.877.395.407.328.702.663.596.794" fill="#8fd3b1" fill-rule="nonzero"/></g><g clip-path="url(#bp)"><path d="m10.009 26.668c-.092.114-.449-.024-.802-.308-.352-.285-.562-.607-.471-.72.091-.114.409.059.759.341.354.284.606.576.514.687" fill="#93d4b4" fill-rule="nonzero"/></g><g clip-path="url(#bq)"><path d="m9.895 26.61c-.077.096-.378-.021-.675-.261-.298-.24-.475-.511-.398-.606s.346.05.643.287c.297.239.506.487.43.58" fill="#98d6b7" fill-rule="nonzero"/></g><path d="m9.782 26.551c-.062.077-.306-.019-.547-.213-.244-.195-.389-.416-.327-.492s.286.039.526.231c.244.196.409.4.348.474" fill="#9dd8bb" fill-rule="nonzero"/><path d="m9.669 26.494c-.048.059-.234-.017-.421-.167-.188-.15-.3-.321-.253-.378.046-.058.225.029.41.177.188.15.309.312.264.368" fill="#a1dabe" fill-rule="nonzero"/><path d="m9.556 26.435c-.031.041-.162-.014-.294-.119-.133-.107-.21-.224-.181-.264.034-.038.164.019.293.122.133.106.213.225.182.261" fill="#a6dcc1" fill-rule="nonzero"/><path d="m139.395 11.779v8.866c0 4.272 1.414 6.776 6.174 6.776 4.107 0 6.12-1.849 6.12-5.55v-1.686h-4.188v1.902c0 1.035-.707 1.825-1.932 1.825-1.332 0-1.986-.682-1.986-1.825v-10.933c0-1.17.654-1.905 1.986-1.905 1.387 0 1.932.844 1.932 1.905v1.605h4.134v-1.415c0-3.698-2.475-5.576-6.174-5.576-3.781 0-6.066 2.312-6.066 6.011z" fill="url(#c)" fill-rule="nonzero"/><path d="m154.546 6.094v21.001h10.336v-3.727h-5.712c-.163 0-.326.026-.49.054.028-.165.055-.354.055-.546v-16.782z" fill="url(#d)" fill-rule="nonzero"/><path d="m175.573 6.094v15.479c0 1.332-.516 2.61-2.041 2.61-1.522 0-2.068-1.251-2.068-2.61v-15.479h-4.189v15.724c0 3.807 2.693 5.603 6.257 5.603 3.562 0 6.229-1.824 6.229-5.603v-15.724z" fill="url(#e)" fill-rule="nonzero"/><path d="m182.971 6.094v21.001h6.854c3.782 0 5.249-1.606 5.249-5.713 0-2.856-.678-4.162-2.584-4.924v-.082c1.578-.951 2.177-2.531 2.04-5.222-.134-2.776-1.143-4.353-3.101-4.842-.708-.164-1.305-.218-3.236-.218zm4.188 7.808v-3.455c0-.299 0-.381-.055-.681.3.055.382.055.681.055h.979c1.171 0 1.606.626 1.606 2.23 0 1.144-.056 1.469-.273 1.823-.246.408-.735.653-1.333.653h-.979c-.299 0-.381 0-.681.053.055-.298.055-.38.055-.678zm0 8.841v-4.026c0-.302 0-.381-.055-.681.3.054.382.054.681.054h1.333c1.278 0 1.685.707 1.685 2.828 0 1.742-.461 2.45-1.821 2.45h-1.197c-.299 0-.381 0-.681.054.055-.3.055-.381.055-.679z" fill="url(#f)" fill-rule="nonzero"/></svg>