<svg fill="none" height="312" viewBox="0 0 421 312" width="421" xmlns="http://www.w3.org/2000/svg"><g fill="#fff"><path d="m105.832 43.5343v-16.0483h7.136c14.324 0 14.375-25.9235 0-25.9235h-14.5305v41.9718zm0-24.2191v-9.40524h6.516c4.964 0 4.964 9.40524 0 9.40524z"/><path d="m150.332 44.1052c25.441 0 25.441-43.32395 0-43.32395-25.443 0-25.443 43.32395 0 43.32395zm0-8.6997c-14.79 0-14.79-25.98243 0-25.98243 14.788 0 14.788 25.98243 0 25.98243z"/><path d="m203.348 43.5932-8.584-17.3416c10.859-3.5855 9.567-24.6891-3.62-24.6891h-14.582v42.0307h7.394v-16.0483h3.569l7.446 16.0483zm-19.392-33.62437h6.517c5.015 0 5.015 9.40527 0 9.40527h-6.517z"/><path d="m229.1 26.0171 6.204 8.6409c-1.188.5298-2.585.8232-4.188.8232-14.427 0-14.427-25.3946 0-25.3946 10.032 0 13.083 12.1684 9.308 19.6926l-2.586-3.7621zm11.169 15.6362 1.809 2.4109h8.171l-4.861-7.0542c8.946-11.9918 4.189-35.4475-14.272-35.4475-24.821 0-24.821 42.3839 0 42.3839 3.619 0 6.619-.8232 9.153-2.2931z"/><path d="m282.984 28.9559v-27.3934h-7.343v27.3345c0 8.8175-11.996 8.8175-11.996 0v-27.3345h-7.395v27.3934c0 19.986 26.734 19.986 26.734 0z"/><path d="m315.227 43.5932v-8.4063h-11.738v-8.4064h9.721v-8.4053h-9.721v-8.40637h11.117v-8.40633h-18.512v42.0307z"/><path d="m9.63786 101.875c-6.60947 0-9.63786 6.073-9.63786 10.643 0 4.257 2.69811 9.892 10.1328 9.892 4.1856 0 7.3804-1.816 9.8034-4.57 5.1772 5.383 8.0409 8.639 11.29 11.581 3.3595 3.006 6.4431 5.009 10.0785 5.009 3.8001 0 8.2608-2.191 12.2256-6.511l-5.0116-6.448c-2.643 2.88-5.0117 4.445-7.3243 4.445-1.5418 0-2.9189-.689-5.6179-3.068-2.8085-2.629-8.3159-8.264-11.3995-11.52 1.4314-3.004 2.6429-6.385 3.6346-9.516 7.9857.125 13.6026-2.6292 17.4028-5.8846 6.1136-5.1336 8.9221-12.3962 8.9221-18.1562 0-8.0135-4.9013-12.1452-10.0233-12.1452-11.2348 0-16.7423 13.5852-21.6987 27.2959-5.893-2.0036-6.2784-7.1999-6.2784-8.6399 0-5.6971 3.8001-7.5126 3.9105-7.5753l-4.1856-6.949c-4.1304 2.6918-7.21477 7.9508-7.21477 14.4616 0 7.5763 3.96487 13.5862 11.06927 16.2157-.6605 1.565-1.2667 3.193-1.9272 4.695-2.4783-1.94-5.0117-3.255-8.15044-3.255zm32.98874-26.3573c1.7617 0 2.5878 1.189 2.5878 3.3181 0 2.1908-1.3211 6.699-4.9565 10.2671-2.2575 2.1918-5.3419 4.0072-9.5827 4.4454 4.1304-11.1444 8.1513-18.0306 11.9514-18.0306zm-33.1543 39.2543c-1.4866 0-2.69899-1.002-2.69899-2.629 0-1.566 1.04683-3.006 2.69899-3.006 1.2115 0 2.699.877 4.5158 2.692-1.377 1.816-2.9188 2.943-4.5158 2.943z"/><path d="m80.2596 100.278c-2.2584 4.382-4.9573 6.699-7.6555 7.199 1.6522-3.819 2.4783-8.0131 2.4783-11.4567 0-7.2626-3.6898-11.6443-10.3536-11.6443-11.6754 0-17.0726 13.8352-17.0726 22.225 0 7.137 3.745 11.895 10.5735 11.895 4.9021 0 8.7566-2.567 11.5108-6.198 5.6169.501 10.6286-3.693 13.6026-9.516-.4406-1.19-1.9272-2.379-3.0835-2.504zm-22.0851 11.707c-1.321 0-2.1471-1.315-2.1471-3.319 0-4.632 4.2399-17.7792 8.591-17.7792 1.1564 0 2.148.9391 2.148 3.2554 0 1.5654-.4406 3.819-1.2115 6.2608-2.699-.125-4.6814 2.191-4.6814 5.008 0 1.377.4406 2.567 1.2115 3.506-1.2115 1.816-2.5886 3.068-3.9105 3.068z"/><path d="m83.4669 103.379c1.102-2.192 2.5334-5.4472 3.9657-8.6399-.1104 3.13.1095 7.0119.1095 9.7659 0 6.074-1.1011 7.764-2.8637 7.764-.7709 0-1.2115-.25-1.7073-.876l-4.8461 3.443c.0552.063 2.4782 4.257 9.3076 4.257 9.2524 0 14.6494-7.512 18.6694-15.714-.441-1.19-1.927-2.379-3.084-2.505-2.479 4.884-4.736 8.265-7.6549 10.894.1647-.751.2751-1.627.2751-3.381-.0552-3.943-1.2115-13.7733.2207-22.6005l-7.6002-2.1918c-2.0928 5.259-5.673 13.0226-7.8754 17.2793.4407 1.191 1.9273 2.38 3.0836 2.505z"/><path d="m142.721 69.5322c-12.722 5.3845-27.096 7.3881-27.096 20.347-.055 6.7617 4.516 11.5198 11.235 11.5198v-8.1389c-1.377 0-3.855-.7509-3.855-3.7563 0-5.259 7.875-7.1999 16.357-10.3926l-13.988 39.5678h8.756l12.006-34.0588c2.809-3.2554 5.838-5.2581 7.545-5.2581.991 0 1.487.5627 1.487 1.439 0 1.3155-1.157 4.5082-2.534 8.2645l-10.464 29.6134h8.757l11.841-33.6197c2.808-3.5691 6.058-5.6972 7.82-5.6972.937 0 1.432.5627 1.432 1.439 0 1.3155-1.156 4.5082-2.533 8.2645l-9.528 26.8574c-2.313 7.076-1.046 13.899 7.546 17.155l2.698-7.576c-3.194-1.878-3.249-4.131-2.093-7.762l11.511-32.4307c1.321-3.7563 2.037-6.5108 2.037-8.7026 0-3.5681-1.873-6.5108-5.452-6.5108-2.809 0-7.545 1.8781-11.345 6.1353-.111-3.3808-2.093-6.1353-5.508-6.1353-2.644 0-6.553 1.5654-9.693 4.4454z"/><path d="m207.424 100.278c-3.91 7.888-9.858 12.083-15.476 12.083-6.994 0-5.397-6.512-5.397-6.512 10.189 1.503 14.595-2.128 16.908-7.825 3.524-9.0154-1.762-13.648-7.985-13.648-11.786 0-17.349 14.7125-17.349 23.039 0 6.824 3.69 11.081 11.345 11.081 10.575 0 17.294-8.201 21.038-15.714-.44-1.19-1.928-2.379-3.084-2.504zm-12.391-7.9512c1.872 0 1.542 1.6899.826 3.5681-1.102 2.9427-2.754 5.5731-7.82 4.5711 0 0 2.919-8.1392 6.994-8.1392z"/><path d="m211.097 103.158c2.423-4.8204 5.287-11.3939 7.49-11.3939.66 0 .771.5636.771 1.6899 0 2.5673-.606 6.699-1.047 10.455l-12.061 14.149h6.334l5.232-6.198c.605 4.884 3.194 7.013 6.828 7.013 6.83 0 12.887-7.513 16.963-15.715-.44-1.19-1.928-2.379-3.084-2.504-3.69 7.263-8.371 12.083-10.849 12.083-1.487 0-1.652-1.816-1.652-3.068 0-2.253.55-5.384.991-8.577l11.125-13.147-3.415-3.569-7.049 8.3899c0-5.0091-1.872-8.0135-5.948-8.0135-6.664 0-9.693 8.138-13.713 15.9016.44 1.19 1.928 2.379 3.084 2.504z"/><path d="m251.12 82.8322c2.589 0 4.847-2.5663 4.847-5.509 0-3.0682-2.258-5.4472-4.847-5.4472-2.698 0-4.846 2.379-4.846 5.4472 0 2.9427 2.148 5.509 4.846 5.509zm4.075 17.7178c-3.909 7.701-7.71 12.084-9.913 12.084-.936 0-1.927-.878.607-8.015l6.773-19.1568h-8.757l-6.223 17.4668c-4.02 11.332-.495 15.84 4.517 15.84 6.332 0 11.84-7.263 16.081-15.714-.441-1.19-1.928-2.379-3.085-2.505z"/><path d="m283.205 100.278c-3.91 7.888-9.858 12.083-15.42 12.083-1.983 0-5.618-.626-5.618-4.695 0-4.196 3.855-15.402 8.592-15.402 1.762 0 1.542 1.6282-1.598 8.953h8.758c4.68-10.5812 1.046-16.841-6.775-16.841-11.62 0-17.238 14.6498-17.238 23.039 0 6.824 3.69 11.081 11.345 11.081 10.575 0 17.293-8.201 21.038-15.714-.44-1.19-1.927-2.379-3.084-2.504z"/><path d="m315.836 100.278c-3.965 7.7-7.71 12.083-9.913 12.083-.992 0-1.927-.939.551-8.014l6.828-19.1574h-8.756l-1.542 4.2572s-1.212-5.0708-6.554-5.0708c-10.519 0-15.2 19.22-15.2 25.919 0 4.507 2.093 8.201 6.223 8.201 4.847 0 8.647-5.196 8.647-5.196s.716 5.196 6.443 5.196c6.719 0 12.061-7.2 16.357-15.714-.44-1.19-1.927-2.379-3.084-2.504zm-24.287 10.267c-1.102 0-1.762-.688-1.762-2.317 0-4.006 4.075-15.714 8.426-15.714 2.423 0 2.478 3.5063 2.478 3.5063l-3.58 10.0167s-2.533 4.508-5.562 4.508z"/><path d="m363.568 100.278c-3.966 7.7-7.711 12.083-9.914 12.083-.936 0-1.983-.815.551-8.014l2.699-7.4503c1.101-3.2554 1.652-5.3218 1.652-7.0745 0-3.2554-1.818-5.4462-5.343-5.4462-4.736 0-9.032 3.8808-10.353 5.3835-.056-3.1927-1.872-5.3835-5.342-5.3835-4.571 0-8.702 3.819-8.978 4.1317l1.158-3.3181h-8.757l-11.566 32.4924h8.757l7.435-20.8481c2.313-3.0044 4.846-4.4444 6.168-4.4444.826 0 1.487.5009 1.487 1.3145 0 1.0018-.936 3.5681-1.928 6.385-1.872 5.259-4.46 12.397-6.278 17.593h8.812l7.379-20.9108c2.314-2.879 4.847-4.3817 6.224-4.3817.826 0 1.432.5009 1.432 1.3772 0 .9391-.881 3.3809-1.928 6.3223l-.771 2.318c-3.965 11.143-1.542 16.089 4.186 16.089 6.608 0 11.896-7.012 16.301-15.714-.44-1.19-1.927-2.379-3.083-2.504z"/><path d="m395.103 100.278c-2.258 4.382-4.956 6.699-7.655 7.199 1.652-3.819 2.478-8.0131 2.478-11.4567 0-7.2626-3.69-11.6443-10.353-11.6443-11.676 0-17.073 13.8352-17.073 22.225 0 7.137 3.745 11.895 10.574 11.895 4.902 0 8.757-2.567 11.51-6.198 5.618.501 10.629-3.693 13.603-9.516-.441-1.19-1.927-2.379-3.084-2.504zm-22.084 11.707c-1.322 0-2.148-1.315-2.148-3.319 0-4.632 4.241-17.7792 8.591-17.7792 1.156 0 2.148.9391 2.148 3.2554 0 1.5654-.441 3.819-1.211 6.2608-2.699-.125-4.682 2.191-4.682 5.008 0 1.377.441 2.567 1.212 3.506-1.212 1.816-2.589 3.068-3.91 3.068z"/><path d="m398.311 103.379c1.102-2.192 2.533-5.4472 3.965-8.6399-.11 3.13.111 7.0119.111 9.7659 0 6.074-1.102 7.764-2.865 7.764-.771 0-1.211-.25-1.706-.876l-4.847 3.443c.055.063 2.478 4.257 9.307 4.257 9.253 0 14.65-7.512 18.67-15.714-.441-1.19-1.927-2.379-3.084-2.505-2.479 4.884-4.736 8.265-7.655 10.894.165-.751.275-1.627.275-3.381-.055-3.943-1.212-13.7733.221-22.6005l-7.601-2.1918c-2.092 5.259-5.673 13.0226-7.875 17.2793.441 1.191 1.927 2.38 3.084 2.505z"/><path d="m118.461 168.688c0 1.507-.402 2.901-1.203 4.181-.803 1.279-1.982 2.393-3.54 3.34s-3.47 1.683-5.737 2.209-4.881.789-7.842.789c-3.3312 0-6.2773-.272-8.837-.816-2.5597-.543-4.7272-1.174-6.5008-1.892-1.7735-.72-3.1693-1.439-4.1864-2.158-1.018-.719-1.6505-1.253-1.8975-1.604l-.231 5.102h-5.5524v-14.831h4.8121c.5553 1.227 1.3728 2.454 2.4519 3.681 1.0799 1.228 2.4986 2.34 4.2569 3.34 1.7574.999 3.9012 1.815 6.4303 2.446 2.5301.631 5.5372.947 9.0224.947 3.6705 0 6.4315-.492 8.2815-1.473 1.85-.983 2.776-2.139 2.776-3.472 0-1.122-.547-1.963-1.642-2.525-1.095-.56-2.545-.972-4.35-1.235-1.804-.263-3.847-.429-6.1293-.5-2.283-.07-4.6271-.167-7.0331-.289-2.4053-.123-4.7493-.342-7.0323-.658-2.2821-.315-4.3257-.841-6.1306-1.578-1.8042-.736-3.2534-1.752-4.3486-3.05s-1.6429-2.981-1.6429-5.049c0-3.191 1.5962-5.759 4.7893-7.706 3.1922-1.945 7.888-2.918 14.0874-2.918 2.8994 0 5.4753.193 7.7268.578 2.2513.386 4.2103.859 5.8763 1.421 1.665.56 3.038 1.165 4.117 1.814 1.08.649 1.882 1.218 2.406 1.709l.093-4.575h5.181v13.78h-4.673c-.185-.878-.778-1.859-1.781-2.946-1.002-1.087-2.374-2.104-4.117-3.051-1.743-.946-3.848-1.744-6.315-2.392-2.4683-.65-5.2751-.974-8.4215-.974-4.133 0-7.2097.395-9.2295 1.184-2.0206.789-3.0309 1.779-3.0309 2.971 0 1.017.5629 1.771 1.6886 2.262 1.1258.49 2.5988.859 4.4191 1.104 1.8194.245 3.9011.412 6.2452.5s4.7425.237 7.1944.447c2.4526.21 4.8506.517 7.1946.921 2.344.403 4.427 1.043 6.246 1.919 1.82.877 3.292 2.034 4.419 3.472 1.126 1.437 1.689 3.296 1.689 5.575z"/><path d="m170.039 161.114c0 3.121-.633 5.821-1.898 8.1-1.264 2.278-2.983 4.163-5.158 5.653-2.175 1.491-4.727 2.596-7.657 3.314-2.93.719-6.061 1.079-9.392 1.079s-6.454-.352-9.369-1.052c-2.915-.702-5.46-1.789-7.634-3.261-2.174-1.473-3.894-3.358-5.158-5.654-1.265-2.297-1.898-5.024-1.898-8.179 0-3.121.633-5.82 1.898-8.1 1.264-2.279 2.984-4.164 5.158-5.654s4.719-2.594 7.634-3.313 6.038-1.078 9.369-1.078 6.462.359 9.392 1.078 5.482 1.823 7.657 3.313 3.894 3.375 5.158 5.654c1.265 2.28 1.898 4.979 1.898 8.1zm-7.357-.21c0-2.209-.44-4.086-1.318-5.628-.879-1.543-2.074-2.788-3.586-3.734-1.512-.947-3.285-1.631-5.32-2.052-2.036-.421-4.21-.631-6.524-.631s-4.488.21-6.524.631-3.809 1.105-5.32 2.052c-1.512.946-2.707 2.182-3.586 3.707-.879 1.526-1.318 3.411-1.318 5.655 0 2.489.439 4.514 1.318 6.074.879 1.561 2.074 2.788 3.586 3.682 1.511.894 3.284 1.499 5.32 1.815 2.036.315 4.21.473 6.524.473s4.488-.166 6.524-.5c2.035-.333 3.808-.946 5.32-1.841 1.512-.893 2.707-2.121 3.586-3.682.878-1.559 1.318-3.567 1.318-6.021z"/><path d="m242.339 177.463h-27.621v-6.521h10.179v-20.986l-16.102 28.138h-4.441l-15.452-28.401v21.249h10.502v6.521h-27.529v-6.521h10.503v-20.723h-10.503v-6.469h21.653l13.648 25.298 14.529-25.298h20.634v6.469h-10.317v20.723h10.317z"/><path d="m292.695 161.114c0 3.121-.632 5.821-1.897 8.1-1.265 2.278-2.985 4.163-5.159 5.653-2.174 1.491-4.727 2.596-7.657 3.314-2.93.719-6.061 1.079-9.392 1.079s-6.455-.352-9.369-1.052c-2.915-.702-5.459-1.789-7.634-3.261-2.175-1.473-3.894-3.358-5.159-5.654-1.264-2.297-1.897-5.024-1.897-8.179 0-3.121.633-5.82 1.897-8.1 1.265-2.279 2.984-4.164 5.159-5.654s4.719-2.594 7.634-3.313c2.914-.719 6.038-1.078 9.369-1.078s6.462.359 9.392 1.078 5.483 1.823 7.657 3.313 3.894 3.375 5.159 5.654c1.265 2.28 1.897 4.979 1.897 8.1zm-7.357-.21c0-2.209-.439-4.086-1.318-5.628-.88-1.543-2.075-2.788-3.586-3.734-1.511-.947-3.285-1.631-5.321-2.052-2.035-.421-4.21-.631-6.523-.631s-4.488.21-6.523.631c-2.036.421-3.81 1.105-5.321 2.052-1.511.946-2.707 2.182-3.586 3.707-.879 1.526-1.319 3.411-1.319 5.655 0 2.489.44 4.514 1.319 6.074.879 1.561 2.075 2.788 3.586 3.682s3.285 1.499 5.321 1.815c2.035.315 4.21.473 6.523.473s4.488-.166 6.523-.5c2.036-.333 3.81-.946 5.321-1.841 1.511-.893 2.706-2.121 3.586-3.682.879-1.559 1.318-3.567 1.318-6.021z"/><path d="m341.897 168.688c0 1.507-.4 2.901-1.203 4.181-.801 1.279-1.981 2.393-3.539 3.34-1.557.947-3.47 1.683-5.737 2.209s-4.881.789-7.842.789c-3.332 0-6.277-.272-8.837-.816-2.56-.543-4.727-1.174-6.5-1.892-1.774-.72-3.17-1.439-4.188-2.158s-1.65-1.253-1.896-1.604l-.232 5.102h-5.552v-14.831h4.812c.555 1.227 1.372 2.454 2.452 3.681 1.079 1.228 2.498 2.34 4.256 3.34 1.759.999 3.902 1.815 6.432 2.446 2.529.631 5.536.947 9.021.947 3.671 0 6.431-.492 8.282-1.473 1.851-.983 2.776-2.139 2.776-3.472 0-1.122-.547-1.963-1.643-2.525-1.094-.56-2.544-.972-4.348-1.235-1.805-.263-3.849-.429-6.131-.5-2.282-.07-4.626-.167-7.032-.289-2.406-.123-4.75-.342-7.032-.658-2.283-.315-4.327-.841-6.131-1.578-1.804-.736-3.254-1.752-4.349-3.05s-1.642-2.981-1.642-5.049c0-3.191 1.596-5.759 4.788-7.706 3.192-1.945 7.888-2.918 14.088-2.918 2.9 0 5.475.193 7.727.578 2.252.386 4.21.859 5.875 1.421 1.666.56 3.039 1.165 4.118 1.814 1.08.649 1.882 1.218 2.406 1.709l.092-4.575h5.183v13.78h-4.673c-.185-.878-.779-1.859-1.781-2.946-1.003-1.087-2.376-2.104-4.118-3.051-1.743-.946-3.848-1.744-6.316-2.392-2.467-.65-5.275-.974-8.42-.974-4.133 0-7.21.395-9.23 1.184-2.021.789-3.03 1.779-3.03 2.971 0 1.017.562 1.771 1.688 2.262 1.126.49 2.598.859 4.418 1.104s3.902.412 6.246.5c2.345.088 4.743.237 7.195.447s4.85.517 7.194.921c2.344.403 4.426 1.043 6.246 1.919 1.82.877 3.293 2.034 4.419 3.472 1.125 1.437 1.688 3.296 1.688 5.575z"/><path d="m22.0755 248.247c.4922.186.7383.653.7383 1.307v12.778c0 1.213-.6563 3.825-1.3126 5.411-1.8057 4.197-5.0872 6.435-9.5191 6.435-6.80999 0-10.4196-5.13-10.4196-14.831v-41.694c0-1.959.40922-4.384 1.14851-6.156 1.64073-4.478 4.75909-6.809 9.18999-6.809 6.4819 0 10.9128 5.596 10.9128 13.71v8.489c0 .559-.3281 1.026-.7383 1.026h-6.811c-.2461 0-.3271-.279-.3271-.838v-8.582c0-1.959-1.3956-3.825-2.8723-3.825-1.4776 0-2.87223 1.772-2.87223 3.825v43.28c0 1.865 1.23053 3.263 2.87223 3.263 1.6407 0 2.8723-1.398 2.8723-3.263v-12.219c0-.747.3271-1.307.7373-1.307z"/><path d="m34.8501 272.069c0 .745-.4922 1.306-1.1485 1.306h-5.9896c-.6573 0-1.1495-.561-1.1495-1.306v-65.481c0-.746.1641-1.119.5743-1.119h7.1391c.4102 0 .5742.373.5742 1.119z"/><path d="m46.526 213.584c-.4102 0-.7384.373-.7384.839v20.055h8.3697v9.141h-8.3697v20.334c0 .467.3282.747.7384.747h7.6313v8.674h-15.5088c-.6563 0-1.1485-.56-1.1485-1.305v-65.481c0-.746.1641-1.119.5743-1.119h16.083v8.115z"/><path d="m74.3057 263.954c.6563 0 .9844.185.9844.652v8.115c0 .466-.3281.654-.9844.654h-15.3437c-.6573 0-1.1495-.56-1.1495-1.306v-65.481c0-.746.1641-1.119.5743-1.119h7.1391c.4101 0 .5742.373.5742 1.119v57.366z"/><path d="m87.9751 272.069c0 .745-.4922 1.306-1.1485 1.306h-5.9896c-.6573 0-1.1495-.561-1.1495-1.306v-65.481c0-.746.1641-1.119.5743-1.119h7.1391c.4102 0 .5742.373.5742 1.119z"/><path d="m106.258 272.069c0 .745-.492 1.306-1.149 1.306h-6.0724c-.6563 0-1.1485-.561-1.1485-1.306v-57.738h-6.4819v-7.743c0-.746.1641-1.119.5743-1.119h20.1845c.411 0 .575.373.575 1.119v7.743h-6.482z"/><path d="m131.138 218.584c0-2.33-.986-3.638-2.709-3.638-1.64 0-2.543 1.213-2.543 3.638v43.001c0 2.612.821 3.825 2.461 3.825 1.642 0 2.791-1.587 2.791-3.825zm-13.95-1.212c0-7.182 4.678-12.684 10.749-12.684 6.482 0 11.734 5.688 11.734 12.684v44.866c0 2.331-1.149 5.505-2.954 8.022-2.133 2.985-4.841 4.383-8.452 4.383-4.102 0-6.974-1.772-9.026-5.689-1.394-2.519-2.051-5.036-2.051-7.648z"/><path d="m176.328 217.501c0-1.866-.984-3.264-2.379-3.264h-2.626c-.246 0-.41.187-.41.56v49.716c0 .466.246.839.656.839h2.38c1.395 0 2.379-1.492 2.379-3.544zm8.123 43.841c0 7.555-2.954 12.033-7.877 12.033h-12.144c-.657 0-1.149-.56-1.149-1.306v-65.201c0-.932.246-1.399.74-1.399h11.158c4.76 0 8.369 3.918 9.272 9.887z"/><path d="m197.307 213.584c-.41 0-.738.373-.738.839v20.055h8.37v9.141h-8.37v20.334c0 .467.328.747.738.747h7.632v8.674h-15.509c-.657 0-1.149-.56-1.149-1.305v-65.481c0-.746.164-1.119.575-1.119h16.083v8.115z"/><path d="m250.201 248.247c.493.186.739.653.739 1.307v12.778c0 1.213-.657 3.825-1.313 5.411-1.806 4.197-5.087 6.435-9.519 6.435-6.81 0-10.42-5.13-10.42-14.831v-41.694c0-1.959.41-4.384 1.149-6.156 1.641-4.478 4.759-6.809 9.189-6.809 6.483 0 10.914 5.596 10.914 13.71v8.489c0 .559-.328 1.026-.739 1.026h-6.811c-.246 0-.328-.279-.328-.838v-8.582c0-1.959-1.394-3.825-2.872-3.825-1.477 0-2.871 1.772-2.871 3.825v43.28c0 1.865 1.23 3.263 2.871 3.263 1.642 0 2.872-1.398 2.872-3.263v-12.219c0-.747.328-1.307.739-1.307z"/><path d="m269.418 218.584c0-2.33-.985-3.638-2.707-3.638-1.642 0-2.544 1.213-2.544 3.638v43.001c0 2.612.82 3.825 2.461 3.825s2.79-1.587 2.79-3.825zm-13.949-1.212c0-7.182 4.677-12.684 10.749-12.684 6.482 0 11.734 5.688 11.734 12.684v44.866c0 2.331-1.149 5.505-2.955 8.022-2.133 2.985-4.841 4.383-8.451 4.383-4.103 0-6.974-1.772-9.026-5.689-1.395-2.519-2.051-5.036-2.051-7.648z"/><path d="m292.452 234.664c2.133 0 3.199-1.212 3.199-3.637v-13.805c0-1.493-1.066-2.891-2.297-2.891h-2.953v20.333zm-2.133 37.405c0 .745-.493 1.305-1.15 1.305h-5.989c-.657 0-1.149-.56-1.149-1.305v-65.481c0-.746.164-1.119.575-1.119h12.963c4.924 0 8.863 4.663 8.863 10.355v14.923c0 3.078-1.642 5.41-4.678 6.622 2.954.653 4.513 2.798 4.513 6.437v29.568h-5.99c-1.723 0-2.626-1.865-2.626-5.503v-21.641c0-2.144-.82-3.264-2.543-3.264h-2.789z"/><path d="m323.855 254.719c.247 0 .329-.28.329-.839-.164-1.027-.739-6.903-2.791-27.518l-2.625 27.518c0 .559.082.839.246.839zm-6.072 8.674-1.231 8.955c0 .561-.41 1.026-.902 1.026h-6.646c-.247 0-.41-.28-.41-.746l8.45-65.201c0-1.12.493-1.958 1.232-1.958h6.646c.574 0 .82.372.984 1.678l9.272 64.081.082.374c.083.28.083.56.083.746 0 .652-.247 1.026-.657 1.026h-7.138c-.493 0-.656-.28-.903-1.585-.163-1.12-.985-6.436-1.231-8.396z"/><path d="m359.536 265.632c.657 0 .986.187.986.654v6.435c0 .466-.329.653-.986.653h-19.692l10.995-58.485h-10.011c-.656 0-.984-.186-.984-.652v-8.115c0-.467.328-.653.984-.653h20.596l-11.652 60.163z"/><path d="m378.793 231.084c0-2.331-.985-3.638-2.707-3.638-1.642 0-2.544 1.213-2.544 3.638v30.354c0 2.612.82 3.825 2.461 3.825s2.79-1.586 2.79-3.825zm-13.949-1.212c0-7.182 4.677-12.684 10.749-12.684 6.482 0 11.734 5.688 11.734 12.684v32.219c0 2.332-1.149 5.505-2.955 8.022-2.133 2.985-4.841 4.383-8.451 4.383-4.103 0-6.974-1.771-9.026-5.688-1.395-2.519-2.051-5.037-2.051-7.649z"/><path d="m413.604 205.469c.492 0 .902.56.902 1.399v65.201c0 .745-.492 1.305-1.148 1.305h-5.253l-8.369-35.632v35.632h-6.4c-.656 0-1.148-.56-1.148-1.305v-65.201c0-.839.41-1.399.984-1.399h5.415l8.534 37.777v-37.777z"/><path d="m364.236 205.469h22.483v7.657h-22.483z"/><path d="m325.788 298.676h-231.9187c-1.3551 0-2.4631-1.108-2.4631-2.463 0-1.354 1.108-2.462 2.4631-2.462h231.9187c1.354 0 2.463 1.108 2.463 2.462 0 1.355-1.109 2.463-2.463 2.463z"/><path d="m311.159 311.957h-201.665c-1.355 0-2.463-1.107-2.463-2.462 0-1.354 1.108-2.463 2.463-2.463h201.665c1.354 0 2.462 1.109 2.462 2.463 0 1.355-1.108 2.462-2.462 2.462z"/><path d="m78.0768 24.5858c0 4.5168-3.6617 8.1795-8.1795 8.1795-4.5168 0-8.1785-3.6627-8.1785-8.1795 0-4.5178 3.6617-8.1796 8.1785-8.1796 4.5178 0 8.1795 3.6618 8.1795 8.1796z"/><path d="m361.671 24.5858c0 4.5168-3.662 8.1795-8.18 8.1795-4.517 0-8.179-3.6627-8.179-8.1795 0-4.5178 3.662-8.1796 8.179-8.1796 4.518 0 8.18 3.6618 8.18 8.1796z"/></g><g stroke="#f5526b" stroke-linecap="round" stroke-linejoin="round" stroke-miterlimit="10" stroke-width=".000955"><path d="m24.4776 160.286c0-6.401 5.1887-11.59 11.5893-11.59s11.5893 5.189 11.5893 11.59c0 6.4-5.1887 11.589-11.5893 11.589s-11.5893-5.189-11.5893-11.589z"/><path d="m25 192.188 20.0141-24.096"/><path d="m45.3125 153.125-24.0949-20.013"/><path d="m388.804 165.496c0 6.4-5.189 11.589-11.59 11.589-6.4 0-11.589-5.189-11.589-11.589 0-6.401 5.189-11.59 11.589-11.59 6.401 0 11.59 5.189 11.59 11.59z"/><path d="m388.281 132.813-20.014 24.096"/><path d="m367.969 172.656 24.096 20.015"/></g></svg>