<svg fill="none" height="313" viewBox="0 0 413 313" width="413" xmlns="http://www.w3.org/2000/svg"><g fill="#fff"><path d="m91.8216 9.96882h6.567c2.1204 0 3.4134 1.88108 3.4134 4.23208 0 2.2932-1.293 4.2331-3.4134 4.2331h-2.12-4.447zm-7.4466 33.68318h14.6342c5.9978 0 10.9118-5.5842 10.9118-12.6384 0-3.2921-1.397-6.5253-3.828-8.4063 2.327-1.8222 3.31-5.1143 3.413-8.2886.156-7.40646-3.93-12.7562-10.4968-12.7562h-14.6342zm7.4466-16.8126h6.567c2.1204 0 3.7234 1.8231 3.7234 4.1742s-1.603 4.2321-3.7234 4.2321h-2.12-4.447z"/><path d="m141.007 43.5931v-8.4063h-11.738v-8.4063h9.722v-8.4054h-9.722v-8.40628h11.118v-8.40632h-18.512v42.0306z"/><path d="m179.109 11.0686.879-8.64179c-2.224-1.11666-4.705-1.64556-7.292-1.64556-25.027 0-25.079 42.67735 0 42.67735 2.587 0 5.844-.7055 8.119-1.7642l-.982-8.6998c-1.396.8233-3.93 1.8811-7.137 1.8811-14.633 0-14.633-25.62923 0-25.62923 3.207 0 5.016.99893 6.413 1.82213z"/><path d="m190.625 43.5585h8.377l1.448-4.5265h12.255l1.499 4.5265h8.326l-15.565-43.5585h-.775zm12.513-12.4039 3.465-10.9331 3.361 10.9331z"/><path d="m261.109 28.9559v-27.3934h-7.343v27.3345c0 8.8175-11.996 8.8175-11.996 0v-27.3345h-7.395v27.3934c0 19.986 26.734 19.986 26.734 0z"/><path d="m272.656 41.2246c5.016 2.9398 9.619 3.2333 11.687 3.0566 6.929-.4111 11.169-5.7609 11.169-12.7562 0-6.7009-4.964-10.463-10.704-12.8729-2.12-.8233-3.93-1.8811-4.136-4.2331-.156-2.3511 1.034-4.52551 3.671-4.70213 1.137-.05888 3.465-.11775 7.55 1.76333l.93-8.11199c-4.757-1.88105-7.291-1.88104-9.204-1.7633-6.154.35228-10.446 5.75992-10.446 12.81409 0 7.0542 5.172 10.4051 10.963 12.8151 2.069.8232 3.672 1.881 3.827 4.2909.206 2.2932-1.655 4.0565-3.827 4.2331-1.707.1757-6.308.0589-10.549-3.3509z"/><path d="m326.945 43.5931v-8.4063h-11.739v-8.4063h9.722v-8.4054h-9.722v-8.40628h11.118v-8.40632h-18.512v42.0306z"/><path d="m109.128 70.3125c-12.7218 5.3845-27.0963 7.3881-27.0963 20.347-.0543 6.7617 4.5167 11.5195 11.2357 11.5195v-8.1386c-1.3771 0-3.8553-.7509-3.8553-3.7564 0-5.259 7.8753-7.1999 16.3569-10.3925l-13.989 39.5675h8.757l12.005-34.0585c2.81-3.2554 5.838-5.2581 7.545-5.2581.992 0 1.488.5627 1.488 1.439 0 1.3155-1.157 4.5082-2.534 8.2645l-10.464 29.6131h8.757l11.841-33.6194c2.809-3.5691 6.058-5.6972 7.82-5.6972.937 0 1.432.5627 1.432 1.439 0 1.3155-1.157 4.5082-2.533 8.2645l-9.528 26.8581c-2.313 7.075-1.046 13.899 7.545 17.154l2.699-7.575c-3.195-1.879-3.249-4.132-2.093-7.763l11.51-32.4304c1.322-3.7563 2.037-6.5108 2.037-8.7027 0-3.5681-1.872-6.5108-5.452-6.5108-2.808 0-7.545 1.8782-11.344 6.1354-.111-3.3809-2.093-6.1354-5.508-6.1354-2.643 0-6.554 1.5655-9.693 4.4455z"/><path d="m173.83 101.058c-3.91 7.888-9.858 12.083-15.475 12.083-6.994 0-5.397-6.511-5.397-6.511 10.188 1.502 14.594-2.129 16.907-7.8258 3.525-9.0153-1.763-13.648-7.986-13.648-11.785 0-17.348 14.7126-17.348 23.0388 0 6.824 3.69 11.082 11.345 11.082 10.574 0 17.293-8.202 21.038-15.715-.441-1.19-1.927-2.379-3.084-2.504zm-12.392-7.951c1.873 0 1.543 1.69.826 3.5681-1.101 2.9427-2.753 5.5729-7.82 4.5709 0 0 2.919-8.139 6.994-8.139z"/><path d="m176.721 103.939c2.424-4.8211 5.288-11.3946 7.49-11.3946.661 0 .772.5636.772 1.6899 0 2.5673-.606 6.6987-1.047 10.4557l-12.061 14.149h6.334l5.231-6.199c.606 4.884 3.195 7.013 6.829 7.013 6.83 0 12.887-7.513 16.963-15.714-.441-1.19-1.928-2.379-3.084-2.505-3.69 7.263-8.371 12.084-10.849 12.084-1.488 0-1.652-1.817-1.652-3.068 0-2.254.55-5.385.99-8.578l11.126-13.1467-3.415-3.5691-7.049 8.39c0-5.0091-1.873-8.0135-5.948-8.0135-6.664 0-9.693 8.138-13.713 15.9013.44 1.19 1.927 2.379 3.083 2.505z"/><path d="m216.745 83.6125c2.589 0 4.846-2.5663 4.846-5.509 0-3.0682-2.257-5.4473-4.846-5.4473-2.699 0-4.847 2.3791-4.847 5.4473 0 2.9427 2.148 5.509 4.847 5.509zm4.075 17.7175c-3.91 7.701-7.71 12.084-9.912 12.084-.937 0-1.929-.877.605-8.015l6.774-19.1565h-8.757l-6.223 17.4665c-4.02 11.332-.496 15.84 4.516 15.84 6.334 0 11.841-7.262 16.082-15.714-.441-1.19-1.928-2.379-3.085-2.505z"/><path d="m248.829 101.058c-3.909 7.888-9.857 12.083-15.42 12.083-1.982 0-5.617-.626-5.617-4.695 0-4.196 3.855-15.4017 8.591-15.4017 1.763 0 1.543 1.6282-1.597 8.9527h8.757c4.681-10.5809 1.046-16.8408-6.775-16.8408-11.62 0-17.237 14.6498-17.237 23.0388 0 6.824 3.69 11.082 11.345 11.082 10.574 0 17.293-8.202 21.038-15.715-.441-1.19-1.927-2.379-3.085-2.504z"/><path d="m281.461 101.058c-3.966 7.701-7.711 12.083-9.913 12.083-.992 0-1.928-.939.55-8.014l6.829-19.1571h-8.756l-1.542 4.2572s-1.212-5.0709-6.554-5.0709c-10.519 0-15.2 19.2198-15.2 25.9188 0 4.507 2.093 8.202 6.223 8.202 4.846 0 8.646-5.197 8.646-5.197s.716 5.197 6.444 5.197c6.719 0 12.061-7.2 16.357-15.715-.44-1.19-1.928-2.379-3.084-2.504zm-24.288 10.267c-1.101 0-1.762-.688-1.762-2.316 0-4.007 4.076-15.7147 8.426-15.7147 2.423 0 2.478 3.5063 2.478 3.5063l-3.579 10.0174s-2.533 4.507-5.563 4.507z"/><path d="m314.277 101.058c-3.91 7.701-7.71 12.083-9.913 12.083-.936 0-1.983-.814.551-8.014l2.699-7.45c1.156-3.2554 1.652-5.3836 1.652-7.0745 0-3.3181-1.818-5.4463-5.288-5.4463-4.68 0-8.756 3.8191-9.031 4.1318l1.156-3.3181h-8.757l-11.565 32.4921h8.757l7.434-20.8478c2.314-3.0044 4.847-4.4444 6.168-4.4444.827 0 1.488.5009 1.488 1.3772 0 .9391-.881 3.3182-1.927 6.323l-.827 2.317c-3.91 11.081-1.542 16.09 4.185 16.09 6.61 0 11.897-7.013 16.302-15.715-.441-1.19-1.927-2.379-3.084-2.504z"/><path d="m317.061 103.378c1.102-2.192 2.533-5.4472 3.965-8.6398-.11 3.1299.111 7.0118.111 9.7658 0 6.074-1.102 7.764-2.864 7.764-.772 0-1.212-.25-1.707-.876l-4.847 3.443c.055.063 2.478 4.257 9.307 4.257 9.253 0 14.65-7.512 18.67-15.714-.441-1.19-1.927-2.379-3.084-2.504-2.478 4.883-4.736 8.264-7.655 10.893.165-.751.275-1.627.275-3.381-.055-3.943-1.212-13.7733.221-22.6004l-7.601-2.1918c-2.092 5.259-5.672 13.0225-7.875 17.2802.441 1.19 1.927 2.379 3.084 2.504z"/><path d="m174.954 177.411h-27.204v-6.521h9.485l-3.748-5.576h-20.727l-3.748 5.576h9.994v6.521h-25.725v-6.521h8.421l18.784-27.14h6.385l18.784 27.14h9.299zm-25.168-17.725-6.617-9.887-6.662 9.887z"/><path d="m241.505 168.838c0 3.12-1.064 5.593-3.192 7.416s-5.305 2.735-9.531 2.735c-2.498 0-4.534-.377-6.107-1.131s-2.877-1.692-3.91-2.814-1.897-2.341-2.591-3.655c-.694-1.315-1.396-2.534-2.105-3.655-.709-1.123-1.519-2.061-2.429-2.815-.91-.753-2.105-1.131-3.586-1.131h-12.723v7.101h10.456v6.574h-26.881v-6.574h9.809v-20.723h-9.809v-6.416h41.502c1.604 0 3.092.21 4.464.631 1.373.421 2.545 1.052 3.517 1.894.971.84 1.735 1.875 2.29 3.103.555 1.226.833 2.647.833 4.26 0 2.033-.294 3.708-.88 5.022-.585 1.316-1.38 2.35-2.382 3.103-1.003.754-2.183 1.28-3.539 1.578-1.358.299-2.822.447-4.396.447h-1.99c.648.457 1.227.983 1.736 1.578.508.597.987 1.228 1.434 1.894s.91 1.324 1.388 1.972c.478.649 1.033 1.227 1.666 1.736.632.508 1.372.921 2.22 1.236.849.316 1.874.473 3.077.473 1.172 0 2.136-.123 2.892-.368.756-.246 1.349-.561 1.781-.946.431-.387.733-.825.902-1.316.17-.49.255-.982.255-1.472zm-16.748-14.885c0-1.227-.432-2.165-1.296-2.814-.863-.648-2.375-.973-4.534-.973h-23.596v7.575h23.735c1.85 0 3.262-.307 4.234-.921.971-.614 1.457-1.569 1.457-2.867z"/><path d="m296.673 177.463h-52.142v-6.574h10.457v-20.88h-10.457v-6.259h52.142v13.675h-5.875v-7.416h-29.148v7.153h15.082v-5.102h5.136v16.252h-5.136v-5.102h-15.082v7.679h29.148v-8.888h5.875z"/><path d="m20.5139 248.247c.4923.186.7384.653.7384 1.307v12.778c0 1.213-.6563 3.825-1.3136 5.411-1.8048 4.197-5.0862 6.435-9.5181 6.435-6.81003 0-10.4206-5.13-10.4206-14.831v-41.694c0-1.959.410182-4.384 1.14948-6.156 1.64073-4.478 4.75811-6.809 9.19002-6.809 6.4818 0 10.9128 5.596 10.9128 13.71v8.489c0 .559-.3282 1.026-.7384 1.026h-6.8109c-.2461 0-.3272-.279-.3272-.838v-8.582c0-1.959-1.3956-3.825-2.8722-3.825-1.47766 0-2.87324 1.772-2.87324 3.825v43.28c0 1.865 1.23151 3.263 2.87324 3.263 1.6407 0 2.8722-1.398 2.8722-3.263v-12.219c0-.747.3272-1.307.7374-1.307z"/><path d="m33.2876 272.069c0 .745-.4922 1.306-1.1485 1.306h-5.9896c-.6563 0-1.1495-.561-1.1495-1.306v-65.481c0-.746.1641-1.119.5752-1.119h7.1382c.4101 0 .5742.373.5742 1.119z"/><path d="m45.7457 213.584c-.4102 0-.7384.373-.7384.839v20.055h8.3697v9.141h-8.3697v20.334c0 .467.3282.747.7384.747h7.6313v8.674h-15.5088c-.6563 0-1.1494-.56-1.1494-1.305v-65.481c0-.746.165-1.119.5752-1.119h16.083v8.115z"/><path d="m72.7432 263.954c.6563 0 .9854.185.9854.652v8.115c0 .466-.3291.654-.9854.654h-15.3437c-.6563 0-1.1495-.56-1.1495-1.306v-65.481c0-.746.1641-1.119.5752-1.119h7.1382c.4102 0 .5742.373.5742 1.119v57.366z"/><path d="m86.4126 272.069c0 .745-.4922 1.306-1.1485 1.306h-5.9896c-.6563 0-1.1495-.561-1.1495-1.306v-65.481c0-.746.1641-1.119.5752-1.119h7.1382c.4102 0 .5742.373.5742 1.119z"/><path d="m104.696 272.069c0 .745-.493 1.306-1.148 1.306h-6.0729c-.6563 0-1.1485-.561-1.1485-1.306v-57.738h-6.4828v-7.743c0-.746.164-1.119.5752-1.119h20.185c.41 0 .574.373.574 1.119v7.743h-6.482z"/><path d="m129.574 218.584c0-2.33-.985-3.638-2.708-3.638-1.641 0-2.543 1.213-2.543 3.638v43.001c0 2.612.82 3.825 2.461 3.825 1.642 0 2.79-1.587 2.79-3.825zm-13.949-1.212c0-7.182 4.677-12.684 10.75-12.684 6.482 0 11.733 5.688 11.733 12.684v44.866c0 2.331-1.15 5.505-2.954 8.022-2.133 2.985-4.841 4.383-8.452 4.383-4.103 0-6.974-1.772-9.025-5.689-1.395-2.519-2.052-5.036-2.052-7.648z"/><path d="m174.765 217.501c0-1.866-.984-3.264-2.379-3.264h-2.626c-.245 0-.409.187-.409.56v49.716c0 .466.246.839.655.839h2.38c1.395 0 2.379-1.492 2.379-3.544zm8.124 43.841c0 7.555-2.954 12.033-7.876 12.033h-12.145c-.657 0-1.149-.56-1.149-1.306v-65.201c0-.932.246-1.399.739-1.399h11.16c4.758 0 8.369 3.918 9.271 9.887z"/><path d="m195.745 213.584c-.41 0-.739.373-.739.839v20.055h8.37v9.141h-8.37v20.334c0 .467.329.747.739.747h7.631v8.674h-15.508c-.657 0-1.149-.56-1.149-1.305v-65.481c0-.746.164-1.119.574-1.119h16.083v8.115z"/><path d="m248.639 248.247c.492.186.738.653.738 1.307v12.778c0 1.213-.657 3.825-1.313 5.411-1.805 4.197-5.087 6.435-9.518 6.435-6.811 0-10.421-5.13-10.421-14.831v-41.694c0-1.959.41-4.384 1.149-6.156 1.641-4.478 4.759-6.809 9.19-6.809 6.482 0 10.913 5.596 10.913 13.71v8.489c0 .559-.328 1.026-.738 1.026h-6.811c-.246 0-.328-.279-.328-.838v-8.582c0-1.959-1.396-3.825-2.872-3.825-1.477 0-2.873 1.772-2.873 3.825v43.28c0 1.865 1.232 3.263 2.873 3.263s2.872-1.398 2.872-3.263v-12.219c0-.747.328-1.307.738-1.307z"/><path d="m267.855 218.584c0-2.33-.985-3.638-2.708-3.638-1.641 0-2.543 1.213-2.543 3.638v43.001c0 2.612.82 3.825 2.461 3.825 1.642 0 2.79-1.587 2.79-3.825zm-13.949-1.212c0-7.182 4.677-12.684 10.75-12.684 6.481 0 11.733 5.688 11.733 12.684v44.866c0 2.331-1.149 5.505-2.954 8.022-2.134 2.985-4.841 4.383-8.452 4.383-4.103 0-6.974-1.772-9.026-5.689-1.394-2.519-2.051-5.036-2.051-7.648z"/><path d="m290.889 234.664c2.134 0 3.2-1.212 3.2-3.638v-13.804c0-1.493-1.066-2.891-2.296-2.891h-2.955v20.333zm-2.133 37.405c0 .745-.493 1.305-1.148 1.305h-5.99c-.657 0-1.149-.56-1.149-1.305v-65.481c0-.746.164-1.119.574-1.119h12.965c4.923 0 8.862 4.663 8.862 10.355v14.923c0 3.078-1.641 5.41-4.677 6.622 2.954.653 4.512 2.798 4.512 6.437v29.568h-5.99c-1.723 0-2.626-1.865-2.626-5.503v-21.641c0-2.144-.82-3.264-2.542-3.264h-2.791z"/><path d="m323.074 254.719c.246 0 .328-.28.328-.839-.164-1.027-.739-6.903-2.79-27.518l-2.625 27.518c0 .559.081.839.245.839zm-6.072 8.674-1.231 8.955c0 .561-.41 1.026-.902 1.026h-6.647c-.246 0-.41-.28-.41-.746l8.451-65.201c0-1.12.492-1.958 1.232-1.958h6.645c.575 0 .821.372.985 1.678l9.272 64.081.082.374c.082.28.082.56.082.746 0 .652-.246 1.026-.656 1.026h-7.139c-.492 0-.656-.28-.903-1.585-.163-1.12-.984-6.437-1.23-8.396z"/><path d="m357.974 265.632c.656 0 .985.187.985.654v6.435c0 .466-.329.653-.985.653h-19.693l10.995-58.485h-10.01c-.657 0-.985-.186-.985-.652v-8.115c0-.467.328-.653.985-.653h20.595l-11.651 60.163z"/><path d="m377.23 231.084c0-2.331-.984-3.638-2.707-3.638-1.642 0-2.543 1.213-2.543 3.638v30.354c0 2.612.819 3.825 2.46 3.825 1.643 0 2.79-1.586 2.79-3.825zm-13.949-1.212c0-7.182 4.678-12.684 10.75-12.684 6.482 0 11.734 5.688 11.734 12.684v32.219c0 2.332-1.149 5.505-2.955 8.022-2.133 2.985-4.84 4.383-8.451 4.383-4.104 0-6.975-1.771-9.026-5.688-1.394-2.519-2.052-5.037-2.052-7.649z"/><path d="m412.04 205.469c.494 0 .904.56.904 1.399v65.201c0 .745-.493 1.305-1.15 1.305h-5.251l-8.37-35.632v35.632h-6.399c-.658 0-1.149-.56-1.149-1.305v-65.201c0-.839.409-1.399.983-1.399h5.416l8.535 37.777v-37.777z"/><path d="m363.455 205.469h22.483v7.657h-22.483z"/><path d="m324.226 299.456h-231.9192c-1.3541 0-2.463-1.108-2.463-2.463 0-1.354 1.1089-2.462 2.463-2.462h231.9192c1.354 0 2.463 1.108 2.463 2.462 0 1.355-1.109 2.463-2.463 2.463z"/><path d="m309.597 312.738h-201.665c-1.355 0-2.463-1.107-2.463-2.462s1.108-2.464 2.463-2.464h201.665c1.354 0 2.463 1.109 2.463 2.464s-1.109 2.462-2.463 2.462z"/><path d="m76.5143 24.5858c0 4.5168-3.6617 8.1795-8.1795 8.1795-4.5168 0-8.1786-3.6627-8.1786-8.1795 0-4.5178 3.6618-8.1796 8.1786-8.1796 4.5178 0 8.1795 3.6618 8.1795 8.1796z"/><path d="m360.108 24.5858c0 4.5168-3.662 8.1795-8.179 8.1795-4.516 0-8.179-3.6627-8.179-8.1795 0-4.5178 3.663-8.1796 8.179-8.1796 4.517 0 8.179 3.6618 8.179 8.1796z"/></g><g stroke="#f5526b" stroke-linecap="round" stroke-linejoin="round" stroke-miterlimit="10" stroke-width=".000955"><path d="m22.9151 160.286c0-6.401 5.1887-11.59 11.5893-11.59s11.5894 5.189 11.5894 11.59c0 6.4-5.1888 11.589-11.5894 11.589s-11.5893-5.189-11.5893-11.589z"/><path d="m23.4375 192.969 20.0141-24.096"/><path d="m43.75 153.125-24.0949-20.013"/><path d="m387.241 165.496c0 6.4-5.189 11.589-11.589 11.589-6.401 0-11.59-5.189-11.59-11.589 0-6.401 5.189-11.59 11.59-11.59 6.4 0 11.589 5.189 11.589 11.59z"/><path d="m386.719 133.594-20.014 24.095"/><path d="m366.406 172.656 24.096 20.016"/></g></svg>