<svg fill="none" height="219" viewBox="0 0 600 219" width="600" xmlns="http://www.w3.org/2000/svg"><g fill="#fff"><path d="m319.947 207.228c.212 2.018.421 4.033 3.456 3.732 3.082-.316 2.845-2.428 2.557-5.406l-1.688-16.635c-.187-1.684-.395-3.9-3.373-3.599-3.139.306-2.902 2.705-2.744 4.207zm12.547-.011c.187 1.975.187 2.687-.474 4.271l3.797 3.2-3.506 4.206-4.716-3.954c-.607.316-1.319.528-1.979.696-.658.158-1.319.277-2.001.356-5.618.582-9.282-1.527-9.781-6.444l-2.033-19.81c-.291-2.927.108-5.219 2.557-7.065 1.714-1.289 3.93-1.897 6.038-2.108 1.581-.173 3.955-.223 6.114.833 2.504 1.157 3.639 2.978 4.034 6.735z"/><path d="m333.398 179.996 6.301-.646 2.557 25.255c.183 1.814.42 4.084 3.344 3.793 2.903-.302 2.666-2.514 2.479-4.425l-2.583-25.201 6.329-.647 2.658 26.293c.449 4.429-1.023 8.571-8.484 9.321-5.855.593-9.386-1.99-9.939-7.582z"/><path d="m355.664 178.027 16.448-1.66.528 5.194-10.176 1.038.79 7.974 9.569-.969.528 5.136-9.569.977 1.056 10.438 10.65-1.084.524 5.247-16.896 1.717z"/><path d="m381.501 189.489 3.265-.345c2.848-.288 2.744-1.829 2.561-3.556l-.32-3.215c-.287-2.798-1.792-2.637-3.161-2.507l-3.269.345zm-7.673-13.549 12.497-1.265c6.113-.635 6.533 3.452 6.824 6.577l.399 3.653c.42 4.347-.848 5.245-3.797 6.218 1.53.237 4.742.833 5.191 5.402l.711 6.908c.187 1.738.503 3.505 1.929 4.428l-6.882.712c-.873-1.236-1.189-2.651-1.319-3.664l-.74-7.249c-.208-2.32-.395-3.954-3.66-3.624l-2.978.305 1.523 14.957-6.246.632z"/><path d="m406.42 206.783-6.225.639-3.483-33.949 6.224-.639z"/><path d="m415.865 200.615c2.924-.301 3.401-.355 3.929-.503 2.213-.564 2.001-2.543 1.897-3.778l-1.739-16.922c-.291-3.032-1.372-3.351-4.087-3.089l-2.454.24zm-9.224-28.351 10.093-1.027c2.033-.209 4.479-.464 6.774 1.451 1.954 1.634 2.454 3.926 2.716 6.613l1.609 15.869c.474 4.72.212 9.217-7.672 10.007l-10.069 1.027z"/><path d="m440.39 177.515c-.183-1.778-.421-4.221-3.452-3.93-3.215.345-2.953 2.928-2.766 4.799l1.739 17.119c.211 1.94.524 4.127 3.613 3.822 3.053-.302 2.816-2.676 2.658-4.307zm8.197 17.776c.24 2.497-.051 4.289-1.29 5.765-1.792 2.317-4.928 2.949-7.195 3.161-7.647.776-9.885-2.679-10.334-7.015l-1.925-18.976c-.158-1.451-.37-4.009 1.185-6.013 1.161-1.523 3.585-2.978 7.436-3.369 3.085-.334 5.56.248 7.277 1.383 1.814 1.224 2.579 2.938 2.895 6.207z"/><path d="m466.983 179.347-.449-4.336c-.237-2.543-.819-3.94-3.56-3.674-2.74.291-2.661 2.475-2.528 4.005l1.871 18.161c.212 2.029.708 3.822 3.506 3.545 2.924-.302 2.715-2.41 2.503-4.479l-.449-4.429 6.197-.636.499 4.813c.291 2.741.869 8.657-8.33 9.594-1.792.187-4.666.133-6.774-.959-2.874-1.49-3.136-4.155-3.323-6.038l-1.896-18.466c-.263-2.741-.317-4.626 1.052-6.455 2.191-2.902 6.013-3.337 7.331-3.484 9.224-.919 9.781 4.562 10.015 6.961l.553 5.245z"/><path d="m483.807 188.413 4.321-.449-3.531-14.35zm-3.718-23.039 7.169-.726 9.807 33.294-6.351.647-1.372-5.431-5.772.578-.345 5.618-6.272.646z"/><path d="m496.289 163.993 16.581-1.688.556 5.233-10.312 1.056.876 8.513 9.699-1.002.524 5.061-9.698.991 1.53 15.141-6.3.65z"/><path d="m515.625 161.649 16.448-1.688.528 5.205-10.202 1.045.816 7.971 9.569-.96.528 5.141-9.569.962 1.056 10.424 10.621-1.07.528 5.247-16.871 1.714z"/><path d="m534.375 159.899 6.06-.524-5.536 5.535z"/><path d="m245.98 89.1149c-.934.0934-1.871.3808-2.816.7795 1.448-.3449 2.884-.6071 4.292-.819-.449-.0251-.948-.0144-1.476.0395z"/><path d="m512.984 141.473c.478-.054.977-.187 1.451-.262-1.555.05-3.11.05-4.669 0 .98.262 2.033.381 3.218.262z"/><path d="m217.969 137.036c2.065-.686 4.03-1.451 5.916-2.27-2.217.765-4.181 1.447-5.862 2.008-.029.075-.043.183-.054.262z"/><path d="m512.643 144.209c.133-.014.237-.054.37-.068-.894.014-1.767.014-2.661 0 .736.107 1.476.147 2.291.068z"/><path d="m122.349.0376963c-1.329-.064655-2.687-.0538792-4.163.0933907-.528.068247-1.056.143678-1.584.197557 1.9-.12931 3.825-.2622121 5.747-.2909477z"/><path d="m542.751 58.7599c-.793-.1437-1.634-.2227-2.557-.1185-.37.0287-.765.1472-1.132.2083 1.261-.0754 2.5-.1006 3.689-.0898z"/><path d="m217.383 139.611c.133-.054.262-.104.409-.158-.147.054-.276.104-.409.133z"/><path d="m220.436 127.387c1.764-4.9 3.955-9.767 6.549-14.537 2.597-4.799 5.52-8.991 8.793-12.561 3.319-3.5452 6.508-5.4957 9.648-5.8118 3.99-.4202 6.142 1.3722 6.587 5.3233.029.3165.029.6605.029 1.0025.133-.791.208-1.5413.262-2.292-.011-.3843 0-.7651-.039-1.1315-.435-3.9439-2.594-5.7507-6.577-5.3268-3.136.3304-6.336 2.2665-9.645 5.8225-3.283 3.5598-6.196 7.7518-8.803 12.5328-2.615 4.777-4.785 9.637-6.567 14.554-1.293 3.639-2.216 6.775-2.704 9.436.108-.029.197-.079.301-.104.532-2.069 1.243-4.379 2.166-6.907z"/><path d="m218.03 137.397c.034 0 .061-.065.061-.144s-.027-.144-.061-.144-.061.065-.061.144.027.144.061.144z"/><path d="m189.52 147.07c-.075.119-.158.223-.233.331-.029.711-.029 1.393-.029 2.108.104-.158.223-.316.341-.474-.036-.661-.065-1.318-.079-1.965z"/><path d="m189.977 144.727c-.015.028-.029.028-.029.053-.05.352-.061.712-.104 1.078.043-.05.079-.104.104-.158.014-.208.014-.42.029-.629z"/><path d="m189.401 146.056c-.053.608-.118 1.186-.143 1.793.075-.104.172-.212.248-.331v-1.62c-.025.054-.051.105-.105.158z"/><path d="m190.059 148.205c-.043-.38-.043-.754-.079-1.135-.054.065-.079.119-.136.184 0 .646.028 1.307.082 1.964.079-.133.144-.237.223-.355-.021-.223-.065-.435-.09-.658z"/><path d="m189.858 144.727c-.014.211-.014.42-.014.632 0 0 .014-.029.028-.029-.014-.212-.014-.42-.014-.603z"/><path d="m189.887 145.312c-.015.011-.015.026-.043.04v1.62c.043-.068.097-.119.133-.198-.022-.499-.076-.973-.09-1.462z"/><path d="m381.521 41.8849c0-.0683-.025-.1186-.025-.1868-.029-.2335 0-.4454 0-.6825-.051.4203-.051.8693-.051 1.3183.022-.1581.051-.291.076-.449z"/><path d="m405.497 131.836c-.028.144-.028.302-.028.435 0-.105 0-.212.028-.331z"/><path d="m503.32 126.643c.029-.779.104-1.58.158-2.424-.054.37-.104.776-.129 1.146-.029.434-.029.883-.029 1.278z"/><path d="m478.711 113.179v.672c.054-.039.075-.093.104-.147 0-.209-.029-.406-.029-.618-.021.039-.05.065-.075.093z"/><path d="m135.352 51.0762c.262-2.0546.37-4.0337.316-5.959-.054.9375-.133 1.8965-.241 2.8592.029 1.0165 0 2.0582-.075 3.0998z"/><path d="m130.997 68.1744c-.478.9734-.977 1.9109-1.505 2.8484l20.999-7.2234c1.156-2.9239 1.792-5.8262 2-8.7213-.341 2.0941-.919 4.199-1.752 6.2967z"/><path d="m136.066 42.2666c-.568-5.2586-2.414-8.8578-5.539-10.7256-3.121-1.9145-7.209-2.5862-12.108-2.0833-7.594.7866-15.122 3.1609-22.6476 7.1695-7.5503 4.0087-14.709 9.1703-21.4296 15.4598-6.7457 6.2716-12.9813 13.4699-18.6351 21.6021-5.7076 8.1322-10.4669 16.7636-14.3391 25.9123-3.8541 9.1736-6.6846 18.5166-8.4913 28.1106-.5532 2.931-.934 5.855-1.2357 8.768.2766-2.094.5783-4.231.9734-6.365 1.8176-9.569 4.666-18.929 8.4878-28.089 3.8901-9.1451 8.6459-17.791 14.3679-25.9124 5.6393-8.1322 11.8858-15.3161 18.635-21.602 6.7206-6.2859 13.865-11.4512 21.4189-15.4598 7.5254-4.0086 15.0644-6.3793 22.6294-7.1839 4.932-.4993 8.991.1724 12.126 2.0941 3.136 1.875 4.957 5.4849 5.536 10.704.104.9519.158 1.9253.172 2.9131.104-.9734.169-1.9109.223-2.8592-.029-.819-.069-1.6595-.144-2.4533z"/><path d="m152.785 45.9307c-.539-5.1437-1.99-9.1487-4.36-12.1695-2.403-2.9634-5.327-5.176-8.754-6.6021-3.452-1.4475-7.353-2.2521-11.677-2.4604-4.322-.2012-8.621-.0539-12.849.3556-8.107.8405-16.7024 3.2148-25.7685 7.0869-9.0841 3.8757-18.0173 8.9009-26.8607 15.0575-8.7931 6.1386-17.1875 13.1753-25.0323 21.0596-7.8808 7.9347-14.6696 16.25-20.4383 25.0288-5.7723 8.7899-10.20473 17.8309-13.25071 27.0979-2.26293 6.932-3.448275 13.732-3.516522 20.373-.3699721 3.984-.38075 7.91.028733 11.771 1.580459 15.169 6.760069 26.509 15.553199 33.995 8.829 7.5 21.7313 10.33 38.7752 8.577 8.9619-.909 17.4497-3.427 25.4633-7.579 8.0245-4.113 15.0216-9.145 20.9696-15.05 5.891-5.934 10.424-12.468 13.668-19.602l-1.135.281c-3.107 6.063-7.17 11.713-12.285 16.896-5.941 5.902-12.9417 10.941-20.9697 15.065-8.0244 4.149-16.5015 6.667-25.4634 7.575-17.0151 1.742-29.9569-1.102-38.7608-8.563-8.8039-7.5-13.99786-18.836-15.553179-34.019-.290949-2.662-.366379-5.338-.27658-8.054.025144 1.836.104166 3.65.301723 5.482 1.555316 15.161 6.749276 26.494 15.553136 34.008 8.6998 7.378 21.444 10.212 38.1574 8.592.1976-.025.3807-.025.607-.039 6.7745-.701 13.2687-2.295 19.5187-4.838 2.0044-.805 3.9799-1.71 5.9447-2.716 8.0245-4.149 15.0216-9.17 20.97-15.075 4.296-4.339 7.852-8.991 10.754-13.973.499-.869.948-1.793 1.408-2.691.503-.973 1.042-1.95 1.505-2.938l-18.0709 4.311c-1.9253 5.797-4.6947 11.045-8.3836 15.736-3.6889 4.695-7.9849 8.606-12.8628 11.756-4.9282 3.176-10.1473 5.036-15.6825 5.618-3.6674.367-7.1695-.212-10.4131-1.717-3.2435-1.551-6.1674-3.768-8.7248-6.666-2.6114-2.874-4.7199-6.301-6.3829-10.32-1.6056-3.984-2.6581-8.24-3.1358-12.773-.3951-3.793-.4849-7.619-.3951-11.466.079-1.792.237-3.584.4382-5.377-.2012 1.53-.3053 3.071-.4382 4.612.158-5.273.686-10.596 1.6882-15.998 1.8211-9.584 4.6408-18.944 8.4878-28.0893 3.8757-9.1451 8.6458-17.7946 14.3391-25.9232 5.6537-8.1214 11.9037-15.3053 18.653-21.5912 6.523-6.1279 13.4699-11.1531 20.7831-15.1042.2083-.1042.4238-.2479.6214-.3556 7.0259-3.7428 14.0339-6.0345 21.0739-6.972.525-.0683 1.056-.1437 1.581-.1976 1.461-.158 2.848-.158 4.163-.1041 3.085.1293 5.761.8405 7.963 2.1587.316.1868.578.4131.869.6322 2.583 2.0187 4.153 5.3772 4.652 10.097.172 1.62.187 3.3226.108 5.0611.064 1.9253-.04 3.9044-.302 5.9698.075-1.0524.104-2.0941.075-3.0963-.183 1.6344-.42 3.3226-.815 5.0611-1.002 4.7162-2.716 9.1487-5.09 13.2579l1.638-.5675.92-.3017 18.426-6.365c.859-2.1228 1.437-4.2313 1.793-6.3542.129-.8261.183-1.6594.237-2.4892.093-1.4619.118-2.9131-.04-4.375z"/><path d="m127.76 160.547c0 .039-.026.09-.026.144v.107c.026-.079.026-.172.026-.251z"/><path d="m171.911 78.9646c3.218 2.6329 6.879 3.7033 10.995 3.2687 4.109-.3951 7.486-2.2162 10.065-5.4203 2.216-2.6867 3.268-5.7291 3.322-9.0768-.434 2.3958-1.397 4.6228-3.057 6.6666-2.597 3.2041-5.984 5.0108-10.097 5.4167-4.112.449-7.776-.6429-10.98-3.2543-3.201-2.6113-5.018-5.9842-5.413-10.097-.094-.6968-.054-1.3542-.054-2.0151-.262 1.4117-.37 2.888-.212 4.4397.399 4.1164 2.213 7.4856 5.431 10.0718z"/><path d="m196.27 60.9185c-.42-4.1236-2.242-7.4856-5.482-10.097-3.175-2.5934-6.857-3.7033-10.98-3.2687-4.124.4203-7.471 2.2414-10.068 5.4598-2.464 3.0029-3.506 6.4152-3.283 10.2012-.04.449-.04.8944-.051 1.3577.051-.1724.051-.3304.104-.4777.406 4.0769 2.213 7.421 5.406 10.0072 3.212 2.5826 6.865 3.6889 10.988 3.2543 4.102-.4382 7.475-2.2163 10.072-5.4418 1.545-1.9002 2.489-3.9691 2.978-6.1962.118-.5028.24-1.0021.291-1.5301.104-1.0525.133-2.1372.025-3.2687z"/><path d="m127.267 167.48c.621 5.945 2.582 10.453 5.905 13.499 3.333 3.017 7.909 4.217 13.707 3.61 6.825-.715 12.838-3.057 18.006-7.12 5.151-4.058 10.672-9.752 16.498-17.094 2.795-3.516 5.431-7.047 7.91-10.61 0-.697-.015-1.394.01-2.109-2.395 3.456-4.953 6.882-7.654 10.284-5.837 7.353-11.361 13.05-16.53 17.105-5.165 4.044-11.16 6.433-17.978 7.144-5.826.582-10.384-.632-13.707-3.649-3.348-3.021-5.298-7.529-5.916-13.484-.147-1.344-.147-2.795-.05-4.321 0-.029-.014-.079-.014-.108-.32 2.478-.399 4.784-.187 6.853z"/><path d="m185.08 148.062c-3.096 4.404-6.301 8.409-9.49 11.969-3.229 3.556-6.433 6.533-9.54 8.962-3.111 2.385-6.103 3.742-8.923 4.044-1.86.172-3.218-.356-4.048-1.645-.844-1.239-1.343-2.848-1.555-4.774.316-1.842.869-3.955 1.674-6.3 1.569-4.727 3.757-10.226 6.551-16.487 2.82-6.218 6.049-12.996 9.752-20.255 3.668-7.277 7.432-14.752 11.204-22.471l-1.002.129c-3.348 6.799-6.692 13.459-9.939 19.928-3.714 7.263-6.944 14.023-9.778 20.244-2.783 6.25-4.982 11.746-6.537 16.487-1.135 3.352-1.767 6.157-1.954 8.477-.262-2.676.399-6.354 1.979-11.056 1.57-4.748 3.772-10.23 6.538-16.501 2.837-6.211 6.063-12.981 9.78-20.248 2.82-5.56 5.665-11.322 8.567-17.144.42-.859.844-1.6886 1.265-2.5579.445-.9231.923-1.8318 1.372-2.7693l-30.342 4.0052c-6.918 14.896-12.6 27.457-17.094 37.575-4.073 9.203-6.013 16.861-5.811 22.978 0-.043 0-.093.025-.133 0 .09-.025.173-.025.252.025.578.053 1.181.104 1.738.607 5.945 2.582 10.453 5.905 13.466 3.322 3.007 7.881 4.26 13.707 3.639 2.715-.262 5.312-.841 7.776-1.645 3.704-1.229 7.105-3.043 10.202-5.482 5.179-4.062 10.704-9.755 16.53-17.097 2.776-3.481 5.402-7.022 7.877-10.568 0-.068.029-.158.029-.212 0-.319 0-.635.014-.937.014-.934.065-1.857.144-2.78-1.584 2.36-3.24 4.745-4.957 7.169z"/><path d="m189.872 144.727c-.014.053-.028.143-.028.212 0-.015.014-.026.028-.054z"/><path d="m251.953 103.179c.262-1.631.345-3.2041.262-4.7415-.05.7615-.129 1.5158-.248 2.2775.04.804.04 1.638-.014 2.464z"/><path d="m218.048 136.712c.158-.794.33-1.634.549-2.532-.104.039-.194.075-.301.104-.173.869-.277 1.688-.327 2.482.025-.029.05-.029.079-.054z"/><path d="m189.844 145.097c0-.133.028-.252.028-.37 0 0-.014 0-.028.025z"/><path d="m244.266 121.8c3.007-3.571 5.166-7.353 6.498-11.215.884-2.582 1.358-5.061 1.491-7.46-.266 1.649-.661 3.323-1.239 5.061-1.319 3.847-3.495 7.604-6.513 11.178-2.977 3.625-6.724 6.997-11.203 10.122-2.873 1.987-6.049 3.704-9.472 5.205 2.687-.948 5.729-2.019 9.235-3.269.424-.158.859-.33 1.29-.499 3.875-2.848 7.227-5.894 9.913-9.123z"/><path d="m189.962 143.818c.09-1.07.234-2.137.421-3.193-.133.201-.263.399-.396.578-.079.938-.129 1.861-.143 2.798.039-.068.075-.118.118-.183z"/><path d="m189.923 144.187c.011-.212.025-.406.054-.632-.043.079-.083.129-.122.197-.011.302-.011.618-.011.938.025-.158.05-.345.079-.503z"/><path d="m189.872 144.791c.011-.227.054-.424.054-.65-.028.172-.054.33-.082.517v.158c.014 0 .028-.025.028-.025z"/><path d="m190.663 139.453c-.133.201-.262.395-.395.593-.187 1.07-.316 2.123-.424 3.179.025-.029.025-.054.054-.083.212-1.236.449-2.464.765-3.689z"/><path d="m206.433 113.673c-.054.075-.129.197-.183.302.108-.09.183-.198.277-.277z"/><path d="m189.948 143.555c-.029.028-.029.054-.054.104-.025.187-.025.399-.05.607.025-.237.075-.474.104-.711z"/><path d="m251.079 105.684c-1.318 3.876-3.495 7.633-6.512 11.218-2.952 3.624-6.724 6.997-11.203 10.097-4.296 2.978-9.228 5.399-14.842 7.274-.212.898-.395 1.738-.553 2.543 1.688-.568 3.664-1.254 5.894-2.019 3.423-1.501 6.602-3.215 9.476-5.205 4.479-3.125 8.247-6.494 11.203-10.118 3.017-3.574 5.19-7.331 6.509-11.189.578-1.731.987-3.405 1.239-5.054.054-.841.054-1.631 0-2.45-.252 1.581-.632 3.215-1.211 4.903z"/><path d="m252.616 163.919c-8.739 5.797-18.757 9.267-30.115 10.438-9.82 1.013-17.478-.499-23.092-4.508-5.561-4.019-8.804-10.334-9.717-19.005-.05-.528-.061-1.056-.089-1.58-.133.158-.237.316-.345.474.029 1.16.054 2.345.187 3.506.923 8.685 4.138 14.996 9.698 19.03 5.618 3.983 13.287 5.51 23.107 4.511 11.347-1.16 21.376-4.641 30.118-10.427 8.722-5.787 17.504-13.854 26.326-24.264.898-1.081 1.792-2.162 2.662-3.243.186-.92.395-1.886.661-2.913-1.003 1.239-2.034 2.489-3.086 3.757-8.811 10.384-17.575 18.452-26.315 24.224z"/><path d="m268.324 113.97c-4.45 4.206-9.817 7.935-16.171 11.272-6.3 3.319-12.705 6.113-19.228 8.43-6.286 2.241-11.257 3.969-14.985 5.219-.133.054-.266.108-.399.158-.076.754-.129 1.505-.158 2.27v.094c3.757-1.279 8.829-3.018 15.287-5.313 6.516-2.331 12.92-5.144 19.246-8.434 6.34-3.322 11.702-7.065 16.16-11.282 3.951-3.689 5.93-7.737 5.984-12.087-.632 3.441-2.532 6.67-5.736 9.673z"/><path d="m206.108 114.427c.054-.079.129-.215.183-.305l.094.025c-.094.094-.173.201-.277.28zm73.01 19.081c-7.044 8.2-14.163 15.133-21.293 20.826-7.169 5.693-14.102 8.858-20.743 9.569-3.298.331-6.089.054-8.384-.869-2.32-.898-4.271-2.202-5.797-3.915-1.531-1.685-2.72-3.758-3.546-6.222-.833-2.385-1.357-4.888-1.648-7.446-.108-1.214-.173-2.396-.212-3.61v-.118c0-.173-.026-.356-.026-.543.026-1.447.065-2.898.212-4.321.051-.028.13-.054.18-.054.054-.79.158-1.609.33-2.464-.118.04-.222.076-.352.115.277-3.189 1.319-7.22 3.097-12.151 1.778-4.914 3.94-9.778 6.548-14.562 2.611-4.785 5.535-8.9513 8.804-12.5469.37-.3699.715-.6716 1.067-1.0308 1.964-1.8822 3.875-3.24 5.765-4.0051.944-.3951 1.896-.6824 2.816-.7794.528-.0503 1.016-.0611 1.49-.0359 1.778.079 3.097.7363 3.944 1.9504.604.8692.999 1.9899 1.146 3.398.115 1.2141.09 2.4784.011 3.7464.065 1.5409-.011 3.1103-.262 4.7413-.133 2.399-.607 4.882-1.491 7.461-1.332 3.861-3.491 7.629-6.498 11.214-2.687 3.247-6.038 6.289-9.914 9.134 6.067-2.213 12.051-4.835 17.928-7.935 6.365-3.329 11.731-7.051 16.157-11.264 3.006-2.813 4.852-5.841 5.617-9.016 0 .104.026.198.054.302.051.553.051 1.106.051 1.634.237-1.253.316-2.528.183-3.847.079-.9229.133-1.8604.028-2.7979-.528-4.9533-3.085-8.3261-7.737-10.0934-4.587-1.7133-10.323-2.2378-17.173-1.5409-6.799.7112-13.84 2.9382-21.138 6.7062-7.278 3.7428-13.898 8.477-19.828 14.102-5.97 5.643-10.726 12.026-14.289 19.124-2.371 4.748-3.764 9.597-4.213 14.525.133-.208.262-.391.395-.607.133-.194.262-.377.395-.578-.316 1.214-.568 2.453-.754 3.689-.036.241-.09.474-.115.715-.029.208-.029.406-.054.632 0 .108-.025.251-.025.37v.593c.025.488.079.977.104 1.472.039.385.039.755.079 1.139.025.223.068.435.093.654 1.013 8.333 4.178 14.436 9.609 18.365 5.6 3.977 13.258 5.507 23.075 4.505 5.129-.528 9.967-1.556 14.551-3.007 5.592-1.792 10.783-4.242 15.567-7.421 8.754-5.783 17.518-13.875 26.326-24.263 1.426-1.689 2.798-3.373 4.116-5.047.208-.697.42-1.433.682-2.177.291-.945.607-1.925.952-2.924.209-.528.421-1.11.604-1.659-2.005 2.658-4.163 5.402-6.484 8.168z"/><path d="m304.102 152.681c.028-.158.028-.316.053-.503v-.42c-.025.316-.053.607-.053.923z"/><path d="m280.664 147.404c.025-.302.054-.632.075-.92-.021.158-.05.316-.075.475z"/><path d="m307.407 141.819c2.37-6.734 6.217-15.973 11.544-27.65 5.323-11.664 12.177-26.1894 20.586-43.5314 8.383-17.3743 18.452-38.5812 30.237-63.60635l-.977.15805c-11.254 23.9081-20.927 44.2816-29.02 61.0094-8.408 17.3707-15.237 31.8823-20.564 43.5313-5.348 11.691-9.173 20.916-11.573 27.665-1.71 4.878-2.69 8.933-2.952 12.284v.421c.448-2.939 1.318-6.326 2.719-10.281z"/><path d="m280.83 154.864c.475 4.547 2.346 8.168 5.64 10.833 3.297 2.662 7.909 3.718 13.868 3.086 4.821-.507 9.569-2.245 14.235-5.223 4.612-2.988 9.066-6.641 13.287-10.937 4.217-4.35 8.168-8.962 11.861-13.959 1.077-1.437 2.083-2.848 3.081-4.256.105-.844.212-1.688.367-2.572-1.053 1.462-2.051 2.924-3.186 4.414-3.714 4.982-7.673 9.609-11.861 13.919-4.22 4.3-8.674 7.96-13.312 10.952-4.64 2.992-9.382 4.734-14.209 5.234-5.956.632-10.568-.421-13.862-3.082-3.297-2.662-5.169-6.275-5.646-10.837-.158-1.606-.209-3.24-.13-4.957v-.445c-.344 2.755-.395 5.352-.133 7.83z"/><path d="m338.634 7.13498c-7.619 16.72412-14.393 31.40802-20.323 44.04812-5.909 12.694-11.071 23.7788-15.475 33.24-4.428 9.5151-8.092 17.6869-11.045 24.5009-2.633 6.117-4.745 11.44-6.379 16.081-.183.553-.424 1.132-.604 1.66-.344 1.027-.66 1.979-.98 2.927-.234.751-.446 1.476-.654 2.187-.136.421-.266.845-.399 1.268-.237.895-.449 1.778-.686 2.633-.237 1.002-.474 1.98-.632 2.903-.054.287-.129.617-.183.894-.449 2.543-.636 4.943-.607 7.249.025-.158.054-.316.079-.475-.025.302-.054.604-.079.92.025.794.079 1.584.158 2.374.474 4.533 2.349 8.186 5.643 10.808 3.294 2.687 7.906 3.729 13.865 3.111 2.399-.237 4.77-.815 7.116-1.659 2.399-.873 4.745-2.087 7.09-3.585 4.641-2.981 9.095-6.631 13.312-10.941 4.192-4.321 8.172-8.937 11.864-13.944 1.394-1.846 2.662-3.653 3.951-5.46.212-.88.474-1.764.737-2.687.502-1.659 1.11-3.387 1.792-5.165-3.556 5.248-7.216 10.309-11.017 15.104-4.77 5.93-9.464 10.97-14.048 15.104-4.583 4.124-8.487 6.38-11.81 6.696-1.106.133-2.188-.209-3.165-.938-1.052-.776-1.659-1.936-1.763-3.488-.029-.201 0-.438-.029-.635-.025.158-.025.33-.054.503 0-.306.029-.622.054-.924-.158-3.742.794-8.645 2.981-14.867 2.396-6.749 6.222-15.973 11.574-27.665 5.323-11.6522 12.151-26.1781 20.556-43.5201 7.777-16.0955 17.005-35.5352 27.705-58.21842.399-.85848.794-1.71336 1.214-2.59698.449-.93391.87-1.85704 1.319-2.81969z"/><path d="m342.829 133.594c-.161.222-.319.42-.477.646-.13 1.423-.184 2.795-.158 4.084.028-.05.028-.075.028-.133.079-1.447.288-2.988.607-4.597z"/><path d="m366.286 144.141c-.025.344-.054.661-.075.951.05-.197.075-.398.104-.607v-.082c-.029-.061 0-.169-.029-.262z"/><path d="m342.216 138.281c0 .043-.028.079-.028.119v.118c.028-.075.028-.158.028-.237z"/><path d="m397.638 57.5288c-4.134.4238-7.773-.6825-10.991-3.2939-3.215-2.5826-5.036-5.9842-5.457-10.0826-.079-.6717-.025-1.3326-.025-1.9648-.266 1.3973-.395 2.8448-.237 4.375.42 4.1128 2.241 7.5144 5.453 10.1006 3.218 2.6042 6.857 3.7392 10.995 3.2938 4.112-.4346 7.485-2.2414 10.093-5.4598 2.191-2.6867 3.247-5.7184 3.298-9.0517-.424 2.3851-1.394 4.5977-3.029 6.6272-2.611 3.2184-6.012 5.0215-10.1 5.4562z"/><path d="m411.318 38.6257c-.42-4.1128-2.241-7.4569-5.459-10.097-3.215-2.5934-6.879-3.6745-10.988-3.2399-4.138.4202-7.486 2.2378-10.101 5.4562-2.446 3.0172-3.527 6.4583-3.294 10.2945.029.2227 0 .4346.029.6681 0 .0683.025.1365.025.1868.474 4.005 2.27 7.3815 5.431 9.9246 3.215 2.597 6.854 3.7033 10.992 3.2687 4.087-.4203 7.485-2.2414 10.097-5.4598 1.53-1.8822 2.475-3.9512 2.952-6.1638.13-.5137.237-1.0165.316-1.5445.105-1.0776.133-2.1624 0-3.2939z"/><path d="m366.24 143.993c.341-1.846.894-3.929 1.688-6.246 1.58-4.745 3.743-10.23 6.588-16.462 2.765-6.275 6.034-13.006 9.701-20.273 3.714-7.2737 7.432-14.7737 11.229-22.4964l-1.002.1473c-3.348 6.7708-6.671 13.4698-9.964 19.9246-3.689 7.2525-6.958 13.9975-9.727 20.2735-2.82 6.232-5.008 11.716-6.592 16.476-1.106 3.265-1.738 6.024-1.95 8.326v.251c0 .026.029.054.029.079z"/><path d="m342.306 145.453c.632 5.969 2.611 10.452 5.905 13.469 3.319 3.018 7.881 4.26 13.707 3.653 6.825-.714 12.809-3.085 18.003-7.133 5.194-4.073 10.675-9.742 16.501-17.094 3.535-4.429 6.775-8.869 9.781-13.362.184-.963.421-2.019.708-3.111-3.136 4.716-6.509 9.411-10.223 14.037-5.826 7.367-11.311 13.057-16.505 17.094-5.19 4.07-11.174 6.419-18.003 7.141-5.826.607-10.384-.618-13.707-3.649-3.322-3.021-5.273-7.5-5.934-13.47-.129-1.333-.129-2.755-.05-4.256v-.108c-.316 2.453-.395 4.72-.183 6.789z"/><path d="m408.297 112.88c-2.686 4.202-5.639 8.542-8.75 12.952-3.139 4.404-6.296 8.384-9.515 11.958-3.24 3.545-6.404 6.523-9.515 8.923-3.136 2.424-6.12 3.767-8.94 4.087-1.843.18-3.215-.373-4.059-1.663-.815-1.25-1.343-2.873-1.552-4.824-.054.212-.054.395-.082.607 0-.302.028-.607.054-.937-.263-2.662.42-6.315 1.979-10.927 1.58-4.756 3.768-10.252 6.587-16.473 2.77-6.275 6.035-13.01 9.727-20.2692 2.849-5.5891 5.697-11.3398 8.592-17.1768.428-.8441.848-1.6846 1.268-2.5431.474-.9339.898-1.8319 1.372-2.7658l-30.366 4.0194c-6.907 14.9031-12.604 27.4285-17.083 37.5895-.737 1.674-1.398 3.28-1.98 4.86-.682 1.782-1.289 3.51-1.792 5.169-.262.923-.524 1.807-.736 2.687-.054.237-.13.478-.187.725-.234 1.003-.445 1.965-.607 2.939-.158.873-.262 1.717-.366 2.543.158-.194.316-.42.474-.614-.316 1.58-.528 3.135-.604 4.583 0 .079 0 .162-.028.237.028.578.05 1.135.104 1.688.635 5.956 2.586 10.438 5.908 13.456 3.319 3.021 7.881 4.274 13.704 3.653 2.715-.277 5.301-.848 7.722-1.649 3.722-1.225 7.148-3.046 10.284-5.485 5.194-4.055 10.672-9.763 16.498-17.119 4.271-5.327 8.122-10.701 11.656-16.157.233-.711.471-1.455.761-2.212.054-.137.108-.266.159-.399.765-2.044 1.634-4.311 2.665-6.785-1.056 1.724-2.163 3.477-3.352 5.323z"/><path d="m429.492 137.403c.029-.222.054-.434.079-.66v-.22c-.025.288-.05.604-.079.88z"/><path d="m478.844 112.039v-.711c-.054.305-.104.607-.133.909.054-.054.079-.119.133-.169z"/><path d="m483.821 72.6302-29.39 3.046c-1.634 3.6135-3.904 8.3549-6.799 14.2349-2.928 5.9016-5.748 12.0039-8.571 18.3189-2.766 6.315-5.161 12.374-7.141 18.175-1.397 4.07-2.162 7.536-2.428 10.518.029.054 0 .133.029.222.395-2.464 1.081-5.204 2.137-8.315 2.001-5.801 4.4-11.861 7.141-18.175 2.848-6.329 5.668-12.4141 8.567-18.3229 2.873-5.8764 5.165-10.6214 6.799-14.2349l29.422-3.028 1.318-3.5848-.661.0646z"/><path d="m478.765 111.914c-.029.489-.054.966-.054 1.451.025-.029.054-.05.079-.079-.025-.46-.025-.909-.025-1.372z"/><path d="m549.61 80.81c-.737 4.745-1.897 9.6228-3.531 14.6695-1.66 5.0325-3.61 10.0825-5.963 15.1295-2.371 5.075-4.978 9.648-7.823 13.735-2.902 4.113-5.959 7.5-9.174 10.202-3.244 2.686-6.566 4.245-9.964 4.583-2.716.266-4.907-.51-6.617-2.317-1.688-1.846-2.69-4.389-3.035-7.644-.075-.793-.129-1.634-.158-2.503-.054 1.828-.025 3.531.133 5.086.345 3.269 1.344 5.798 3.032 7.619.973 1.056 2.108 1.709 3.398 2.069 1.559.053 3.11.064 4.669 0 2.899-.582 5.747-1.994 8.513-4.311 3.219-2.69 6.275-6.092 9.174-10.187 2.848-4.102 5.456-8.645 7.831-13.746 2.345-5.025 4.296-10.083 5.955-15.1185 1.634-5.0646 2.795-9.9533 3.531-14.6839.104-.7902.212-1.5553.291-2.3204.108-1.3183.187-2.5575.187-3.7284-.133 1.1063-.266 2.2665-.449 3.4662z"/><path d="m549.609 81.1414c.345-2.7012.503-5.1401.449-7.3133-.053 1.1423-.133 2.3168-.262 3.5704 0 1.1854-.082 2.4246-.187 3.7429z"/><path d="m503.161 131.756c-.158-1.57-.187-3.283-.133-5.101 0-.409 0-.844.029-1.264-.37 3.268-.42 6.192-.158 8.775.316 2.902 1.16 5.219 2.557 6.986 1.372.144 2.737.241 4.135.277-1.29-.356-2.425-1.013-3.398-2.069-1.689-1.821-2.687-4.364-3.032-7.604z"/><path d="m531.853 129.164c2.873-4.138 5.459-8.671 7.83-13.761 2.346-5.021 4.296-10.082 5.955-15.118 1.635-5.0578 2.795-9.9393 3.531-14.6806.266-1.6883.421-3.2436.557-4.745-.108.7651-.187 1.5301-.316 2.3312-.715 4.7342-1.875 9.6084-3.509 14.6695-1.66 5.0399-3.635 10.0859-5.956 15.1329-2.37 5.072-4.982 9.634-7.859 13.718-2.866 4.112-5.927 7.51-9.141 10.201-2.795 2.335-5.618 3.743-8.492 4.325 1.293-.051 2.586-.148 3.905-.277.894-.093 1.792-.277 2.712-.409.531-.392 1.084-.751 1.609-1.2 3.218-2.701 6.271-6.099 9.174-10.187z"/><path d="m546.923 63.8982c-1.659-1.8175-3.876-2.597-6.591-2.3204-3.373.3448-6.721 1.875-9.939 4.5905-3.269 2.712-6.297 6.1135-9.142 10.2012-2.902 4.0948-5.538 8.6422-7.83 13.6925-2.4 5.0862-4.404 10.126-5.984 15.169-1.635 5.036-2.82 9.928-3.556 14.565-.241 1.62-.428 3.14-.561 4.616.112-.726.187-1.455.32-2.206.736-4.651 1.922-9.486 3.534-14.547 1.606-5.065 3.607-10.097 5.985-15.158 2.316-5.0611 4.928-9.6229 7.798-13.7105 2.873-4.1092 5.934-7.4821 9.174-10.1976 3.218-2.7155 6.562-4.2457 9.939-4.5905 2.74-.2766 4.928.5029 6.591 2.3383 1.71 1.8427 2.737 4.3822 3.107 7.6545.079 1.0776.108 2.2665.108 3.5057.129-1.2643.212-2.4281.265-3.5596-.028-.8297-.082-1.6343-.136-2.385-.341-3.2544-1.365-5.7975-3.082-7.6581z"/><path d="m571.542 104.328c-2.769 7.011-6.803 13.351-12.022 18.991-5.248 5.643-11.412 10.28-18.477 13.972-7.094 3.65-14.577 5.905-22.54 6.75-1.764.172-3.506.247-5.248.287-.129.014-.233.05-.366.079-.815.083-1.555.025-2.292-.079-1.979-.054-3.929-.158-5.88-.395-4.504-.525-8.563-1.767-12.205-3.689-3.639-1.897-6.696-4.612-9.145-8.093-2.429-3.506-3.93-7.909-4.454-13.326-.054-.356-.054-.697-.083-1.042-.05-.621-.104-1.26-.129-1.867-.105.129-.209.262-.291.391-3.007 4.167-6.168 8.2-9.515 12.058-5.618 6.556-11.865 12.141-18.689 16.782-6.854 4.651-14.523 7.421-23.039 8.304-6.512.683-11.599-.556-15.129-3.703-3.56-3.15-5.618-7.5-6.197-13.035-.132-1.397-.186-2.798-.132-4.192-.238 2.198-.345 4.4-.105 6.613.579 5.535 2.637 9.885 6.171 13.021 3.556 3.139 8.617 4.404 15.155 3.696 8.488-.862 16.156-3.642 23.01-8.28 6.828-4.666 13.075-10.251 18.692-16.792 3.477-3.98 6.721-8.143 9.806-12.443.026.952.105 1.926.212 2.903.55 5.431 2.055 9.856 4.48 13.337 2.424 3.48 5.481 6.181 9.12 8.092 3.663 1.926 7.693 3.151 12.23 3.689 4.508.532 9.095.568 13.761.105 7.96-.841 15.474-3.108 22.539-6.757 7.087-3.682 13.258-8.333 18.477-13.958 5.22-5.643 9.278-11.969 12.023-18.995 1.792-4.454 2.845-8.9866 3.161-13.5879-.474 3.7679-1.423 7.4959-2.899 11.1639z"/><path d="m478.786 110.156c-.025.223-.054.464-.075.697v.715c.021-.46.05-.938.075-1.412z"/><path d="m583.499 88.486c-3.111-1.4762-6.01-3.5596-8.754-6.3002l-.18.0251c-.028-.7902-.107-1.5841-.158-2.3707-.028-.0539-.028-.1329-.028-.2011l.395-.0611c2.74 2.7514 5.643 4.8455 8.753 6.3218 1.527.74 3.136 1.2429 4.824 1.5051 1.685.2622 3.477.3161 5.349.1077l-.262-2.5359c-3.585.3736-6.617-.1796-9.12-1.6451-2.508-1.4512-4.853-3.3333-7.037-5.6286-2.166-2.2665-4.35-4.8096-6.62-7.5647-2.187-2.7945-4.849-5.2981-7.856-7.4964-3.006-2.2055-6.591-3.944-10.754-5.2335-4.138-1.2931-9.278-1.6235-15.395-.9914-7.353.7364-14.734 2.7551-22.087 5.9196-7.328 3.2004-13.786 7.4318-19.325 12.6652-5.56 5.2587-9.939 11.3327-13.074 18.2292-2.238 4.9426-3.481 10.172-3.689 15.657-2.191 2.978-4.429 5.97-6.804 8.991-3.48 4.44-7.14 8.549-10.987 12.256-3.854 3.703-7.755 6.763-11.656 9.267-3.876 2.489-7.669 3.926-11.383 4.282-2.4.251-4.35-.119-5.83-1.121-1.422-.977-2.292-2.687-2.532-5.101-.022-.226 0-.488-.022-.722-.028.234-.054.446-.082.669 0-.277.054-.593.082-.881-.187-3.455.604-7.776 2.425-13.099 1.975-5.805 4.375-11.85 7.144-18.165 2.849-6.3433 5.668-12.4281 8.563-18.3333 2.903-5.8764 5.169-10.625 6.832-14.2349l2.001-.2119 27.364-2.8197.341-.8944 1.002-2.6904-27.019 2.7658 13.441-28.6782-.944.1186-13.395 28.6566-1.264.1149 13.391-28.5991 1.214-2.5431 1.289-2.7587-29.522 4.1164-14.896 32.7371-1.577 3.6135c-4.17 9.332-7.618 17.0798-10.258 23.2221-1.315 3.0427-2.504 5.8657-3.556 8.4337-1.002 2.479-1.897 4.734-2.662 6.789-.054.133-.108.277-.158.395-.291.762-.532 1.487-.765 2.216-.212.593-.42 1.186-.578 1.75-.32 1.041-.636 2.029-.873 2.967-.288 1.109-.528 2.137-.737 3.11-.025.212-.079.424-.107.632-.395 2.152-.554 4.311-.474 6.459v.133c.025.632.053 1.278.132 1.921.604 5.525 2.637 9.875 6.193 13.025 3.534 3.15 8.624 4.389 15.133 3.692 2.978-.294 5.822-.847 8.595-1.612 5.162-1.423 9.961-3.636 14.444-6.667 6.824-4.652 13.074-10.241 18.689-16.793 3.376-3.875 6.537-7.934 9.569-12.112.053-.089.107-.172.158-.247l.053-2.256c.026-.212.054-.421.076-.632-.05.459-.05.937-.076 1.411v.022c0 .463 0 .912.026 1.372 0 .187.028.409.028.607.051.582.076 1.135.13 1.713.025.183.025.385.05.582.054.406.133.776.187 1.157.632 4.867 2.029 8.937 4.271 12.18 2.449 3.477 5.51 6.168 9.145 8.093 3.638 1.925 7.697 3.139 12.234 3.689.338.043.682.054 1.027.079-1.372-1.767-2.241-4.084-2.557-6.987-.262-2.553-.212-5.492.158-8.789 0-2.514.237-5.313.711-8.369.765-4.638 1.95-9.505 3.585-14.537 1.555-5.0611 3.556-10.097 5.955-15.1581 2.295-5.061 4.932-9.6228 7.831-13.7069 2.848-4.1128 5.905-7.5 9.148-10.2155.503-.4203.999-.7507 1.502-1.1207 2.399-1.699 4.824-2.7802 7.302-3.2435.37-.0611.737-.1689 1.132-.2084.923-.1077 1.767-.0251 2.582.1186 1.531.3053 2.903 1.0165 4.009 2.2018.158.1868.291.37.424.564 1.447 1.7816 2.371 4.1271 2.661 7.1049.159 1.4906.184 3.1501.105 4.9569.054 2.1479-.105 4.612-.449 7.3024-.133 1.5014-.291 3.0711-.554 4.7558-.736 4.7342-1.896 9.6228-3.534 14.6697-1.656 5.036-3.606 10.086-5.955 15.133-2.371 5.061-4.957 9.623-7.827 13.746-2.903 4.088-5.959 7.486-9.174 10.176-.528.46-1.081.83-1.609 1.211 6.932-1.028 13.548-3.097 19.824-6.351 7.09-3.664 13.232-8.333 18.477-13.973 5.219-5.614 9.253-11.954 12.018-18.962 1.559-3.9292 2.558-7.8839 2.982-11.8926.133-1.0524.212-2.1084.265-3.1645.026-.51.026-1.0237.051-1.5409 2.687 2.7155 5.56 4.7845 8.62 6.2212 3.082 1.5051 6.48 2.0439 10.176 1.6344l-.24-2.3851c-3.506.291-6.749-.237-9.673-1.6595z"/><path d="m587.909 69.371v-3.4699h2.295c1.185 0 2.45.2515 2.45 1.6487 0 1.717-1.294 1.8212-2.716 1.8212zm0 1.4224h1.95l2.953 4.8778h1.9l-3.193-4.9317c1.663-.2263 2.898-1.0812 2.898-3.0927 0-2.2198-1.318-3.1789-3.951-3.1789h-4.246v11.2033h1.689zm2.054 8.987c5.273 0 9.81-4.1092 9.81-9.7521 0-5.5604-4.537-9.6767-9.81-9.6767-5.348 0-9.885 4.1163-9.885 9.6767 0 5.6429 4.537 9.7521 9.885 9.7521zm-7.906-9.7521c0-4.6013 3.452-8.0532 7.906-8.0532 4.404 0 7.856 3.4519 7.856 8.0532 0 4.6911-3.452 8.1322-7.856 8.1322-4.454 0-7.906-3.4411-7.906-8.1322z"/></g></svg>