<svg fill="none" height="116" viewBox="0 0 400 116" width="400" xmlns="http://www.w3.org/2000/svg"><g fill="#fcc62a"><path d="m107.356 36.68-.412-1.2751c-.047-.1569.048-.3216.196-.3751l.822-.4462c.151-.0581.324.0323.37.1944l.446 1.3861c.048.1595-.033.3086-.193.3641l-.86.3526c-.154.038-.324-.0414-.369-.2008zm-2.802 1.6799-.446-1.3733c-.043-.1698.026-.3221.194-.3751l.837-.3647c.16-.0452.33.0284.377.2001l.443 1.3765c.045.151-.039.3208-.188.3789l-.853.3487c-.157.0587-.327-.0349-.364-.1911zm-2.882 1.3196-.436-1.3719c-.041-.1634.042-.3332.19-.3771l.841-.3699c.168-.0394.334.04.382.1975l.438 1.3868c.045.1698-.037.319-.192.3771l-.852.346c-.151.0536-.313-.0361-.371-.1885zm-3.678-.1175c-.0458-.1614.0375-.3157.1944-.3641l.8909-.2157c.1575-.0451.3306.0401.388.1911l.4313 1.3236c.0458.1614-.0426.3241-.2066.3802l-.8787.2576c-.1653.0433-.3228-.0426-.3777-.2046zm-2.9046.4578h.98c.1434-.0562.308.029.3738.1943l.3855 1.257c.0594.1646-.0142.3235-.1847.3822l-.9322.1014c-.1485.0478-.3112-.0407-.3629-.1808l-.4455-1.3836c-.0374-.1484.0452-.3195.186-.3705zm-3.1126.6262.9575-.0161c.1737-.0478.3241.0323.3667.1911l.4055 1.2667c.0606.1594-.0265.3325-.1911.3835l-.9162.1065c-.1704.0478-.3202-.0374-.377-.1911l-.4455-1.3797c-.0504-.1511.0394-.3247.2001-.3609zm-3.0938.3351.9704-.0058c.1511-.0607.3319.0316.3809.2027l.3958 1.2609c.0452.1627-.0407.3357-.2021.3783l-.9168.1111c-.1536.0484-.328-.0401-.3815-.2021l-.4378-1.3681c-.0458-.1491.0426-.3299.1911-.377zm-3.2152.1969h.962c.1485-.0652.3222.031.3758.1801l.3983 1.2674c.0646.1653-.0432.3247-.1943.3777l-.9136.111c-.1659.0594-.3428-.0336-.3815-.2008l-.4436-1.3739c-.0523-.1433.0336-.3079.1969-.3615zm-3.3049-.0859h.9723c.1453-.0342.3119.0426.3758.1918l.3912 1.2673c.0626.166-.0271.3299-.2027.3771l-.9149.1065c-.1575.0536-.3331-.0316-.3757-.1911l-.4442-1.3726c-.0471-.1607.04-.3222.1982-.379zm-3.1926.0568.9562-.0083c.1646-.0485.3293.0374.3686.1917l.4145 1.2693c.051.173-.0394.3267-.1975.3751l-.922.1117c-.1672.0478-.3254-.0375-.3828-.2002l-.4442-1.37c-.0471-.1459.04-.3189.2072-.3693zm-3.2758.0446h.9555c.1627-.0529.3273.0381.3641.1859l.4138 1.279c.0375.142-.0297.3183-.2027.3764l-.9239.1014c-.1472.0426-.3215-.0349-.3667-.1944l-.4371-1.3803c-.06-.1388.0213-.3125.197-.368zm-3.2811.0904.9678-.0071c.1575-.0452.3254.0336.3628.1943l.4197 1.2712c.0432.1556-.0368.317-.2014.3719l-.9362.1156c-.1414.0445-.3183-.0375-.3615-.195l-.4455-1.3778c-.0459-.1491.0426-.3247.1943-.3731zm-1.6521 1.7509-.9246.1014c-.1639.0561-.3241-.0349-.368-.1944l-.4506-1.3803c-.0529-.1388.0297-.3125.1911-.3622l.9562-.0058c.1717-.0529.3376.0381.3944.1859l.4023 1.279c.0458.1588-.0284.3183-.2008.3764zm-3.2094 0-.9362.1014c-.1601.0561-.3131-.0349-.3628-.1944l-.4455-1.3803c-.0503-.1388.0297-.3125.1956-.3622l.9717-.0058c.1491-.0529.3202.0381.3557.1859l.4042 1.279c.0659.1588-.0336.3183-.1827.3764zm34.2541-22.1415-.399-1.2745c-.049-.1562.035-.3241.203-.3777l.798-.4603c.155-.0452.326.0432.377.1943l.448 1.381c.042.1724-.04.3306-.209.379l-.829.3609c-.174.04-.352-.0478-.389-.2027zm-2.8156 1.6715-.4384-1.3623c-.0329-.164.0439-.3247.2156-.3828l.8225-.3564c.1569-.0562.3269.0316.3689.1853l.45 1.3803c.054.1588-.04.3338-.196.379l-.8443.357c-.1543.0446-.3319-.04-.3783-.2001zm-2.864 1.3254-.4319-1.3655c-.0485-.162.0226-.337.1827-.3796l.8457-.368c.1531-.0471.3196.0329.3622.195l.4474 1.3797c.064.1614-.0213.3254-.1852.3738l-.8471.3641c-.1388.0407-.3228-.0439-.3738-.1995zm-3.682-.1071c-.0452-.1537.0484-.3293.1995-.3777l.8916-.2176c.1627-.0452.3299.0458.3796.1917l.4216 1.3287c.0581.1614-.0264.3267-.1969.3738l-.8761.2602c-.1627.0478-.3047-.0413-.3764-.2014zm-2.893.4583.9658-.02c.1569-.0548.3222.0465.379.1963l.3964 1.2719c.0562.1543-.0303.3376-.1904.3647l-.931.1124c-.1485.0445-.3338-.0413-.3667-.2008l-.45-1.3629c-.0433-.153.04-.3131.1969-.3616zm-3.1216.6095h.9484c.1776-.0613.3454.0213.3945.184l.4048 1.2719c.0491.1543-.0465.3254-.2085.3783l-.9278.1014c-.1401.0555-.3183-.0323-.3828-.1976l-.4281-1.368c-.0471-.1569.0297-.317.1995-.37zm-3.0841.3564.9574-.0187c.155-.0478.3241.0323.3706.2014l.4126 1.2706c.0342.1414-.0446.3215-.1943.3648l-.9272.1039c-.1698.0504-.3131-.0239-.3764-.1866l-.4403-1.3739c-.0523-.1562.0246-.3266.1976-.3615zm-3.2384.1827.9761-.0148c.1485-.0504.3228.0432.3661.1936l.4132 1.2732c.0549.1569-.031.3189-.1988.3758l-.9259.1065c-.1569.0523-.3228-.0388-.3706-.2008l-.4409-1.3597c-.0594-.1588.0381-.3351.1808-.3738zm-3.2946-.0891h.9581c.1627-.0426.337.0375.397.1918l.388 1.266c.0575.173-.0329.3409-.1936.379l-.9239.1136c-.1569.0484-.3196-.0335-.3842-.1995l-.4358-1.3726c-.0471-.1543.0446-.3253.1944-.3783zm-3.1888.0639.9588-.0161c.1698-.0478.3105.0413.3777.1975l.4041 1.2713c.0368.1646-.04.3202-.2014.3699l-.9194.1123c-.1614.0562-.3266-.0296-.388-.1943l-.4229-1.3713c-.0613-.1569.0285-.3215.1911-.3693zm-3.2868.0317h.9749c.1549-.0543.3131.0322.3673.1917l.4042 1.2725c.0484.1537-.0387.319-.2021.3726l-.9193.111c-.1711.0426-.3209-.0374-.3848-.1943l-.432-1.3649c-.0574-.1575.0201-.3241.1918-.3886zm-3.2649.0962h.9555c.1672-.0446.3415.0322.3783.1865l.4068 1.2764c.0503.1498-.0452.3145-.1872.3687l-.9304.1246c-.1627.031-.3228-.0471-.3828-.2156l-.4423-1.3546c-.0432-.162.0459-.3325.2021-.386zm-1.645 1.7406-.9362.111c-.1666.0575-.3428-.0342-.379-.1943l-.428-1.3649c-.0614-.1575.0213-.3241.1898-.3777l.9574-.0109c.1569-.0543.319.0322.3745.1917l.4009 1.2796c.0465.1576-.0348.3196-.1794.3655zm-3.2294 0-.9342.111c-.1447.0575-.317-.0342-.3655-.1834l-.437-1.3758c-.0543-.1575.0355-.3241.193-.3777l.9665-.0109c.1511-.0543.3215.0374.3654.1917l.4055 1.2796c.0503.1576-.0343.3196-.1937.3655zm41.1112-11.6083c-9.0743 9.4919-22.8253 8.59-26.9948 8.59-12.3875 0-17.5298-.0265-17.5298-.0265l6.7499 20.778.0614-.0097s5.3379.0665 17.7345.0665c4.1533 0 16.8828-.2531 26.8398-8.3369z"/><path d="m57.0476 2.86591h-1.3338c-.1698 0-.3054-.13623-.3054-.2957l-.173-.91226c0-.15688.1201-.28536.2815-.30085h1.4546c.1801 0 .3073.12783.3073.30085l.0645.91226c0 .17432-.1375.2957-.2957.2957zm.7399 3.18032-1.4352.01808c-.1601-.01808-.3054-.133-.2918-.30086l-.0969-.91807c0-.15689.1311-.30021.3015-.28149l1.4585-.01872c.1595 0 .2763.14332.2763.30021l.0956.91807c-.0181.1543-.1356.28278-.308.28278zm.3913 3.14869h-1.4385c-.1601 0-.297-.13364-.297-.3015l-.0987-.90516c0-.16463.142-.29699.3002-.29699h1.4539c.164 0 .3015.13236.3015.29699l.0652.90516c.0149.16786-.1252.3015-.2866.3015zm-1.2216 3.46178c-.1626 0-.2995-.131-.2905-.2924l.0697-.911c0-.1679.1298-.306.2867-.306h1.3965c.1749 0 .2963.1272.2963.306l-.029.911c0 .1614-.1201.2924-.2867.2924zm-.4448 2.9105.2822-.9168c0-.1782.1323-.3099.3002-.3099h1.3306c.1691 0 .2957.1466.2957.3099l-.1898.9168c0 .1633-.1188.306-.2835.2931l-1.4403.0129c-.1627 0-.2951-.1427-.2951-.306zm-.3835 3.1706.306-.9264c0-.1673.1343-.3009.3015-.3009h1.3287c.1608 0 .2886.1336.2886.3009l-.1749.9264c0 .1569-.1363.2944-.2957.2944h-1.4398c-.1711 0-.3144-.1375-.3144-.2944zm-.5849 3.0364.2795-.9187c0-.1627.1401-.2899.3054-.2899h1.3345c.1556 0 .2841.1272.2776.2899l-.1691.9264c0 .1576-.1414.2951-.2931.2951h-1.4482c-.1672 0-.2866-.1375-.2866-.3028zm-.8012 3.1293.2815-.9207c0-.1704.1368-.2982.2982-.2982h1.3352c.1653 0 .2924.1414.2924.2982l-.1801.9181c0 .1685-.1252.3015-.2834.3015h-1.443c-.1769.0045-.3008-.133-.3008-.2989zm-1.0666 3.1287.2738-.922c0-.1633.1297-.3008.306-.3008h1.3106c.1827 0 .3099.1323.3099.3008l-.1789.922c-.0058.153-.131.2937-.2892.2937l-1.4449.0058c-.1575 0-.2873-.1465-.2873-.2995zm-.9342 3.0589.2886-.9213c0-.162.1291-.3002.2828-.3002h1.3493c.1666 0 .2989.1491.2989.3002l-.1859.9213c0 .1679-.1317.3009-.3041.3009h-1.4378c-.1575 0-.2918-.133-.2918-.3009zm-.951 3.1397.2931-.9123c0-.1711.124-.3144.2931-.3144h1.3332c.1627 0 .2867.1369.2867.3144l-.1814.9123c0 .1652-.1188.3008-.2841.3008h-1.4475c-.1549 0-.2931-.1356-.2931-.3008zm-.9097 3.137.2757-.9155c0-.1672.1375-.2969.3112-.2924l1.3254-.0045c.1711-.0078.3041.1297.3041.2969l-.1756.9155c.0026.166-.1375.3035-.3021.3035h-1.4404c-.1627 0-.2983-.1375-.2983-.3035zm1.1628 2.1035-.1918.9284c0 .1678-.1239.295-.2924.295h-1.4424c-.1568.0065-.2931-.1272-.286-.2873l.2802-.9361c0-.1543.1363-.2938.299-.2938h1.3222c.1698 0 .3112.1395.3112.2938zm-.9865 3.0705-.1763.9136c0 .1737-.1323.3086-.2989.3086h-1.4326c-.1601 0-.297-.1349-.297-.3086l.297-.9136c0-.162.1297-.3041.284-.3079l1.3403.0038c.166-.0038.2835.1421.2835.3041zm-10.6857-39.37568h-1.3267c-.166.01033-.3035-.13235-.3035-.30021l-.1788-.91226c0-.1543.1252-.2957.2866-.2957h1.4579c.1659 0 .3086.13236.3086.2957l.0697.91226c-.0149.16786-.1414.30021-.3138.30021zm.7483 3.18291h-1.441c-.1582 0-.308-.11686-.308-.28472l-.0684-.91807c0-.15947.122-.29828.2866-.29828l1.4553-.00258c.1736 0 .2995.14139.2995.30086l.0801.91807c0 .1627-.1479.28472-.3041.28472zm.3912 3.14998h-1.452c-.1562 0-.286-.13687-.286-.30409l-.0942-.91032c0-.15818.1426-.29634.3002-.29634h1.4449c.1769 0 .3112.13816.3112.29634l.0736.91032c0 .16722-.1343.30409-.2977.30409zm-1.2299 3.46629c-.1478 0-.2982-.1355-.2911-.3034l.069-.9194c0-.1665.1285-.2892.2944-.2815l1.3894-.0077c.1666 0 .3015.1227.3015.2892l-.0148.9194c0 .1679-.1375.3034-.2944.3034zm-.4422 2.9079.2944-.9226c0-.1756.1233-.3002.2944-.3002h1.3267c.1692 0 .2951.1356.2899.3002l-.1724.9226c0 .1524-.1368.2938-.2944.2796l-1.432.0142c-.1723 0-.3066-.1414-.3066-.2938zm-.3758 3.159.3009-.9084c0-.1743.1388-.3124.295-.3124h1.3274c.175 0 .3002.1381.3002.3124l-.1756.9084c0 .1601-.1355.2996-.2931.2996h-1.4449c-.1536 0-.3099-.1343-.3099-.2996zm-.601 3.0448.2956-.9097c-.0077-.1704.1279-.3118.299-.2957l1.319-.0161c.1685 0 .297.1414.297.3118l-.166.9097c0 .1653-.1414.3034-.2982.3034h-1.4508c-.153 0-.2866-.1381-.2956-.3034zm-.7845 3.1299.2899-.9206c0-.155.1246-.3035.288-.3035h1.3274c.173 0 .2982.1485.2905.3035l-.175.9161c0 .1659-.1252.2977-.2853.2977h-1.4456c-.1627 0-.2899-.1318-.2899-.2932zm-1.0807 3.1248.2918-.9187c0-.162.1239-.3028.2944-.3028h1.3345c.1588 0 .2757.1408.2757.3028l-.1556.9187c0 .1589-.1395.297-.2996.297h-1.4423c-.1647 0-.2989-.1381-.2989-.297zm-.9252 3.0603.2808-.9226c0-.1685.1421-.2996.3048-.2996h1.3409c.1569 0 .2899.1356.2899.2996l-.173.9226c0 .1607-.1446.3028-.3099.3028h-1.4359c-.1672 0-.2976-.1421-.2976-.3028zm-.9542 3.1396.2834-.9103c0-.173.1394-.3028.2892-.3028h1.341c.1691 0 .2983.1298.2983.3028l-.1879.9103c0 .1621-.1175.2983-.2867.2983h-1.4455c-.1576 0-.2918-.133-.2918-.2983zm-.902 3.1397.2764-.9142c0-.1711.1504-.3048.3073-.3048h1.3409c.1492 0 .2834.1337.2834.3048l-.182.9142c.0071.1575-.1195.2924-.2983.2924h-1.4275c-.1594 0-.3002-.1349-.3002-.2924zm1.157 2.1144-.1847.9155c0 .1691-.1355.284-.3015.284h-1.4332c-.1576.0155-.3061-.1207-.3061-.284l.2893-.9155c0-.1769.142-.3067.2995-.3144h1.3449c.1543 0 .2918.1375.2918.3144zm-.9891 3.0654-.1679.9129c0 .1666-.1343.295-.2892.297h-1.4533c-.1569 0-.2989-.1304-.2989-.297l.2905-.9181c0-.1736.1375-.2963.3015-.3041h1.3377c.1485 0 .2796.1304.2796.3093zm1.4371-42.707772c6.2761 11.533372 1.2448 24.358572-.0167 28.320072-3.7763 11.8213-5.3354 16.7042-5.3354 16.7042l21.8368-.1304v-.0439s1.6915-5.0714 5.4567-16.8914c1.2726-3.9654 4.8874-16.1586.2002-28.1019z"/><path d="m9.21429 40.4917-.42547 1.2603c-.04067.1562-.21434.2447-.37704.1911l-.9213-.1085c-.15688-.0523-.24017-.213-.20401-.366l.46226-1.3913c.05294-.1537.22597-.2389.36994-.186l.89677.2189c.16076.0523.24081.2176.19885.3815zm3.26301.2809-.463 1.3706c-.0413.146-.1988.2376-.3647.1808l-.8878-.1911c-.1769-.0562-.2447-.2247-.1936-.3809l.4422-1.3836c.0484-.1491.2169-.235.3687-.184l.9051.2157c.1575.051.246.2111.1931.3725zm3.0899.6153-.4494 1.3596c-.0348.1621-.2175.248-.3705.1918l-.8897-.2002c-.1582-.0477-.2453-.213-.1969-.3776l.4455-1.3707c.0632-.1627.2317-.2311.386-.1943l.8839.2188c.1666.0536.2466.2118.1911.3726zm2.9227 2.2396c-.06.1524-.2324.2408-.3841.1821l-.8523-.3467c-.1478-.0504-.2285-.2234-.1827-.3725l.4339-1.3197c.0491-.1601.213-.2402.3777-.1969l.8625.3138c.1537.0432.2363.2046.1937.3777zm2.618 1.3281-.7961-.5501c-.151-.0639-.2279-.2376-.1878-.3829l.417-1.2751c.0511-.1362.2254-.2369.3713-.1775l.8238.4577c.1569.0472.2498.2118.1885.3764l-.4384 1.3571c-.0516.1556-.2227.2512-.3783.1944zm2.8924 1.3338-.7819-.5591c-.1588-.0529-.2376-.2227-.184-.3751l.4023-1.2641c.0555-.1601.2259-.2505.3828-.186l.8115.4365c.1492.0658.2389.2305.197.3983l-.4546 1.3578c-.04.1543-.2227.2395-.3731.1917zm2.7064 1.5166-.7928-.5488c-.1524-.0446-.2369-.224-.1872-.3796l.419-1.259c.0458-.1627.2098-.2447.3809-.1904l.8051.4519c.1659.0471.2427.2176.1969.3777l-.4494 1.3648c-.0419.1621-.215.2428-.3725.1834zm2.7232 1.7457-.7799-.5584c-.1652-.0556-.2498-.2183-.1872-.3887l.4074-1.2557c.0555-.1601.2156-.2454.3628-.1782l.8355.45c.1536.0368.2311.2092.1749.3667l-.4409 1.3655c-.0426.1646-.2137.2421-.3726.1988zm2.629 1.9937-.7857-.5526c-.1627-.0653-.2428-.2305-.1885-.3868l.417-1.2725c.0459-.1491.2228-.2337.381-.1808l.8102.452c.1627.0536.2466.2305.1969.3783l-.4455 1.3648c-.0626.1602-.2253.2505-.3854.1976zm2.6316 1.842-.7871-.5753c-.1543-.042-.2563-.2182-.1885-.3725l.4061-1.2609c.0575-.1601.2273-.2512.3777-.1859l.8296.4512c.1446.0601.2325.2137.184.3784l-.4551 1.3622c-.0472.1543-.2195.2389-.3667.2028zm2.6773 1.8723-.7741-.563c-.171-.0485-.255-.2079-.1917-.3732l.4119-1.2609c.0484-.1556.2085-.2505.3841-.1917l.8103.468c.1608.0485.235.2131.1911.368l-.4461 1.3668c-.0575.1498-.2279.2344-.3855.186zm2.7116 1.8374-.7941-.552c-.1427-.0497-.2382-.2208-.182-.37l.4125-1.277c.0517-.1485.2253-.2447.3654-.1859l.8264.4629c.155.0484.2441.2182.1873.3673l-.4455 1.3571c-.0452.1647-.2195.2512-.37.1976zm2.3514-.4423.8232.4578c.1543.0529.2511.224.1943.3719l-.4474 1.379c-.0555.1543-.2325.246-.3693.1756l-.7896-.5533c-.1634-.0536-.2525-.2124-.2073-.3732l.4229-1.2609c.0452-.1652.2286-.2498.3732-.1969zm2.6038 1.8949.8322.4416c.1478.0478.2408.2286.1833.3893l-.4429 1.3675c-.0458.1543-.2214.2285-.386.1698l-.7722-.543c-.175-.0581-.255-.2124-.1937-.3732l.4151-1.2596c.0517-.1659.2202-.2563.3642-.1924zm-40.74123-2.1344-.41965 1.2719c-.05036.1659-.21047.235-.37704.1962l-.91936-.1058c-.15754-.0633-.24405-.2279-.19498-.3777l.45129-1.3784c.05746-.1588.22919-.2563.38349-.1918l.89096.2079c.15689.0639.23953.2344.18529.3777zm3.27007.2867-.4571 1.3745c-.04971.1543-.20402.244-.368.1853l-.89935-.1853c-.14914-.0633-.24921-.2234-.1853-.3893l.4584-1.3784c.04777-.1537.20788-.2395.38026-.1969l.87869.2124c.15947.0542.23372.224.1924.3777zm3.10156.6172-.4539 1.3642c-.0516.1478-.224.2485-.37572.1911l-.89225-.1911c-.16141-.0484-.24469-.2247-.19498-.3667l.46614-1.3959c.04196-.1485.20853-.2453.368-.1962l.88841.2124c.1569.0484.2427.2246.1943.3822zm2.9117 2.2429c-.0445.1536-.2188.2434-.3693.1846l-.8548-.3564c-.1633-.0536-.2479-.2021-.1807-.3725l.4267-1.3196c.0465-.1602.2163-.2396.368-.1763l.8626.2989c.1627.0426.2453.2182.1911.3835zm2.6161 1.3183-.7838-.5526c-.1717-.0478-.2305-.2124-.193-.3835l.4209-1.2609c.0497-.144.2098-.2402.3771-.1924l.8038.4635c.1672.0523.253.2337.2001.3822l-.4494 1.3688c-.0406.1491-.2143.2285-.3757.1749zm2.8924 1.3313-.7722-.554c-.1724-.0581-.2544-.2227-.2072-.3828l.419-1.2557c.0568-.1589.2292-.2454.3854-.1918l.8109.4623c.1601.049.2486.2298.1911.379l-.4442 1.368c-.0497.153-.224.2376-.3828.175zm2.698 1.5482-.7799-.5746c-.1543-.0426-.2253-.2234-.1801-.3719l.41-1.2674c.0445-.1543.222-.2324.3918-.1865l.8038.4422c.1595.0743.2441.235.1853.388l-.4345 1.3791c-.0555.1543-.233.2234-.3964.1911zm2.7362 1.7193-.7741-.5585c-.166-.0478-.2473-.2285-.2066-.3674l.4093-1.266c.06-.1601.2343-.235.3886-.1924l.8187.4474c.1433.0588.2395.2247.1892.3777l-.45 1.3674c-.053.1595-.2157.246-.3751.1918zm2.6296 2.0027-.7935-.5604c-.1453-.053-.226-.2176-.1821-.3938l.4223-1.2493c.0368-.1556.215-.2563.3667-.1931l.8225.4681c.1601.0433.2447.2034.1905.3622l-.4468 1.3623c-.0523.1601-.2195.2395-.3796.204zm2.6238 1.8258-.787-.5552c-.1569-.0633-.2344-.2286-.184-.3777l.4151-1.2661c.0574-.1704.213-.2402.3719-.1872l.8193.4532c.1472.0484.2453.2176.1794.3725l-.4448 1.3681c-.0374.175-.2105.2389-.3699.1924zm2.6857 1.8723-.7792-.5481c-.1575-.0485-.246-.2241-.184-.3777l.3977-1.2564c.06-.1659.2247-.2453.3886-.1969l.8155.4577c.1581.053.2466.2228.1911.3777l-.45 1.3616c-.0556.1666-.2337.246-.3797.1821zm2.7091 1.8516-.7883-.5694c-.1543-.042-.2357-.2131-.1873-.3725l.4145-1.2564c.0452-.1692.2228-.2499.3738-.2014l.8258.468c.1569.0472.2311.2124.1775.3571l-.4551 1.3835c-.0368.1601-.2002.2344-.3609.1911zm2.3578-.4416.8225.4578c.1562.0523.2395.2137.1853.3835l-.4597 1.3571c-.0458.1646-.2053.2446-.3654.1917l-.7799-.5526c-.1672-.0491-.2383-.2305-.1885-.3945l.3996-1.2616c.0684-.1439.2285-.2292.3861-.1814zm2.6044 1.873.8219.4584c.1472.0587.2401.2182.1975.3783l-.4474 1.3681c-.0639.1594-.2234.2388-.3822.202l-.7915-.5636c-.1582-.0542-.2428-.224-.1911-.3899l.4216-1.2713c.0471-.1439.2195-.2343.3712-.182zm-40.1298-14.6575c12.9169-2.3688 23.5322 6.4084 26.9243 8.8462 10.0368 7.2646 14.1746 10.2886 14.1746 10.2886l6.7073-20.7954-.0549-.0264s-4.2862-3.1823-14.3463-10.4481c-3.3578-2.4392-13.8233-9.6817-26.63503-8.9464z"/><path d="m30.169 97.2101 1.0692.7773c.142.091.1575.2976.069.4267l-.3931.851c-.0982.1284-.2809.1543-.4145.0529l-1.1744-.8516c-.1272-.1007-.1543-.2924-.0626-.4261l.488-.7657c.1079-.1433.2854-.164.4184-.0645zm1.2777-3.0267 1.1595.8567c.1388.0891.1743.2757.0717.4029l-.4565.8109c-.1091.1362-.2931.153-.4345.0678l-1.1595-.8787c-.1414-.0956-.1633-.2763-.0697-.4093l.4751-.798c.1098-.1162.2854-.1388.4139-.0523zm1.5572-2.7639 1.157.8567c.1323.0962.1536.3041.0665.4152l-.4681.8102c-.1098.1375-.2879.1582-.4132.0588l-1.1808-.869c-.1356-.0846-.1666-.2654-.053-.4152l.4655-.7818c.1059-.1279.2847-.1543.4261-.0749zm3.0357-2.0486c.1253.0898.1595.2764.0581.3997l-.5952.7018c-.0827.133-.2893.1646-.4158.0742l-1.115-.8251c-.1356-.1001-.1756-.3028-.0658-.4255l.561-.7185c.0904-.1376.2847-.155.41-.0691zm2.0738-2.086-.769.5688c-.1071.1492-.286.1698-.4209.0633l-1.0724-.7812c-.1233-.102-.1685-.2989-.0646-.4093l.6954-.6398c.0833-.1421.2815-.1595.408-.064l1.1718.8516c.1311.0898.1524.2712.0517.4106zm2.1699-2.3274-.7799.5778c-.102.1201-.2757.1588-.4145.0452l-1.0717-.776c-.1311-.1124-.1673-.299-.0698-.421l.685-.6391c.1098-.1272.2938-.1595.4281-.0523l1.1627.8399c.1259.091.1569.288.0601.4255zm2.2874-2.1015-.7696.5739c-.1013.1337-.2898.155-.4151.0485l-1.0724-.7767c-.1355-.1007-.1588-.2822-.0613-.41l.6921-.6546c.0872-.1117.2673-.144.41-.053l1.1537.8509c.1343.1072.1569.288.0626.421zm2.496-2.0499-.7631.5753c-.1104.144-.2873.1653-.4287.0691l-1.0601-.7877c-.1498-.0955-.1724-.2931-.0736-.4255l.6908-.6385c.0884-.1323.2853-.1594.4158-.0639l1.1524.8458c.1407.102.1627.2944.0665.4254zm2.731-1.8839-.7916.5804c-.0871.1221-.2795.155-.4086.0478l-1.0795-.7922c-.1298-.0742-.164-.266-.0543-.4112l.6767-.6224c.0962-.1491.286-.1588.4312-.0684l1.1428.8509c.133.091.1711.2879.0833.4151zm2.5586-1.9265-.7896.5798c-.0962.1342-.2854.1601-.4158.0587l-1.0769-.7818c-.1369-.1008-.1653-.2919-.0568-.421l.6882-.6327c.0943-.1336.286-.1704.3984-.0646l1.184.8465c.1233.091.1627.2885.0685.4151zm2.605-1.9517-.7599.5513c-.1.1447-.2931.1608-.4074.0698l-1.0878-.7819c-.1446-.0962-.1659-.2931-.0639-.4145l.6863-.6495c.0903-.1233.2873-.1556.4254-.0645l1.1583.8625c.1304.0956.1627.2809.049.4268zm2.5896-2.0131-.765.5798c-.095.133-.2854.1646-.4197.0529l-1.0743-.7779c-.1272-.0995-.1666-.2919-.0652-.419l.6876-.6386c.0891-.1233.2834-.1601.4112-.0587l1.1686.8399c.1369.113.1543.2938.0568.4216zm.3209-2.3739.6934-.6334c.1026-.1375.2821-.1652.4242-.0529l1.1492.8354c.1349.0949.1659.2764.0587.4152l-.7644.5746c-.1098.1278-.2899.1594-.4255.0639l-1.0749-.7832c-.124-.1168-.144-.2931-.0607-.4196zm2.5967-1.8846.6863-.6437c.1007-.1259.2802-.1485.4235-.0684l1.1628.8613c.1336.0903.1562.2769.0652.4267l-.7858.5527c-.1046.133-.2821.1601-.4086.0697l-1.0718-.7825c-.1446-.1059-.1756-.2931-.0716-.4158zm-14.695 38.0506 1.0937.788c.1201.09.1485.287.0613.42l-.3912.857c-.1046.122-.2796.154-.4242.053l-1.1653-.851c-.133-.118-.1769-.283-.0711-.411l.4894-.792c.1014-.134.2847-.16.4074-.064zm1.2932-3.013 1.1653.858c.1201.089.1576.276.0633.42l-.4623.783c-.1007.121-.2918.16-.4061.059l-1.1969-.842c-.1214-.118-.1543-.293-.0543-.431l.4797-.789c.0975-.12.2886-.149.4113-.058zm1.5385-2.757 1.1776.847c.1175.117.1543.286.0575.414l-.4558.809c-.1072.118-.2951.16-.4203.054l-1.1815-.863c-.1201-.1-.1601-.27-.0588-.414l.4842-.783c.0872-.122.2744-.154.3971-.064zm3.0512-2.0694c.1343.1.1517.2866.0542.4196l-.6068.6968c-.0859.134-.2809.166-.3984.059l-1.1324-.8184c-.1298-.0968-.1459-.2879-.0497-.4222l.5507-.7283c.1033-.1227.2873-.1543.4261-.0478zm2.0711-2.0867-.7689.5856c-.1013.144-.2931.1595-.4183.0588l-1.0808-.7774c-.1285-.1013-.1466-.2989-.0601-.4319l.6889-.6224c.0904-.1439.288-.1581.4255-.0697l1.1563.8367c.1343.1317.164.3138.0574.4203zm2.1771-2.3152-.7883.5585c-.0982.1388-.2841.1556-.41.0639l-1.0795-.7773c-.1168-.1014-.1659-.2925-.0594-.4203l.6883-.6385c.0994-.1279.2847-.1446.4145-.0536l1.1543.8412c.1517.0801.1756.2873.0801.4261zm2.2945-2.1034-.7902.5701c-.0859.133-.2835.175-.4132.0633l-1.0698-.798c-.1382-.0911-.1595-.2718-.0568-.4094l.674-.6443c.1052-.1065.2983-.1433.4339-.0529l1.1627.8567c.1195.091.1569.2834.0594.4145zm2.4734-2.0324-.7709.5475c-.0859.1452-.2802.1762-.4164.0697l-1.0659-.7722c-.1285-.122-.1601-.3034-.0614-.4364l.6721-.6327c.113-.1227.2931-.1601.4294-.0639l1.1634.8509c.1297.1072.1601.2821.0497.4371zm2.7264-1.9007-.7786.5701c-.1001.1323-.2821.1698-.4145.0691l-1.0691-.798c-.1388-.0911-.1601-.2925-.062-.4152l.685-.6391c.0872-.1169.2867-.1427.41-.0472l1.1673.8348c.1388.1072.1581.3028.0619.4255zm2.5631-1.9201-.7824.5688c-.0885.1382-.2854.1588-.4158.0633l-1.0808-.7825c-.1272-.1065-.1607-.2925-.0491-.4255l.6844-.6282c.0981-.1485.2828-.1659.4132-.0749l1.1602.8632c.1414.1001.1536.2718.0703.4158zm2.618-1.9653-.7792.5598c-.0885.1485-.2796.1646-.4048.0742l-1.0885-.7883c-.1259-.1058-.1569-.2821-.0485-.4319l.6837-.6224c.1014-.1213.288-.1691.4229-.0684l1.1479.8574c.1388.0897.1569.2763.0665.4196zm2.5974-2.0001-.7832.5746c-.0871.1175-.2802.1485-.4041.0588l-1.0724-.7935c-.1427-.0801-.1698-.2776-.0684-.41l.6856-.6391c.0885-.1221.2796-.1647.408-.0633l1.168.8516c.1201.111.1517.2873.0665.4209zm.3073-2.3694.6889-.6598c.0994-.1279.2853-.1492.4254-.0536l1.1408.858c.1614.0801.1731.2712.0833.4255l-.7825.5591c-.1071.1317-.2802.1646-.4132.0471l-1.0794-.7773c-.1163-.0904-.1627-.2815-.0633-.399zm2.5992-1.9001.6973-.6391c.093-.1266.2802-.1756.4042-.0678l1.175.8619c.1233.0897.1472.2718.0478.4041l-.7573.5798c-.1143.133-.3061.1543-.4313.0588l-1.0782-.7929c-.1175-.0858-.1517-.2821-.0575-.4048zm-26.4161 33.5848c1.7754-13.0192 13.4069-20.3902 16.7635-22.8442 10.0387-7.2962 14.2023-10.2983 14.2023-10.2983l-17.69-12.8169-.0226.0368s-4.3779 3.0874-14.3999 10.379c-3.3527 2.4379-13.4883 10.1343-16.7867 22.5354z"/><path d="m90.523 95.1957 1.0852-.789c.1395-.08.317-.0523.4197.0756l.6766.6437c.1059.1439.0639.3247-.0684.4254l-1.1725.8303c-.1414.1117-.3299.0633-.4222-.0639l-.5914-.7038c-.102-.1465-.0497-.3234.073-.4183zm-2.4553-2.1622 1.1672-.8406c.1369-.0904.3254-.0587.4087.0691l.6108.6869c.0936.133.0813.319-.0697.4042l-1.177.8619c-.1408.102-.3215.0639-.4126-.0691l-.6036-.7024c-.0878-.133-.0626-.3035.0762-.41zm-2.1474-2.3313 1.1738-.8561c.133-.0749.3273-.053.4287.0891l.6101.6824c.0858.1168.0587.3241-.0717.4203l-1.1828.8458c-.1452.1007-.3292.0645-.4228-.0685l-.5998-.6927c-.0807-.144-.0497-.3287.0645-.4203zm-.9981-3.529c.1285-.1046.3144-.0788.4087.0542l.4823.798c.0891.1175.0607.3151-.0872.399l-1.1221.8148c-.1388.0904-.3254.0633-.4158-.0639l-.5165-.767c-.0916-.1427-.0716-.3196.0769-.4093zm-1.3222-2.6399.3086.9109c.0936.1485.0484.3345-.0768.4216l-1.086.7806c-.1414.0904-.3189.0587-.4145-.0898l-.3815-.8367c-.1033-.1272-.0775-.3292.0678-.399l1.164-.8561c.124-.0962.3196-.0529.4184.0685zm-1.5353-2.7775.2931.9045c.0878.1401.0691.3209-.0684.4203l-1.084.7825c-.133.0697-.3177.0523-.4268-.0742l-.3744-.851c-.0937-.1375-.064-.3312.0716-.4164l1.168-.8412c.1355-.1059.3228-.0581.4209.0755zm-1.2861-2.8426.3067.9206c.093.1117.0587.3196-.0768.41l-1.0808.7883c-.1304.0858-.3093.0523-.4119-.0801l-.3848-.8516c-.0949-.1549-.0523-.3305.0736-.4261l1.1699-.8193c.1259-.102.317-.0742.4041.0582zm-1.1485-3.0073.2976.9213c.0968.1323.0594.3079-.0859.4041l-1.0678.7773c-.1343.0962-.3293.064-.4113-.0755l-.3958-.8458c-.0962-.1278-.0677-.3189.0769-.419l1.1608-.8315c.1349-.1007.3157-.0698.4255.0691zm-.9388-3.1771.2919.9309c.1045.1227.0742.3093-.0582.4048l-1.0994.7774c-.1285.0955-.3145.0684-.4042-.0801l-.3893-.8399c-.0975-.1395-.0575-.3261.082-.4216l1.1634-.8361c.1304-.1007.3157-.0633.4138.0646zm-1.0259-3.0222.3015.9149c.0924.1433.053.3241-.0755.4203l-1.0691.7553c-.1505.113-.3435.0794-.4236-.0587l-.386-.8464c-.1008-.1427-.0736-.319.0645-.4313l1.1796-.8303c.1401-.0891.3086-.0523.4086.0762zm-1.0394-3.1151.2912.9155c.1149.133.0626.3202-.0685.4209l-1.0878.7715c-.1201.1014-.3086.0588-.4074-.0742l-.3997-.8516c-.0871-.1336-.0419-.3144.0801-.4158l1.1808-.8406c.1343-.0903.3138-.0587.4113.0743zm-1.0782-3.0764.2867.9213c.0955.1169.0652.3138-.0736.41l-1.0789.7663c-.1323.1014-.3234.0698-.4203-.0749l-.3886-.8464c-.0969-.1381-.0504-.3241.0749-.4151l1.1731-.8406c.1355-.0846.3312-.0639.4267.0794zm-2.1693-1.0485-.388-.8515c-.0988-.144-.0691-.3248.071-.4262l1.1628-.8296c.1343-.1007.3338-.0633.4183.0685l.3112.9213c.0891.1381.0556.3195-.0787.4099l-1.0789.7838c-.1439.0897-.3157.0575-.4177-.0762zm-.9794-3.0647-.3996-.8523c-.0975-.1336-.0575-.3086.0755-.4203l1.1705-.8251c.1446-.0962.3209-.0748.419.064l.297.9219c.0943.1259.0639.3177-.0613.4184l-1.0982.767c-.1201.0955-.3086.0581-.4029-.0736zm31.5269 25.8932 1.074-.7773c.137-.1059.336-.0646.425.0536l.681.6495c.099.133.059.3189-.073.4138l-1.178.8464c-.133.0755-.324.0652-.415-.0736l-.589-.7005c-.091-.1349-.062-.3163.075-.4119zm-2.469-2.177 1.181-.8355c.137-.091.316-.0652.411.0736l.608.6876c.103.1485.067.3293-.074.41l-1.186.8503c-.139.1078-.316.0645-.41-.0736l-.589-.707c-.09-.1181-.071-.3105.059-.4054zm-2.1207-2.321 1.1617-.8516c.142-.091.336-.0471.422.0749l.6.6966c.106.1291.078.3196-.063.41l-1.184.8412c-.135.1014-.3201.0743-.4254-.0742l-.5842-.6928c-.0956-.1427-.0698-.3241.0729-.4041zm-1.0084-3.538c.1304-.0975.3182-.0704.4061.0729l.4706.7774c.0949.1329.0704.3247-.071.4093l-1.1247.8154c-.142.0904-.326.0742-.4261-.0749l-.5087-.7554c-.1008-.1439-.0614-.3196.0716-.4151zm-1.3313-2.6303.3002.9207c.1001.1291.0717.3086-.0594.4099l-1.1027.7722c-.1227.0956-.308.0633-.4061-.0749l-.3913-.8309c-.0761-.1472-.0652-.3306.0769-.4293l1.1647-.831c.1362-.1071.3273-.0755.4177.0633zm-1.5359-2.7891.3015.911c.0987.1433.0645.3235-.0607.4145l-1.095.7818c-.1323.0911-.3112.053-.4222-.0794l-.3726-.8457c-.1045-.1279-.0729-.3254.0588-.421l1.1821-.8302c.124-.0962.3183-.064.4081.069zm-1.2764-2.8368.3028.92c.0852.1343.0671.3099-.0568.4106l-1.0918.7715c-.1394.0962-.3196.0581-.408-.0632l-.3971-.8471c-.0955-.1375-.06-.3248.0743-.4203l1.1634-.8303c.1414-.1059.317-.0639.4132.0588zm-1.1479-3.0176.2879.9258c.1014.1388.062.3196-.0658.4209l-1.0795.7715c-.1363.0904-.3241.0704-.4313-.0749l-.3906-.8457c-.0878-.133-.0471-.3254.0826-.4319l1.1764-.8303c.1297-.0956.3195-.0581.4203.0646zm-.9388-3.1507.2957.9104c.0956.1323.0659.3292-.0665.4144l-1.0872.7664c-.1427.1007-.326.0704-.4255-.0794l-.377-.8413c-.0943-.1278-.0743-.3144.0691-.4157l1.1698-.8413c.1376-.0891.3319-.0516.4216.0865zm-1.0349-3.0454.2944.9162c.1123.1323.0826.3247-.0471.4319l-1.104.7599c-.1234.0968-.317.0587-.4029-.0639l-.4009-.851c-.0846-.1446-.0588-.3195.0897-.4144l1.155-.8413c.1414-.0968.3325-.0639.4158.0626zm-1.0356-3.1073.3086.92c.084.1336.0646.3299-.0813.4099l-1.0866.7722c-.1246.1059-.3228.0626-.4125-.0697l-.3829-.8413c-.0859-.1375-.062-.3247.0568-.4312l1.1692-.8297c.155-.0955.3132-.0645.4287.0698zm-1.0937-3.0822.3087.9219c.1013.1324.0581.3131-.0743.4035l-1.0866.7709c-.1252.1065-.3157.0755-.4087-.062l-.3886-.8477c-.1027-.1323-.0626-.3189.0691-.419l1.1763-.8425c.1343-.0949.3112-.0581.4041.0749zm-2.1505-1.0382-.3919-.8561c-.1007-.1284-.071-.315.0762-.4216l1.1711-.8418c.1272-.0917.3177-.0569.3997.0819l.3002.9097c.111.1601.0768.3248-.0517.4152l-1.1053.7766c-.1272.102-.3028.0633-.3983-.0639zm-.982-3.0757-.3829-.8387c-.0994-.1491-.0774-.3196.0588-.4203l1.1731-.8444c.133-.0904.3202-.0607.4041.0774l.3112.9207c.0962.1285.0704.3222-.0736.4132l-1.0846.7683c-.1311.1013-.3183.0645-.4061-.0762zm23.5881 35.6337c-11.8062-5.7699-15.1305-19.1342-16.4153-23.0938-3.773-11.8142-5.3205-16.7132-5.3205-16.7132l-17.7313 12.7691.0342.0419s1.5721 5.1211 5.3477 16.9314c1.2647 3.9493 5.3877 15.9927 16.1359 23.0138z"/></g><g fill="#fff"><path d="m181.522 78.3519h-11.592v-32.1344h11.592zm-11.991-45.93h11.592v9.1917h-11.592z"/><path d="m197.935 78.4309h-11.607v-32.2223h10.66v5.0139c1.411-2.106 2.874-3.6168 4.446-4.5239 1.547-.9187 3.378-1.3861 5.47-1.3861 3.559 0 6.333 1.1008 8.304 3.2914 1.958 2.1977 2.927 5.449 2.927 9.7611v20.0659h-11.653v-17.7391c0-1.8684-.365-3.2371-1.084-4.0777-.728-.8464-1.751-1.2732-3.066-1.2732-1.31 0-2.374.4907-3.177 1.4811-.81.9858-1.22 2.5702-1.22 4.753z"/><path d="m254.801 58.6213c-.659-2.7891-1.784-5.1888-3.352-7.28-1.588-2.0666-3.503-3.5825-5.777-4.5568-2.256-.98-4.699-1.472-7.296-1.472-4.972 0-8.953 1.6392-11.977 4.9125-3.016 3.261-4.524 7.4492-4.524 12.5903 0 4.8544 1.491 8.8191 4.499 11.9226 2.973 3.0971 7.105 4.6627 12.368 4.6627 3.285 0 6.126-.6282 8.528-1.8633 2.383-1.2402 4.247-2.8317 5.578-4.7634.808-1.1711 1.372-2.5443 1.661-4.0919h-11.066c-.793 1.7393-2.199 2.6173-4.178 2.6173-1.842 0-3.274-.5313-4.286-1.5966-1.001-1.0691-1.511-2.554-1.611-4.4657h22.07c.012-2.6064-.201-4.817-.637-6.6157zm-19.757-4.1404c.906-.9632 2.065-1.4261 3.528-1.4261 1.618 0 2.89.4894 3.855 1.5004.952 1.0117 1.458 2.3894 1.494 4.1404h-10.453c.144-1.8633.665-3.2514 1.576-4.2147z"/><path d="m270.961 75.2215c.846 1.1188 1.57 1.9272 2.173 2.4378.594.5011 1.362.9323 2.32 1.2842.936.3138 2.064.4881 3.378.4881 3.747 0 6.862-1.5379 9.411-4.6136 2.532-3.0719 3.811-7.26 3.811-12.5612 0-3.2049-.521-6.1256-1.544-8.7708-1.037-2.6289-2.564-4.6549-4.582-6.0701-2.022-1.3842-4.274-2.1034-6.771-2.1034-2.23 0-4.208.5488-5.891 1.6392-1.713 1.0918-2.88 2.4463-3.491 4.0862v-4.7776h-10.4v44.6472h11.586zm8.096-18.6436c.937 1.2403 1.394 3.0712 1.394 5.5356 0 1.5637-.208 2.9382-.606 4.1093-.427 1.1815-1.013 2.017-1.757 2.5489-.788.532-1.639.8084-2.593.8084-1.43 0-2.576-.6121-3.479-1.8149-.879-1.2079-1.326-3.15-1.326-5.9022 0-2.3365.469-4.11 1.431-5.3225.964-1.2086 2.114-1.8149 3.497-1.8149 1.374 0 2.517.6179 3.439 1.8523z"/><path d="m299.698 50.0236c-2.922 3.1371-4.386 7.3045-4.386 12.5211 0 3.8002.793 7.0153 2.358 9.6172 1.575 2.5973 3.645 4.4657 6.211 5.5885 2.565 1.1188 5.221 1.6818 7.973 1.6818 3.327 0 6.292-.7502 8.93-2.2461 2.619-1.4894 4.552-3.5025 5.786-6.0256 1.246-2.5269 1.869-5.4277 1.869-8.7068 0-5.1882-1.465-9.346-4.358-12.4682-2.903-3.1183-6.99-4.673-12.27-4.673-5.168 0-9.197 1.5701-12.113 4.7111zm9.787 19.9199c-.803-.5436-1.431-1.4061-1.884-2.625-.441-1.2035-.665-2.8149-.665-4.806 0-3.1074.478-5.3387 1.426-6.6803.953-1.3248 2.139-1.9891 3.566-1.9891 1.38 0 2.465.563 3.253 1.6915 1.095 1.5333 1.639 3.7627 1.639 6.7009 0 2.0169-.218 3.6774-.661 4.9764-.425 1.299-1.016 2.2145-1.766 2.7355-.761.5275-1.571.7767-2.416.7767-.853 0-1.694-.255-2.492-.7806z"/><path d="m332.633 33.9844h11.508v44.3838h-11.508z"/><path d="m361.205 78.3461h-11.608v-32.1344h11.608zm-11.986-45.5336h11.602v9.1891h-11.602z"/><path d="m364.453 68.3811h11.081c.005 1.1815.371 2.1448 1.123 2.906.723.7625 1.709 1.1124 2.97 1.1124 1.154 0 2.044-.2499 2.634-.798.603-.5481.9-1.2448.9-2.0234 0-.5791-.176-1.1008-.51-1.5269-.348-.4358-.938-.7553-1.778-.9955l-6.548-1.7296c-3.331-.8936-5.657-2.1338-6.967-3.7253-1.346-1.5914-2-3.507-2-5.746 0-2.044.526-3.8659 1.559-5.4335 1.032-1.565 2.586-2.8162 4.642-3.7233 2.057-.9187 4.715-1.3855 7.945-1.3855 4.897 0 8.432.9704 10.635 2.8885 2.198 1.9169 3.358 4.3153 3.463 7.1399h-10.489c-.112-.9148-.462-1.6657-1.09-2.2461-.624-.5785-1.438-.8619-2.48-.8619-1.066 0-1.912.2499-2.509.7554-.468.4164-.696.9213-.696 1.5282 0 .5094.191.9581.553 1.3248.368.3886 1.246.7405 2.598 1.0917l5.524 1.3784c3.64.9052 6.168 2.2138 7.579 3.8802 1.437 1.6818 2.145 3.6891 2.145 6.0359 0 1.8574-.415 3.507-1.193 4.9809-.808 1.4637-1.883 2.6619-3.251 3.5832-1.368.931-2.981 1.5908-4.812 2.0111-1.868.3881-3.827.596-5.876.596-2.512 0-4.721-.2499-6.663-.798-1.916-.5114-3.534-1.3416-4.78-2.4695-1.282-1.1395-2.224-2.4269-2.841-3.8641-.4-.98-.677-2.2732-.868-3.886z"/><path d="m236.328 41.8894h6.292l7.908-7.5144h-9.622z"/><path d="m149.875 46.874c-.329-4.2023-3.481-6.5918-8.787-6.5918-7.42 0-8.786 8.7236-8.786 15.6976 0 6.7771 1.495 14.8022 8.786 14.8022 5.435 0 8.537-2.3946 8.787-6.8552h13.573c.187 11.7522-11.043 15.8926-22.36 15.8926-14.53 0-22.338-8.7127-22.338-24.3554 0-15.6369 7.808-24.092 22.338-24.214 11.317 0 22.547 3.864 22.36 15.624z"/><path d="m396.142 47.9505h.345c.406 0 .737-.1356.737-.4636 0-.286-.22-.4784-.678-.4784-.197 0-.329.0207-.404.0368zm-.021 1.7754h-.73v-3.1648c.288-.0374.692-.093 1.209-.093.603 0 .873.093 1.08.2473.197.1356.331.3674.331.6798 0 .3842-.289.6405-.66.7528v.0362c.313.0962.468.3454.563.7773.097.4823.175.6495.234.7644h-.77c-.096-.1149-.154-.3783-.256-.7644-.054-.3351-.245-.4874-.656-.4874h-.345zm-1.948-1.6366c0 1.4068 1.059 2.5334 2.469 2.5334 1.369.0155 2.411-1.1266 2.411-2.5121 0-1.4107-1.042-2.5496-2.453-2.5496-1.368 0-2.427 1.1389-2.427 2.5283zm5.695 0c0 1.778-1.426 3.1861-3.247 3.1861-1.814 0-3.262-1.4081-3.262-3.1861 0-1.7781 1.448-3.1674 3.283-3.1674 1.8 0 3.226 1.3893 3.226 3.1674z"/></g><path d="m307.767 106.963c0 1.89-1.285 3.538-3.857 4.945-1.912 1.056-4.408 1.913-7.483 2.572-2.266.483-3.926.725-4.979.725-.419 0-1.254-.143-2.507-.428-1.451-.33-2.616-.681-3.496-1.055v-1.419c-.021-1.229.561-2.307 1.748-3.23l9.068.89c2.396-.087 4.638-.77 6.726-2.043v-.727c-1.34-1.692-3.792-2.78-7.352-3.263-2.813-.351-5.617-.703-8.407-1.055-2.683-.705-4.025-2.275-4.025-4.7152 0-1.5611 1.123-3.3088 3.364-5.2431 1.891-1.6044 4.187-3.0667 6.892-4.3844 2.527-1.2099 4.372-1.8135 5.538-1.8135 1.626 0 2.55.0213 2.77.0652.901.2195 1.308.8238 1.22 1.8135-.11 1.2525-1.264 2.2532-3.462 2.9996-2.088.6391-4.165 1.2751-6.231 1.9129-2.265.9459-3.518 2.2642-3.759 3.9564 2.263.3305 4.516.6598 6.759.9891 3.386.5281 5.978 1.3099 7.781 2.3415 2.461 1.451 3.692 3.507 3.692 6.166z" fill="#fcc62a"/><path d="m329.231 90.6743c.088.1104.132.2304.132.3634 0 .5049-.616 1.0537-1.846 1.6483-.969.4836-1.66.747-2.077.7915-.879.1098-2.473.1756-4.78.1969-1.782.0226-3.199.1769-4.254.4617 0 .3086-.017.6062-.05.8896-.033.2873-.138.6385-.313 1.0556-.111.2202-.517 1.9459-1.22 5.1777-.793 3.516-1.188 5.693-1.188 6.527v3.66c-.199.463-.979.693-2.34.693-.969 0-1.451-.791-1.451-2.373 0-.726.186-1.935.56-3.628.308-1.406.571-2.461.791-3.165.133-.419.363-1.605.694-3.5616.351-2.0873.527-3.4728.527-4.1532 0-.2202-.121-.4178-.363-.594l-4.748 1.1214c-.704.153-1.055-.7476-1.055-2.7038 0-.7477.198-1.2409.592-1.4837.265-.1762.726-.2647 1.386-.2647.088 0 .28.0226.576.0672.297.0432.511.0645.644.0645l15.761-2.3733c1.339-.0878 2.295.0213 2.867.3299.285.1769.671.5934 1.155 1.2526z" fill="#fcc62a"/><path d="m335.318 100.527c0 .022.081-.396.247-1.254.166-.8567.247-1.614.247-2.2745 0-2.6819-1.318-3.9118-3.957-3.6929-1.407.1104-2.736 1.7038-3.989 4.7814-1.055 2.572-1.583 4.528-1.583 5.869 0 .791.131 1.506.395 2.143.461 1.231 1.309 1.846 2.54 1.846 1.692 0 3.199-1.055 4.516-3.165 1.057-1.715 1.584-3.133 1.584-4.253zm5.837-1.3192c0 2.7912-1.002 5.4512-3.003 7.9782-2.219 2.793-4.867 4.189-7.945 4.189-2.396 0-4.264-.704-5.606-2.111-1.297-1.34-1.945-3.121-1.945-5.341 0-.879.319-2.374.957-4.4847.792-2.5715 1.713-4.6924 2.77-6.3639 1.384-2.1538 2.844-3.2306 4.384-3.2306 2.967 0 5.386.7592 7.254 2.2751 2.088 1.6922 3.134 4.0545 3.134 7.0889z" fill="#fcc62a"/><path d="m361.504 94.4013c-.177 2.7917-2.506 4.4522-6.991 4.979 1.583.9457 3.056 2.0007 4.42 3.1647 2.043 1.759 3.065 3.221 3.065 4.386 0 .396-.099.901-.297 1.517-.219.769-.473 1.153-.756 1.153-.154 0-.677-.571-1.569-1.714-.889-1.142-1.412-1.736-1.567-1.781l-7.352-3.824c-.328 0-.822-.087-1.483-.264-.879-.242-1.318-.527-1.318-.856 0-1.035.845-1.9469 2.538-2.7391.462-.1956 1.428-.5152 2.902-.9549.812-.2195 1.44-.4171 1.88-.5933.922-.3512 1.549-.7257 1.879-1.1208-.089-.2421-.417-.3629-.988-.3629-1.034 0-2.616.4068-4.75 1.2196-2.197.8135-3.419 1.5063-3.658 2.0783-.198.439-.457 1.3074-.775 2.6041-.319 1.297-.666 2.396-1.039 3.297-.198.483-.408 1.363-.627 2.637-.154.857-.472 1.836-.956 2.935-.791 1.801-1.681 2.704-2.671 2.704-.175 0-.43-.142-.758-.429-.044-1.538.099-2.967.428-4.287.197-.769.671-2.12 1.418-4.055.812-2.11 1.473-4.033 1.978-5.7696-.527-.1317-1.076-.3403-1.648-.6269-.022-.2634.033-.6153.165-1.0543.175-.6592.274-1.033.297-1.1221.549-.1537 1.186-.4493 1.911-.8897.243-.3518.483-.6869.726-1.0052.243-.3189.637-.479 1.188-.479.087 0 .511.0561 1.268.1646.76.111 1.194.1653 1.302.1653.023 0 .843-.2796 2.456-.84 1.617-.561 3.074-.8412 4.37-.8412 1.582 0 2.67.0768 3.264.2305 1.254.3738 1.836 1.166 1.748 2.3739z" fill="#fcc62a"/><path d="m381.907 99.1982c-2.153.5507-5.099 1.0548-8.837 1.5168-2.922.352-4.823.769-5.703 1.252-1.342.682-1.944 1.935-1.813 3.758.109.067.307.1.594.1.262 0 .676-.033 1.237-.1.559-.065.905-.098 1.036-.098.22 0 1.391-.253 3.513-.758 2.121-.506 3.279-.759 3.478-.759.638 0 1.1.056 1.386.165.505.221.977.714 1.416 1.484-.725 1.363-2.647 2.714-5.768 4.055-2.968 1.277-5.453 1.912-7.451 1.912-1.367 0-2.354-.242-2.97-.725-.725-.57-1.087-1.515-1.087-2.834 0-1.738.792-4.903 2.373-9.4969 1.518-4.3528 2.555-6.7803 3.117-7.2865.56-.5062 2.29-.7586 5.191-.7586 1.32 0 2.309.0988 2.969.297.967.3079 1.846.9342 2.638 1.8794l-.297 1.0872c-.044.0665-.891.0665-2.539 0-1.912-.0652-3.374.0452-4.385.3299-1.562.4616-2.341 1.3513-2.341 2.6716v.8897c1.054.0219 3.034-.0659 5.935-.2634 3.032-.197 4.957-.297 5.769-.297.638 0 1.291.1259 1.962.3789.671.2525 1.005.5663 1.005.9407 0 .2195-.142.4397-.428.6592z" fill="#fcc62a"/></svg>