<svg fill="none" height="95" viewBox="0 0 511 95" width="511" xmlns="http://www.w3.org/2000/svg"><g fill="#242122"><path d="m138.915 49.538c-1.092-5.5267-5.527-8.3151-10.938-8.3151-9.308 0-13.239 7.6548-13.239 15.8082 0 8.9196 3.931 16.3596 13.288 16.3596 6.844 0 10.783-4.8149 11.274-11.2711h5.202c-.992 9.7417-7.064 15.6464-16.913 15.6464-12.145 0-18.051-8.9696-18.051-20.3511 0-11.3241 6.455-20.5702 18.488-20.5702 8.155 0 14.887 4.3782 16.087 12.6933z"/><path d="m147.876 37.3428h5.202v34.6856h20.682v4.3796h-25.884z"/><path d="m206.168 62.2941c0 9.8446-5.635 15.0434-15.378 15.0434-10.072 0-16.026-4.6517-16.026-15.0434v-24.9513h5.194v24.9513c0 6.8886 3.937 10.6667 10.832 10.6667 6.56 0 10.174-3.7781 10.174-10.6667v-24.9513h5.204z"/><path d="m216.803 72.0284h13.019c4.485 0 7.332-2.731 7.332-6.9989 0-5.09-4.104-6.5121-8.48-6.5121h-11.871zm0-17.8877h10.401c5.9 0 8.311-2.1369 8.311-6.2386 0-5.4164-3.827-6.1812-8.311-6.1812h-10.401zm-5.196-16.7979h14.173c3.437 0 7.979 0 10.338 1.4206 2.573 1.5339 4.598 4.3253 4.598 8.1549 0 4.1575-2.19 7.2754-5.8 8.7548v.1103c4.809.981 7.437 4.5929 7.437 9.4064 0 5.7444-4.104 11.2182-11.871 11.2182h-18.875z"/><path clip-rule="evenodd" d="m449.026 60.5201h-26.921c.25 2.4001.934 3.5119 1.85 4.6797 1.305 1.6839 7.092 3.7325 15.02 2.3883 1.058-.1912 4.223-1.1456 6.224-2.1957l.19 9.277c-6.503 2.4883-12.435 2.7751-16.735 2.4883-6.519-.4382-20.195-4.9679-20.195-20.2643 0-10.0622 7.169-20.4098 19.779-20.4098 5.018 0 8.983.8426 11.886 2.5295 2.913 1.6854 5.116 4.1355 6.633 7.321 1.519 3.2045 2.269 7.3665 2.269 12.5006zm-11.754-7.1548c-.298-3.0413-1.132-5.2091-2.485-6.5253-1.318-1.3089-3.071-1.9678-5.245-1.9678-2.516 0-4.517.9957-6.023 2.9678-.971 1.2324-1.577 3.0781-1.833 5.5253zm18.576-15.9729h12.336v7.021c2.019-2.5678 4.059-5.1341 6.136-6.218 2.045-1.1148 4.568-1.6677 7.531-1.6677 5.617 0 15.185 2.7604 15.185 14.8978v24.4763h-13.027v-21.1702c0-2.4222-1.052-4.1208-1.927-5.118-.88-1.0118-2.293-1.7898-3.887-1.7898-3.955 0-5.174.803-6.6 2.6546-1.04 1.381-2.405 3.4296-2.405 6.9371v18.4863h-13.342zm-192.955-17.4774h13.158v55.8691h-13.158zm64.665 55.8074h-12.397v-6.9136c-2.057 2.6133-4.76 5.1973-6.873 6.3135-2.074 1.103-4.698 1.5442-7.745 1.5442-4.065 0-7.856-1.4089-10.183-3.8781-2.297-2.4751-4.184-6.1695-4.184-11.3183v-24.9307h13.155v21.5482c0 3.6355 2.547 7.1813 6.799 7.1813 3.165 0 7.695-1.3339 7.695-9.877v-18.8525h13.733zm8.41-39.1285h12.17v7.6371c2.003-3.9825 5.806-5.9974 7.811-7.0106 2.065-1.0075 3.372-1.1751 6.271-1.1751 3.096 0 5.16.3309 6.968 1.4398 1.809 1.103 4.159 3.7884 5.305 5.9782 2.344-2.5692 5.173-5.4429 7.097-6.3547 1.934-.9324 4.24-1.0633 7.081-1.0633 4.171 0 7.52.9177 9.876 3.4296 2.341 2.4839 3.51 6.3812 3.51 11.7006v24.6086h-13.283v-22.3203c0-4.5796-3.438-5.9856-6.44-5.9856-4.06 0-6.738 5.9945-6.738 8.8211v19.4848h-13.27v-21.5849c0-1.7236-.778-6.7886-5.527-6.7886-5.44 0-7.625 5.0179-7.625 9.4446v18.9289h-13.206zm167.943-10.5021c1.031 0 2.037.2706 3.005.7927.967.5265 1.72 1.2721 2.263 2.2413.549.9751.807 1.9942.822 3.0516 0 1.0472-.273 2.0457-.81 3.0149-.543.9706-1.275 1.7251-2.237 2.2531-.971.5309-1.968.8074-3.043.8074-1.051 0-2.038-.2765-3.018-.8074-.957-.528-1.718-1.2825-2.232-2.2531-.543-.9692-.822-1.9677-.822-3.0149 0-1.0574.279-2.0765.822-3.0516.542-.9692 1.298-1.7148 2.272-2.2413.971-.5221 1.968-.7927 2.978-.7927zm0 1.0104c-.838 0-1.66.2235-2.487.6618-.798.4309-1.437 1.0559-1.89 1.8721-.454.8074-.684 1.6589-.684 2.5413 0 .8751.23 1.7134.667 2.5193.454.7986 1.085 1.428 1.895 1.8751.802.4471 1.643.6677 2.499.6677.891 0 1.73-.2206 2.528-.6677.807-.4471 1.434-1.0765 1.884-1.8751.437-.8059.666-1.6442.666-2.5193 0-.8824-.235-1.7339-.691-2.5413-.437-.8162-1.075-1.4412-1.885-1.8721-.812-.4383-1.652-.6618-2.502-.6618zm-2.653 8.4298v-6.5371h2.234c.778 0 1.332.0633 1.678.1912.347.1118.621.3177.813.6192.218.3.312.6191.312.9559 0 .4809-.163.8971-.513 1.253-.331.3515-.796.5515-1.359.5986.232.097.428.2103.563.3456.263.2588.594.6897.974 1.2986l.792 1.275h-1.295l-.572-1.0236c-.462-.8118-.833-1.3265-1.106-1.525-.197-.1603-.483-.2309-.839-.2309h-.617v2.7795zm1.065-3.6825h1.27c.62 0 1.037-.0809 1.258-.2721.217-.1794.319-.4206.319-.7324 0-.1868-.038-.3559-.144-.5015-.118-.1603-.265-.2735-.459-.3485-.178-.078-.538-.1162-1.057-.1162h-1.187z" fill-rule="evenodd"/></g><g clip-rule="evenodd" fill-rule="evenodd"><path d="m29.0692 10.4561s.95 1.9809 1.2471 4.5546c.3015 2.5722.7236 4.815.2632 7.5416-.5073 3.0987-.9897 7.8548-5.0488 13.7257-4.0443 5.8591-9.6196 9.9108-14.7934 12.936-5.16495 3.0089-8.61072 4.2178-9.746069 4.7899-.826514.4103-.991231 2.359-.991231 2.359.164714 1.2309.611797 2.028 1.36184 2.6442.74121.6133 2.15746 1.3986 4.62524 1.7251 2.49278.3265 7.47682.6692 11.03292.4221 3.562-.2486 6.8562-.5795 10.0535-1.9928 0 0 3.3825-1.3192 6.8062-4.0855 3.4325-2.7692 5.9959-6.2429 7.0724-8.4725 1.0692-2.2295 2.9811-6.0724 3.0046-11.1138.0603-5.0444-1.9354-8.2269-2.7119-10.2064-.7839-1.981-3.584-6.3077-5.9106-8.8519-2.2722-2.4766-5.0076-5.0415-5.5326-5.4944-.5574-.4486-.7324-.4809-.7324-.4809z" fill="#e02935"/><path d="m93.4777 50.8113s-1.4972 1.7324-5.8253 2.9295c-4.34 1.2016-9.68 2.109-15.0538 1.3619-5.3694-.7427-11.7344-4.1282-14.8713-7.0563-3.1414-2.9428-5.3386-7.2356-6.118-11.8682-.7868-4.6238 0-10.7403.7794-13.8875.7927-3.1384 4.1414-8.5946 5.6298-10.4932 1.4809-1.90454 5.362-6.8195 7.0194-8.30193 1.6604-1.49419 3.6399-2.85603 5.0032-3.183988 1.3589-.3323706 2.4399-.3720784 2.9414-.2441305.4971.1220655 1.3589.8926935 1.8912 1.8133285.531.9074 1.2339 2.27071.9898 4.3767-.2412 2.11187-.8118 3.75902-2.5163 6.36502-1.7001 2.609-3.8796 5.2032-5.1297 9.5005-1.2236 4.3032-.6574 7.6092-.4074 8.7666.2412 1.1575 2.4502 6.1151 3.8032 7.3548 1.3692 1.2398 4.587 4.6268 9.9549 7.2754 5.3694 2.6457 11.1947 4.9606 11.1947 4.9606z" fill="#085796"/><path d="m13.8072 84.2293c.4486-.6823 1.456-2.3971 1.9957-3.2781.5324-.8809 4.3753-6.6988 6.9916-9.9137 2.606-3.2237 5.262-6.218 8.3225-8.449 3.0472-2.2442 4.4723-2.9413 7.493-4.0723 3.0016-1.1353 5.7709-2.356 11.3697-3.0075 5.5915-.6544 9.5211.1397 11.7712.9354 2.2369.7927 5.3165 2.1413 7.8504 4.7752 2.7796 2.9002 3.5958 4.9017 4.1782 5.9136.5691 1.0265 2.2927 4.3311 4.0414 10.0152 1.7471 5.6929.7897 10.977.5029 12.4551-.2897 1.4736-1.0941 4.7517-4.6355 4.9473-3.5443.1926-6.0386-5.568-6.0386-5.568s-.6367-1.0986-1.2397-2.6545c-.6015-1.5575-1.9192-5.0356-2.5516-6.2268-.6206-1.1913-3.4958-6.4812-9.8755-7.7622-6.3592-1.278-12.5551.5118-13.7699.8177-1.2059.3221-4.1252 1.0706-6.2503 1.9869-2.131.9338-7.3048 3.9752-10.352 6.2459-3.059 2.2722-4.237 3.2884-4.6561 3.5752-.4221.2868-.578.3471-1.0574.4794-.4883.1427-1.2325.4-1.7898.5147-.5486.1118-1.8869.3354-2.331-.1147-.4662-.4529-.4309-.9397.0308-1.6148z" fill="#fbb82a"/></g></svg>