<svg fill="none" height="81" viewBox="0 0 400 81" width="400" xmlns="http://www.w3.org/2000/svg"><path d="m97.2965 46.5851h-.0494c-.0697-.4799-.899-.7217-2.4907-.7217-.7914 0-1.4637.1469-2.0171.4381-.5571.2963-1.1763.837-1.8677 1.6334-.6888.761-1.1231 1.3903-1.2966 1.8905-.1722.504.2241.823 1.1928.9611.485.0683 1.1143.0265 1.8905-.1305.7762-.1582 1.5296-.4153 2.2551-.7762.7268-.3659 1.3346-.823 1.8145-1.3751.485-.5546.6775-1.1928.5686-1.9196zm-47.4265-3.2111c.3115-.4508.6559-1.0041 1.0371-1.6613.3811-.6521.7407-1.3219 1.0889-1.9943.3444-.6724.6559-1.303.9332-1.8905.2761-.5875.4647-1.037.5686-1.3485.138-.3799.276-.899.414-1.5575.1393-.6559.2355-1.3118.29-1.9702.0494-.6559.0405-1.2169-.0317-1.6828-.0696-.4685-.238-.7002-.5153-.7002h-.0545c-.276 0-.5672.0759-.8787.2317-.3115.1583-.6142.5027-.9079 1.0383-.2913.5331-.5724 1.3067-.8256 2.3058-.2608 1.0041-.4964 2.3526-.704 4.0443-.1026.899-.1912 1.7917-.2571 2.6717-.0696.8813-.1228 1.7183-.157 2.5135zm53.184 4.0418v.0506c0 1.2485-.332 2.3869-.984 3.4239-.662 1.0383-1.499 1.9259-2.5171 2.6717-1.0181.742-2.1336 1.3017-3.3429 1.6828-1.2079.3812-2.3653.5344-3.4707.4647-.9028-.0696-1.6448-.162-2.2285-.2849-.5888-.119-1.0649-.2216-1.4258-.3115-.3647-.0835-.6508-.1532-.8572-.2076-.2039-.0494-.3812-.0215-.5192.0823-.2431.1684-.623.2368-1.1383.2039-.523-.0355-1.0333-.1279-1.5296-.2862-.5027-.1532-.9408-.3685-1.322-.6445-.2038-.1469-.3368-.309-.4115-.4698-.3761.2279-.7787.4457-1.2219.6496-1.0206.4647-2.221.7002-3.6037.7002-.999 0-1.8917-.1393-2.6679-.4153-.78-.2761-1.4258-.604-1.9437-.9839-.6191-.3798-1.1573-.8458-1.6081-1.3992-.4824.5888-1.037 1.1029-1.6549 1.5524-.523.3812-1.1485.7269-1.8943 1.0383-.742.3115-1.565.4647-2.4653.4647-.8965 0-1.7006-.1734-2.4084-.514-.7065-.347-1.3143-.8079-1.8132-1.3764-.1431-.1608-.2697-.3229-.3926-.4926-.0696.0697-.1316.1355-.2038.2077-.7952.761-1.8221 1.446-3.0858 2.0437-1.2612.609-2.806.9078-4.6394.9078-1.8285 0-3.3505-.3697-4.561-1.1104-1.2105-.7458-2.1665-1.7094-2.8781-2.906-.7066-1.1915-1.2118-2.5198-1.5018-3.9886-.2937-1.4676-.4393-2.9288-.4393-4.3812 0-.9686.0582-2.0829.181-3.3441.1191-1.2599.3077-2.5666.5686-3.9113.2608-1.3511.6229-2.6692 1.0877-3.9684.4685-1.2953 1.0446-2.464 1.7359-3.4986.6927-1.037 1.5157-1.8664 2.4679-2.4881.9459-.623 2.045-.9332 3.2897-.9332 1.0725 0 1.9335.233 2.5907.7002.6571.4673 1.1484 1.0282 1.4789 1.6841.328.6534.542 1.3409.6458 2.0475.1038.7091.1583 1.2877.1583 1.7347 0 1.5246-.3305 3.1365-.9877 4.8484-.6572 1.7107-1.4448 3.3707-2.3602 4.9775-.9104 1.6094-1.8373 3.0769-2.7705 4.4077-.9345 1.3296-1.6575 2.3603-2.1792 3.082.3115 1.0029.7952 1.7829 1.4536 2.3337.6559.5521 1.5549.8294 2.6958.8294 1.0345 0 1.9145-.1532 2.6452-.4685.7268-.3115 1.3295-.6534 1.8145-1.0345.4837-.3799.8445-.7598 1.0864-1.1409.2431-.3811.3963-.623.4647-.7268.0202-.0532.0443-.095.062-.1494.0076-.4344.0241-.8889.0431-1.3764.0342-.8142.0962-1.5917.1798-2.3362.0886-.742.2076-1.3878.3647-1.9449.1532-.5508.3507-.9155.5963-1.0877.4837-.2723.9155-.4305 1.2941-.4647.3812-.0342.6737-.0342.8851 0 .1038 0 .2837.0114.5407.0266.2583.0152.5229.0975.804.2304.2774.1393.5103.3736.699.704.1887.3267.2495.799.1811 1.4258-.1684 1.2751-.3191 2.2248-.4381 2.8478-.1229.6217-.1849 1.156-.1849 1.6106 0 .2039.062.4368.1849.6939.119.2621.2836.5229.4913.7812.2076.2584.4735.4761.804.6496.3267.1697.699.2571 1.1143.2571.861-.0342 1.6575-.4989 2.383-1.3992.7268-.8952 1.1763-2.0754 1.3486-3.5239.0354-.2419.0772-.58.1316-1.0143.0494-.4305.1115-.8623.1798-1.2953.0697-.4305.1545-.8104.2584-1.1371.1038-.3317.2114-.547.3102-.6496.2089-.1734.5964-.3114 1.1687-.4153.5698-.1025 1.0636-.1025 1.4764 0 .4483.1039.918.4153 1.3979.9332.485.5204.6724 1.1219.5724 1.8145-.0722.347-.1495.7952-.2343 1.3498-.0848.5534-.1469 1.113-.1798 1.6828-.0392.5686-.0392 1.1143 0 1.6335.0329.5153.138.9142.3102 1.1902.3812.5546.8535.9775 1.4258 1.2688.5685.295 1.4258.1848 2.5641-.3343.6914-.3128 1.2029-.6496 1.5296-1.0105.3254-.3659.5609-.6989.699-1.0104.1696-.3153.3216-.5888.4647-.8458.043-.3774.0848-.7686.1317-1.1802.1912-1.6904.3887-3.5239.5951-5.4916.2076-1.9677.3874-3.8138.5457-5.5245.157-1.7094.2963-3.1934.4141-4.4559.1241-1.2586.1811-2.0284.1811-2.3058 0-.4153.0962-.8179.2886-1.2181.1874-.395.4192-.7534.699-1.0636.2773-.3102.5584-.5521.8534-.7255.2925-.1735.5268-.2406.7003-.2052.1722.0317.4761.1469.9066.3369.433.1899.8559.4393 1.2725.7508.4103.3077.7674.6749 1.0599 1.0877.2963.4128.4077.8319.338 1.246-.0341.276-.138.8256-.3114 1.6575-.1723.8293-.3609 1.7803-.5673 2.8515-.2089 1.0712-.428 2.2045-.6509 3.3947-.2266 1.1916-.4419 2.283-.6495 3.2656-.2077.9852-.4293 2.1172-.6724 3.3948.6217-.485 1.2954-.9155 2.0222-1.2954.6217-.3089 1.3637-.5875 2.2285-.8306.8636-.2419 1.8133-.3254 2.8516-.257 1.0383.0696 1.9867.1886 2.8502.3608.8661.1773 1.6002.4685 2.2032.8851.603.4103 1.079.9915 1.426 1.7322.342.7458.519 1.7373.519 2.982zm-58.9377-15.5771c-.6914 1.227-1.66 2.3843-2.9009 3.4707-1.2447 1.0915-2.6907 2.007-4.3318 2.749-1.641.7445-3.3618 1.1687-5.156 1.2725-.2773 0-.5736-.0696-.8813-.2089-.2799-.138-.5812-.3317-.9054-.5939-.3317-.2621-.6318-.6508-.9079-1.1687-.3115-.5141-.4685-.9319-.4685-1.2421 0-.3141.0709-.5623.2077-.7522.138-.1912.3026-.3216.4913-.39.1925-.0671.3419-.1203.4419-.1557.3761-.033.9839-.2166 1.8132-.547.8307-.3267 1.6765-.7319 2.5413-1.2169.8636-.4824 1.6259-1.0244 2.2818-1.6334.6534-.6015 1.0193-1.2169 1.0839-1.8398 0-.2393-.0494-.4571-.1532-.6458-.0988-.1874-.347-.3545-.7269-.4951-.3798-.1355-.9028-.2343-1.5789-.2836-.6724-.0507-1.5803-.0595-2.7212-.0241-2.6603.1038-5.1421.485-7.4403 1.1409-2.2944.6559-4.3887 1.4612-6.2678 2.4096-1.8867.9497-3.5518 2.0146-5.0079 3.1884-1.4486 1.1763-2.6667 2.3475-3.65055 3.5239-.98385 1.1763-1.72839 2.2994-2.22855 3.3706-.50269 1.0713-.73441 1.9868-.70022 2.7478.03546 1.4878.46597 2.6932 1.29534 3.6264.83065.9358 1.86518 1.6765 3.10858 2.2298 1.246.5546 2.6097.9408 4.0962 1.1688 1.4841.2228 2.9136.352 4.3014.3887 2.7325.0646 5.3422-.1469 7.8278-.6496 2.4907-.4989 4.7002-1.0737 6.6338-1.7119 1.936-.6369 3.4998-1.2169 4.6926-1.736 1.1953-.5192 1.8753-.742 2.0475-.6724.1038 0 .2165.0076.3393.0279.1228.0139.214.1253.2837.333.0696.2064.0772.5419.024 1.0104-.0506.4698-.2317 1.165-.5432 2.102-.5179.7243-1.441 1.4764-2.7705 2.2539-1.3333.78-2.9212 1.4928-4.7724 2.1513-1.8487.6533-3.8784 1.2004-6.088 1.6334-2.2134.4305-4.4457.6635-6.6869.7002-2.459.0671-4.8991-.1709-7.3365-.7002-2.4325-.5381-4.63822-1.384-6.611-2.5451-1.96644-1.1561-3.58468-2.6236-4.84584-4.4027-1.259896-1.7803-1.9056656-3.8784-1.94365231-6.2994-.03418809-1.346.31149131-2.8212 1.03704231-4.4306.72681-1.6068 1.77271-3.1972 3.13643-4.7698 1.36372-1.5701 3.03894-3.0934 5.03071-4.561 1.98291-1.4675 4.21151-2.7654 6.68691-3.8898 2.4666-1.1193 5.1801-2.0019 8.1355-2.6388 2.9554-.6407 6.0906-.9282 9.4068-.8572.6926 0 1.6613.0595 2.906.1785 1.2421.1228 2.4792.3913 3.705.804 1.2269.4128 2.3133 1.0206 3.2668 1.8158.9497.7965 1.5106 1.8829 1.6828 3.2656v.0519c.1039 1.0725-.1924 2.221-.88 3.4467z" fill="#fff"/><g fill="#fcc62a"><path d="m188.442 26.5317-.296-.9206c-.035-.1127.035-.2317.141-.2697l.593-.3229c.111-.043.234.0216.268.1393l.321 1.0016c.038.1152-.024.2229-.139.2634l-.62.2532c-.111.0292-.234-.0291-.268-.1443zm-2.022 1.2118-.323-.9902c-.031-.1229.02-.233.143-.271l.603-.2634c.115-.0316.239.0216.272.1444l.32.9952c.031.1064-.026.2305-.138.2723l-.616.2519c-.112.0431-.233-.024-.261-.1392zm-2.082.9547-.315-.9915c-.028-.1177.03-.2418.138-.2722l.608-.2659c.121-.0304.241.0279.274.1418l.316 1.0003c.035.1241-.026.2318-.138.2735l-.615.2495c-.107.0392-.226-.0266-.268-.1355zm-2.656-.0848c-.03-.1178.027-.2292.141-.2634l.642-.157c.116-.0317.24.0304.281.1405l.312.9548c.033.1177-.03.2329-.15.2747l-.634.1849c-.119.0304-.232-.0291-.273-.1469zm-2.095.3304h.707c.104-.0405.223.0216.269.1406l.278.9053c.045.1203-.009.2356-.131.2773l-.673.0735c-.108.0354-.226-.0304-.266-.1304l-.318-.9991c-.027-.1076.03-.2304.134-.2672zm-2.249.4521.692-.0127c.124-.0342.235.0241.266.138l.292.9155c.042.1152-.02.2393-.139.2773l-.66.076c-.124.0355-.232-.0266-.273-.138l-.323-.9953c-.034-.1089.031-.2355.145-.2608zm-2.232.2406.7-.0038c.107-.0443.238.024.272.1456l.289.9117c.031.1177-.031.2431-.145.2735l-.663.0797c-.111.0355-.236-.0291-.276-.1456l-.315-.9876c-.035-.1077.032-.2381.138-.2735zm-2.325.1418h.697c.107-.0443.233.024.272.1317l.287.9155c.047.1177-.029.2329-.14.2722l-.662.081c-.119.0418-.246-.0253-.274-.1469l-.322-.9914c-.034-.1038.027-.2229.142-.2621zm-2.382-.0595h.699c.104-.0266.226.0291.274.138l.28.9155c.045.1177-.019.2368-.147.2709l-.66.0773c-.111.0392-.239-.0228-.27-.138l-.322-.9928c-.036-.1127.03-.2304.146-.2709zm-2.307.0405.689-.0063c.118-.0342.238.0253.269.1367l.296.918c.038.1254-.028.2355-.142.271l-.666.081c-.119.0342-.233-.0278-.277-.1456l-.317-.9889c-.035-.1051.026-.2305.148-.2659zm-2.366.0316h.69c.116-.0379.235.0266.263.1355l.299.9206c.027.1038-.023.2317-.145.2735l-.67.0734c-.104.0304-.23-.0253-.265-.1405l-.315-.9978c-.042-.0988.016-.2254.143-.2647zm-2.368.0659.7-.0063c.112-.033.234.0265.26.1392l.304.9193c.031.1115-.027.2292-.146.2697l-.676.0811c-.104.0342-.232-.0254-.262-.1393l-.322-.9953c-.03-.1076.032-.2355.142-.2684zm-1.195 1.2637-.665.0734c-.119.0405-.234-.0253-.269-.1405l-.322-.9978c-.038-.0988.019-.2254.138-.2609l.687-.0038c.128-.0379.247.0266.285.1355l.291.9206c.036.1165-.017.2317-.145.2735zm-2.318 0-.676.0734c-.115.0405-.223-.0253-.262-.1405l-.318-.9978c-.038-.0988.018-.2254.138-.2609l.703-.0038c.109-.0379.232.0266.257.1355l.293.9206c.047.1165-.027.2317-.135.2735zm24.734-15.9861-.288-.9218c-.035-.1127.027-.233.146-.2723l.576-.333c.111-.0316.238.0304.275.1406l.321.9978c.031.1241-.026.238-.149.2722l-.6.2608c-.127.0304-.254-.0329-.281-.1443zm-2.031 1.2054-.316-.9825c-.024-.1203.031-.2356.154-.2774l.595-.2583c.11-.0392.234.0241.264.1343l.327.9965c.039.1139-.03.2418-.142.2747l-.61.2571c-.112.0329-.239-.0291-.272-.1444zm-2.068.9573-.312-.9851c-.035-.1178.016-.2457.13-.2748l.611-.2659c.112-.0342.231.0241.262.1406l.323.9965c.046.1152-.016.2355-.135.2697l-.611.2634c-.1.0291-.231-.033-.268-.1444zm-2.66-.0772c-.031-.1102.035-.2381.146-.271l.641-.1583c.119-.0342.238.0317.277.138l.303.9586c.043.1177-.018.2355-.142.2709l-.633.1887c-.116.0329-.22-.0304-.273-.1456zm-2.087.3305.696-.014c.115-.0392.233.0342.272.1418l.289.9181c.037.1114-.024.2443-.138.2621l-.673.0823c-.108.0316-.242-.0304-.266-.1444l-.322-.9838c-.032-.1115.027-.2267.142-.2621zm-2.255.4406h.683c.13-.0431.25.0152.284.1317l.296.9193c.035.1114-.035.2342-.153.2722l-.67.0734c-.1.0418-.229-.0227-.276-.1418l-.307-.9876c-.035-.1127.019-.2292.143-.2672zm-2.226.257.692-.0139c.112-.0329.233.0241.265.1456l.299.918c.024.1013-.034.2318-.142.2622l-.669.0759c-.121.0355-.226-.0177-.272-.1355l-.315-.9901c-.039-.114.015-.2368.142-.2622zm-2.34.1317.707-.0101c.108-.038.23.0304.26.1406l.3.9192c.038.1115-.023.2292-.142.2697l-.668.076c-.115.038-.234-.0253-.269-.1431l-.319-.9826c-.044-.1139.027-.2418.131-.2697zm-2.38-.0633h.692c.119-.0316.247.0266.288.138l.28.9143c.043.124-.021.2456-.142.2735l-.663.0823c-.117.0329-.232-.0254-.277-.1444l-.316-.9902c-.034-.1127.031-.2355.138-.2735zm-2.302.0456.693-.0114c.122-.0342.225.0291.272.1418l.293.918c.026.1191-.027.2318-.146.2672l-.662.0798c-.118.043-.238-.019-.28-.1393l-.308-.9889c-.043-.114.023-.233.138-.2672zm-2.37.0228h.703c.11-.038.225.0228.264.138l.293.918c.034.1115-.03.2305-.146.2697l-.666.0811c-.121.0304-.229-.0279-.276-.1406l-.311-.9864c-.043-.1127.011-.233.139-.2798zm-2.36.0696h.69c.12-.0329.247.0228.273.1355l.294.9206c.038.1076-.031.2279-.135.2646l-.673.0912c-.115.0228-.231-.0342-.277-.1558l-.319-.9775c-.03-.1178.035-.2406.147-.2786zm-1.188 1.2561-.676.0811c-.119.0405-.246-.0254-.274-.1406l-.306-.9864c-.047-.1127.015-.233.134-.2722l.692-.0076c.115-.038.231.0228.272.138l.29.9244c.034.1127-.028.2304-.132.2633zm-2.332 0-.673.0811c-.103.0405-.231-.0254-.266-.133l-.315-.994c-.038-.1127.028-.233.138-.2722l.7-.0076c.108-.038.232.0266.265.138l.294.9244c.034.1127-.028.2304-.143.2633zm29.684-8.3824c-6.549 6.8541-16.48 6.2045-19.489 6.2045-8.947 0-12.659-.0202-12.659-.0202l4.873 15.0035.046-.0076s3.856.0481 12.805.0481c2.997 0 12.19-.1836 19.381-6.0209z"/><path d="m152.006 2.06901h-.966c-.122 0-.219-.09877-.219-.21399l-.126-.65717c0-.11396.088-.207664.203-.217794h1.053c.127 0 .22.091174.22.217794l.045.65717c0 .12662-.095.21399-.21.21399zm.534 2.29567-1.038.01392c-.115-.01393-.219-.09623-.211-.21779l-.07-.66223c0-.1127.096-.21779.22-.2026l1.052-.01519c.116 0 .2.10509.2.21779l.07.66223c-.016.11143-.1.20387-.223.20387zm.28 2.27287h-1.038c-.115 0-.215-.09497-.215-.21526l-.069-.65464c0-.11902.1-.21399.215-.21399h1.05c.118 0 .219.09497.219.21399l.046.65464c.011.12029-.09.21526-.208.21526zm-.881 2.50079c-.118 0-.214-.0937-.21-.21146l.049-.65717c0-.12155.096-.22032.208-.22032h1.01c.124 0 .212.09117.212.22032l-.019.65717c0 .11776-.089.21146-.207.21146zm-.322 2.10066.204-.661c0-.1291.096-.2228.218-.2228h.961c.12 0 .211.1051.211.2228l-.134.661c0 .1178-.088.2216-.206.2127l-1.04.0089c-.118 0-.214-.1038-.214-.2216zm-.276 2.2893.222-.6685c0-.1203.096-.2153.215-.2153h.961c.115 0 .208.095.208.2153l-.127.6685c0 .114-.096.214-.211.214h-1.042c-.122 0-.226-.1-.226-.214zm-.423 2.1931.204-.6622c0-.1177.099-.2102.219-.2102h.964c.111 0 .204.0925.2.2102l-.123.6686c0 .1127-.1.2127-.211.2127h-1.046c-.119 0-.207-.1-.207-.2191zm-.576 2.2603.203-.6648c0-.1241.096-.2165.215-.2165h.965c.119 0 .21.1025.21.2165l-.129.661c0 .1228-.093.2177-.208.2177h-1.042c-.127.0038-.214-.0949-.214-.2139zm-.774 2.2602.201-.6673c0-.1178.092-.2178.219-.2178h.948c.132 0 .224.0962.224.2178l-.13.6673c-.004.1089-.094.2102-.209.2102l-1.045.0038c-.111 0-.208-.1051-.208-.214zm-.672 2.207.208-.6648c0-.1165.091-.2178.204-.2178h.976c.118 0 .215.1077.215.2178l-.135.6648c0 .1203-.095.2178-.219.2178h-1.037c-.116 0-.212-.0975-.212-.2178zm-.687 2.2678.21-.661c0-.1215.092-.2253.212-.2253h.965c.116 0 .208.0974.208.2253l-.132.661c0 .1178-.087.2165-.207.2165h-1.046c-.112 0-.21-.0987-.21-.2165zm-.659 2.2653.201-.6623c0-.119.1-.2152.226-.2101l.957-.0051c.123-.0051.219.0962.219.2152l-.126.6623c0 .119-.101.219-.22.219h-1.042c-.114 0-.215-.1-.215-.219zm.842 1.5169-.138.6711c0 .1216-.092.2127-.211.2127h-1.041c-.115.0038-.212-.0911-.208-.2063l.204-.6775c0-.1114.096-.2102.215-.2102h.952c.123 0 .227.0988.227.2102zm-.714 2.2184-.128.6585c0 .1253-.095.2228-.214.2228h-1.034c-.116 0-.216-.0975-.216-.2228l.216-.6585c0-.1177.092-.219.203-.2241l.969.0051c.12-.0051.204.1013.204.219zm-7.714-28.43177h-.961c-.118.00887-.214-.09496-.214-.21652l-.13-.6597c0-.11016.087-.21146.206-.21146h1.054c.119 0 .224.09496.224.21146l.049.6597c-.013.12156-.104.21652-.228.21652zm.54 2.2982h-1.039c-.115 0-.223-.08357-.223-.20513l-.049-.66223c0-.11649.087-.21652.206-.21652l1.05-.00127c.127 0 .215.1013.215.21779l.059.66223c0 .11776-.104.20513-.219.20513zm.284 2.27541h-1.049c-.112 0-.209-.10003-.209-.22159l-.065-.65591c0-.11396.1-.21399.216-.21399h1.042c.129 0 .226.10003.226.21399l.055.65591c0 .12156-.098.22159-.216.22159zm-.89 2.50206c-.106 0-.212-.0975-.21-.21906l.051-.6635c0-.12029.092-.20893.211-.20386l1.003-.00507c.122 0 .219.08864.219.20893l-.011.6635c0 .12156-.102.21906-.212.21906zm-.318 2.0994.212-.666c0-.1267.089-.2166.211-.2166h.96c.12 0 .213.0975.209.2166l-.123.666c0 .1102-.1.2127-.215.2026l-1.034.0101c-.123 0-.22-.1025-.22-.2127zm-.272 2.2817.219-.6584c0-.1228.1-.2241.212-.2241h.956c.126 0 .219.1013.219.2241l-.126.6584c0 .1165-.1.2153-.212.2153h-1.046c-.11 0-.222-.0962-.222-.2153zm-.434 2.1982.215-.6572c-.007-.1228.091-.2241.215-.2127l.954-.0114c.118 0 .211.1013.211.2241l-.12.6572c0 .119-.099.2191-.215.2191h-1.045c-.113 0-.207-.1001-.215-.2191zm-.565 2.2589.208-.6635c0-.1126.091-.219.206-.219h.963c.121 0 .212.1064.206.219l-.127.6597c0 .1216-.088.2153-.204.2153h-1.044c-.115 0-.208-.0937-.208-.2115zm-.781 2.2565.208-.6635c0-.1178.092-.2178.215-.2178h.965c.111 0 .196.1.196.2178l-.111.6635c0 .1152-.102.2152-.216.2152h-1.042c-.118 0-.215-.1-.215-.2152zm-.669 2.2108.204-.666c0-.1229.1-.2166.219-.2166h.969c.111 0 .208.0975.208.2166l-.124.666c0 .1139-.103.2178-.223.2178h-1.037c-.123 0-.216-.1039-.216-.2178zm-.687 2.2665.204-.6571c0-.1254.1-.2204.206-.2204h.969c.124 0 .216.095.216.2204l-.135.6571c0 .1165-.084.2153-.208.2153h-1.045c-.112 0-.207-.0962-.207-.2153zm-.654 2.2678.2-.6622c0-.1216.108-.2191.222-.2191h.969c.109 0 .204.0975.204.2191l-.13.6622c.004.1127-.089.2115-.215.2115h-1.034c-.114 0-.216-.0988-.216-.2115zm.835 1.5258-.132.6597c0 .1241-.099.2052-.219.2052h-1.033c-.115.0126-.223-.0861-.223-.2052l.211-.6597c0-.1278.101-.2215.216-.2279h.972c.112 0 .208.1001.208.2279zm-.712 2.2134-.123.6584c0 .1216-.096.214-.207.2153h-1.05c-.114 0-.219-.0937-.219-.2153l.211-.6622c0-.1254.102-.214.22-.2191h.964c.108 0 .204.0937.204.2229zm1.039-30.837637c4.53 8.327957.897 17.589137-.017 20.449537-2.724 8.5356-3.851 12.0621-3.851 12.0621l15.769-.095v-.0329s1.223-3.662 3.939-12.195c.919-2.863 3.528-11.66831.146-20.2913z"/><path d="m117.59 29.0483-.306.9105c-.028.1139-.155.1772-.274.138l-.663-.0773c-.112-.0392-.174-.1544-.147-.2659l.334-1.0028c.038-.1114.161-.1735.265-.1355l.649.1583c.116.038.173.157.142.2747zm2.357.2039-.335.9889c-.03.1051-.143.171-.26.1304l-.642-.138c-.128-.0405-.178-.1608-.143-.2747l.322-.9991c.035-.1064.154-.1684.265-.1329l.655.1557c.111.038.176.1519.138.2697zm2.233.4432-.328.9826c-.022.1165-.158.1785-.264.138l-.642-.1444c-.115-.0341-.181-.1544-.142-.2735l.319-.9889c.046-.1177.168-.1671.281-.1405l.638.1582c.118.038.175.1545.138.2685zm2.109 1.6182c-.041.1089-.17.1735-.276.1317l-.616-.252c-.107-.0354-.164-.1608-.134-.2684l.315-.9535c.034-.1139.155-.1722.272-.1418l.625.2279c.11.0304.168.1469.138.2723zm1.891.9586-.577-.3976c-.108-.0469-.165-.1697-.133-.2761l.299-.9205c.038-.0988.164-.171.268-.1292l.597.3292c.11.0368.181.1545.134.2735l-.315.9814c-.038.1101-.161.1798-.273.1393zm2.087.9635-.566-.4051c-.114-.038-.168-.1609-.129-.271l.286-.9104c.044-.1165.166-.1824.277-.1355l.589.314c.108.0481.174.1671.142.29l-.329.9788c-.028.1114-.162.1734-.27.1392zm1.956 1.0941-.573-.3964c-.11-.0316-.172-.162-.134-.2722l.298-.9092c.037-.119.155-.1772.278-.1405l.581.3267c.119.0354.176.1583.142.2735l-.323.9851c-.031.1178-.158.1747-.269.133zm1.963 1.2611-.561-.4039c-.119-.0405-.181-.1557-.134-.2798l.292-.9067c.042-.1164.157-.1772.261-.1291l.604.3241c.11.0279.169.152.126.2647l-.318.9864c-.031.119-.155.1747-.27.1443zm1.898 1.4397-.563-.4014c-.121-.0456-.178-.1646-.138-.2773l.302-.9193c.031-.1063.159-.1684.274-.1304l.583.3267c.119.0393.18.1659.142.2735l-.319.9851c-.045.1153-.166.1811-.281.1431zm1.903 1.3296-.568-.4166c-.112-.0292-.185-.157-.138-.2685l.295-.9091c.039-.1165.162-.1824.273-.1368l.6.328c.104.043.165.1532.13.2722l-.327.9839c-.034.1127-.161.1734-.265.1469zm1.934 1.3523-.562-.4065c-.122-.0354-.184-.1519-.138-.2697l.3-.9117c.035-.1114.149-.181.276-.1367l.585.3381c.115.0342.169.1532.138.2646l-.323.9877c-.042.1063-.165.1684-.276.1342zm1.956 1.3257-.574-.3988c-.103-.0355-.172-.1583-.13-.2659l.296-.9219c.04-.1076.165-.1772.265-.1354l.596.3342c.112.0342.178.1583.135.2659l-.321.9788c-.033.1203-.159.1811-.267.1431zm1.698-.3178.596.3292c.112.0393.18.1608.137.2685l-.321.9965c-.04.1101-.17.176-.265.1266l-.574-.3989c-.114-.0392-.179-.1544-.149-.2697l.306-.9104c.032-.1203.166-.1811.27-.1418zm1.88 1.3675.602.3191c.104.0342.173.1659.132.2798l-.32.9877c-.034.1127-.16.1659-.281.1228l-.555-.3912c-.128-.0431-.185-.1545-.14-.2697l.3-.9105c.034-.119.159-.1836.262-.138zm-29.415-1.541-.304.918c-.038.1191-.153.1684-.272.1419l-.665-.0773c-.112-.0456-.177-.1646-.139-.271l.322-.9977c.044-.1127.165-.1824.278-.1381l.646.1507c.111.0456.173.1697.134.2735zm2.36.2064-.33.9915c-.036.1114-.146.1772-.266.1355l-.65-.1355c-.108-.0456-.18-.1608-.134-.2799l.329-.9952c.035-.1114.152-.1735.277-.1431l.635.1545c.115.038.169.1608.139.2722zm2.24.447-.332.9839c-.033.1076-.161.1798-.268.138l-.645-.138c-.115-.0355-.177-.1621-.139-.2647l.334-1.0079c.031-.1076.151-.1773.266-.1418l.642.1532c.115.0342.176.1621.142.2773zm2.102 1.6182c-.034.1115-.157.176-.27.133l-.614-.2571c-.119-.0379-.181-.1456-.132-.2697l.309-.9509c.035-.1165.159-.1735.265-.1279l.623.2153c.119.0304.176.157.138.2773zm1.887.9522-.565-.3988c-.123-.0355-.166-.1558-.138-.2773l.304-.9104c.034-.1051.149-.1735.272-.1381l.58.333c.12.0393.181.1697.142.2774l-.322.9863c-.03.1077-.154.1659-.273.1279zm2.091.9611-.558-.4001c-.127-.0431-.185-.1621-.149-.2761l.3-.9079c.041-.1139.168-.1772.279-.138l.584.3343c.115.0355.183.1659.139.2722l-.319.9877c-.039.1114-.16.1735-.276.1279zm1.948 1.1181-.565-.4154c-.111-.0303-.161-.1608-.13-.2684l.296-.9142c.034-.1127.161-.1697.284-.1355l.58.3191c.115.0532.177.1684.135.2798l-.315.9965c-.04.1115-.169.1609-.285.1381zm1.975 1.2409-.561-.4027c-.119-.0354-.177-.1659-.145-.2646l.291-.9155c.047-.1152.169-.1697.281-.138l.592.3229c.103.0417.174.1608.139.2722l-.327.9889c-.039.114-.155.1748-.27.1368zm1.899 1.4447-.573-.4039c-.108-.0367-.165-.157-.134-.2824l.307-.904c.028-.1115.154-.1849.265-.1393l.593.3393c.115.0304.176.1456.138.2609l-.323.9838c-.038.1165-.159.1735-.273.1456zm1.895 1.3207-.57-.4027c-.114-.0443-.167-.1646-.134-.2722l.3-.9129c.042-.1241.153-.1735.268-.1368l.593.328c.107.0341.177.157.129.2684l-.32.9877c-.028.1266-.152.1734-.266.1405zm1.937 1.3511-.561-.3964c-.116-.0342-.177-.1608-.135-.2722l.288-.9066c.042-.1203.162-.1786.28-.1418l.588.3279c.116.0405.182.1621.139.2735l-.323.9839c-.043.119-.17.1785-.276.1317zm1.955 1.3384-.568-.4141c-.112-.0291-.169-.1532-.135-.2659l.299-.9079c.032-.1228.162-.1811.27-.1469l.595.3381c.115.0342.17.1545.132.2583l-.331.9991c-.028.1139-.142.1684-.262.1393zm1.703-.3204.595.3305c.112.0392.174.1545.136.276l-.334.9814c-.031.119-.147.176-.263.138l-.564-.3989c-.119-.0354-.174-.1659-.136-.2849l.29-.9117c.05-.1038.165-.1658.276-.1304zm1.883 1.3523.593.3318c.107.0418.171.157.14.2722l-.321.9877c-.047.1152-.162.1734-.278.1456l-.568-.4065c-.117-.038-.178-.162-.138-.2811l.302-.918c.036-.1038.159-.1697.27-.1317zm-28.977-10.5831c9.327-1.7106 16.991 4.6268 19.439 6.3881 7.247 5.2447 10.238 7.4277 10.238 7.4277l4.842-15.0149-.038-.019s-3.098-2.2982-10.361-7.5441c-2.425-1.7626-9.981-6.9909-19.232-6.4603z"/><path d="m132.619 70.1811.773.561c.1.0645.111.2152.049.3077l-.283.6141c-.074.0924-.204.1127-.301.038l-.848-.6142c-.094-.0734-.111-.2101-.047-.3076l.355-.5534c.076-.1026.207-.119.302-.0456zm.924-2.1867.836.6191c.102.0646.123.1988.051.2913l-.332.585c-.077.0987-.21.1114-.31.0494l-.838-.6344c-.104-.0684-.119-.1988-.049-.2963l.341-.5749c.081-.0848.208-.1.301-.0392zm1.12-1.9956.838.6204c.098.0684.112.2178.047.2989l-.338.585c-.078.0987-.208.1152-.296.0417l-.852-.6267c-.1-.0621-.124-.1925-.041-.2989l.336-.566c.077-.0924.207-.1114.306-.0544zm2.196-1.479c.087.0646.114.2001.042.2887l-.431.5065c-.062.0963-.206.1203-.299.0532l-.808-.5951c-.096-.0709-.126-.2191-.045-.3077l.402-.5179c.066-.1.208-.1114.298-.0494zm1.494-1.5055-.552.4102c-.079.1077-.208.1229-.304.0469l-.778-.566c-.087-.0734-.117-.2153-.045-.295l.504-.4622c.058-.1026.204-.1152.295-.0456l.846.6141c.092.0659.107.1963.034.2976zm1.569-1.679-.562.4153c-.075.0874-.199.114-.299.0329l-.776-.5609c-.093-.0811-.12-.2153-.05-.3026l.495-.4622c.081-.0924.212-.1152.307-.038l.842.6078c.088.0633.111.2064.043.3077zm1.652-1.5195-.557.4166c-.073.095-.208.1102-.3.0329l-.772-.5609c-.1-.0722-.117-.2039-.046-.2963l.5-.4723c.063-.0798.191-.1038.295-.038l.833.6141c.097.0785.116.2077.047.3039zm1.802-1.4789-.552.4153c-.077.1038-.208.1177-.309.0494l-.765-.5686c-.107-.0683-.126-.2127-.053-.3077l.499-.4621c.062-.095.205-.1153.301-.0444l.83.6104c.103.0734.119.2127.049.3077zm1.973-1.3612-.574.4191c-.061.0886-.2.1114-.296.0354l-.776-.5723c-.095-.0544-.119-.1925-.042-.2963l.491-.4495c.07-.1076.205-.1152.312-.0506l.823.6141c.095.0658.123.2076.062.3001zm1.847-1.3903-.572.4191c-.07.0949-.205.1152-.3.0418l-.776-.5648c-.1-.0734-.119-.2102-.042-.3039l.495-.4571c.07-.0962.208-.1228.289-.0468l.857.6103c.087.0671.114.2089.049.3014zm1.879-1.4106-.548.4001c-.075.1038-.213.1152-.294.0494l-.787-.5648c-.104-.0696-.119-.2114-.046-.3l.495-.4685c.066-.0874.209-.1115.308-.0469l.838.623c.093.0696.115.2038.034.3077zm1.873-1.4524-.555.4191c-.069.095-.207.1191-.302.038l-.776-.5609c-.094-.0747-.119-.2115-.049-.3039l.497-.4622c.066-.0874.204-.1139.296-.0418l.845.6078c.101.0811.112.2115.044.3039zm.229-1.7157.5-.4559c.073-.1.204-.119.308-.0379l.829.6027c.097.0696.121.2.042.3001l-.552.414c-.078.0925-.208.1165-.308.0469l-.777-.5648c-.087-.0848-.104-.2114-.042-.3051zm1.877-1.3599.495-.4647c.073-.09.2-.1077.304-.0494l.842.6217c.095.0671.11.2.045.3077l-.568.4014c-.074.0949-.204.1139-.293.0494l-.776-.5648c-.104-.0772-.128-.2114-.049-.3013zm-10.611 27.4745.787.5698c.088.0646.108.2064.047.3026l-.285.618c-.073.0899-.2.1114-.304.0392l-.842-.6154c-.096-.0835-.13-.2026-.053-.295l.354-.5723c.073-.0975.207-.1153.296-.0469zm.933-2.1754.842.6192c.085.0659.111.2001.046.3039l-.335.5635c-.072.0899-.21.1165-.295.043l-.861-.6065c-.088-.0848-.111-.2114-.043-.3127l.351-.5673c.068-.0874.206-.1076.295-.0431zm1.11-1.9905.85.6116c.085.0836.112.2064.042.2988l-.331.585c-.076.0836-.211.1153-.302.038l-.854-.623c-.084-.0721-.114-.195-.043-.2988l.351-.5647c.065-.0887.2-.1115.287-.0469zm2.202-1.4954c.098.0735.112.2089.04.3039l-.438.5027c-.062.0975-.204.1203-.289.0443l-.814-.5913c-.095-.0709-.108-.2089-.038-.3039l.399-.5268c.073-.0899.207-.1114.306-.0354zm1.496-1.5068-.553.4242c-.074.1026-.212.1152-.304.0405l-.78-.5597c-.092-.0721-.104-.2152-.042-.3115l.495-.4495c.066-.1038.208-.1139.308-.0506l.834.604c.1.0962.119.2279.042.3026zm1.571-1.6714-.568.4039c-.07.1-.204.1114-.295.0456l-.782-.5609c-.083-.0722-.117-.2115-.041-.3027l.496-.4621c.072-.0925.208-.1026.299-.038l.834.6078c.112.0582.127.2076.057.3064zm1.658-1.5182-.569.4115c-.062.0962-.205.1279-.301.0469l-.771-.5762c-.1-.0658-.117-.1962-.04-.2963l.484-.4647c.077-.0772.215-.1051.315-.0392l.84.6192c.087.0645.114.2051.042.2988zm1.786-1.4663-.557.3951c-.061.1038-.2.1266-.3.0506l-.768-.5571c-.093-.0899-.116-.2204-.046-.3166l.487-.4571c.081-.0886.211-.114.309-.0456l.841.6154c.091.076.114.2039.034.3153zm1.968-1.3726-.562.4115c-.072.095-.204.1229-.299.0494l-.772-.5749c-.1-.0671-.116-.2127-.043-.3013l.492-.4622c.066-.0836.208-.1038.295-.0329l.846.6015c.101.0785.111.2203.043.3089zm1.853-1.3865-.566.4102c-.066.0988-.208.1153-.299.0456l-.78-.5647c-.093-.0772-.115-.2102-.036-.3077l.493-.4533c.073-.1076.204-.119.299-.0532l.837.623c.102.0722.109.195.052.3001zm1.89-1.4194-.566.4039c-.061.1063-.2.119-.291.0544l-.784-.5698c-.091-.0772-.115-.2026-.035-.3115l.492-.4495c.074-.0873.208-.1228.307-.0506l.828.6192c.1.0658.114.2013.049.3039zm1.875-1.4461-.564.4166c-.066.0836-.204.1064-.294.0418l-.775-.5723c-.104-.0583-.123-.2001-.049-.2951l.495-.4621c.064-.0887.203-.1191.296-.0456l.841.6141c.088.0798.111.2077.05.3026zm.223-1.7081.497-.4774c.072-.0924.207-.1076.307-.038l.822.6192c.119.057.127.1963.061.3077l-.564.4014c-.078.0975-.204.1203-.301.0355l-.78-.561c-.08-.0658-.115-.2038-.042-.2874zm1.875-1.3726.504-.4622c.066-.0911.199-.1253.292-.0494l.849.6218c.089.0658.104.1975.036.2925l-.551.4191c-.081.0962-.219.1114-.31.043l-.776-.5736c-.087-.062-.112-.2026-.044-.2912zm-19.073 24.2495c1.282-9.4005 9.681-14.7224 12.103-16.4939 7.248-5.27 10.256-7.4365 10.256-7.4365l-12.775-9.2549-.014.0266s-3.164 2.2299-10.399 7.4948c-2.421 1.7601-9.739 7.3175-12.122 16.271z"/><path d="m176.594 68.829.784-.5673c.1-.0582.228-.0392.304.0532l.489.4647c.077.1038.045.2343-.05.3077l-.845.6002c-.104.0798-.238.0443-.308-.0469l-.427-.5077c-.073-.1076-.034-.2343.053-.3039zm-1.77-1.56.841-.6065c.1-.0659.234-.0431.296.0494l.438.4963c.069.0963.062.2292-.049.2912l-.85.623c-.1.0722-.23.0469-.296-.0506l-.438-.5065c-.061-.0962-.043-.2191.058-.2963zm-1.553-1.6828.849-.6192c.095-.0532.233-.0367.308.0658l.442.4926c.062.0836.042.233-.053.3039l-.854.6103c-.104.0722-.239.0443-.304-.0506l-.434-.4989c-.058-.1039-.034-.2393.046-.3039zm-.718-2.5477c.092-.0759.226-.0582.291.038l.349.5762c.066.0848.043.2279-.061.2887l-.811.5875c-.099.0658-.234.0468-.299-.0456l-.374-.5533c-.068-.1039-.053-.2305.055-.2963zm-.958-1.9056.223.6559c.07.1076.034.2431-.053.3039l-.785.5647c-.104.0659-.229.0431-.299-.0658l-.277-.6028c-.072-.0924-.055-.238.049-.2874l.842-.6192c.089-.0696.231-.0392.3.0507zm-1.106-2.007.211.6534c.062.1013.051.2317-.049.3039l-.784.5647c-.098.0494-.228.038-.309-.0544l-.268-.6142c-.07-.0987-.047-.2393.05-.3013l.845-.6053c.096-.0785.23-.043.304.0532zm-.931-2.0525.223.6647c.066.0823.043.2305-.058.2976l-.78.5685c-.092.0621-.223.0367-.294-.0582l-.281-.6141c-.067-.1115-.036-.2406.053-.309l.846-.5913c.091-.0735.23-.0532.291.0418zm-.829-2.1716.214.6648c.07.0975.043.2228-.061.2925l-.773.5609c-.096.0696-.235.0468-.296-.0532l-.284-.6116c-.069-.0911-.049-.2304.055-.3013l.837-.6015c.1-.0734.232-.0494.308.0494zm-.677-2.2944.212.6724c.073.0899.053.2228-.043.2924l-.795.5623c-.092.0683-.227.0506-.293-.0583l-.28-.6078c-.069-.0987-.043-.233.061-.3026l.838-.604c.097-.0722.231-.0468.3.0456zm-.742-2.1817.219.661c.066.1025.038.2342-.053.3038l-.773.5445c-.111.0811-.25.0583-.308-.0418l-.276-.6103c-.074-.1038-.053-.2317.047-.3127l.848-.599c.104-.0658.223-.0367.296.0545zm-.749-2.2501.211.6622c.081.0963.042.2318-.049.3039l-.789.5572c-.084.0734-.223.043-.291-.0532l-.289-.6154c-.066-.0962-.03-.2267.058-.3001l.852-.6065c.098-.0659.227-.0431.297.0519zm-.78-2.2197.207.6648c.07.0848.046.2266-.054.295l-.775.5546c-.096.0722-.235.0494-.304-.0544l-.281-.6116c-.073-.0988-.038-.2343.055-.2988l.844-.6066c.1-.062.238-.0468.308.057zm-1.564-.7572-.281-.6141c-.074-.1038-.049-.2355.051-.309l.84-.5989c.097-.0734.24-.0443.3.0494l.227.6648c.066.1.038.2317-.058.2975l-.779.5648c-.105.0671-.228.0405-.3-.0545zm-.708-2.2134-.289-.6153c-.072-.0963-.041-.2229.054-.3039l.846-.5939c.103-.0696.231-.0544.301.0456l.215.6635c.069.0924.046.2317-.043.3039l-.795.5546c-.085.0684-.223.0418-.289-.0545zm22.763 18.6958.776-.5609c.1-.0772.242-.0468.308.038l.491.4698c.07.0962.043.2292-.053.3001l-.85.6103c-.096.0532-.235.0456-.3-.0532l-.425-.5065c-.066-.0975-.048-.2279.053-.2976zm-1.784-1.5713.853-.604c.1-.0646.232-.0443.297.0544l.442.4951c.073.1076.045.2393-.055.2963l-.857.6154c-.099.076-.229.0456-.295-.0544l-.427-.5116c-.066-.0836-.049-.2229.042-.2912zm-1.53-1.6752.837-.6142c.107-.0671.245-.0367.306.0532l.434.5027c.076.0937.057.2305-.047.2963l-.852.6065c-.101.0735-.232.0545-.309-.0532l-.422-.5001c-.068-.1038-.05-.233.053-.2912zm-.73-2.5553c.096-.0696.232-.0519.297.0519l.338.5622c.069.0963.05.2343-.05.2963l-.814.5876c-.102.0658-.235.0544-.308-.0545l-.365-.5457c-.073-.1039-.047-.2292.05-.2989zm-.96-1.8993.219.6647c.07.0925.049.2229-.046.2963l-.796.5584c-.089.0672-.223.0444-.291-.0544l-.281-.6002c-.057-.1076-.05-.238.054-.3102l.841-.6015c.096-.076.235-.0532.3.0469zm-1.107-2.0133.216.6571c.073.1039.045.2343-.043.2989l-.792.566c-.096.0646-.223.038-.302-.057l-.27-.6129c-.077-.0911-.053-.2329.043-.3038l.852-.599c.089-.0683.232-.0456.296.0507zm-.921-2.0488.219.6648c.062.0962.045.2228-.043.295l-.789.5584c-.099.0697-.23.0418-.295-.0456l-.285-.6115c-.069-.1001-.046-.2343.054-.3027l.838-.6014c.104-.076.231-.0456.301.043zm-.831-2.1791.209.6685c.071.1001.044.2317-.047.3039l-.781.5572c-.1.0658-.233.0519-.312-.0532l-.278-.6116c-.066-.0962-.036-.2343.055-.3115l.85-.5989c.097-.0684.23-.0431.304.0456zm-.678-2.2742.213.6559c.069.0975.05.2393-.047.3014l-.783.5521c-.104.0734-.239.0506-.307-.0583l-.273-.6052c-.07-.0925-.055-.228.049-.3001l.846-.6078c.096-.0659.239-.038.302.062zm-.748-2.1982.217.6598c.079.0962.055.2355-.036.3114l-.8.5496c-.087.0684-.225.043-.288-.0456l-.292-.6154c-.061-.1038-.042-.2304.066-.2988l.833-.6065c.104-.0697.243-.0482.3.0455zm-.746-2.245.224.6635c.061.0975.046.2394-.062.2976l-.783.5571c-.089.076-.232.0444-.297-.0506l-.277-.6065c-.061-.1001-.047-.2356.043-.3115l.842-.599c.111-.0709.225-.0468.31.0494zm-.791-2.226.223.666c.073.0963.043.2267-.053.2913l-.785.5584c-.088.076-.226.0532-.296-.0481l-.281-.6104c-.072-.0949-.041-.2304.05-.3013l.849-.6091c.1-.0683.228-.0418.293.0532zm-1.553-.7483-.283-.6192c-.07-.0924-.051-.2267.056-.3039l.845-.6091c.094-.0645.232-.0405.289.0596l.215.6584c.081.1152.059.233-.034.2976l-.799.5622c-.094.0734-.219.0468-.289-.0456zm-.706-2.221-.277-.6052c-.074-.1089-.059-.2318.041-.3039l.846-.6091c.096-.0658.231-.0443.291.0557l.228.6648c.069.0924.05.2317-.054.2976l-.784.5546c-.096.0734-.23.0468-.291-.0545zm17.032 25.7284c-8.528-4.1659-10.926-13.8157-11.857-16.6749-2.724-8.5293-3.839-12.0671-3.839-12.0671l-12.804 9.2194.026.0304s1.134 3.6973 3.859 12.2254c.915 2.8515 3.893 11.5492 11.651 16.6166z"/></g><g fill="#fff"><path d="m241.863 56.6012h-8.37v-23.2023h8.37zm-8.66-33.1637h8.371v6.6363h-8.371z"/><path d="m254.084 56.7264h-8.381v-23.2656h7.698v3.6201c1.019-1.5207 2.076-2.6122 3.208-3.2668 1.119-.6623 2.441-1.0016 3.951-1.0016 2.571 0 4.575.7965 5.997 2.3767 1.413 1.5878 2.113 3.9367 2.113 7.0491v14.4881h-8.414v-12.8078c0-1.3498-.265-2.3375-.784-2.9453-.525-.6116-1.264-.918-2.212-.918-.946 0-1.714.3533-2.296 1.07-.583.7103-.88 1.855-.88 3.4314z"/><path d="m294.866 42.4219c-.476-2.0133-1.288-3.7468-2.421-5.2561-1.145-1.4916-2.529-2.5869-4.17-3.2909-1.629-.7066-3.393-1.0624-5.269-1.0624-3.588 0-6.464 1.1839-8.645 3.548-2.181 2.3526-3.267 5.3776-3.267 9.0902 0 3.5049 1.075 6.3678 3.246 8.6078 2.148 2.2374 5.131 3.3681 8.932 3.3681 2.371 0 4.422-.4545 6.155-1.346 1.722-.8952 3.067-2.0449 4.03-3.4403.583-.8446.99-1.836 1.197-2.9554h-7.989c-.573 1.2574-1.587 1.8905-3.017 1.8905-1.329 0-2.364-.3824-3.094-1.1523-.722-.7723-1.091-1.8448-1.164-3.225h15.937c.007-1.8816-.146-3.4771-.461-4.7762zm-14.267-2.9896c.655-.6951 1.493-1.0307 2.549-1.0307 1.169 0 2.087.3546 2.782 1.0852.689.7293 1.054 1.7246 1.081 2.9895h-7.548c.103-1.346.48-2.3488 1.136-3.044z"/><path d="m306.803 54.4092c.611.8079 1.134 1.3903 1.568 1.7601.431.3621.984.6723 1.677.9256.676.2279 1.49.3545 2.438.3545 2.707 0 4.954-1.1117 6.796-3.3314 1.83-2.2184 2.752-5.2434 2.752-9.0712 0-2.3134-.376-4.423-1.115-6.3337-.749-1.8981-1.852-3.3606-3.31-4.3824-1.46-.999-3.084-1.5182-4.887-1.5182-1.611 0-3.04.3963-4.256 1.1839-1.236.7889-2.078 1.7651-2.52 2.9491v-3.4492h-7.508v32.238h8.365zm5.845-13.4637c.677.8964 1.007 2.2184 1.007 3.9974 0 1.1308-.149 2.1222-.438 2.9681-.308.8521-.731 1.4561-1.269 1.8398-.568.3837-1.183.585-1.87.585-1.033 0-1.861-.4419-2.514-1.3106-.634-.8724-.957-2.2754-.957-4.2621 0-1.6878.338-2.9667 1.033-3.843.697-.8724 1.526-1.3105 2.525-1.3105.992 0 1.819.4457 2.483 1.3359z"/><path d="m327.384 36.2148c-2.108 2.2653-3.165 5.2739-3.165 9.0409 0 2.7439.572 5.0649 1.703 6.944 1.136 1.8752 2.631 3.2238 4.484 4.0354 1.853.8066 3.769 1.2156 5.757 1.2156 2.402 0 4.542-.5432 6.448-1.6233 1.891-1.0763 3.286-2.5287 4.177-4.3495.899-1.8271 1.35-3.9215 1.35-6.2881 0-3.7467-1.056-6.7489-3.148-9.0015-2.094-2.2539-5.046-3.3758-8.859-3.3758-3.73 0-6.64 1.1345-8.747 3.4023zm7.068 14.3831c-.58-.3925-1.033-1.0143-1.36-1.8955-.319-.8687-.481-2.0323-.481-3.4695 0-2.2438.346-3.8557 1.03-4.8231.689-.9572 1.546-1.4384 2.576-1.4384.994 0 1.778.4077 2.348 1.2219.791 1.108 1.184 2.7173 1.184 4.8383 0 1.4574-.158 2.6578-.476 3.5948-.308.937-.735 1.598-1.278 1.974-.549.3812-1.133.5622-1.743.5622-.616 0-1.223-.1848-1.8-.5647z"/><path d="m351.457 24.6094h8.309v32.0468h-8.309z"/><path d="m371.539 56.7056h-8.383v-23.2023h8.383zm-8.648-32.8775h8.382v6.635h-8.382z"/><path d="m374.219 49.4697h8.001c.004.8534.268 1.5499.812 2.0981.521.5496 1.233.8041 2.143.8041.835 0 1.476-.1811 1.902-.5762.436-.3963.651-.9002.651-1.4599 0-.4191-.128-.7965-.37-1.1029-.249-.3165-.676-.547-1.284-.7205l-4.726-1.2472c-2.406-.647-4.085-1.5423-5.031-2.6907-.971-1.1485-1.445-2.5325-1.445-4.1507 0-1.4752.38-2.7908 1.126-3.9215.746-1.1295 1.869-2.0348 3.353-2.6882 1.486-.6635 3.403-1.0016 5.736-1.0016 3.536 0 6.088.7002 7.678 2.0867 1.588 1.3828 2.425 3.115 2.502 5.1548h-7.573c-.082-.6597-.336-1.2029-.789-1.6207-.449-.4191-1.038-.623-1.792-.623-.767 0-1.377.1811-1.809.5457-.338.3001-.504.6648-.504 1.1029 0 .3698.139.6926.401.9573.265.2798.899.5343 1.874.7888l3.99.994c2.629.6534 4.454 1.5993 5.473 2.8022 1.037 1.2143 1.548 2.6629 1.548 4.3571 0 1.3422-.301 2.5324-.861 3.5973-.585 1.0573-1.36 1.9221-2.348 2.5882-.987.6711-2.152 1.1472-3.474 1.4498-1.349.2824-2.763.4305-4.242.4305-1.814 0-3.409-.1785-4.812-.5748-1.383-.3698-2.552-.97-3.451-1.7829-.926-.8218-1.607-1.7537-2.052-2.7908-.288-.7078-.489-1.641-.627-2.8059z"/><path d="m281.641 30.4258h4.543l5.711-5.4258h-6.95z"/><path d="m219.35 33.5464c-.238-3.0339-2.513-4.7597-6.345-4.7597-5.357 0-6.345 6.2994-6.345 11.3352 0 4.894 1.079 10.6882 6.345 10.6882 3.923 0 6.163-1.7284 6.345-4.9496h9.8c.135 8.4849-7.975 11.4745-16.145 11.4745-10.492 0-16.13-6.2906-16.13-17.5853 0-11.291 5.638-17.3954 16.13-17.4841 8.17 0 16.28 2.7895 16.145 11.2808z"/><path d="m396.931 34.6099h.251c.293 0 .529-.0975.529-.3355 0-.2064-.157-.3457-.487-.3457-.142 0-.238.0164-.293.0278zm-.015 1.2814h-.527v-2.2855c.208-.0253.501-.0671.874-.0671.433 0 .631.0671.779.1785.142.0988.239.2659.239.4913 0 .2786-.209.4622-.477.5432v.0266c.228.0684.339.2495.408.561.069.3482.126.4685.169.552h-.557c-.07-.0835-.113-.2735-.185-.552-.039-.2406-.177-.3508-.472-.3508h-.251zm-1.405-1.1814c0 1.0155.763 1.8272 1.783 1.8272.987.0127 1.741-.8116 1.741-1.8132 0-1.0181-.754-1.8399-1.772-1.8399-.989 0-1.752.8218-1.752 1.8259zm4.111 0c0 1.284-1.029 2.3008-2.345 2.3008-1.31 0-2.355-1.0168-2.355-2.3008 0-1.2839 1.045-2.288 2.372-2.288 1.299 0 2.328 1.0041 2.328 2.288z"/></g></svg>