<svg fill="none" height="197" viewBox="0 0 400 197" width="400" xmlns="http://www.w3.org/2000/svg"><g fill="#fff"><path d="m230.549 137.109h6.271l-9.957 58.092h-6.771l-9.936-58.092h6.27l5.51 34.57c.307 2.039.624 4.417.951 7.132.327 2.716.531 4.603.611 5.662.147-2.437.648-6.702 1.502-12.794z"/><path d="m246.835 137.109h-6.21v58.092h6.21z"/><path d="m260.507 164.447h2.043c1.91 0 3.339-.748 4.288-2.245.947-1.496 1.422-3.675 1.422-6.536 0-2.887-.397-5.02-1.192-6.397s-2.04-2.066-3.736-2.066h-2.825zm14.023-9.219c0 6.252-.985 11.034-2.955 14.345-1.97 3.31-4.771 4.966-8.404 4.966h-2.664v20.662h-6.21v-58.092h9.355c3.553 0 6.253 1.518 8.103 4.551s2.775 7.556 2.775 13.568z"/><path d="m303.195 146.579c-2.337 0-4.146 1.742-5.428 5.224-1.282 3.484-1.923 8.338-1.923 14.564 0 12.953 2.451 19.429 7.351 19.429 2.057 0 4.548-1.02 7.472-3.059v10.331c-2.403 1.986-5.087 2.98-8.052 2.98-4.261 0-7.52-2.563-9.776-7.689-2.257-5.125-3.386-12.482-3.386-22.073 0-6.039.555-11.33 1.663-15.873 1.109-4.543 2.701-8.026 4.777-10.449 2.078-2.424 4.512-3.636 7.302-3.636 2.845 0 5.703 1.363 8.574 4.092l-2.003 10.012c-1.095-1.033-2.197-1.932-3.305-2.7-1.109-.768-2.197-1.153-3.266-1.153z"/><path d="m322.516 133.203h-6.11v61.826h6.11z"/><path d="m344.502 195.203-.822-5.682h-.32c-.655 2.066-1.583 3.663-2.785 4.788-1.202 1.126-2.571 1.689-4.107 1.689-2.631 0-4.613-1.398-5.949-4.191-1.336-2.795-2.003-6.815-2.003-12.06v-28.966h6.109v25.946c0 3.205.287 5.609.862 7.212.574 1.603 1.489 2.404 2.744 2.404 1.71 0 2.945-1.133 3.706-3.398.761-2.264 1.142-6.02 1.142-11.264v-20.9h6.11v44.422z"/><path d="m368.323 149.772c2.642 0 4.712 2.047 6.209 6.138 1.497 4.093 2.245 9.702 2.245 16.828 0 7.338-.771 13.02-2.314 17.046-1.542 4.027-3.643 6.04-6.3 6.04-2.635 0-4.697-1.895-6.194-5.682h-.42l-1.023 4.887h-4.667v-61.826h6.11v14.383c0 1.829-.076 4.755-.237 8.782h.237c1.436-4.398 3.551-6.596 6.354-6.596zm-1.963 9.695c-1.512 0-2.612.921-3.306 2.761-.695 1.841-1.054 4.881-1.085 9.12v1.311c0 4.767.359 8.185 1.077 10.251.71 2.066 1.848 3.099 3.391 3.099 1.26 0 2.253-1.145 2.993-3.437.749-2.292 1.115-5.623 1.115-9.993s-.374-7.648-1.122-9.834c-.749-2.186-1.772-3.278-3.063-3.278z"/><g clip-rule="evenodd" fill-rule="evenodd"><path d="m354.039 36.7538v69.0462s-.585 6.634 2.177 6.634c2.748 0 2.151-6.634 2.151-6.634v-69.4007s.948-5.7714-2.151-5.7714c-3.115 0-2.177 6.1259-2.177 6.1259zm4.693-36.7538h15.851v125.037h-15.851v-2.151s-3.786 3.234-9.669 3.234c-11.954 0-11.954-12.087-11.954-12.087v-86.2863s.529-3.0023 1.115-4.1945c3.442-6.9196 13.699-10.6279 20.508-4.4474z"/><path d="m.7168.390625h32.4381v15.846375h-16.9416c-.8377 9.2616-.1227 20.0546-.353 29.9114h17.2946v16.2115h-17.2946v62.7021h-15.86000475v-123.59131c-.01060365-.619556.26509175-.937673.71650475-1.080065z"/><path d="m37.4623.390625h15.5071v124.671375h-15.86c.6513-18.23.3529-39.777.3529-60.8904 0-21.3118 1.2028-43.0538 0-62.70091 0-.24388-.4302-.542308 0-1.080065z"/><path d="m160.476.390625v16.387175h3.245v14.1483h-3.245v94.1359h-16.214v-94.1359h-3.246v-14.1483h3.246v-16.387175z"/><path d="m183.148 33.7462v67.0928c0 .684-.927 5.454 2.462 5.454 2.593 0 2.217-5.454 2.217-5.454l-.012-67.0928s.288-3.8083-2.205-3.8083c-2.606 0-2.462 3.8083-2.462 3.8083zm4.679-13.2228c.231-1.2012.365-3.787.365-3.787h15.859v120.3606c0 16.401-9.636 16.401-21.266 16.401-15.929 0-14.814-18.411-14.814-18.411v-12.581h14.9v14.956s-.353 3.784 2.528 3.784c3.477 0 2.793-3.784 2.793-3.784v-21.801c-3.599 2.154-8.399 5.606-14.778 2.165-2.01-1.094-5.531-5.354-6.127-9.382-.917-6.169-.243-69.7535-.362-73.3406-.157-4.7565-.09-9.2373 1.092-12.0533 3.023-7.2711 15.031-10.1644 19.81-2.5267z"/><path d="m267.696 95.4082s-.253 17.1208 3.202 17.2958c2.924.155 2.527-5.199 2.527-8.642v-33.8724c-.021-.2211-.055-.4317-.353-.365-6.159 4.0203-5.376 25.5836-5.376 25.5836zm21.942 29.5458h-15.097v-3.234c-6.491 6.602-19.944 4.46-21.303-6.842-.586-4.946-.44-20.9029-.44-20.9029s-.806-21.5345 3.332-27.7588c4.214-6.3122 18.411-14.8785 18.411-14.8785s.287-8.3996 0-13.8165c-.266-4.9353-1.027-6.9757-2.916-6.9757-3.454 0-3.663 6.344-3.663 6.344l.055 12.3957h-14.779c.078-13.2334-1.976-25.3534 7.573-30.9915 8.045-4.7353 25.462-3.1675 28.112 4.6899.98 2.9023.715 7.883.715 12.2502z"/><path d="m331.261 62.0963h-15.142v-27.7483s.265-4.3248-1.931-4.3248c-2.736 0-2.295 4.3248-2.295 4.3248v90.802h-15.409v-108.4601h15.409s-.111 1.6769 0 2.8812c5.232-5.5639 19.368-3.884 19.368 5.7729z"/><path d="m116.659 32.3742v26.8515h4.681v-26.8515s.088-3.0599-2.34-3.0599c-2.438 0-2.341 3.0599-2.341 3.0599zm20.982 40.5378h-20.982v34.956s-.816 5.77 2.341 5.77 2.34-5.77 2.34-5.77v-25.9383h16.301v15.495s.663 18.6303-2.03 23.0553c-5.585 9.186-20.209 9.471-29.049 2.166-1.889-1.559-4.857-6.91-5.398-10.817-.862-6.091 0-13.3546 0-20.5378v-40.3651c0-14.4043-1.6235-27.5377 7.926-32.426 8.333-4.2718 21.51-3.0902 25.671 3.9733 1.027 1.733 2.957 3.9613 2.88 6.6652z"/><path d="m225.83 16.4062v91.0548s-.386 5.519 2.792 5.519c2.67 0 2.793-5.519 2.793-5.519v-91.0548h15.671v108.4608h-15.639l-.032-2.882s-3.51 2.518-9.372 2.518c-6.765 0-11.887-6.977-11.887-22.163v-85.9338z"/><path d="m74.4664 32.3742v26.8515h4.6808v-26.8515s.0878-3.0599-2.3404-3.0599c-2.4298 0-2.3404 3.0599-2.3404 3.0599zm20.9922 40.5378h-20.9922v34.956s-.8165 5.77 2.3404 5.77 2.3404-5.77 2.3404-5.77v-25.9383h16.3114v15.495s.6514 18.6303-2.0404 23.0553c-5.5866 9.186-20.1985 9.471-29.0389 2.166-1.8874-1.559-4.8671-6.91-5.4079-10.817-.8498-6.091 0-13.3546 0-20.5378v-40.3651c0-14.4043-1.6223-27.5377 7.924-32.426 8.333-4.2718 21.5103-3.0902 25.6821 3.9733 1.0164 1.733 2.9478 3.9613 2.8811 6.6652z"/></g><path d="m387.411 5.72666h3.83c2.073 0 3.267.89525 3.267 2.47368 0 1.5345-1.292 2.47366-3.39 2.47366h-3.707zm4.857 5.86084c2.063-.3318 3.32-1.6118 3.32-3.44169 0-.87253-.319-1.69053-.904-2.29797-.773-.74983-1.954-1.16034-3.422-1.16034h-4.934v11.8443h1.083v-4.8338h3.608l3.686 4.8338h1.369z"/><path d="m390.51 2.64407c-4.514 0-8.191 3.66584-8.191 8.17993 0 4.5157 3.677 8.1785 8.191 8.1785 4.513 0 8.178-3.6628 8.178-8.1785 0-4.51409-3.665-8.17993-8.178-8.17993zm0 17.44003c-5.111 0-9.26-4.1506-9.26-9.2601 0-5.11093 4.149-9.2615 9.26-9.2615 5.109 0 9.26 4.15057 9.26 9.2615 0 5.1095-4.151 9.2601-9.26 9.2601z"/></g></svg>