<svg fill="none" height="536" viewBox="0 0 536 536" width="536" xmlns="http://www.w3.org/2000/svg"><circle cx="268" cy="268" fill="#fff" r="268"/><path d="m266.229 311.189c0 6.67 11.074 6.67 11.074 0 0-6.673-11.074-6.673-11.074 0z" fill="#144b97"/><g fill="#174b98"><path d="m170.019 348.488c-6.511 0-9.807-4.916-9.807-10.179 0-5.2 3.358-10.256 9.807-10.256 6.002 0 9.792 5.056 9.792 10.256 0 5.263-3.283 10.179-9.792 10.179zm-.079-28.228c-11.483 0-18.66 8.14-18.66 18.049 0 9.974 7.031 18.049 18.739 18.049 11.706 0 18.803-8.075 18.803-18.049 0-9.909-7.381-18.049-18.882-18.049z"/><path d="m213.184 319.869c-3.841 0-7.764.637-10.681 4.921l-.085-.411c0-4.935-9.303-4.263-9.303-4.263v35.299h9.388v-18.269c0-6.389 4.531-8.781 9.45-8.781 3.086 0 4.846.778 6.773 2.246l4.228-7.437c-2.088-1.895-5.858-3.305-9.77-3.305z"/><path d="m267.402 320.776v34.718h9.391v-30.973c0-4.934-9.391-3.745-9.391-3.745z"/><path d="m119.602 334.197c1.263-4.504 5.056-6.755 9.683-6.755 4.907 0 8.416 2.251 8.979 6.755zm9.393-14.328c-11.217 0-18.378 7.573-18.378 18.121 0 11.092 7.084 18.471 19.013 18.471 4.998 0 9.996-1.234 13.616-4.597l.003.005c.058-.032.079-.074.116-.12.154-.143.327-.262.47-.422l-.026-.037c3.195-3.769-2.068-8.326-2.068-8.326s-1.497 1.46-2.713 2.468c-.73.611-1.3 1.009-1.706 1.258-.162.101-.29.176-.39.245-2.113 1.101-4.884 1.733-7.162 1.733-6.022 0-9.754-3.098-10.309-7.382h27.01c1.335-14.258-5.885-21.417-17.476-21.417z"/><path d="m291.632 334.197c1.261-4.504 5.051-6.755 9.686-6.755 4.91 0 8.416 2.251 8.982 6.755zm9.399-14.328c-11.217 0-18.381 7.573-18.381 18.121 0 11.092 7.079 18.471 19.01 18.471 5.001 0 10.001-1.234 13.614-4.597l.011.005c.05-.032.074-.074.108-.12.154-.143.329-.262.475-.422l-.026-.037c3.196-3.769-2.076-8.326-2.076-8.326s-1.478 1.46-2.71 2.468c-.722.611-1.292 1.009-1.704 1.258-.164.101-.294.176-.39.245-2.115 1.101-4.886 1.733-7.158 1.733-6.031 0-9.76-3.098-10.304-7.382h27.004c1.333-14.258-5.887-21.417-17.473-21.417z"/><path d="m467.671 325.782c0 1.744-1.362 3.18-3.175 3.18-1.81 0-3.148-1.417-3.148-3.156v-.024c0-1.749 1.346-3.182 3.167-3.182 1.802 0 3.156 1.417 3.156 3.161zm-3.156-3.567c-2.007 0-3.576 1.627-3.576 3.567v.024c0 1.932 1.559 3.541 3.557 3.541 1.991 0 3.57-1.625 3.57-3.565v-.021c0-1.935-1.55-3.546-3.551-3.546z"/><path d="m463.404 325.827v-1.589h1.359c.661 0 1.062.299 1.062.759v.026c0 .528-.486.804-1.123.804zm2.938-.83v-.022c0-.315-.14-.589-.315-.777-.276-.26-.722-.42-1.245-.42h-1.887v4.194h.509v-1.683h1.205l1.338 1.683h.642l-1.396-1.762c.669-.13 1.149-.537 1.149-1.213z"/><path d="m399.141 348.488c-6.522 0-9.81-4.916-9.81-10.179 0-5.2 3.36-10.256 9.81-10.256 5.996 0 9.789 5.056 9.789 10.256 0 5.263-3.289 10.179-9.789 10.179zm-.085-28.228c-11.485 0-18.66 8.14-18.66 18.049 0 9.974 7.037 18.049 18.745 18.049 11.697 0 18.797-8.075 18.797-18.049 0-9.909-7.381-18.049-18.882-18.049z"/><path d="m356.654 348.475c-5.667 0-10.503-3.925-10.503-10.179 0-6.036 4.836-10.115 10.503-10.115 5.715 0 10.264 3.859 10.264 10.115 0 6.039-4.549 10.179-10.264 10.179zm.804-28.299c-3.816 0-9.762 1.966-11.899 5.552v-13.324-.037c-.04-4.895-8.953-3.711-8.953-3.711v46.986h8.367l.586-4.778c2.795 4.143 7.273 5.55 11.676 5.55 10.652 0 18.655-6.744 18.655-18.118 0-11.939-7.862-18.12-18.432-18.12z"/><path d="m449.379 320.65-6.914 15.167-3.923 9.555-3.61-9.767-4.499-11.677c-1.266-3.27-11.297-1.361-11.329-1.353l14.288 32.13-3.471 7.169c-3.711 7.195 6.293 9.088 6.293 9.088l20.446-43.729c3.01-6.429-7.281-6.583-7.281-6.583z"/><path d="m86.7125 348.501c-5.5686 0-9.9879-3.867-9.9879-10.115 0-6.041 4.4193-10.179 9.9879-10.179 5.5023 0 10.2163 3.928 10.2163 10.179 0 6.038-4.714 10.115-10.2163 10.115zm11.355-27.469-.5707 4.78c-2.7126-4.138-7.0736-5.552-11.3496-5.552-10.3622 0-18.1472 6.752-18.1472 18.126 0 11.936 7.6522 18.123 17.9322 18.123 3.6841 0 9.412-1.951 11.5195-5.494v4.73c0 4.796-3.9416 7.487-8.9767 7.487-2.864 0-5.4678-.966-7.1798-2.627 0 0-4.4114-4.826-9.3749 1.571 2.6543 5.667 8.8839 9.099 16.5547 9.099 10.2667 0 17.741-5.927 17.741-15.53v-1.925-.037-.719-18.83-13.202z"/><path d="m240.76 348.501c-5.563 0-9.988-3.867-9.988-10.115 0-6.041 4.425-10.179 9.988-10.179 5.508 0 10.217 3.928 10.217 10.179 0 6.038-4.709 10.115-10.217 10.115zm11.358-27.469-.565 4.78c-2.721-4.138-7.082-5.552-11.358-5.552-10.362 0-18.147 6.752-18.147 18.126 0 11.936 7.652 18.123 17.924 18.123 3.692 0 9.42-1.951 11.528-5.494v4.73c0 4.796-3.942 7.487-8.975 7.487-2.866 0-5.462-.966-7.182-2.627 0 0-4.411-4.826-9.375 1.571 2.654 5.667 8.884 9.099 16.557 9.099 10.27 0 17.736-5.927 17.736-15.53v-1.925-.037-.719-18.83-13.202z"/><path d="m248.244 394.673v35.021h7.212v-31.241c0-4.977-7.212-3.78-7.212-3.78z"/><path d="m307.041 424.047c-4.35 0-8.066-3.015-8.066-7.814 0-4.634 3.716-7.769 8.066-7.769 4.39 0 7.883 2.965 7.883 7.769 0 4.635-3.493 7.814-7.883 7.814zm.618-21.73c-2.933 0-7.495 1.513-9.138 4.265v-10.234-.027c-.032-3.758-6.877-2.851-6.877-2.851v36.082h6.426l.451-3.668c2.147 3.183 5.587 4.263 8.969 4.263 8.177 0 14.322-5.181 14.322-13.914 0-9.165-6.036-13.916-14.153-13.916z"/><path d="m241.489 426.763.438-.456c.265-.297.501-.579.639-.889 1.224-2.801-2.383-5.848-2.383-5.848s-1.187 1.203-2.105 2.089"/><path d="m232.556 430.03c-1.898 0-3.663-.345-5.292-1.046-1.63-.69-3.031-1.638-4.202-2.822-1.173-1.186-2.089-2.58-2.755-4.177-.664-1.601-.995-3.3-.995-5.105v-.095c0-1.802.331-3.512.995-5.128.666-1.614 1.582-3.023 2.755-4.226 1.171-1.202 2.572-2.15 4.202-2.848 1.629-.698 3.424-1.043 5.388-1.043 2.405 0 4.398.377 5.983 1.139 1.581.759 2.975 1.805 4.177 3.134l-4.416 4.749c-.823-.857-1.67-1.537-2.54-2.044-.871-.507-1.954-.759-3.252-.759-.918 0-1.749.183-2.492.544-.743.366-1.394.865-1.946 1.497-.555.632-.982 1.367-1.282 2.208-.302.839-.451 1.731-.451 2.681v.096c0 .982.149 1.9.451 2.752.3.855.735 1.601 1.303 2.233.571.634 1.253 1.133 2.044 1.497.791.363 1.678.544 2.657.544 1.205 0 2.256-.247 3.159-.736.902-.491 1.797-1.149 2.683-1.969l4.082 4.127c-.239.805-2.15 2.49-4.082 3.493-1.606.828-3.642 1.304-6.174 1.304z"/><path d="m270.177 430.245c-2.753 0-4.881-.838-6.386-2.516-1.503-1.677-2.254-3.989-2.254-6.933v-16.475h7.217v14.163c0 1.704.38 2.992 1.139 3.86.759.87 1.834 1.303 3.227 1.303 1.391 0 2.493-.433 3.3-1.303.806-.868 1.21-2.156 1.21-3.86v-14.163l5.107.08-.303 2.514 2.094.265.319.252v22.338h-7.217v-3.639c-.412.542-.863 1.065-1.354 1.553-.491.496-1.035.934-1.637 1.317-.6.384-1.267.684-1.994.91-.727.223-1.55.334-2.468.334z"/><path d="m284.676 408.215c0-.092.091-.3.091-.3.013-.063-.088-.079-.098-.13-.003-.201.13-.533.13-.533-.632-4.828-7.231-3.562-7.231-3.562s.085 1.996.03 3.514"/><path d="m284.921 407.229s-.146-.252-.212-.499c-.064-.249-.104.321-.104.321z"/></g><path d="m240.388 212.739c-.714.42-1.444.858-2.182 1.282 0 0-20.459 13.115-20.459 31.475v41.433s4.714-9.436 15.745-15.209c10.999-5.776 36.17-11.021 36.17-33.585v-4.188c0-8.491-12.173-14.609-29.274-21.208z" fill="#85c443"/><path d="m278.741 233.947v4.188c0 22.561 25.202 27.809 36.226 33.582 11.002 5.773 15.721 15.212 15.721 15.212v-41.433c0-18.365-20.451-31.475-20.451-31.475-.738-.43-1.473-.862-2.169-1.282-17.125 6.599-29.327 12.717-29.327 21.208z" fill="#f3d332"/><path d="m269.756 177.854v-14.153s-2.609-27.801-31.456-35.673c-28.859-7.868-49.833-11.538-56.132-22.028v55.084s1.046 29.884 30.946 41.441c9.731 3.75 19.116 7.06 27.368 10.256 17.102 6.606 29.274 12.717 29.274 21.208v-56.138" fill="#144b97"/><g fill="#e41b23"><path d="m310.237 128.028c-28.879 7.875-31.496 35.673-31.496 35.673v14.153s.006.021.006.055c0-.037-.006-.055-.006-.055v56.137c0-8.491 12.202-14.601 29.327-21.207 8.239-3.196 17.624-6.509 27.344-10.259 29.898-11.554 30.954-41.441 30.954-41.441v-55.084c-6.301 10.49-27.264 14.163-56.129 22.028z"/><path d="m378.95 110.825c0 2.363-1.842 4.306-4.294 4.306-2.453 0-4.263-1.922-4.263-4.276v-.03c0-2.367 1.826-4.307 4.287-4.307 2.439 0 4.27 1.919 4.27 4.278zm-4.27-4.825c-2.713 0-4.839 2.2-4.839 4.825v.03c0 2.619 2.107 4.791 4.815 4.791 2.694 0 4.833-2.195 4.833-4.821v-.029c0-2.62-2.099-4.796-4.809-4.796z"/><path d="m373.265 110.734v-2.153h1.839c.894 0 1.436.404 1.436 1.025v.04c0 .709-.656 1.088-1.516 1.088zm3.978-1.128v-.029c0-.43-.191-.796-.427-1.051-.377-.353-.979-.571-1.688-.571h-2.551v5.68h.688v-2.28h1.629l1.811 2.28h.87l-1.887-2.389c.902-.175 1.555-.719 1.555-1.64z"/></g></svg>