<svg fill="none" height="91" viewBox="0 0 400 91" width="400" xmlns="http://www.w3.org/2000/svg"><path d="m0 90.7824h3.24843l4.07241-24.2615h-3.3366zm15.0621 0h5.9679l4.0555-24.2615h-5.8458zm15.0622 0h8.0431l4.0622-24.2615h-7.7142zm15.5843 0h9.8199l4.0758-24.2615h-9.9318zm19.121-24.2615-3.8656 24.2615h11.9155l4.0792-24.2615zm15.0587 0-3.7672 24.2615h301.3009l3.977-24.2615z" fill="#000"/><path d="m25.871 25.3327c-.0983.6273-1.5835 9.1757-1.7327 10.0369h14.194l-.2983.607c-.1119.2204-2.7399 5.2355-7.9278 6.8393-3.123.9834-6.4867.4951-10.0437-1.4648-.1255-.0441-10.26074-7.2869-1.587-22.3219.0713-.1086 7.6668-11.11524 19.0227-4.6692.5968.5221 3.2654 3.0178 3.4587 4.6997h11.383c.1187-.6341 2.828-16.02856 2.9942-16.9407h-10.4744c-.1526.41368-.7731 2.23796-.7731 2.23796l-.4713-.47472c-.0543-.06103-6.29-6.06622-19.8805-3.021242-.1933.04069-20.19932 4.828562-21.64382 28.893402-.00339.1933-1.03082 18.3886 14.59762 24.4616.1288.078 14.0483 5.6593 21.9252-2.6279l.9596-1.0241s-.6646 3.5299-.7935 4.2521h10.4438c.1119-.6646 5.11-28.5373 5.283-29.4834zm62.9544 7.4192.6104-.0949c11.8712-2.021 13.2312-16.4185 13.2482-16.4965-1.214-14.47214-14.0959-14.44501-14.652-14.44501h-26.6012c-.0983.62392-1.5259 9.89111-1.6547 10.75911h4.0927l-5.2795 31.1416h-3.7503c-.0983.6341-1.7056 10.0267-1.8616 10.8812h20.9046c.1153-.6171 1.7022-10.1013 1.8548-10.9762h-3.4655l1.7904-8.5008s10.6473 19.1752 10.871 19.5821h12.5767c.139-.6171 2.004-10.6133 2.1566-11.4949h-4.5471zm-12.7936-7.4226-.3764-.0949 1.8582-12.0918.1797-.0949c.0814-.061 2.0854-1.1054 7.5175.061 1.6988.3696 2.9229 1.1733 3.6282 2.3668 1.1732 1.9905.4679 4.3437.4408 4.4251-2.0718 7.6057-13.1293 5.4525-13.248 5.4287zm69.4652-23.51887h-25.008c-.102.6307-1.587 9.59947-1.743 10.45737h4.157l-15.787 31.0432h-4.09c-.084.6341-1.692 10.3319-1.848 11.1864h21.739c.102-.607 1.889-10.3116 2.055-11.1864h-4.232l2.357-5.3168h14.774l.485 5.622h-4.171c-.105.6341-1.611 9.8199-1.74 10.6811h21.953c.101-.6205 1.787-10.1115 1.929-10.9863h-3.716s-6.982-40.82579-7.114-41.50057zm-16.849 25.87217 5.7-13.0751.786.1288 1.204 12.9463zm58.254-15.208c.102-.634 1.597-9.92157 1.736-10.75911h-21.938c-.116.60696-1.798 9.98261-1.954 10.85751h4.076l-5.157 30.8465h-3.971c-.098.6273-1.783 10.1081-1.946 10.9728h22.257c.099-.6205 1.703-10.2065 1.842-11.0813h-3.971l5.262-30.8364zm58.821-10.66417h-21.416c-.109.6307-1.608 9.59947-1.736 10.45737h4.065l-2.906 16.761s-14.024-26.87928-14.258-27.31331h-17.361c-.112.60696-1.608 9.69441-1.74 10.55231h3.849l-5.032 31.0432s-3.798.2984-4.374.2984c-.099.6307-1.191 10.1149-1.347 10.9931h21.529c.108-.6273 1.78-10.1963 1.939-11.0813h-3.977l3.343-19.5177c-4.635-9.2366-2.444-5.0015 15.3 30.4939h11.508c.116-.6816 7.002-42.5483 7.002-42.5483h3.873c.102-.6206 1.597-9.274 1.739-10.13867zm20.617 23.52227c-.119.6273-1.597 9.1757-1.743 10.0369h14.197l-.325.607c-.099.2204-2.71 5.2355-7.904 6.8393-3.14.9834-6.484.4951-10.047-1.4648-.109-.0441-10.251-7.2869-1.581-22.3219.078-.1086 7.667-11.11524 19.023-4.6692.607.5221 3.259 3.0178 3.459 4.6997h11.386c.109-.6341 2.828-16.02856 2.998-16.9407h-10.502c-.135.41368-.753 2.23796-.753 2.23796l-.461-.47472c-.064-.06103-6.313-6.06622-19.897-3.021242-.21.04069-20.206 4.828562-21.641 28.893402-.013.1933-1.027 18.3886 14.588 24.4616.149.078 14.062 5.6593 21.912-2.6279l.993-1.0241s-.671 3.5299-.807 4.2521h10.437c.122-.6646 5.117-28.5373 5.303-29.4834zm57.173 17.9783h-11.387l1.696-10.4506h11.508c.099-.6307 1.984-11.2406 2.157-12.1223h-11.821l1.401-8.6805h11.101s-.891 4.7166-1.044 5.5338h12.312c.095-.6408 2.536-14.87561 2.676-15.78097h-40.555c-.112.61375-1.689 9.47737-1.834 10.34207h4.18l-5.371 31.267h-3.662c-.101.6273-1.695 10.2234-1.838 11.0779h41.491c.115-.6578 2.845-17.0729 3.007-17.9783h-12.858c-.115.6206-1.159 6.7919-1.159 6.7919zm50.089-10.5591.621-.0949c11.868-2.021 13.228-16.4185 13.244-16.4965-1.203-14.47214-14.088-14.44501-14.655-14.44501h-26.604c-.092.62392-1.519 9.89111-1.648 10.75911h4.092l-5.269 31.1416h-3.777c-.095.6341-1.679 10.0267-1.825 10.8812h20.898c.102-.6171 1.709-10.1013 1.828-10.9762h-3.449l1.791-8.5008s10.647 19.1752 10.878 19.5821h12.576c.119-.6171 1.977-10.6133 2.153-11.4949h-4.543zm-12.766-7.4226-.404-.0949 1.865-12.0918.183-.0949c.088-.061 2.076-1.1054 7.504.061 1.709.3696 2.937 1.1733 3.645 2.3668 1.16 1.9905.462 4.3437.434 4.4251-2.068 7.6057-13.122 5.4525-13.227 5.4287zm32.782 17.3612c-3.506 0-6.371 2.8551-6.371 6.3849 0 3.496 2.865 6.3714 6.371 6.3714 3.52 0 6.382-2.8754 6.382-6.3714 0-3.5298-2.862-6.3849-6.382-6.3849zm0 11.912c-3.055 0-5.544-2.4787-5.544-5.5271 0-3.0687 2.489-5.5542 5.544-5.5542 3.066 0 5.548 2.4855 5.548 5.5542 0 3.0484-2.482 5.5271-5.548 5.5271zm2.262-3.8825c-.105-.3696-.207-.7222-.4-.98-.197-.2509-.41-.3119-.573-.3797.21-.0746.753-.2509 1.01-.9257.078-.2442.139-.4781.139-.7358 0-.5934-.23-1.0241-.491-1.2445-.421-.3967-.994-.3967-1.441-.3967h-2.231v6.4087h.807v-2.8076h.786c.346 0 .824 0 1.156.3085.265.2408.37.6918.475 1.0512l.068.3052c.098.4374.132.6103.183.7392.088.2407.136.3153.234.4035h.885c-.237-.2848-.258-.4137-.519-1.3733zm-2.407-1.6751h-.773v-2.3702h.885c.576 0 .861 0 1.102.1255.518.2848.518.8816.518 1.0274 0 .4171-.115.8003-.44 1.0139-.265.1899-.685.2102-1.292.2034z" fill="#fff"/></svg>