<svg fill="none" height="304" viewBox="0 0 379 304" width="379" xmlns="http://www.w3.org/2000/svg"><path d="m.5 100.114c0 9.941 1.46083 19.543 4.17905 28.603 9.73025 47.481 51.60175 91.037 93.35595 122.69 20.894 15.84 41.788 28.721 58.673 37.643 8.442 4.461 15.887 7.936 21.834 10.297 2.973 1.18 5.577 2.085 7.747 2.695 2.162.607 3.924.932 5.203.932 1.268 0 2.993-.34 5.094-.972 2.109-.634 4.63-1.572 7.501-2.794 5.743-2.444 12.912-6.03 21.035-10.606 16.247-9.154 36.335-22.283 56.499-38.197 40.297-31.802 81.009-74.809 91.856-119.494 3.158-9.698 4.865-20.049 4.865-30.797 0-55.0167-44.722-99.614-99.887-99.614-38.847 0-72.515 22.1159-89.034 54.4105-16.519-32.2946-50.187-54.4105-89.034-54.4105-55.165 0-99.887 44.5973-99.887 99.614z" fill="#fff" stroke="#fff"/></svg>