<svg fill="none" height="93" viewBox="0 0 700 93" width="700" xmlns="http://www.w3.org/2000/svg"><path clip-rule="evenodd" d="m60.8313 27.1033-24.0351 48.9785-24.2843-48.9785h-3.20935l-9.30255 64.947h8.97297l5.67923-41.1571 20.4137 41.1571h3.3762l20.1666-40.8275 5.6792 40.8275h9.0553l-9.3025-64.947zm38.7697 64.947h38.195v-9.0554h-28.975v-21.4004h28.975v-8.973h-28.975v-16.4628h29.302v-9.0554h-38.522zm119.685 0h9.136v-64.947h-9.136zm-47.083-64.947h-9.138v64.947h33.008v-8.973h-23.87zm112.44 0h-3.374l-30.703 64.947h10.207l9.63-20.4137h24.777l9.794 20.4137h9.96zm-10.042 35.6427 8.314-17.532 8.231 17.532zm1.811-53.9162c1.317 0 3.21.65843 5.844 1.9755 3.621 1.6462 6.255 2.4698 7.901 2.4698 4.692 0 8.397-2.7988 11.196-8.31383l-5.514-4.527676c-1.894 3.045626-3.706 4.610076-5.27 4.610076-.905 0-2.798-.74107-5.844-2.30504-2.881-1.48165-5.514-2.222642-7.737-2.222642-.987 0-1.893.165031-2.717.411973-.823.164629-1.646.494929-2.387 1.071129-.823.41157-1.564 1.06992-2.305 1.89307-.741.74082-1.562 1.72739-2.303 2.87979l-1.236 1.81067 5.597 4.77488c1.646-3.0456 3.211-4.5277 4.775-4.5277zm227.845 19.9214c-1.729-1.2347-3.704-1.8107-5.679-1.8107-4.61 0-7.655 2.6326-7.655 6.7483 0 6.9967 10.948 7.5734 10.948 12.8415 0 1.3994-1.317 3.2094-4.115 3.2094-2.47 0-4.857-1.3166-6.668-3.7037v4.61c2.14 1.564 4.361 2.3875 7.078 2.3875 4.115 0 7.079-2.9641 7.079-6.9151 0-8.0668-10.948-7.985-10.948-12.8415 0-1.8109 1.646-3.0446 4.033-3.0446 1.729 0 3.787.5767 5.927 2.6346zm-32.267-1.4831h-3.621v25.4358h15.146v-3.2918h-11.525zm-13.334 0h-14.405v25.4358h14.733v-3.2918h-11.111v-7.9038h10.371v-3.2918h-10.371v-7.6546h10.783zm-23.46 0h-21.155v3.2938h8.725v22.142h3.704v-22.142h8.726zm-50.13 12.6767c0-5.5974 4.2-9.6301 9.879-9.6301 5.68 0 9.878 4.0327 9.878 9.6301s-4.198 9.7145-9.878 9.7145c-5.679 0-9.879-4.1171-9.879-9.7145zm-3.786 0c0 6.9144 5.269 13.0887 13.583 13.0887 8.561 0 13.663-6.1743 13.663-13.0887 0-7.079-5.267-13.0043-13.581-13.0043-8.231 0-13.665 6.0076-13.665 13.0043zm-10.042-12.6767h-3.704v11.0308h-14.158v-11.0308h-3.704v25.4358h3.704v-11.1132h14.158v11.1132h3.704zm317.321 39.4288h-3.621v25.3534h15.062v-3.2918h-11.441zm-24.694 5.434 4.116 9.1358h-7.902zm1.399-5.5988h-2.635l-10.864 25.5182h3.704l3.209-7.4899h10.784l3.456 7.4899h3.706zm-21.813.1648h-3.458v19.5918l-17.203-19.5918h-2.881v25.3534h3.376v-19.5094l16.955 19.5094h3.211zm-57.043 12.6767c0-5.5974 4.198-9.7125 9.795-9.7125 5.68 0 9.877 4.1151 9.877 9.7125 0 5.5151-4.197 9.6301-9.877 9.6301-5.597 0-9.795-4.115-9.795-9.6301zm-3.788 0c0 6.9144 5.269 13.0063 13.501 13.0063 8.643 0 13.745-6.1742 13.745-13.0063 0-7.079-5.267-13.0063-13.663-13.0063-8.231 0-13.583 5.9273-13.583 13.0063zm-10.125-12.6767h-3.621v25.3534h3.621zm-12.676 0h-21.154v3.2938h8.724v22.0596h3.706v-22.0596h8.724zm-36.382 5.434 4.115 9.1358h-7.902zm1.398-5.5988h-2.632l-10.866 25.5182h3.703l3.212-7.4899h10.781l3.377 7.4899h3.703zm-21.895.1648h-3.374v19.5918l-17.204-19.5918h-2.882v25.3534h3.376v-19.5094l16.957 19.5094h3.127zm-47.742 3.129h2.305c3.539 0 4.94 1.399 5.022 3.7861 0 2.1402-1.071 4.1981-5.022 4.1981h-2.305zm-3.704-3.129v25.3534h3.704v-11.0308h1.483c1.893 0 3.373.5759 6.748 5.844l3.376 5.1868h4.363c-1.811-2.3871-2.388-3.2934-3.458-5.022-1.976-3.128-3.375-5.5139-5.68-6.9955 2.717-1.0701 4.199-3.2927 4.199-6.256 0-4.3626-3.211-7.0799-8.314-7.0799zm-9.877 0h-14.323v25.3534h14.735v-3.2918h-11.114v-7.8214h10.372v-3.2918h-10.372v-7.6546h10.702zm-23.378 0h-21.154v3.2938h8.724v22.0596h3.704v-22.0596h8.726zm-30.126 0h-3.457v19.5918l-17.204-19.5918h-2.882v25.3534h3.376v-19.5094l16.955 19.5094h3.212zm-34.737 0h-3.621v25.3534h3.621z" fill="#fff" fill-rule="evenodd"/></svg>