<svg fill="none" height="512" viewBox="0 0 512 512" width="512" xmlns="http://www.w3.org/2000/svg"><path d="m88.8516 281.742h-61.8086v-30.887c0-5.687 4.6093-10.3 10.2968-10.3h41.2149c5.6875 0 10.2969 4.613 10.2969 10.3z" fill="#fafafa"/><path d="m251.879 395h-247.75791c-2.27734 0-4.12109-1.844-4.12109-4.121v-115.313c0-2.277 1.84375-4.121 4.12109-4.121h247.75791c2.277 0 4.121 1.844 4.121 4.121v115.313c0 2.277-1.844 4.121-4.121 4.121z" fill="#fff"/><path d="m484.956 281.742h-61.809v-30.887c0-5.687 4.61-10.3 10.297-10.3h41.215c5.688 0 10.297 4.613 10.297 10.3z" fill="#f5f5f5"/><path d="m507.878 395h-247.758c-2.277 0-4.121-1.844-4.121-4.121v-115.313c0-2.277 1.844-4.121 4.121-4.121h247.758c2.277 0 4.121 1.844 4.121 4.121v115.313c0 2.277-1.844 4.121-4.121 4.121z" fill="#fafafa"/><path d="m356.956 158.184h-61.809v-30.883c0-5.687 4.61-10.301 10.297-10.301h41.215c5.688 0 10.297 4.614 10.297 10.301z" fill="#e5e5e5"/><path d="m216.852 158.184h-61.809v-30.883c0-5.687 4.609-10.301 10.297-10.301h41.215c5.687 0 10.297 4.614 10.297 10.301z" fill="#e5e5e5"/><path d="m379.879 271.445h-247.758c-2.277 0-4.121-1.843-4.121-4.121v-115.316c0-2.274 1.844-4.117 4.121-4.117h247.758c2.277 0 4.121 1.843 4.121 4.117v115.316c0 2.278-1.844 4.121-4.121 4.121z" fill="#f0f0f0"/></svg>