<svg fill="none" height="184" viewBox="0 0 602 184" width="602" xmlns="http://www.w3.org/2000/svg"><g clip-rule="evenodd" fill="#fff" fill-rule="evenodd"><path d="m1.76367 56.4043 1.17118 27.3913 177.46315 1.7387.117-30.4176z"/><path d="m0 23.4844 3.49158 25.2783 166.86842 3.0342 2.905-28.3134z"/><path d="m7.03102 91.1284-3.74426 35.8196 174.18424-2.962-3.758-32.7103z"/><path d="m3.78554 132.326-3.476643 34.314 170.726103-2.416 4.536-35.367z"/><path d="m204.094 170.875h3.428v-8.015h.054c.499 1.103 1.628 2.267 3.671 2.267 3.069 0 4.925-2.709 4.925-7.349 0-3.951-1.473-7.317-5.006-7.317-2.208 0-3.227 1.213-3.781 2.421h-.081c0-.96-.059-1.783-.113-2.203h-3.21c.089.519.113 1.405.113 2.429zm3.428-13.043c0-2.684.695-4.864 2.716-4.864 1.984 0 2.504 1.655 2.504 4.95 0 2.841-.668 4.692-2.561 4.692-1.883 0-2.659-2.016-2.659-4.778z"/><path d="m220.549 164.908h3.426v-7.791c0-2.646 1.539-3.511 2.951-3.511.358 0 .665.054.967.138v-3.202c-.191-.027-.358-.081-.577-.081-2.131 0-3.201 1.711-3.621 2.814h-.057c0-.85-.076-1.731-.108-2.593h-3.089c.079.633.108 1.461.108 2.352z"/><path d="m234.553 157.778c0-2.377.523-4.896 2.738-4.896 2.207 0 2.703 2.519 2.703 4.896 0 2.369-.496 4.911-2.703 4.911-2.215 0-2.738-2.542-2.738-4.911zm-3.531 0c0 5.969 3.372 7.349 6.269 7.349s6.239-1.38 6.239-7.349c0-5.8-3.342-7.317-6.239-7.317s-6.269 1.517-6.269 7.317z"/><path d="m250.425 157.64c0-2.902.688-4.552 2.49-4.589 1.628-.017 2.757 1.572 2.757 4.565 0 3.231-.861 4.775-3.012 4.775-1.159 0-2.235-1.406-2.235-4.751zm-2.899 12.51c.827.31 2.622.882 4.888.882 5.22 0 6.576-3.173 6.576-7.626v-10.495c0-.741.054-1.488.11-2.229h-3.096c-.027.741-.106 1.461-.106 2.202h-.108c-.727-1.235-1.696-2.423-3.764-2.423-3.722 0-5.131 3.452-5.131 7.373 0 5.748 2.975 7.074 4.967 7.074 2.232 0 3.201-1.309 3.756-2.409h.054v1.353c0 2.237-.525 4.476-3.754 4.476-1.79 0-3.393-.778-4.201-1.21z"/><path d="m264.053 164.908h3.428v-7.791c0-2.646 1.541-3.511 2.956-3.511.356 0 .663.054.965.138v-3.202c-.194-.027-.359-.081-.577-.081-2.132 0-3.212 1.711-3.629 2.814h-.052c0-.85-.078-1.731-.108-2.593h-3.094c.081.633.111 1.461.111 2.352z"/><path d="m274.976 154.272c.665-.558 2.185-1.388 3.899-1.388 1.957 0 2.651 1.307 2.651 2.711v.526h-.694c-4.339 0-7.484.964-7.484 4.832 0 2.644 2.035 4.174 4.245 4.174 2.05 0 3.128-.99 3.985-2.159h.054c0 .7.022 1.383.191 1.94h3.099c-.086-.557-.196-1.502-.196-2.517v-6.214c0-3.558-1.024-5.716-5.436-5.716-2.188 0-3.546.601-4.511 1.048zm6.55 4.471c0 2.544-.753 4.063-2.796 4.063-1.319 0-2.181-.881-2.181-2.185 0-2.072 1.739-2.674 4.666-2.674h.311z"/><path d="m289.324 164.908h3.428v-8.618c0-1.574.803-3.015 2.328-3.015 1.264 0 1.809.889 1.809 2.654v8.979h3.433v-8.618c0-1.574.803-3.015 2.32-3.015 1.267 0 1.829.889 1.829 2.654v8.979h3.413v-8.785c0-3.462-.987-5.662-4.083-5.662-2.099 0-3.131 1.269-3.808 2.269-.415-.781-1.198-2.269-3.59-2.269-1.964 0-3.067 1.35-3.597 2.45h-.054c0-.739-.079-1.488-.108-2.229h-3.425c.054.518.105 1.296.105 2.315z"/><path d="m313.186 154.272c.662-.558 2.18-1.388 3.889-1.388 1.969 0 2.654 1.307 2.654 2.711v.526h-.685c-4.341 0-7.486.964-7.486 4.832 0 2.644 2.045 4.174 4.245 4.174 2.043 0 3.13-.99 3.982-2.159h.054c0 .7.032 1.383.194 1.94h3.092c-.079-.557-.192-1.502-.192-2.517v-6.214c0-3.558-1.024-5.716-5.438-5.716-2.186 0-3.536.601-4.506 1.048zm6.543 4.471c0 2.544-.746 4.063-2.789 4.063-1.329 0-2.181-.881-2.181-2.185 0-2.072 1.749-2.674 4.666-2.674h.304z"/><path d="m344.303 143.404v8.542h-.054c-.493-1.109-1.63-2.268-3.675-2.268-3.067 0-4.916 2.703-4.916 7.346 0 3.953 1.464 7.319 4.999 7.319 2.213 0 3.229-1.212 3.791-2.435h.072c0 .977.056 1.797.115 2.217h3.204c-.081-.53-.11-1.407-.11-2.433v-18.288zm-5.217 13.48c0-2.848.66-4.699 2.568-4.699 1.878 0 2.649 2.018 2.649 4.783 0 2.686-.694 4.859-2.708 4.859-1.989 0-2.509-1.655-2.509-4.943z"/><path d="m362.194 161.51c-.636.462-1.633 1.1-3.73 1.1-2.654 0-3.614-1.461-3.614-3.894h8.218v-.656c0-5.804-2.617-7.599-5.682-7.599-3.621 0-5.856 3.28-5.856 7.543 0 3.83 1.989 7.123 6.573 7.123 2.041 0 3.536-.612 4.25-.916zm-7.344-4.952c0-1.871.739-3.774 2.536-3.774 1.547 0 2.375 1.267 2.375 3.774z"/><path d="m375.733 143.404v18.288c0 1.026-.028 1.903-.101 2.433h3.199c.052-.42.106-1.24.106-2.217h.086c.55 1.223 1.574 2.435 3.781 2.435 3.538 0 5.006-3.366 5.006-7.319 0-4.643-1.856-7.346-4.915-7.346-2.053 0-3.177 1.159-3.676 2.268h-.059v-8.542zm3.427 13.564c0-2.765.779-4.783 2.654-4.783 1.906 0 2.571 1.851 2.571 4.699 0 3.288-.533 4.943-2.522 4.943-2.006 0-2.703-2.173-2.703-4.859z"/><path d="m402.165 161.51c-.633.462-1.623 1.1-3.732 1.1-2.645 0-3.612-1.461-3.612-3.894h8.23v-.656c0-5.804-2.622-7.599-5.681-7.599-3.622 0-5.866 3.28-5.866 7.543 0 3.83 1.999 7.123 6.585 7.123 2.036 0 3.519-.612 4.243-.916zm-7.344-4.952c0-1.871.744-3.774 2.549-3.774 1.549 0 2.374 1.267 2.374 3.774z"/><path d="m406.894 164.908h3.427v-8.294c0-1.824.631-3.339 2.429-3.339 1.411 0 1.961.918 1.961 3.101v8.532h3.423v-9.171c0-2.877-.96-5.276-4.194-5.276-2.317 0-3.287 1.544-3.783 2.399h.027-.086c0-.717-.079-1.464-.111-2.178h-3.199c.081.633.106 1.461.106 2.352z"/><path d="m432.74 161.51c-.641.462-1.638 1.1-3.737 1.1-2.642 0-3.627-1.461-3.627-3.894h8.248v-.656c0-5.804-2.63-7.599-5.692-7.599-3.624 0-5.861 3.28-5.861 7.543 0 3.83 1.987 7.123 6.578 7.123 2.043 0 3.538-.612 4.25-.916zm-7.364-4.952c0-1.871.752-3.774 2.556-3.774 1.545 0 2.375 1.267 2.375 3.774z"/><path d="m439.144 164.459h3.426v-11.715h2.59v-2.511h-2.59v-2.463c0-1.071.631-1.765 1.635-1.765.501 0 .93.11 1.35.223l.138-2.49c-.666-.142-1.552-.334-2.453-.334-3.123 0-4.096 1.879-4.096 3.921v2.908h-2.376v2.511h2.376z"/><path d="m448.582 164.837h3.425v-14.217h-3.425zm-.057-16.893h3.526v-3.364h-3.526z"/><path d="m466.029 161.834c-.469.305-1.603.695-2.436.695-2.617 0-3.894-2.048-3.894-4.695 0-3.044 1.135-4.783 3.73-4.783.94 0 1.795.391 2.404.693l.196-2.709c-.636-.25-1.91-.574-2.986-.574-4.773 0-6.877 3.283-6.877 7.346 0 4.027 1.986 7.32 6.686 7.32 1.38 0 2.566-.278 3.364-.582z"/><path d="m470.331 164.837h3.428v-14.217h-3.428zm-.057-16.893h3.536v-3.364h-3.536z"/><path d="m481.45 157.778c0-2.377.523-4.896 2.733-4.896 2.207 0 2.706 2.519 2.706 4.896 0 2.369-.499 4.911-2.706 4.911-2.21 0-2.733-2.542-2.733-4.911zm-3.533 0c0 5.969 3.359 7.349 6.266 7.349 2.902 0 6.239-1.38 6.239-7.349 0-5.8-3.337-7.317-6.239-7.317-2.907 0-6.266 1.517-6.266 7.317z"/><path d="m494.377 164.429c.719.28 2.188.698 3.953.698 3.094 0 5.306-1.572 5.306-4.199 0-1.662-.886-2.465-2.657-3.595l-1.682-1.07c-.996-.638-1.605-1.056-1.605-1.822 0-.862.579-1.39 1.961-1.39 1.238 0 2.156.305 3.013.636l.192-2.652c-.337-.112-1.739-.574-3.561-.574-3.015 0-4.92 2.075-4.92 4.037 0 2.236 1.579 3.142 3.01 3.994l1.414.83c1.243.727 1.513 1.243 1.513 1.798 0 1.1-.953 1.409-2.202 1.409-1.609 0-3.016-.715-3.566-.948z"/><path d="m523.989 156.047h2.93v5.197c-.462.187-1.211.361-2.041.361-3.624 0-5.583-2.764-5.583-7.105 0-4.007 2.011-7.099 5.77-7.099 1.775 0 3.319.501 4.454 1.186l.191-3.175c-.749-.331-2.484-.832-4.697-.832-6.185 0-9.475 4.199-9.475 9.92s3.29 9.919 9.475 9.919c2.51 0 4.228-.474 5.223-.994v-10.082h-6.247z"/><path d="m535.983 154.272c.663-.558 2.181-1.388 3.892-1.388 1.964 0 2.662 1.307 2.662 2.711v.526h-.698c-4.338 0-7.488.964-7.488 4.832 0 2.644 2.045 4.174 4.25 4.174 2.052 0 3.125-.99 3.987-2.159h.052c0 .7.027 1.383.191 1.94h3.099c-.086-.557-.194-1.502-.194-2.517v-6.214c0-3.558-1.029-5.716-5.439-5.716-2.187 0-3.538.601-4.51 1.048zm6.554 4.471c0 2.544-.759 4.063-2.802 4.063-1.318 0-2.173-.881-2.173-2.185 0-2.072 1.739-2.674 4.665-2.674h.31z"/><path d="m550.329 164.908h3.427v-8.294c0-1.824.636-3.339 2.426-3.339 1.415 0 1.972.918 1.972 3.101v8.532h3.415v-9.171c0-2.877-.962-5.276-4.196-5.276-2.32 0-3.285 1.544-3.781 2.399h.027-.076c0-.717-.091-1.464-.118-2.178h-3.204c.088.633.108 1.461.108 2.352z"/><path d="m574.15 143.404v8.542h-.054c-.496-1.109-1.63-2.268-3.676-2.268-3.066 0-4.915 2.703-4.915 7.346 0 3.953 1.471 7.319 4.999 7.319 2.212 0 3.229-1.212 3.781-2.435h.081c0 .977.057 1.797.116 2.217h3.204c-.089-.53-.111-1.407-.111-2.433v-18.288zm-5.217 13.48c0-2.848.665-4.699 2.565-4.699 1.881 0 2.652 2.018 2.652 4.783 0 2.686-.685 4.859-2.711 4.859-1.986 0-2.506-1.655-2.506-4.943z"/><path d="m581.965 164.125h3.42v-8.294c0-1.825.643-3.339 2.438-3.339 1.402 0 1.96.918 1.96 3.101v8.532h3.422v-9.171c0-2.877-.962-5.276-4.193-5.276-2.127 0-2.932 1.159-3.541 2.045h-.086v-8.319h-3.42z"/><path d="m597.888 164.837h3.433v-14.217h-3.433zm-.051-16.893h3.538v-3.364h-3.538z"/><path d="m205.07 138.813h15.604v-36.486h.245c2.269 5.036 7.421 10.312 16.736 10.312 13.959 0 22.388-12.335 22.388-33.4732 0-17.9903-6.661-33.3435-22.771-33.3435-10.059 0-14.712 5.5319-17.229 11.0785h-.378c0-4.4074-.251-8.1812-.506-10.0694h-14.59c.378 2.3866.501 6.4109.501 11.0662zm15.604-59.4041c0-12.1932 3.143-22.1423 12.326-22.1423 9.055 0 11.447 7.5502 11.447 22.5278 0 12.9593-3.013 21.3986-11.703 21.3986-8.554 0-12.07-9.1907-12.07-21.7841z"/><path d="m289.61 39.2483h9.814l12.837-18.1155h-14.6zm-12.961 23.5271c3.02-2.5216 9.949-6.2857 17.737-6.2857 8.935 0 12.083 5.9027 12.083 12.3259v2.3841h-3.148c-19.748 0-34.088 4.4049-34.088 22.022 0 12.0923 9.304 19.0063 19.371 19.0063 9.313 0 14.223-4.525 18.115-9.811h.251c0 3.15.13 6.283.886 8.81h14.084c-.371-2.527-.879-6.789-.879-11.4643v-28.3126c0-16.2273-4.653-26.0364-24.784-26.0364-9.94 0-16.098 2.7647-20.505 4.7805zm29.82 20.3867c0 11.577-3.406 18.4889-12.702 18.4889-6.045 0-9.937-4.0294-9.937-9.9394 0-9.4432 7.919-12.2055 21.256-12.2055h1.383z"/><path d="m349.997 78.5343c0-13.2024 3.15-20.755 11.324-20.8876 7.422-.1179 12.581 7.172 12.581 20.7599 0 14.7247-3.904 21.7664-13.716 21.7664-5.281 0-10.189-6.4131-10.189-21.6387zm-13.208 57.0177c3.774 1.375 11.955 4.022 22.265 4.022 23.778 0 29.943-14.474 29.943-34.723v-47.8329c0-3.3933.256-6.7914.504-10.1847h-14.087c-.13 3.3933-.505 6.6613-.505 10.0669h-.506c-3.271-5.6719-7.673-11.0761-17.107-11.0761-16.981 0-23.401 15.7191-23.401 33.5866 0 26.1842 13.582 32.2292 22.648 32.2292 10.187 0 14.589-5.913 17.108-10.956h.251v6.173c0 10.187-2.389 20.384-17.111 20.384-8.174 0-15.479-3.519-19.123-5.534z"/><path d="m404.689 112.302h15.601v-64.7961h-15.601zm-.253-76.9991h16.107v-15.3459h-16.107z"/><path d="m435.5 111.638h15.601v-37.7585c0-8.3016 2.895-15.2207 11.076-15.2207 6.411 0 8.928 4.1422 8.928 14.0814v38.8978h15.591v-41.7853c0-13.0845-4.387-24.0304-19.112-24.0304-10.565 0-14.97 7.0419-17.234 10.9459h.123-.383c0-3.2754-.371-6.6736-.499-9.9368h-14.587c.368 2.8973.496 6.6614.496 10.6955z"/><path d="m504.733 63.1859c3.018-2.5191 9.937-6.2856 17.737-6.2856 8.94 0 12.078 5.9026 12.078 12.3258v2.3866h-3.138c-19.758 0-34.095 4.4049-34.095 22.0195 0 12.0948 9.304 19.0088 19.373 19.0088 9.306 0 14.214-4.525 18.113-9.811h.255c0 3.15.123 6.281.88 8.81h14.083c-.368-2.529-.879-6.789-.879-11.467v-28.3099c0-16.2298-4.65-26.0389-24.781-26.0389-9.94 0-16.105 2.7672-20.503 4.783zm29.815 20.3867c0 11.5794-3.391 18.4884-12.709 18.4884-6.032 0-9.936-4.0264-9.936-9.9388 0-9.4408 7.925-12.2056 21.263-12.2056h1.382z"/><path d="m586.398 111.314h15.601v-87.8296h-13.337l-21.393 18.6188 7.427 10.8158 11.702-10.9484z"/></g></svg>