<svg fill="none" height="105" viewBox="0 0 619 105" width="619" xmlns="http://www.w3.org/2000/svg"><g fill="#fff"><path d="m199.864 53.1084h-11.572v50.5486h11.572z"/><path d="m249.926 103.657s.002-23.2361.002-29.4512c-2.962 4.9587-11.981 19.9931-14.061 23.4568l-.143.2447h-3.298l-.145-.2447c-.52-.8693-10.984-18.3642-14.209-23.7734.004 6.5062.004 29.7678.004 29.7678h-9.87v-50.5486h9.276l17.248 27.7277 16.896-27.7277h9.207v50.5486z"/><path d="m296.838 74.1668c1.575 0 2.048-.2727 2.126-.3287.112-.084.535-.5345.535-2.1878v-5.1803c0-1.131-.211-1.943-.583-2.2267 0 0-.444-.291-2.078-.291h-18.667v10.2145zm-30.092 29.4902v-50.5486h34.093c6.408 0 9.935 3.7705 9.935 10.6163v10.6686c0 6.8494-3.527 10.6138-9.935 10.6138h-22.668v18.6499z"/><path d="m541.254 74.7244c1.574 0 2.055-.2739 2.133-.3287.323-.2471.529-1.0592.529-2.161v-5.7915c0-1.1188-.213-1.9223-.583-2.2023-.001 0-.447-.2886-2.079-.2886h-18.668v10.7721zm3.234 28.9326-15.413-18.0911h-6.489v18.0911h-11.422v-50.5486h34.09c6.409 0 9.937 3.7705 9.937 10.6163v11.2249c0 6.8458-3.528 10.6163-9.937 10.6163h-1.856l17.634 18.0911z"/><path d="m595.779 81.8685-6.226-14.7508-6.452 14.7508zm9.445 21.7875-4.593-10.481h-22.47l-4.446 10.481h-11.857l22.847-50.5476h10.324l23.164 50.5476z"/><path d="m414.844 91.9551 25.742.0232v-8.2654h-22.521c-4.107 0-6.884-.9106-8.502-2.7867-1.563-1.8141-2.326-5.044-2.326-9.8724v-5.2887c0-4.826.763-8.0559 2.326-9.8712 1.62-1.8761 4.399-2.7855 8.502-2.7855h36.478l-10.953 11.0302h-25.963v7.6176h22.575c4.103 0 6.897.9046 8.541 2.7698 1.598 1.8213 2.376 5.0537 2.376 9.8858v6.5852c0 4.8345-.775 8.0681-2.372 9.886-1.641 1.867-4.431 2.773-8.528 2.773l-37.081.004z"/><path d="m366.927 103.657v-50.5486h11.573v38.8723h30.113l-11.679 11.6763z"/><path d="m472.585 64.3224c-2.08 0-3.455.4359-4.21 1.3295-.755.8875-1.131 2.5859-1.158 5.1888v14.5426c.027 2.6017.403 4.2964 1.158 5.1852.735.8717 2.119 1.3319 4.227 1.4122h15.911c2.088-.0803 3.473-.5405 4.211-1.4122.75-.8888 1.13-2.5835 1.157-5.1901l-.003-14.657c-.04-2.5384-.419-4.1966-1.154-5.0695-.758-.8936-2.135-1.3295-4.211-1.3295zm-6.119 39.3346c-4.102 0-6.881-.909-8.498-2.782-1.562-1.816-2.325-5.0447-2.325-9.878v-25.2307c0-4.8296.763-8.0596 2.325-9.8748 1.618-1.8737 4.397-2.7831 8.498-2.7831h28.161c4.102 0 6.881.9094 8.5 2.7855 1.565 1.8128 2.328 5.0428 2.328 9.8724v25.2307c0 4.8333-.763 8.062-2.33 9.878-1.615 1.873-4.395 2.782-8.498 2.782z"/><path d="m325.852 103.657c-4.104 0-6.883-.909-8.499-2.78-1.564-1.8168-2.328-5.0467-2.328-9.8788v-37.8898h11.575v32.9469c0 2.3278.35 3.9154 1.04 4.7189.7.8108 1.98 1.2065 3.914 1.2065h12.756c1.93 0 3.211-.3957 3.907-1.2065.694-.8035 1.046-2.3911 1.046-4.7189v-32.9469h11.571v37.8898c0 4.8321-.76 8.062-2.327 9.8788-1.616 1.871-4.394 2.78-8.498 2.78z"/><path d="m170.129 64.6599v-43.8444c0-10.82571-8.776-19.60847-19.603-19.60847h-59.858l40.528 39.75987h-131.196v43.5692c0 10.8281 8.77789 19.6089 19.6036 19.6089h56.9503l-40.2553-39.4851z"/><path d="m95.1209 103.664h55.3081c10.827 0 19.604-8.7808 19.604-19.6077v-6.8092h-101.8387z"/><path d="m71.9982 1.20703h-52.3946c-10.8257 0-19.6036 8.78276-19.6036 19.60847v7.0783h99.2036z"/><path d="m208.171 15.595c0-3.2677-2.066-4.9015-6.197-4.9015h-3.416v10.2449l3.163-.0633c2.234-.0414 3.868-.4918 4.901-1.3502 1.033-.8607 1.549-2.1707 1.549-3.9299zm12.331-.2228c0 4.7639-1.548 8.4126-4.647 10.9413-3.098 2.5287-7.684 3.7936-13.755 3.7936h-3.162v10.6248h-12.458v-39.52487h16.442c2.782 0 5.269.33724 7.462 1.01171 2.192.67326 4.037 1.63383 5.533 2.87686 1.497 1.24425 2.636 2.74172 3.415 4.49.78 1.7507 1.17 3.6804 1.17 5.7866z"/><path d="m261.154 32.0368c-.907 2.2133-2.172 4.0371-3.794 5.4688-1.625 1.4366-3.563 2.4897-5.819 3.1642s-4.733 1.0117-7.431 1.0117c-2.614 0-5.048-.2958-7.305-.8875-2.255-.588-4.205-1.5486-5.85-2.8756-1.643-1.3295-2.929-3.0364-3.855-5.1231-.928-2.0868-1.392-4.6276-1.392-7.6213v-23.96697h12.457v22.44997c0 2.6565.485 4.6154 1.456 5.8816.969 1.2649 2.53 1.898 4.679 1.898 2.066 0 3.552-.5467 4.458-1.6448.907-1.0957 1.361-3.0363 1.361-5.817v-22.76777h12.395v22.95647c0 3.0339-.454 5.6612-1.36 7.8733z"/><path d="m296.605 1.20703h11.572v39.90477h-13.216l-14.229-22.7666v22.3879h-11.572v-39.52607h13.407l14.038 22.44997z"/><path d="m337.626 11.3874v29.3457h-12.46v-29.3457h-11.95v-10.18037h36.364v10.18037z"/><path d="m382.833 20.8076c0-3.2652-.74-5.9254-2.213-7.9841-1.478-2.0551-3.649-3.08381-6.513-3.08381-2.913 0-5.061 1.00681-6.452 3.02291-1.393 2.0137-2.089 4.6106-2.089 7.7906 0 1.6533.191 3.1605.571 4.5168.379 1.355.925 2.5213 1.644 3.4977.718.9752 1.621 1.7386 2.718 2.2888 1.098.5516 2.362.8279 3.794.8279 2.867 0 5.007-1.0178 6.419-3.0522 1.413-2.038 2.121-4.6458 2.121-7.8246zm12.521-.2544c0 3.2056-.548 6.1031-1.645 8.6963s-2.603 4.7846-4.521 6.5767c-1.917 1.7933-4.173 3.1727-6.766 4.143-2.595.9679-5.368 1.4549-8.315 1.4549-2.954 0-5.715-.4334-8.287-1.2978-2.57-.8632-4.806-2.15-6.702-3.8581-1.899-1.7057-3.384-3.846-4.459-6.4185-1.075-2.5713-1.612-5.5857-1.612-9.0433 0-3.2457.547-6.1433 1.643-8.6951 1.095-2.54936 2.603-4.73227 4.522-6.54629 1.918-1.81158 4.174-3.19461 6.767-4.1418 2.593-.948401 5.364-1.42321 8.314-1.42321 2.951 0 5.715.423676 8.286 1.26616 2.571.8437 4.808 2.11716 6.702 3.82648 1.899 1.70566 3.386 3.84596 4.461 6.41726 1.074 2.5737 1.612 5.5869 1.612 9.0433z"/><path d="m415.355 31.3034c1.432 0 2.581-.1693 3.447-.5065.862-.336 1.296-.9265 1.296-1.769 0-.4638-.17-.8644-.505-1.2016-.337-.3385-.824-.6428-1.455-.918-.633-.2739-1.412-.5369-2.338-.7901-.931-.2545-1.964-.5479-3.103-.8863-1.431-.42-2.928-.9265-4.488-1.517-1.561-.5904-2.983-1.3599-4.27-2.3095-1.284-.9472-2.34-2.1184-3.161-3.5087-.823-1.3904-1.232-3.0985-1.232-5.1231 0-3.87761 1.349-6.97605 4.045-9.2941 2.7-2.31926 6.748-3.4795 12.144-3.4795 3.539 0 6.61.337237 9.199 1.01171 2.595.67447 4.84 1.49748 6.739 2.46779l-1.963 10.1804c-2.233-1.0969-4.596-1.9711-7.083-2.6236-2.487-.655-4.765-.9801-6.827-.9801-1.226 0-2.163.1473-2.816.442-.653.2934-.982.8437-.982 1.6448 0 .4626.223.8741.666 1.2308.441.3592 1.02.6769 1.738.9508.718.274 1.538.5479 2.469.8218.926.2752 1.872.5369 2.844.7902 1.56.4212 3.108.9386 4.649 1.5486 1.539.6111 2.909 1.3818 4.109 2.3095s2.182 2.0539 2.941 3.3821c.76 1.3283 1.139 2.9414 1.139 4.8382 0 1.9832-.369 3.7936-1.107 5.4384-.74 1.6436-1.834 3.0473-3.288 4.2063s-3.269 2.0648-5.438 2.7186c-2.172.6526-4.692.9813-7.559.9813-3.288 0-6.367-.3494-9.232-1.0446-2.869-.6952-5.209-1.5267-7.021-2.4982l1.899-10.1816c2.149 1.0543 4.479 1.9296 6.986 2.6248 2.509.6964 5.029 1.0434 7.558 1.0434z"/></g></svg>