<svg fill="none" height="111" viewBox="0 0 400 111" width="400" xmlns="http://www.w3.org/2000/svg"><path d="m191.297 71.5399-27.332 25.4623c-3.018 3.2318-2.843 8.2968.389 11.3148 3.231 3.017 8.297 2.843 11.315-.387l19.892-24.6774.098-.1215z" fill="#000"/><path d="m208.907 66.6981 1.521-1.8872 15.579-16.6633 5.56-3.0227s1.595-2.4031 3.232-4.8714c1.725-2.6002 3.5-5.2727 3.5-5.2727l-5.852-5.4629-9.658 7.4118-2.634 5.7551-14.283 15.2777-.817.7605z" fill="#000"/><path d="m222.63 97.215c-1.159-2.6337-3.347-4.4876-5.882-5.3203l-21.603-44.731c1.288-1.3397 2.197-2.9893 2.649-4.7674.542-2.1355.426-4.4576-.482-6.6512-1.664-4.021-5.514-6.4699-9.604-6.5509 0 0 .407.9841.953 2.3045 1.107 2.6742 2.207 5.3326 2.207 5.3326l-2.274 5.4893-5.606-2.3239-3.126-7.5543c-2.837 2.947-3.83 7.4011-2.166 11.4221 1.664 4.0193 5.514 6.4664 9.604 6.5474l17.573 46.7045c-1.1 2.4295-1.213 5.2956-.054 7.9296 2.161 4.919 7.902 7.153 12.82 4.991 4.918-2.164 7.153-7.903 4.991-12.822zm-7.6 6.884c-1.641.721-3.553-.023-4.275-1.664-.72-1.639.025-3.5528 1.664-4.2729 1.639-.7218 3.552.0229 4.274 1.6637.72 1.6392-.024 3.5532-1.663 4.2732z" fill="#000"/><g fill="#fff"><path d="m379.129 61.8054c-7.361-2.7323-8.5-3.0352-8.5-4.6302 0-1.5175 1.595-2.1232 3.872-2.1232 5.616 0 11.306 2.6549 15.329 5.9189l10.17-12.1422c-5.769-4.933-14.193-7.9681-23.679-7.9681-14.494 0-23.906 8.3483-23.906 18.5927 0 7.8167 4.63 11.3078 14.496 14.9503 7.741 2.8837 8.727 3.4136 8.727 5.0843 0 1.5176-1.593 2.352-3.87 2.352-5.616 0-11.839-2.4277-17.911-7.512l-9.899 11.82-6.706-44.6042h-17.607l-36.235 52.7782 14.072-52.3997h-19.503l-16.392 18.6684-6.375-18.6684h-17.531l-14.267 53.1233h17.38l7.058-26.3337 7.133 18.8956h.303l17.302-18.8956-7.058 26.3337h36.733l4.63-7.1336h18.593l.91 7.1336h18.898l-1.243-8.2603c6.431 5.66 15.462 9.3219 25.818 9.3219 15.254 0 24.057-8.3483 24.057-19.0487 0-8.1195-5.767-11.9134-14.799-15.253zm-64.341 13.5083 8.272-12.901 1.442 12.901z"/><path d="m125.363 28.6501-16.544-4.3256-11.232 14.5704 12.445.0003z"/><path d="m155.715 61.8054c-7.36-2.7323-8.5-3.0352-8.5-4.6302 0-1.5175 1.594-2.1232 3.872-2.1232 5.616 0 11.308 2.6549 15.329 5.9189l10.168-12.1422c-5.767-4.933-14.189-7.9681-23.677-7.9681-14.494 0-23.906 8.3483-23.906 18.5927 0 7.8167 4.63 11.3078 14.496 14.9503 7.741 2.8837 8.727 3.4136 8.727 5.0843 0 1.5176-1.593 2.352-3.869 2.352-5.617 0-11.84-2.4277-17.912-7.512l-9.899 11.82-6.706-44.6042h-17.6069l-36.2347 52.7782 14.0717-52.3997h-19.5029l-16.3921 18.6684-6.3748-18.6684h-17.5311l-14.2672 53.1233h17.3797l7.0579-26.3337 7.1336 18.8956h.3028l17.3023-18.8956-7.0579 26.3337h36.733l4.6301-7.1336h18.5925l.91 7.1336h18.898l-1.243-8.2603c6.431 5.66 15.462 9.3219 25.818 9.3219 15.254 0 24.057-8.3483 24.057-19.0487 0-8.1195-5.767-11.9134-14.799-15.253zm-64.3411 13.5083 8.2726-12.901 1.4405 12.901z"/><path d="m348.771 28.6501-16.544-4.3256-11.232 14.5704 12.444.0003z"/><path d="m379.129 61.8054c-7.361-2.7323-8.5-3.0352-8.5-4.6302 0-1.5175 1.595-2.1232 3.872-2.1232 5.616 0 11.306 2.6549 15.329 5.9189l10.17-12.1422c-5.769-4.933-14.193-7.9681-23.679-7.9681-14.494 0-23.906 8.3483-23.906 18.5927 0 7.8167 4.63 11.3078 14.496 14.9503 7.741 2.8837 8.727 3.4136 8.727 5.0843 0 1.5176-1.593 2.352-3.87 2.352-5.616 0-11.839-2.4277-17.911-7.512l-9.899 11.82-6.706-44.6042h-17.607l-36.235 52.7782 14.072-52.3997h-19.503l-16.392 18.6684-6.375-18.6684h-17.531l-14.267 53.1233h17.38l7.058-26.3337 7.133 18.8956h.303l17.302-18.8956-7.058 26.3337h36.733l4.63-7.1336h18.593l.91 7.1336h18.898l-1.243-8.2603c6.431 5.66 15.462 9.3219 25.818 9.3219 15.254 0 24.057-8.3483 24.057-19.0487 0-8.1195-5.767-11.9134-14.799-15.253zm-64.341 13.5083 8.272-12.901 1.442 12.901z"/></g><g fill="#000"><path d="m124.979 12.2648h-2.86v5.1301h-3.76v-17.101565h6.986c4.079 0 6.547 2.418935 6.547 5.913545v.04754c0 3.95938-3.079 6.01038-6.913 6.01038zm3.102-5.98574c0-1.6848-1.173-2.5897-3.053-2.5897h-2.909v5.22871h2.983c1.88 0 2.979-1.12321 2.979-2.58971z"/><path d="m154.027 17.6643c-4.593 0-7.403-2.5651-7.403-7.5984v-9.772565h3.764v9.675755c0 2.78511 1.393 4.22521 3.688 4.22521 2.296 0 3.691-1.3926 3.691-4.1037v-9.797265h3.76v9.651105c0 5.17946-2.905 7.71986-7.5 7.71986z"/><path d="m189.579 17.3949-8.281-10.87113v10.87113h-3.713v-17.101565h3.468l8.012 10.529565v-10.529565h3.715v17.101565z"/><path d="m216.851 3.7633v13.6316h-3.762v-13.6316h-5.204v-3.469965h14.17v3.469965z"/><path d="m244.724 17.6878c-5.278 0-9.063-3.9329-9.063-8.79547v-.0493c0-4.86076 3.835-8.84303 9.111-8.84303 5.278 0 9.063 3.93297 9.063 8.7955v.04753c0 4.86257-3.835 8.84477-9.111 8.84477zm5.178-8.84477c0-2.93124-2.15-5.37483-5.178-5.37483-3.03 0-5.13 2.39429-5.13 5.3273v.04753c0 2.93297 2.148 5.37487 5.178 5.37487s5.13-2.3926 5.13-5.32557z"/><path d="m275.368 17.6442c-2.59 0-5.204-.9049-7.255-2.7359l2.223-2.6636c1.539 1.2711 3.152 2.0774 5.106 2.0774 1.538 0 2.468-.6109 2.468-1.6126v-.0493c0-.9525-.588-1.4419-3.445-2.1743-3.446-.87845-5.669-1.83264-5.669-5.22867v-.04929c0-3.10202 2.493-5.1530084 5.985-5.1530084 2.492 0 4.618.7816654 6.352 2.1742284l-1.956 2.83266c-1.514-1.04927-3.003-1.68481-4.443-1.68481-1.444 0-2.201.65843-2.201 1.48939v.0493c0 1.1232.734 1.48939 3.69 2.24817 3.469.90314 5.423 2.14958 5.423 5.13013v.0493c0 3.396-2.588 5.3009-6.278 5.3009z"/></g></svg>