<svg fill="none" height="250" viewBox="0 0 401 250" width="401" xmlns="http://www.w3.org/2000/svg"><g fill="#fff"><path d="m106.407 8.49887h9.452c5.225 0 5.489 1.07262 5.489 2.81473 0 1.7738-.264 2.8585-5.489 2.8585h-9.452zm16.712 13.22213c3.688-1.2479 6.956-4.7057 6.956-10.5422 0-9.90786-7.149-11.1788-13.373-11.1788h-19.0096v35.2182h8.7146v-12.544h6.728l8.447 12.544h10.814z"/><path d="m144.319 26.5462v-5.1002h17.577v-8.6774h-17.577v-4.09662h20.418v-8.67198h-29.139v35.2171h29.624v-8.6709z"/><path d="m179.488 8.67198h4.25c10.029 0 11.935 3.10282 11.935 8.82972 0 5.5812-1.993 9.0445-11.935 9.0445h-4.25zm6.816-8.67198h-15.537v35.2182h15.776c11.176 0 17.847-6.6527 17.847-17.8074 0-11.06267-6.595-17.4108-18.086-17.4108z"/><path d="m338.299 221.742 61.487-.005v-177.9704h-106.659l-44.449 88.8574-44.348-88.8574h-106.6376v177.7244h62.1776v-115.608l62.195 115.608h53.332l62.423-115.608"/><path d="m107.634 242.504-4.711-11.168h-5.2306v17.437h3.9746v-10.186l4.325 10.186h3.298l4.301-10.18v10.18h3.974v-17.437h-5.149z"/><path d="m136.41 240.981c0 2.236-.584 4.309-4.88 4.309-4.297 0-4.886-2.073-4.886-4.309v-9.645h-4.332v9.871c0 5.207 3.186 7.964 9.218 7.964 6.033 0 9.224-2.757 9.224-7.964v-9.871h-4.344z"/><path d="m149.312 241.741h9.833v-3.89h-9.833v-2.628h11.422v-3.887h-15.758v17.437h16.028v-3.891h-11.692z"/><path d="m175.094 237.76h-6.248v-2.625h6.248c2.245 0 2.426.597 2.426 1.324 0 .685-.186 1.301-2.426 1.301zm-6.248 3.799h6.342c2.607 0 2.963.845 2.963 1.66 0 1.083-.496 1.757-2.963 1.757h-6.342zm11.613-2.147c.68-.585 1.399-1.546 1.399-3.335 0-3.151-2.345-4.741-6.963-4.741h-10.38v17.437h10.989c4.371 0 6.973-1.985 6.973-5.302 0-1.836-.919-3.254-2.018-4.059z"/><path d="m190.338 231.336h-4.331v17.437h16.132v-3.978h-11.801z"/><path d="m209.876 231.336h-4.331v17.437h4.331z"/><path d="m227.019 238.053-3.87-.588c-3.145-.392-3.145-1.043-3.145-1.261 0-1.007 1.882-1.458 3.747-1.458 3.887 0 4.816 1.325 5.162 2.325l.192.531 4.103-1.342-.204-.563c-.421-1.176-1.714-4.752-9.165-4.752-5.191 0-8.166 1.992-8.166 5.462 0 2.797 2.256 4.643 6.359 5.208l3.905.538c1.929.243 3.033.774 3.033 1.461 0 .944-1.829 1.69-4.167 1.69-4.308 0-5.191-1.818-5.577-2.589l-.217-.442-4.085 1.278.17.551c.368 1.19 2.15 5.082 9.616 5.082 5.465 0 8.598-2.133 8.598-5.859 0-2.859-2.116-4.632-6.289-5.272z"/><path d="m254.136 231.336h-18.892v3.887h7.283v13.55h4.331v-13.55h7.278z"/><path d="m265.689 241.144h-4.993l2.497-5.316zm-4.67-9.808-8.581 17.437h4.676l1.724-3.742h8.64l1.701 3.742h4.653l-8.465-17.437z"/><path d="m294.423 242.504-4.699-11.168h-5.244v17.437h3.982v-10.186l4.325 10.186h3.291l4.302-10.18v10.18h3.98v-17.437h-5.143z"/><path d="m320.013 241.144h-4.993l2.497-5.316zm-4.671-9.808-8.587 17.437h4.683l1.724-3.742h8.64l1.702 3.742h4.657l-8.47-17.437z"/><path d="m341.122 238.053-3.863-.588c-3.139-.392-3.139-1.043-3.139-1.261 0-1.007 1.87-1.458 3.735-1.458 3.893 0 4.816 1.325 5.172 2.325l.188.531 4.097-1.342-.203-.563c-.416-1.176-1.709-4.752-9.167-4.752-5.184 0-8.165 1.992-8.165 5.462 0 2.797 2.268 4.643 6.371 5.208l3.905.538c1.922.243 3.028.774 3.028 1.461 0 .944-1.836 1.69-4.169 1.69-4.301 0-5.195-1.818-5.575-2.589l-.218-.442-4.091 1.278.176.551c.368 1.19 2.151 5.082 9.615 5.082 5.46 0 8.599-2.133 8.599-5.859 0-2.859-2.122-4.632-6.296-5.272z"/><path d="m355.64 231.336h-4.337v17.437h4.337z"/><path d="m370.82 238.053-3.87-.588c-3.144-.392-3.144-1.043-3.144-1.261 0-1.007 1.882-1.458 3.742-1.458 3.898 0 4.815 1.325 5.167 2.325l.186.531 4.11-1.342-.205-.563c-.421-1.176-1.713-4.752-9.165-4.752-5.191 0-8.166 1.992-8.166 5.462 0 2.797 2.256 4.643 6.364 5.208l3.906.538c1.918.243 3.021.774 3.021 1.461 0 .944-1.823 1.69-4.16 1.69-4.303 0-5.198-1.818-5.571-2.589l-.223-.442-4.085 1.278.168.551c.363 1.19 2.152 5.082 9.617 5.082 5.459 0 8.592-2.133 8.592-5.859 0-2.859-2.109-4.632-6.284-5.272z"/><path d="m391.907 241.144h-4.992l2.497-5.316zm-.321-9.808h-4.349l-8.581 17.437h4.676l1.725-3.742h8.639l1.707 3.742h4.652z"/><path d="m48.9367 75.1794c-2.4729 0-4.4779-2.0017-4.4779-4.4746 0-2.4662 2.005-4.468 4.4779-4.468 2.4663 0 4.4658 2.0018 4.4658 4.468 0 2.4729-1.9995 4.4746-4.4658 4.4746zm36.1878 53.1936c0-18.551-11.2226-33.1467-27.701-43.5454l35.938-23.0895-37.7206 3.0317c-5.6524-7.3452-14.1743-12.0159-23.714-12.0159-17.0098 0-31.9269 14.9763-31.9269 33.3184 0 8.6862 3.67039 18.4907 8.74319 24.4187l4.55461-17.7167 4.4362 9.3297 4.5009-13.8426 35.4636 84.5056 8.9317-8.862v48.894l21.9664-4.433-13.0995-53.33c5.4651-6.941 9.6274-15.728 9.6274-26.663z"/></g></svg>