<svg fill="none" height="88" viewBox="0 0 800 88" width="800" xmlns="http://www.w3.org/2000/svg"><g fill="#1f1d2b"><path d="m183.237 56.8341-.428-24.8029h7.821v31.2744h-11.244l-7.826-25.6563h-.173l.436 25.6563h-7.761v-31.2744h11.741l7.264 24.8029z"/><path d="m40.9846 34.9543-4.3256 28.6751h-8.534l5.8505-31.5982h14.0644l5.8194 31.5982h-8.4852l-4.2121-28.6751z"/><path d="m77.8036 56.1954 3.8998-24.1642h12.888l.7008 31.5982h-7.9077l-.2058-28.409-.1695.008-5.2792 28.401h-8.016l-5.281-28.409h-.1747l-.197 28.409h-7.9051l.7018-31.5982h12.8818l3.89 24.1642z"/><path d="m14.6676 54.5542c.3096.7612.2031 1.7459.0603 2.3411-.2555 1.0309-.9652 2.1078-3.0756 2.1078-1.9721 0-3.18124-1.1302-3.18124-2.8512l-.00532-3.0649h-8.46574v2.444c0 7.041 5.54092 9.1585 11.4775 9.1585 5.721 0 10.4165-1.9392 11.1723-7.2069.3868-2.7332.102-4.5207-.0346-5.202-1.3377-6.6153-13.32-8.5713-14.22398-12.2804-.15169-.6485-.11709-1.289-.03371-1.6491.22799-1.0158.91728-2.1211 2.89199-2.1211 1.8541 0 2.9346 1.139 2.9346 2.8583v1.9472h7.8856v-2.2072c0-6.8937-6.1815-7.9689-10.6525-7.9689-5.62256 0-10.20185 1.862-11.047273 7.0268-.231537 1.3892-.259924 2.656.075406 4.2502 1.368817 6.4502 12.596167 8.3211 14.222267 12.4178z"/><path d="m117.664 54.7018c.296.7585.208 1.7272.065 2.3224-.26 1.0406-.967 2.0812-3.052 2.0812-1.964 0-3.148-1.1106-3.148-2.8192l-.007-3.034h-8.393l-.004 2.413c0 6.9789 5.497 9.0663 11.381 9.0663 5.656 0 10.312-1.9126 11.051-7.1306.383-2.6995.103-4.472-.031-5.1524-1.322-6.546-13.196-8.4879-14.074-12.1561-.153-.6317-.111-1.2722-.04-1.6243.224-1.0087.899-2.1043 2.863-2.1043 1.831 0 2.907 1.1275 2.907 2.8166v1.9348h7.802v-2.1814c0-6.8175-6.123-7.8838-10.539-7.8838-5.566 0-10.11 1.8204-10.942 6.9479-.234 1.3795-.266 2.6321.069 4.2102 1.364 6.3917 12.477 8.2458 14.092 12.2937z"/><path d="m143.908 58.8887c2.191 0 2.881-1.4904 3.037-2.2764.068-.3389.079-.8002.075-1.2073v-23.3738h8.011v22.6499c.008.5872-.053 1.776-.088 2.09-.554 5.886-5.219 7.7916-11.035 7.7916-5.808 0-10.475-1.9056-11.015-7.7916-.032-.314-.093-1.5028-.078-2.09v-22.6499h7.984v23.3738c-.006.4071.008.8684.076 1.2073.155.786.844 2.2764 3.033 2.2764z"/><path d="m209.618 58.641c2.281 0 3.1-1.4407 3.248-2.2844.061-.3583.085-.8019.072-1.2038v-4.589h-3.256v-4.6183h11.199v8.4834c-.004.5953-.011 1.0309-.099 2.0857-.527 5.7467-5.524 7.8048-11.134 7.8048-5.595 0-10.584-2.0581-11.103-7.8048-.092-1.0548-.107-1.4904-.107-2.0857v-13.2969c0-.5669.069-1.5587.133-2.0679.701-5.9357 5.482-7.8146 11.081-7.8146 5.614 0 10.528 1.8665 11.112 7.8146.09.9865.056 2.0679.06 2.0679v1.0512h-7.958v-1.7742s-.008-.7487-.102-1.1888c-.143-.6955-.762-2.2967-3.176-2.2967-2.294 0-2.97 1.517-3.143 2.2967-.092.3992-.13.9634-.13 1.4789v14.4537c-.003.4019.016.8455.073 1.2038.152.8437.948 2.2844 3.23 2.2844z"/><path d="m255.956 50.9118v18.9328h11.338c4.184 0 7.34-.8268 9.466-2.4812 2.127-1.6527 3.189-3.9983 3.189-7.0366 0-3.0375-.928-5.3653-2.783-6.9852-1.859-1.619-5.351-2.4298-10.479-2.4298zm0-29.6616v16.8038h9.517c4.386 0 7.456-.8091 9.212-2.4281 1.755-1.6207 2.632-3.7454 2.632-6.3783 0-2.7678-.911-4.7922-2.734-6.0759-1.822-1.281-4.859-1.9215-9.11-1.9215zm-13.768-12.65645h23.285c8.165 0 14.491 1.75645 18.982 5.26505 4.488 3.5112 6.731 8.6405 6.731 15.3888 0 6.4129-2.699 11.2042-8.098 14.3757 3.442 1.5524 6.09 3.7454 7.947 6.5815 1.856 2.8334 2.783 6.3091 2.783 10.4271 0 7.2886-2.379 12.755-7.135 16.4001-4.76 3.6452-11.223 5.4664-19.389 5.4664h-25.106z"/><path d="m313.769 7.42188h-13.769v74.91692h13.769z"/><path d="m375.228 82.2716h-13.567v-7.419c-1.889 2.3482-4.251 4.1908-7.086 5.5214-2.835 1.3325-6.142 1.9978-9.922 1.9978-7.019 0-12.571-2.1858-16.653-6.5566-4.085-4.3726-6.125-10.4671-6.125-18.2862v-34.4821h13.87v32.9412c0 4.4853 1.028 8.0293 3.088 10.6312 2.057 2.6072 5.246 3.9095 9.567 3.9095 3.779 0 6.917-1.3519 9.415-4.0567 2.496-2.7022 3.746-6.594 3.746-11.6727v-31.7525h13.667z"/><path d="m412.027 35.0948c-4.117 0-7.677.9093-10.68 2.7296-3.005 1.8177-5.114 4.2156-6.328 7.1919h33.611c-1.012-3.2522-2.971-5.7192-5.871-7.4003-2.903-1.6793-6.48-2.5212-10.732-2.5212zm.505 47.379c-4.657 0-8.908-.7638-12.755-2.2914-3.848-1.5276-7.137-3.6265-9.871-6.2941-2.734-2.6657-4.859-5.807-6.378-9.4167-1.519-3.6105-2.278-7.4642-2.278-11.5644 0-4.1624.793-8.0674 2.379-11.7082 1.586-3.6442 3.763-6.7997 6.53-9.4664 2.766-2.6675 6.025-4.7806 9.769-6.342 3.747-1.5604 7.779-2.3437 12.099-2.3437 4.386 0 8.453.7132 12.199 2.1361 3.747 1.4239 6.968 3.4181 9.668 5.9783 2.699 2.5629 4.809 5.5844 6.328 9.0646 1.519 3.4801 2.278 7.277 2.278 11.3905v4.8392h-48.19c.944 4.1854 3.003 7.56 6.175 10.1238 3.172 2.5673 7.189 3.8483 12.047 3.8483 3.848 0 7.189-.9439 10.024-2.8352 2.834-1.8887 4.961-4.4196 6.378-7.5919l11.237 6.4786c-2.566 4.7922-6.16 8.6555-10.783 11.591-4.622 2.9364-10.242 4.4036-16.856 4.4036z"/><path d="m509.84 82.3092c-5.67 0-10.85-.9705-15.541-2.9133-4.691-1.9437-8.69-4.5775-11.997-7.9042-3.308-3.3267-5.871-7.2468-7.694-11.7605-1.823-4.511-2.733-9.3378-2.733-14.4741 0-5.3999.978-10.3589 2.936-14.8725 1.956-4.511 4.639-8.4143 8.048-11.7082 3.408-3.293 7.424-5.8612 12.047-7.7055 4.623-1.84429 9.601-2.76778 14.934-2.76778 3.442 0 6.765.44534 9.971 1.33511 3.206.88887 6.209 2.13347 9.011 3.73917 2.799 1.6075 5.33 3.5538 7.592 5.8452 2.261 2.2897 4.201 4.8366 5.822 7.6381l-12.048 7.3329c-2.16-3.8057-4.894-6.8113-8.2-9.0167-3.307-2.2044-7.358-3.3071-12.148-3.3071-3.511 0-6.75.6006-9.719 1.8026-2.971 1.202-5.535 2.8583-7.695 4.9678-2.16 2.1123-3.847 4.5989-5.062 7.4554-1.214 2.8583-1.822 5.9463-1.822 9.2579 0 3.2486.608 6.2852 1.822 9.1116 1.215 2.8245 2.885 5.2943 5.011 7.4038 2.127 2.1123 4.657 3.7685 7.594 4.9697 2.936 1.2047 6.124 1.8026 9.566 1.8026 5.128 0 9.466-1.2376 13.009-3.7144 3.544-2.4759 6.294-5.6447 8.251-9.5045l12.554 6.2719c-1.62 3.0543-3.594 5.8594-5.921 8.4151-2.329 2.5567-4.928 4.7479-7.796 6.5736-2.87 1.8257-5.974 3.237-9.314 4.2342-3.341.9953-6.835 1.4921-10.478 1.4921z"/><path d="m577.551 69.6169c2.429 0 4.69-.4418 6.782-1.3289 2.091-.8854 3.914-2.0901 5.468-3.6088 1.551-1.5187 2.766-3.3081 3.644-5.3671.876-2.0545 1.316-4.2253 1.316-6.5034 0-2.3411-.44-4.5411-1.316-6.6001-.878-2.0564-2.093-3.8448-3.644-5.3644-1.554-1.5188-3.377-2.7243-5.468-3.6088-2.092-.8853-4.353-1.3307-6.782-1.3307s-4.708.4454-6.834 1.3307c-2.126.8845-3.948 2.09-5.466 3.6088-1.519 1.5196-2.719 3.308-3.595 5.3644-.878 2.059-1.316 4.259-1.316 6.6001 0 2.2781.438 4.4489 1.316 6.5034.876 2.059 2.076 3.8484 3.595 5.3671 1.518 1.5187 3.34 2.7234 5.466 3.6088 2.126.8871 4.405 1.3289 6.834 1.3289zm0 12.8569c-4.252 0-8.252-.7638-11.997-2.2914-3.746-1.5276-7.004-3.6434-9.77-6.3428-2.768-2.6987-4.944-5.855-6.529-9.4665-1.587-3.6087-2.38-7.4641-2.38-11.5626 0-4.165.793-8.0506 2.38-11.6611 1.585-3.6106 3.761-6.767 6.529-9.4665 2.766-2.6994 6.024-4.8134 9.77-6.3419 3.745-1.5285 7.745-2.2941 11.997-2.2941 4.251 0 8.232.7656 11.946 2.2941 3.71 1.5285 6.968 3.6425 9.769 6.3419 2.8 2.6995 4.994 5.8559 6.58 9.4665 1.586 3.6105 2.379 7.4961 2.379 11.6611 0 4.0985-.793 7.9539-2.379 11.5626-1.586 3.6115-3.78 6.7678-6.58 9.4665-2.801 2.6994-6.059 4.8152-9.769 6.3428-3.714 1.5276-7.695 2.2914-11.946 2.2914z"/><path d="m614.221 23.081h13.777v59.2247h-13.777zm-1.721-14.47776c0-2.56287.781-4.63872 2.333-6.22488 1.553-1.587053 3.646-2.37836 6.272-2.37836 2.706 0 4.808.791307 6.334 2.37836 1.517 1.58616 2.271 3.66201 2.271 6.22488 0 2.56646-.754 4.62546-2.271 6.17606-1.526 1.5543-3.628 2.3296-6.334 2.3296-2.768 0-4.888-.7753-6.369-2.3296-1.491-1.5506-2.236-3.6096-2.236-6.17606z"/><path d="m635.937 23.1489h13.564v8.0887c1.957-2.4679 4.438-4.4506 7.442-5.9463 3.002-1.4957 6.429-2.2444 10.276-2.2444 7.356 0 13.111 2.1876 17.262 6.5584 4.149 4.3735 6.224 10.4671 6.224 18.2844v34.4839h-13.869v-32.9412c0-4.4826-1.112-8.0276-3.34-10.633-2.227-2.6037-5.568-3.9078-10.023-3.9078-3.914 0-7.206 1.3538-9.87 4.0568-2.667 2.7048-4 6.5948-4 11.6727v31.7525h-13.666z"/><path d="m720.853 82.4738c-6.548 0-11.982-1.2171-16.3-3.6522-4.32-2.436-7.66-5.9579-10.022-10.5638l12.655-5.6944c1.416 2.5931 3.339 4.5873 5.77 5.9783 2.43 1.391 5.264 2.0883 8.504 2.0883 3.373 0 5.906-.676 7.592-2.0262 1.689-1.3511 2.531-2.9612 2.531-4.8277 0-1.0273-.388-1.8638-1.164-2.5079-.777-.644-1.789-1.2073-3.036-1.689-1.249-.4835-2.718-.8854-4.404-1.2074-1.689-.322-3.442-.6751-5.266-1.061-2.564-.5136-5.078-1.1248-7.542-1.8336-2.463-.7071-4.674-1.6882-6.63-2.9435-1.959-1.2544-3.543-2.8645-4.758-4.8259s-1.824-4.424-1.824-7.3835c0-2.2515.557-4.424 1.672-6.5141 1.113-2.0935 2.683-3.9414 4.707-5.5506 2.024-1.6093 4.472-2.8787 7.339-3.812 2.869-.9323 6.058-1.4007 9.566-1.4007 5.941 0 10.885 1.0991 14.834 3.2983 3.948 2.1982 7.068 5.1896 9.364 8.9776l-11.642 5.5045c-1.216-1.9871-2.903-3.5564-5.061-4.7106-2.162-1.1532-4.658-1.7307-7.495-1.7307-3.238 0-5.635.6121-7.187 1.8345-1.552 1.2243-2.327 2.641-2.327 4.2493 0 1.8656 1.146 3.2043 3.442 4.008 2.294.8037 5.669 1.6563 10.124 2.5593 2.43.4507 4.875 1.0433 7.339 1.7849 2.463.739 4.707 1.7379 6.733 2.9949 2.025 1.2544 3.66 2.8645 4.909 4.8286s1.874 4.4258 1.874 7.387c0 1.996-.473 4.071-1.418 6.2258-.946 2.1592-2.413 4.1534-4.404 5.988-1.992 1.8354-4.505 3.3311-7.542 4.4888-3.037 1.1612-6.681 1.7387-10.933 1.7387z"/></g><path d="m799.596 44.0765c.141 7.8705-6.125 14.3633-13.995 14.5043-7.87.1402-14.365-6.1264-14.505-13.996-.14-7.8705 6.126-14.3642 13.996-14.5043 7.871-.1411 14.364 6.1255 14.504 13.996z" fill="#0c83c6"/><path d="m775.161 79.7544c-3.814 6.8867-12.487 9.3768-19.373 5.5631-6.887-3.8128-9.377-12.487-5.563-19.3728 3.813-6.8866 12.487-9.3777 19.373-5.564 6.885 3.8137 9.376 12.488 5.563 19.3737z" fill="#03bfe4"/></svg>