<svg fill="none" height="40" viewBox="0 0 400 40" width="400" xmlns="http://www.w3.org/2000/svg"><g fill="#161c28"><path d="m200.454 31.0778-.476-27.16813h8.572v34.25593h-12.33l-8.545-28.1049h-.193l.482 28.1049h-8.514v-34.25593h12.847l7.971 27.16813z"/><path d="m44.5895 7.10762-4.7385 31.41148h-9.3559l6.4138-34.60943h15.4148l6.3712 34.60943h-9.2968l-4.6229-31.41423z"/><path d="m85.0211 30.3763 4.2667-26.46663h14.1222l.76 34.60943h-8.6541l-.2297-31.12676-.1857.00688-5.7825 31.11988h-8.7809l-5.7853-31.12676h-.2063l-.209 31.12676h-8.6558l.762-34.60943h14.1287l4.2475 26.46663z"/><path d="m16.075 28.8858c.3384.8376.2298 1.9132.0688 2.5638-.2888 1.1334-1.0495 2.3149-3.3685 2.3149-2.1677 0-3.48679-1.2393-3.48679-3.1305v-3.3603h-9.28851v2.678c0 7.7205 6.07543 10.0423 12.5731 10.0423 6.2763 0 11.4219-2.1182 12.2526-7.8965.4154-2.9944.1101-4.96-.0343-5.6986-1.4718-7.2473-14.6047-9.3903-15.58679-13.4575-.16781-.7098-.12517-1.4154-.03577-1.8101.24896-1.1073 1.00276-2.32044 3.16766-2.32044 2.0302 0 3.2131 1.25164 3.2131 3.13334v2.1361h8.6338v-2.4236c0-7.54442-6.7728-8.72457-11.6791-8.72457-6.14278 0-11.16597 2.04394-12.099913 7.69297-.235204 1.5268-.277844 2.9091.086654 4.6614 1.504759 7.0686 13.806859 9.1249 15.583959 13.5993z"/><path d="m128.523 28.8211c.319.8308.229 1.8982.063 2.546-.269 1.143-1.053 2.2833-3.33 2.2833-2.149 0-3.451-1.2173-3.451-3.0866v-3.3341h-9.208v2.6478c0 7.6434 6.026 9.9418 12.474 9.9418 6.193 0 11.285-2.0989 12.096-7.8222.426-2.9587.123-4.9077-.033-5.6353-1.436-7.1786-14.45-9.2995-15.404-13.3296-.172-.6905-.131-1.3961-.043-1.7813.235-1.0962.978-2.31075 3.128-2.31075 2 0 3.183 1.24205 3.183 3.09345v2.1264h8.544v-2.3933c0-7.46599-6.703-8.63926-11.54-8.63926-6.102 0-11.085 2.0068-11.99 7.60906-.243 1.5213-.297 2.8844.077 4.6174 1.488 7.0053 13.663 9.0368 15.434 13.4672z"/><path d="m157.59 33.3322c2.403 0 3.148-1.6285 3.316-2.4868.074-.3755.094-.8817.087-1.3287v-25.60703h8.761v24.81473c.02.6479-.049 1.9422-.084 2.2888-.608 6.4578-5.716 8.5375-12.08 8.5375-6.365 0-11.472-2.0797-12.074-8.5375-.026-.3466-.096-1.6409-.076-2.2888v-24.81473h8.747v25.60703c0 .447.012.9532.086 1.3287.17.8583.914 2.4868 3.317 2.4868z"/><path d="m230.031 33.1332c2.505 0 3.377-1.5763 3.536-2.4979.069-.3947.083-.8775.083-1.3245v-5.0177h-3.55v-5.0645h12.248v9.2913c0 .6492-.007 1.1292-.1 2.2833-.578 6.2996-6.059 8.5622-12.184 8.5622-6.135 0-11.609-2.2626-12.176-8.5622-.09-1.1541-.118-1.6341-.123-2.2833l.005-14.5621c0-.6258.077-1.7138.153-2.2736.762-6.48669 6.006-8.55676 12.141-8.55676 6.141 0 11.522 2.05357 12.158 8.55676.111 1.0894.07 2.2736.07 2.2736v1.1513h-8.725v-1.9476s-.008-.8198-.11-1.2985c-.159-.7689-.824-2.52121-3.459-2.52121-2.513 0-3.253 1.66291-3.454 2.52121-.102.4374-.136 1.0591-.136 1.6176v15.8302c0 .447.018.9298.087 1.3245.152.9216 1.031 2.4979 3.536 2.4979z"/></g><g fill="#00b8ec"><path d="m276.33 38.7139c-3.332 0-6.143-.63-8.43-1.8927-2.291-1.2613-4.275-2.8348-5.958-4.7192l6.26-4.7137c.941 1.5391 2.103 2.7179 3.483 3.5349 1.379.8184 2.912 1.2283 4.594 1.2283 1.818 0 3.205-.491 4.165-1.4703.958-.9821 1.44-2.0921 1.44-3.3355 0-.7497-.22-1.3865-.658-1.9106-.437-.5226-1.009-.9724-1.715-1.3479-.708-.3755-1.524-.7111-2.45-1.0041-.927-.2944-1.876-.5887-2.852-.8831-1.245-.3933-2.491-.817-3.736-1.275-1.246-.458-2.364-1.0687-3.356-1.8376-.993-.7675-1.802-1.7166-2.424-2.8431-.624-1.1265-.935-2.5419-.935-4.2392 0-1.4387.304-2.77843.909-4.02185.607-1.23929 1.457-2.32591 2.55-3.2571 1.094-.93256 2.389-1.66018 3.887-2.18148 1.498-.52405 3.121-.78539 4.872-.78539 1.48 0 2.819.13342 4.014.40438 1.194.26959 2.289.63959 3.282 1.10863.991.47316 1.901 1.03572 2.724 1.69319.826.65472 1.607 1.37134 2.348 2.14435l-5.653 4.39877c-1.582-2.42773-3.804-3.64226-6.665-3.64226-1.682 0-2.962.39476-3.836 1.17877-.875.78401-1.313 1.74819-1.313 2.89259 0 .7208.203 1.3246.606 1.817.404.4883.95.9216 1.641 1.2984.689.3755 1.488.7112 2.398 1.0041.908.2944 1.868.6052 2.876.9312 1.247.392 2.5.8418 3.762 1.3507 1.262.5062 2.406 1.1595 3.432 1.9601 1.028.8019 1.861 1.7826 2.499 2.9421.64 1.1622.96 2.6079.96 4.3409 0 1.4058-.286 2.7785-.858 4.1182-.572 1.3411-1.397 2.5253-2.474 3.5556-1.077 1.0302-2.406 1.8637-3.988 2.5019-1.582.6369-3.382.956-5.401.956z"/><path d="m290.874 9.18948h5.047v-4.49502l6.867-4.69446v9.18948h6.007v6.10702h-6.007v11.0574c0 1.2792.066 2.3135.202 3.103.134.7923.412 1.3989.834 1.8198.42.4195 1.025.6973 1.816.8321s1.843.2022 3.155.2022v6.4111h-.959c-2.289 0-4.199-.2022-5.729-.6066-1.533-.403-2.752-1.0853-3.661-2.044s-1.557-2.2213-1.944-3.7866c-.386-1.5653-.581-3.5239-.581-5.8801v-11.1083h-5.047z"/><path d="m327.282 32.2169c1.212 0 2.34-.2215 3.382-.663 1.044-.4429 1.952-1.0412 2.728-1.8005.773-.7565 1.379-1.6491 1.817-2.6752.436-1.0248.656-2.1086.656-3.2434 0-1.1677-.22-2.2654-.656-3.2915-.438-1.0247-1.044-1.9174-1.817-2.6752-.776-.7565-1.684-1.3576-2.728-1.7992-1.042-.4429-2.17-.6643-3.382-.6643s-2.348.2214-3.407.6643c-1.061.4416-1.968 1.0427-2.726 1.7992-.758.7578-1.355 1.6505-1.793 2.6752-.437 1.0261-.656 2.1238-.656 3.2915 0 1.1348.219 2.2186.656 3.2434.438 1.0261 1.035 1.9187 1.793 2.6752.758.7593 1.665 1.3576 2.726 1.8005 1.059.4415 2.195.663 3.407.663zm0 6.411c-2.12 0-4.114-.381-5.982-1.143s-3.492-1.817-4.872-3.1635c-1.381-1.3452-2.466-2.9188-3.256-4.7193-.791-1.8004-1.187-3.7233-1.187-5.7673 0-2.0769.396-4.015 1.187-5.8141.79-1.8018 1.875-3.374 3.256-4.7206 1.38-1.3452 3.004-2.4015 4.872-3.1635 1.868-.76066 3.862-1.14441 5.982-1.14441 2.121 0 4.107.38375 5.958 1.14441 1.85.762 3.473 1.8183 4.872 3.1635 1.396 1.3466 2.49 2.9188 3.281 4.7206.789 1.7991 1.187 3.7372 1.187 5.8141 0 2.044-.398 3.9669-1.187 5.7673-.791 1.8005-1.885 3.3741-3.281 4.7193-1.399 1.3465-3.022 2.4015-4.872 3.1635-1.851.762-3.837 1.143-5.958 1.143z"/><path d="m347.954 8.99219h6.765v4.39051c1.379-2.927 3.903-4.39051 7.572-4.39051 1.078 0 2.045.11829 2.903.35212.858.23658 1.623.5378 2.297.90919l-2.575 6.4619c-.504-.3356-1.068-.6134-1.69-.8321-.625-.2187-1.424-.3288-2.399-.3288-1.986 0-3.492.564-4.518 1.6905-1.026 1.1279-1.539 2.971-1.539 5.5293v15.7505h-6.816z"/><path d="m384.803 15.0002c-2.053 0-3.829.4539-5.327 1.3603-1.496.9065-2.548 2.1045-3.155 3.5886h16.761c-.504-1.623-1.481-2.8527-2.927-3.6917-1.448-.8377-3.232-1.2572-5.352-1.2572zm.254 23.6277c-2.324 0-4.445-.3823-6.362-1.143-1.919-.762-3.56-1.8101-4.923-3.1388-1.363-1.3301-2.423-2.8967-3.181-4.6972-.757-1.7991-1.135-3.722-1.135-5.7659 0-2.0756.395-4.0219 1.186-5.8389s1.876-3.3905 3.255-4.7206c1.381-1.3301 3.004-2.3837 4.874-3.1635 1.868-.77718 3.879-1.16781 6.032-1.16781 2.187 0 4.216.35624 6.083 1.06601 1.868.7097 3.474 1.7042 4.822 2.982 1.345 1.2778 2.398 2.7839 3.154 4.5184.758 1.7372 1.138 3.6298 1.138 5.6793v2.4139h-24.031c.47 2.0893 1.496 3.7702 3.08 5.0493 1.58 1.2792 3.584 1.9188 6.008 1.9188 1.917 0 3.583-.4718 4.995-1.4153 1.414-.9409 2.476-2.2022 3.182-3.7853l5.605 3.2309c-1.281 2.3906-3.073 4.3176-5.378 5.7811-2.304 1.4649-5.107 2.1966-8.404 2.1966z"/></g></svg>