<svg fill="none" height="400" viewBox="0 0 400 400" width="400" xmlns="http://www.w3.org/2000/svg"><path d="m399.52 186.667c-6.56-99.8403-86.347-179.65367-186.187-186.213667v-.453333h-13.333-13.333v.453333c-99.8403 6.559997-179.65367 86.373367-186.213667 186.213667h-.453333v13.333 13.333h.453333c6.559997 99.84 86.373367 179.627 186.213667 186.187v.48h13.333 13.333v-.48c99.84-6.56 179.627-86.347 186.187-186.187h.48v-13.333-13.333zm-274.32-143.067c-12.88 17.12-23.573 38.5867-31.36 63.067h-39.9467c17.3867-27.1203 42.08-49.067 71.3067-63.067zm-85.2533 89.733h46.88c-3.5734 16.854-5.84 34.747-6.56 53.334h-53.0934c1.4134-18.774 5.84-36.72 12.7734-53.334zm-12.7734 80h53.0934c.72 18.587 2.9866 36.48 6.56 53.334h-46.88c-6.9334-16.614-11.36-34.56-12.7734-53.334zm26.72 80h39.92c7.7867 24.48 18.4797 45.947 31.3867 63.067-29.2267-14-53.92-35.92-71.3067-63.067zm132.7737 78.294c-27.414-7.334-51.014-36.774-65.334-78.294h65.334zm0-104.96h-72.827c-3.76-16.614-6.133-34.56-6.907-53.334h79.734zm0-80h-79.734c.774-18.774 3.147-36.72 6.907-53.334h72.827zm0-80h-65.334c14.32-41.5203 37.92-70.9603 65.334-78.267zm159.44 0h-39.894c-7.813-24.4803-18.48-45.947-31.413-63.067 29.2 14 53.92 35.9467 71.307 63.067zm-132.774-78.267c27.387 7.3067 51.014 36.7467 65.334 78.267h-65.334zm0 104.933h72.8c3.787 16.614 6.107 34.56 6.934 53.334h-79.734zm0 80h79.734c-.774 18.774-3.147 36.72-6.934 53.334h-72.8zm0 158.294v-78.294h65.334c-14.32 41.52-37.947 70.96-65.334 78.294zm61.467-15.227c12.88-17.147 23.6-38.587 31.413-63.067h39.894c-17.387 27.147-42.107 49.067-71.307 63.067zm85.253-89.733h-46.88c3.574-16.854 5.84-34.747 6.56-53.334h53.067c-1.387 18.774-5.813 36.72-12.747 53.334zm-40.32-80c-.72-18.587-2.986-36.48-6.56-53.334h46.88c6.934 16.614 11.36 34.56 12.774 53.334z" fill="#fff"/></svg>